<svg width="265" height="248" viewBox="0 0 265 248" fill="none" xmlns="http://www.w3.org/2000/svg">
<rect x="0.441406" y="0.539062" width="264" height="247" rx="20" fill="#D7B0FF"/>
<rect x="0.441406" y="0.539062" width="264" height="247" rx="20" fill="white" fill-opacity="0.75"/>
<path d="M52.9133 186.262C94.7482 208.115 162.571 208.115 204.401 186.262C246.23 164.408 246.235 128.974 204.401 107.121C162.566 85.2671 94.7432 85.2671 52.9133 107.121C11.0835 128.974 11.0785 164.408 52.9133 186.262Z" fill="#FAFAFA"/>
<path d="M153.324 156.675C143.483 162.351 143.483 171.563 153.324 177.245C163.165 182.927 179.112 182.927 188.953 177.245C198.794 171.563 198.789 162.351 188.953 156.675C179.117 150.998 163.16 150.993 153.324 156.675Z" fill="#EBEBEB"/>
<path d="M49.7148 75.2412L76.0769 67.043L55.7961 81.0928L49.7148 75.2412Z" fill="#BA68C8"/>
<path d="M76.077 67.0434L47.6828 71.7267L41.6016 65.8701L76.077 67.0434Z" fill="#BA68C8"/>
<path d="M47.6836 71.7262V78.7511L49.7157 75.2412L76.0778 67.043L47.6836 71.7262Z" fill="#455A64"/>
<path d="M47.6836 78.7512L51.7428 77.1934L49.7157 75.2412L47.6836 78.7512Z" fill="#BA68C8"/>
<path d="M49.7148 75.2412L51.7419 77.1934L51.0929 77.438L49.7148 75.2412Z" fill="#455A64"/>
<path d="M43.3131 77.6931C43.2292 77.6947 43.1471 77.668 43.0802 77.6173C43.0132 77.5667 42.9652 77.495 42.9439 77.4137C42.9226 77.3325 42.9292 77.2465 42.9626 77.1695C42.9961 77.0925 43.0545 77.029 43.1284 76.9891C43.5777 76.7395 44.0321 76.4898 44.4814 76.2951C44.526 76.271 44.575 76.2562 44.6254 76.2516C44.6759 76.2469 44.7267 76.2526 44.7749 76.2682C44.8231 76.2838 44.8677 76.309 44.9058 76.3423C44.944 76.3757 44.975 76.4164 44.997 76.462C45.019 76.5077 45.0314 76.5573 45.0337 76.6079C45.0359 76.6585 45.0279 76.7091 45.01 76.7565C44.9922 76.8039 44.9649 76.8472 44.9298 76.8837C44.8947 76.9203 44.8526 76.9493 44.806 76.9691C44.3716 77.1788 43.9272 77.4035 43.4928 77.6482C43.4373 77.677 43.3757 77.6924 43.3131 77.6931Z" fill="#E0E0E0"/>
<path d="M38.7056 118.015C38.6291 118.016 38.5542 117.993 38.4909 117.95C37.6789 117.377 36.9096 116.747 36.1892 116.063C36.1436 116.033 36.1049 115.994 36.076 115.948C36.047 115.902 36.0285 115.85 36.0216 115.796C36.0147 115.742 36.0197 115.687 36.0362 115.635C36.0527 115.583 36.0804 115.535 36.1172 115.495C36.154 115.455 36.199 115.424 36.2493 115.403C36.2996 115.382 36.3538 115.372 36.4082 115.374C36.4626 115.377 36.5158 115.391 36.5642 115.415C36.6126 115.44 36.655 115.475 36.6885 115.518C37.3834 116.178 38.126 116.785 38.9103 117.336C38.9749 117.382 39.0232 117.448 39.0481 117.523C39.073 117.599 39.0732 117.68 39.0487 117.756C39.0243 117.831 38.9764 117.897 38.912 117.944C38.8476 117.99 38.7701 118.015 38.6906 118.015H38.7056ZM34.7912 114.38C34.7359 114.381 34.6812 114.369 34.6311 114.346C34.581 114.322 34.5367 114.288 34.5016 114.245C33.8725 113.477 33.3001 112.665 32.7891 111.814C32.7375 111.728 32.7219 111.626 32.7457 111.529C32.7696 111.432 32.831 111.349 32.9164 111.297C33.0018 111.245 33.1043 111.23 33.2012 111.254C33.2981 111.277 33.3815 111.339 33.4332 111.424C33.9255 112.245 34.4761 113.029 35.0808 113.771C35.1432 113.847 35.1729 113.945 35.1636 114.043C35.1542 114.141 35.1065 114.232 35.0309 114.295C34.964 114.352 34.8788 114.382 34.7912 114.38ZM31.9803 109.837C31.9077 109.837 31.8366 109.817 31.7754 109.778C31.7142 109.739 31.6657 109.683 31.6358 109.617C31.2278 108.713 30.8776 107.784 30.5873 106.836C30.566 106.744 30.5804 106.647 30.6277 106.565C30.6749 106.483 30.7515 106.422 30.842 106.394C30.9325 106.366 31.0302 106.373 31.1154 106.415C31.2006 106.456 31.267 106.528 31.3012 106.616C31.5772 107.533 31.9108 108.432 32.2998 109.307C32.3207 109.352 32.3325 109.401 32.3346 109.45C32.3366 109.5 32.3288 109.549 32.3116 109.596C32.2944 109.642 32.2682 109.685 32.2345 109.721C32.2007 109.757 32.1602 109.786 32.1151 109.807C32.0726 109.825 32.0267 109.836 31.9803 109.837ZM30.3576 104.739C30.271 104.738 30.1873 104.707 30.1209 104.652C30.0544 104.596 30.0093 104.519 29.9931 104.434C29.8025 103.464 29.6675 102.484 29.5887 101.499C29.5808 101.399 29.6126 101.301 29.6772 101.225C29.7418 101.149 29.8339 101.102 29.9332 101.094C30.0325 101.086 30.1309 101.118 30.2068 101.183C30.2826 101.247 30.3297 101.339 30.3376 101.439C30.4111 102.396 30.5411 103.348 30.7271 104.29C30.7372 104.338 30.7376 104.388 30.7282 104.436C30.7188 104.484 30.6998 104.53 30.6724 104.571C30.6449 104.612 30.6096 104.647 30.5684 104.674C30.5272 104.701 30.481 104.72 30.4325 104.729L30.3576 104.739ZM29.8833 99.4066C29.8339 99.4066 29.785 99.3967 29.7395 99.3775C29.6941 99.3583 29.6529 99.3302 29.6184 99.2948C29.584 99.2595 29.557 99.2176 29.539 99.1716C29.521 99.1256 29.5125 99.0765 29.5138 99.0271C29.5255 98.0389 29.5922 97.0521 29.7135 96.0714C29.7141 96.0187 29.7258 95.9668 29.7478 95.9189C29.7698 95.8711 29.8016 95.8285 29.8412 95.7938C29.8808 95.7591 29.9273 95.7331 29.9776 95.7176C30.0279 95.7021 30.0809 95.6973 30.1332 95.7037C30.1854 95.7101 30.2358 95.7274 30.2809 95.7545C30.326 95.7816 30.3649 95.818 30.395 95.8611C30.4252 95.9043 30.4459 95.9533 30.4558 96.0051C30.4656 96.0568 30.4645 96.11 30.4525 96.1612C30.337 97.1157 30.2737 98.0757 30.2627 99.0371C30.2621 99.0863 30.2517 99.1348 30.2323 99.18C30.2129 99.2252 30.1848 99.2661 30.1495 99.3004C30.1143 99.3347 30.0726 99.3618 30.027 99.38C29.9813 99.3982 29.9325 99.4072 29.8833 99.4066ZM30.4924 94.0892C30.4643 94.0941 30.4356 94.0941 30.4075 94.0892C30.311 94.0677 30.227 94.0089 30.1737 93.9257C30.1203 93.8424 30.1021 93.7415 30.1229 93.6448C30.3417 92.6777 30.6219 91.7255 30.9617 90.7939C30.9783 90.7453 31.0046 90.7006 31.0392 90.6627C31.0737 90.6247 31.1157 90.5942 31.1626 90.5731C31.2094 90.552 31.26 90.5408 31.3114 90.5402C31.3627 90.5395 31.4137 90.5494 31.461 90.5693C31.5092 90.5864 31.5534 90.6131 31.591 90.6478C31.6286 90.6825 31.6588 90.7244 31.6798 90.771C31.7007 90.8177 31.7121 90.8681 31.7131 90.9192C31.7141 90.9703 31.7048 91.0211 31.6857 91.0685C31.3581 91.9692 31.0879 92.8897 30.8768 93.8246C30.8522 93.9057 30.8007 93.976 30.7309 94.0241C30.6611 94.0722 30.577 94.0951 30.4924 94.0892ZM32.2698 89.0465C32.2123 89.0487 32.1552 89.0349 32.1051 89.0065C32.0604 88.9857 32.0203 88.9561 31.9873 88.9196C31.9542 88.883 31.9288 88.8402 31.9125 88.7937C31.8962 88.7472 31.8894 88.6979 31.8924 88.6487C31.8955 88.5995 31.9084 88.5514 31.9303 88.5072C32.3661 87.6175 32.8563 86.7554 33.3982 85.9259C33.4528 85.8486 33.5346 85.7948 33.6272 85.7753C33.7199 85.7559 33.8164 85.7722 33.8975 85.8211C33.9766 85.8741 34.0323 85.9556 34.0527 86.0487C34.0732 86.1417 34.0569 86.239 34.0073 86.3204C33.4807 87.1215 33.0054 87.9554 32.5844 88.8168C32.5586 88.8806 32.5154 88.9359 32.4598 88.9764C32.4043 89.017 32.3385 89.0413 32.2698 89.0465ZM35.1407 84.5529C35.0572 84.5538 34.976 84.5255 34.911 84.473C34.8721 84.4424 34.8397 84.4043 34.8156 84.3611C34.7914 84.3178 34.7762 84.2702 34.7706 84.2209C34.765 84.1717 34.7693 84.1219 34.7831 84.0743C34.7969 84.0267 34.82 83.9824 34.8511 83.9438C35.4751 83.173 36.1418 82.4379 36.8483 81.742C36.9185 81.6718 37.0136 81.6324 37.1129 81.6324C37.2121 81.6324 37.3073 81.6718 37.3775 81.742C37.4476 81.8122 37.487 81.9073 37.487 82.0066C37.487 82.1058 37.4476 82.201 37.3775 82.2712C36.6971 82.95 36.0537 83.665 35.4503 84.4131C35.4116 84.4559 35.3635 84.4889 35.3097 84.5098C35.256 84.5306 35.1981 84.5385 35.1407 84.5329V84.5529ZM38.8953 80.7184C38.8409 80.7183 38.7871 80.7062 38.7379 80.6829C38.6887 80.6596 38.6453 80.6257 38.6107 80.5836C38.5475 80.5071 38.5168 80.4088 38.5252 80.3098C38.5336 80.2109 38.5804 80.1192 38.6557 80.0544C39.4157 79.4223 40.2073 78.8291 41.0273 78.2769C41.1077 78.2276 41.2039 78.2104 41.2965 78.229C41.3891 78.2475 41.4712 78.3003 41.5265 78.3768C41.5823 78.4597 41.603 78.5613 41.5843 78.6594C41.5656 78.7576 41.509 78.8444 41.4267 78.901C40.6267 79.4382 39.8551 80.0165 39.115 80.6336C39.0523 80.6838 38.9756 80.7135 38.8953 80.7184Z" fill="#E0E0E0"/>
<path d="M42.141 119.967C42.0874 119.968 42.0345 119.956 41.9862 119.932C41.5219 119.723 41.0626 119.498 40.6232 119.258C40.5802 119.236 40.5422 119.205 40.5111 119.168C40.4801 119.13 40.4567 119.087 40.4423 119.041C40.428 118.995 40.4229 118.946 40.4274 118.897C40.4318 118.849 40.4458 118.802 40.4684 118.759C40.515 118.673 40.5933 118.609 40.6866 118.58C40.7799 118.551 40.8807 118.56 40.9677 118.604C41.3971 118.834 41.8415 119.054 42.2908 119.258C42.3679 119.294 42.4304 119.355 42.4682 119.431C42.5061 119.508 42.5168 119.594 42.4988 119.677C42.4808 119.76 42.4351 119.835 42.3692 119.888C42.3032 119.942 42.221 119.972 42.136 119.972L42.141 119.967Z" fill="#E0E0E0"/>
<path d="M212.92 101.849L234.04 88.3281L243.341 91.3138L212.92 101.849Z" fill="#BA68C8"/>
<path d="M212.92 101.849L231.174 86.6305L227.115 81.9473L212.92 101.849Z" fill="#BA68C8"/>
<path d="M231.174 86.6299V90.1598L212.92 101.848L231.174 86.6299Z" fill="#455A64"/>
<path d="M235.293 85.1575C235.202 85.1578 235.115 85.1239 235.048 85.0626C234.975 84.9964 234.93 84.904 234.923 84.8051C234.917 84.7062 234.949 84.6087 235.013 84.5334C235.664 83.8081 236.241 83.0204 236.736 82.1817C236.786 82.0957 236.869 82.0331 236.965 82.0078C237.062 81.9825 237.164 81.9966 237.25 82.0469C237.336 82.0973 237.399 82.1797 237.424 82.2761C237.449 82.3726 237.435 82.4751 237.385 82.5612C236.862 83.4403 236.257 84.2679 235.578 85.0326C235.542 85.0726 235.498 85.1044 235.449 85.126C235.4 85.1475 235.347 85.1582 235.293 85.1575ZM238.149 80.5042C238.104 80.5113 238.059 80.5113 238.014 80.5042C237.967 80.4861 237.924 80.4586 237.887 80.4234C237.851 80.3882 237.822 80.346 237.802 80.2993C237.783 80.2527 237.773 80.2025 237.773 80.1519C237.774 80.1013 237.784 80.0513 237.804 80.0049C238.157 79.0954 238.421 78.1541 238.593 77.1939C238.611 77.0959 238.667 77.009 238.749 76.9524C238.831 76.8958 238.932 76.874 239.03 76.8918C239.128 76.9097 239.215 76.9658 239.272 77.0477C239.328 77.1296 239.35 77.2307 239.332 77.3287C239.148 78.3348 238.869 79.3212 238.498 80.2745C238.47 80.3436 238.422 80.4025 238.359 80.4435C238.297 80.4845 238.224 80.5057 238.149 80.5042ZM239.217 75.1469C239.168 75.1462 239.12 75.1358 239.075 75.1164C239.03 75.0969 238.99 75.0687 238.956 75.0334C238.922 74.9981 238.895 74.9564 238.878 74.9107C238.86 74.865 238.852 74.8163 238.853 74.7674C238.853 74.6376 238.853 74.5078 238.853 74.378C238.851 73.5303 238.784 72.6841 238.653 71.8466C238.639 71.7481 238.664 71.6478 238.723 71.5675C238.781 71.4872 238.869 71.4332 238.968 71.4172C239.066 71.4041 239.166 71.4295 239.246 71.4882C239.326 71.5468 239.38 71.6341 239.397 71.7318C239.532 72.6074 239.6 73.492 239.602 74.378C239.602 74.5128 239.602 74.6476 239.602 74.7824C239.598 74.8813 239.556 74.9747 239.484 75.0428C239.412 75.1109 239.316 75.1482 239.217 75.1469ZM238.463 69.7346C238.383 69.7344 238.305 69.7079 238.241 69.6592C238.177 69.6106 238.131 69.5424 238.109 69.465C237.823 68.5282 237.464 67.6151 237.035 66.7339C237.014 66.6898 237.001 66.6417 236.998 66.5925C236.995 66.5433 237.001 66.494 237.018 66.4475C237.034 66.4009 237.059 66.3582 237.092 66.3216C237.126 66.2851 237.166 66.2555 237.21 66.2347C237.3 66.1917 237.402 66.186 237.496 66.2188C237.59 66.2516 237.666 66.3201 237.71 66.4094C238.156 67.3251 238.528 68.2751 238.823 69.2503C238.837 69.2972 238.843 69.3465 238.838 69.3954C238.833 69.4442 238.819 69.4916 238.796 69.5349C238.772 69.5781 238.741 69.6162 238.702 69.6471C238.664 69.678 238.62 69.701 238.573 69.7147C238.538 69.7285 238.501 69.7353 238.463 69.7346ZM236.147 64.7768C236.084 64.7773 236.022 64.7615 235.966 64.7309C235.911 64.7003 235.865 64.6559 235.832 64.602C235.297 63.7804 234.708 62.9948 234.07 62.2504C234.038 62.2131 234.013 62.1697 233.998 62.1229C233.982 62.0761 233.976 62.0267 233.98 61.9775C233.983 61.9283 233.997 61.8803 234.019 61.8364C234.041 61.7924 234.072 61.7532 234.11 61.7212C234.147 61.6891 234.19 61.6646 234.236 61.6493C234.282 61.6339 234.331 61.6279 234.38 61.6316C234.429 61.6353 234.476 61.6487 234.52 61.6709C234.564 61.6931 234.602 61.7238 234.634 61.7611C235.297 62.5316 235.907 63.3456 236.461 64.1976C236.507 64.2798 236.522 64.3761 236.501 64.4681C236.481 64.5602 236.428 64.6416 236.351 64.6969C236.292 64.7408 236.221 64.7668 236.147 64.7718V64.7768ZM232.652 60.5778C232.556 60.5775 232.465 60.5399 232.397 60.4729C231.678 59.8 230.923 59.1667 230.135 58.5757C230.096 58.5462 230.063 58.5092 230.038 58.4669C230.013 58.4246 229.996 58.3777 229.989 58.3291C229.982 58.2804 229.985 58.2308 229.997 58.1832C230.01 58.1355 230.031 58.0908 230.061 58.0514C230.09 58.0121 230.127 57.979 230.169 57.9539C230.212 57.9288 230.258 57.9124 230.307 57.9054C230.356 57.8985 230.405 57.9012 230.453 57.9134C230.501 57.9256 230.545 57.947 230.585 57.9765C231.396 58.5831 232.173 59.2349 232.911 59.9287C232.967 59.9802 233.006 60.0473 233.022 60.1211C233.039 60.195 233.033 60.2722 233.005 60.3424C232.976 60.4127 232.928 60.4729 232.865 60.5149C232.802 60.5569 232.727 60.5788 232.652 60.5778ZM228.273 57.2526C228.202 57.2519 228.133 57.2311 228.073 57.1927C227.734 56.983 227.379 56.7733 227.02 56.5686C226.521 56.289 226.021 56.0094 225.492 55.7447C225.444 55.7254 225.4 55.6961 225.364 55.6589C225.327 55.6217 225.299 55.5773 225.281 55.5285C225.263 55.4798 225.255 55.4278 225.258 55.3758C225.261 55.3238 225.274 55.2731 225.298 55.2267C225.322 55.1804 225.355 55.1395 225.395 55.1066C225.436 55.0738 225.482 55.0497 225.533 55.036C225.583 55.0223 225.635 55.0191 225.687 55.0268C225.738 55.0345 225.788 55.0529 225.832 55.0807C226.356 55.3503 226.88 55.6299 227.389 55.9195C227.759 56.1242 228.118 56.3389 228.468 56.5586C228.548 56.6101 228.606 56.6905 228.63 56.7834C228.653 56.8762 228.64 56.9745 228.593 57.0579C228.56 57.1148 228.514 57.1626 228.458 57.1967C228.402 57.2308 228.339 57.25 228.273 57.2526ZM183.512 56.9979C183.447 56.9972 183.382 56.9794 183.325 56.9461C183.268 56.9128 183.221 56.8653 183.188 56.8082C183.141 56.7239 183.128 56.6244 183.153 56.5311C183.179 56.4377 183.239 56.358 183.323 56.3089C184.191 55.8097 185.085 55.3104 185.989 54.891C186.078 54.8477 186.18 54.8413 186.273 54.8731C186.367 54.9049 186.444 54.9723 186.488 55.0607C186.53 55.1503 186.535 55.2526 186.502 55.3458C186.47 55.4391 186.402 55.5159 186.313 55.56C185.425 55.9944 184.546 56.4587 183.692 56.953C183.636 56.9802 183.574 56.9923 183.512 56.988V56.9979ZM223.405 54.7162C223.353 54.7166 223.302 54.7046 223.255 54.6813C222.357 54.2868 221.428 53.9174 220.499 53.5879C220.405 53.5541 220.328 53.4844 220.286 53.394C220.243 53.3036 220.238 53.2001 220.272 53.106C220.306 53.012 220.376 52.9353 220.466 52.8927C220.556 52.8501 220.66 52.8451 220.754 52.8789C221.698 53.2184 222.641 53.5928 223.56 53.9973C223.64 54.0313 223.706 54.0922 223.746 54.1695C223.786 54.2468 223.798 54.3356 223.779 54.4207C223.761 54.5058 223.714 54.5818 223.645 54.6357C223.577 54.6897 223.492 54.7181 223.405 54.7162ZM188.43 54.5614C188.357 54.5619 188.284 54.5403 188.223 54.4994C188.162 54.4585 188.114 54.4001 188.086 54.3318C188.065 54.286 188.054 54.2366 188.053 54.1864C188.052 54.1363 188.061 54.0864 188.08 54.0399C188.099 53.9933 188.126 53.9509 188.162 53.9153C188.197 53.8797 188.239 53.8515 188.286 53.8325C189.209 53.4431 190.158 53.0836 191.107 52.759C191.154 52.7393 191.205 52.7296 191.257 52.7306C191.309 52.7316 191.359 52.7432 191.406 52.7648C191.453 52.7864 191.495 52.8174 191.529 52.8559C191.564 52.8944 191.59 52.9397 191.606 52.9887C191.624 53.0368 191.632 53.0881 191.63 53.1395C191.628 53.1909 191.616 53.2414 191.594 53.288C191.572 53.3345 191.541 53.3762 191.503 53.4106C191.465 53.4449 191.42 53.4713 191.371 53.488C190.437 53.8075 189.499 54.162 188.595 54.5415C188.542 54.5564 188.485 54.5598 188.43 54.5515V54.5614ZM218.253 52.8339C218.218 52.8388 218.182 52.8388 218.148 52.8339C217.204 52.5593 216.235 52.3347 215.272 52.1C215.224 52.0895 215.178 52.0696 215.137 52.0415C215.097 52.0133 215.062 51.9775 215.036 51.936C215.009 51.8945 214.991 51.8482 214.982 51.7996C214.973 51.7511 214.974 51.7013 214.985 51.6531C214.995 51.6049 215.015 51.5593 215.043 51.5188C215.071 51.4783 215.107 51.4437 215.149 51.417C215.19 51.3904 215.237 51.3722 215.285 51.3634C215.334 51.3547 215.383 51.3556 215.432 51.366C216.43 51.5807 217.399 51.8354 218.357 52.115C218.444 52.1402 218.518 52.1958 218.567 52.2716C218.616 52.3473 218.636 52.4382 218.623 52.5274C218.61 52.6166 218.566 52.6983 218.498 52.7573C218.43 52.8164 218.343 52.8489 218.253 52.8489V52.8339ZM193.613 52.759C193.531 52.7587 193.452 52.7317 193.387 52.6822C193.322 52.6326 193.275 52.5631 193.253 52.4844C193.24 52.4376 193.235 52.3884 193.241 52.3399C193.246 52.2913 193.261 52.2444 193.285 52.2016C193.309 52.1589 193.341 52.1213 193.379 52.091C193.417 52.0607 193.461 52.0383 193.508 52.0251C194.472 51.7555 195.46 51.5258 196.444 51.3061C196.494 51.2902 196.546 51.2849 196.598 51.2906C196.65 51.2963 196.701 51.3128 196.746 51.3391C196.791 51.3654 196.83 51.4008 196.861 51.4432C196.892 51.4856 196.913 51.5339 196.924 51.5851C196.935 51.6363 196.935 51.6892 196.924 51.7403C196.913 51.7915 196.892 51.8399 196.861 51.8823C196.831 51.9247 196.791 51.9602 196.746 51.9865C196.701 52.0128 196.651 52.0294 196.599 52.0351C195.63 52.2398 194.661 52.4794 193.713 52.7441L193.613 52.759ZM212.9 51.6307H212.825C211.852 51.4759 210.858 51.3511 209.88 51.2612C209.828 51.2606 209.777 51.2494 209.73 51.2283C209.683 51.2071 209.641 51.1765 209.606 51.1383C209.572 51.1 209.545 51.0551 209.529 51.0062C209.512 50.9573 209.506 50.9056 209.511 50.8542C209.515 50.8028 209.53 50.7529 209.555 50.7076C209.579 50.6623 209.613 50.6226 209.654 50.591C209.695 50.5594 209.742 50.5365 209.792 50.5238C209.841 50.5111 209.894 50.5089 209.944 50.5173C210.943 50.6071 211.942 50.732 212.94 50.8917C213.038 50.9089 213.124 50.9633 213.182 51.0435C213.24 51.1237 213.264 51.2233 213.25 51.3211C213.232 51.4019 213.188 51.4746 213.125 51.5279C213.062 51.5812 212.983 51.6121 212.9 51.6157V51.6307ZM198.975 51.5957C198.886 51.5957 198.8 51.564 198.733 51.5064C198.665 51.4488 198.62 51.3689 198.606 51.2812C198.591 51.1826 198.616 51.0824 198.675 51.0021C198.734 50.9217 198.822 50.8678 198.92 50.8518C199.919 50.702 200.917 50.5772 201.916 50.4923C201.965 50.488 202.015 50.4935 202.062 50.5084C202.109 50.5233 202.152 50.5473 202.19 50.579C202.228 50.6108 202.259 50.6497 202.282 50.6935C202.305 50.7373 202.319 50.7851 202.323 50.8343C202.327 50.8835 202.322 50.933 202.307 50.9801C202.292 51.0271 202.268 51.0708 202.236 51.1086C202.204 51.1464 202.166 51.1775 202.122 51.2003C202.078 51.2231 202.03 51.237 201.981 51.2412C200.982 51.3261 200.009 51.4409 199.035 51.5957H198.975ZM207.438 51.0964C206.439 51.0615 205.441 51.0565 204.467 51.0964C204.418 51.0991 204.369 51.0919 204.323 51.0751C204.277 51.0583 204.234 51.0323 204.198 50.9987C204.162 50.9651 204.134 50.9246 204.114 50.8796C204.094 50.8347 204.083 50.7861 204.083 50.7369C204.081 50.6876 204.089 50.6384 204.106 50.5921C204.123 50.5459 204.15 50.5036 204.184 50.4677C204.218 50.4319 204.259 50.4032 204.304 50.3834C204.349 50.3636 204.398 50.3531 204.447 50.3525C205.446 50.3176 206.444 50.3225 207.443 50.3525C207.492 50.3538 207.541 50.3648 207.586 50.3848C207.631 50.4048 207.671 50.4335 207.705 50.4692C207.739 50.5049 207.765 50.5469 207.783 50.5929C207.8 50.6388 207.809 50.6878 207.808 50.7369C207.8 50.8306 207.758 50.9182 207.69 50.9828C207.622 51.0473 207.532 51.0843 207.438 51.0864V51.0964Z" fill="#E0E0E0"/>
<path d="M205.556 109.148V108.349H205.362C205.065 107.808 204.615 107.367 204.068 107.081C202.953 106.515 201.72 106.22 200.469 106.22C199.218 106.22 197.984 106.515 196.869 107.081C196.322 107.367 195.872 107.808 195.576 108.349H195.381V109.123C195.381 109.887 195.88 110.656 196.879 111.24C197.995 111.804 199.228 112.097 200.479 112.097C201.729 112.097 202.962 111.804 204.078 111.24C205.067 110.676 205.561 109.907 205.556 109.148Z" fill="#37474F"/>
<path d="M200.469 111.29C203.278 111.29 205.556 109.973 205.556 108.349C205.556 106.725 203.278 105.408 200.469 105.408C197.659 105.408 195.381 106.725 195.381 108.349C195.381 109.973 197.659 111.29 200.469 111.29Z" fill="#455A64"/>
<path d="M199.16 83.8643V108.005C199.171 108.119 199.212 108.229 199.278 108.323C199.345 108.416 199.435 108.491 199.54 108.539C199.827 108.684 200.144 108.76 200.466 108.76C200.788 108.76 201.105 108.684 201.392 108.539C201.498 108.492 201.589 108.418 201.657 108.324C201.724 108.23 201.766 108.12 201.776 108.005V83.8643H199.16Z" fill="#37474F"/>
<path d="M206.335 65.795C205.062 65.0611 203.904 65.0012 203.035 65.4855L186.863 74.832L194.977 91.1036L211.203 81.7171V74.5974C211.203 71.2871 209.021 67.3478 206.335 65.795Z" fill="#455A64"/>
<path d="M194.977 83.9786V91.1034L185.246 85.4815V78.3617C185.246 75.0515 187.423 73.6285 190.109 75.1813C191.832 76.1799 193.344 78.147 194.208 80.3039C194.691 81.4702 194.952 82.7165 194.977 83.9786Z" fill="#37474F"/>
<path d="M194.977 83.9784V91.1032L185.246 85.4813L194.208 80.3037C194.691 81.4699 194.952 82.7163 194.977 83.9784Z" fill="#263238"/>
<path d="M193.354 86.4201C192.46 83.8338 189.554 80.4786 186.863 78.9308C184.172 77.3831 182.724 78.2169 183.618 80.8032L185.24 85.4864L194.976 91.1083C194.976 91.1083 194.252 89.0064 193.354 86.4201Z" fill="#455A64"/>
<path d="M200.049 84.2483L199.505 83.9337C199.388 83.8801 199.259 83.8582 199.131 83.8705C199.003 83.8828 198.88 83.9287 198.776 84.0036C198.475 84.2004 198.225 84.4652 198.045 84.7766C197.866 85.088 197.762 85.4372 197.742 85.7961C197.729 85.9246 197.75 86.0545 197.803 86.1721C197.857 86.2898 197.941 86.3909 198.047 86.4651L198.546 86.7547L198.641 86.5999C198.745 86.5775 198.844 86.5388 198.936 86.4851C199.236 86.2894 199.486 86.0255 199.666 85.715C199.846 85.4044 199.949 85.0559 199.969 84.6977C199.969 84.6083 199.957 84.5194 199.934 84.433L200.049 84.2483Z" fill="#263238"/>
<path d="M199.295 84.3087C198.995 84.5044 198.744 84.7682 198.565 85.0788C198.385 85.3893 198.281 85.7379 198.262 86.0961C198.262 86.7551 198.726 87.0198 199.295 86.6902C199.596 86.4948 199.847 86.231 200.026 85.9204C200.206 85.6098 200.31 85.2611 200.329 84.9028C200.344 84.2437 199.844 83.9791 199.295 84.3087Z" fill="#37474F"/>
<path d="M199.296 85.7812C199.256 85.7812 199.217 85.7734 199.181 85.7584C199.145 85.7433 199.112 85.7212 199.084 85.6934C199.056 85.6656 199.034 85.6326 199.019 85.5962C199.004 85.5599 198.996 85.5209 198.996 85.4816V75.1814C198.996 75.102 199.028 75.0258 199.084 74.9696C199.14 74.9134 199.216 74.8818 199.296 74.8818C199.375 74.8818 199.451 74.9134 199.507 74.9696C199.564 75.0258 199.595 75.102 199.595 75.1814V85.4816C199.595 85.561 199.564 85.6372 199.507 85.6934C199.451 85.7496 199.375 85.7812 199.296 85.7812Z" fill="#263238"/>
<path d="M199.564 75.4512V78.1374L202.445 75.1816L199.564 75.4512Z" fill="#37474F"/>
<path d="M48.1005 164.553C47.8509 164.688 43.2675 165.986 41.5699 163.744C39.8723 161.503 42.6933 158.008 41.1006 156.72C39.5079 155.431 35.0443 156.72 33.9708 154.013C32.8974 151.307 36.0778 150.139 34.2904 147.408C33.162 145.685 30.0065 144.737 30.1513 143.134C30.361 140.792 34.6748 140.138 38.4394 142.67C42.204 145.201 43.9615 143.124 45.1547 142.954C46.348 142.785 48.9243 143.159 48.8444 147.353C48.7645 151.547 48.1005 164.553 48.1005 164.553Z" fill="#BA68C8"/>
<path d="M48.4042 158.607C48.3447 158.607 48.2871 158.586 48.2415 158.548C48.1958 158.509 48.1651 158.456 48.1546 158.398C46.8415 150.409 37.5898 143.953 32.7767 142.565C32.7449 142.557 32.7151 142.542 32.6892 142.522C32.6632 142.501 32.6417 142.476 32.6258 142.447C32.61 142.418 32.6001 142.386 32.5969 142.353C32.5936 142.321 32.5971 142.287 32.607 142.256C32.6255 142.192 32.6685 142.139 32.7266 142.107C32.7846 142.075 32.8529 142.068 32.9165 142.086C37.8344 143.509 47.3008 150.145 48.6489 158.318C48.659 158.383 48.6432 158.449 48.6049 158.502C48.5666 158.555 48.5089 158.591 48.4442 158.602L48.4042 158.607Z" fill="white"/>
<path d="M37.4904 151.921C37.4355 151.922 37.3819 151.904 37.338 151.871C37.2941 151.838 37.2623 151.792 37.2475 151.739C37.2327 151.686 37.2358 151.63 37.2562 151.579C37.2767 151.528 37.3133 151.485 37.3606 151.457C37.5103 151.367 41.0752 149.285 44.5802 150.259C44.6464 150.276 44.703 150.319 44.7377 150.378C44.7723 150.437 44.7821 150.507 44.7649 150.573C44.7477 150.639 44.7049 150.696 44.6459 150.731C44.5869 150.765 44.5166 150.775 44.4504 150.758C41.1451 149.839 37.6501 151.881 37.6152 151.901C37.5763 151.92 37.533 151.927 37.4904 151.921Z" fill="white"/>
<path d="M178.623 122.369C180.59 122.639 183.94 121.5 184.18 118.225C184.419 114.95 185.772 114.061 188.254 113.527C190.735 112.992 191.464 112.129 191.749 110.571C192.033 109.013 190.146 107.151 190.675 104.804C191.205 102.458 192.972 102.463 194.709 99.8113C195.823 98.1038 193.541 95.4975 189.742 96.6159C185.942 97.7343 186.247 100.186 182.447 100.5C178.648 100.815 176.266 103.122 176.191 105.992C176.116 108.863 178.623 122.369 178.623 122.369Z" fill="#BA68C8"/>
<path opacity="0.2" d="M178.623 122.369C180.59 122.639 183.94 121.5 184.18 118.225C184.419 114.95 185.772 114.061 188.254 113.527C190.735 112.992 191.464 112.129 191.749 110.571C192.033 109.013 190.146 107.151 190.675 104.804C191.205 102.458 192.972 102.463 194.709 99.8113C195.823 98.1038 193.541 95.4975 189.742 96.6159C185.942 97.7343 186.247 100.186 182.447 100.5C178.648 100.815 176.266 103.122 176.191 105.992C176.116 108.863 178.623 122.369 178.623 122.369Z" fill="black"/>
<path d="M177.904 116.088H177.874C177.841 116.081 177.811 116.068 177.784 116.05C177.757 116.032 177.733 116.008 177.715 115.981C177.697 115.953 177.685 115.923 177.678 115.891C177.672 115.858 177.672 115.825 177.679 115.793C179.516 106.711 189.537 98.3982 191.978 97.5494C192.045 97.5275 192.117 97.5329 192.179 97.5642C192.241 97.5956 192.289 97.6504 192.31 97.7166C192.332 97.7828 192.327 97.855 192.295 97.9173C192.264 97.9796 192.209 98.0268 192.143 98.0487C189.757 98.8775 179.966 107.036 178.163 115.918C178.145 115.971 178.109 116.016 178.062 116.047C178.015 116.078 177.959 116.092 177.904 116.088Z" fill="white"/>
<path d="M46.0039 112.867C46.0283 112.417 46.1586 111.979 46.3841 111.588C46.6097 111.198 46.9242 110.866 47.302 110.62L113.662 72.3052C114.064 72.1032 114.507 71.998 114.957 71.998C115.407 71.998 115.851 72.1032 116.253 72.3052L117.716 73.154C118.095 73.3991 118.41 73.7306 118.635 74.1212C118.861 74.5117 118.991 74.9503 119.014 75.4008V126.268C118.988 126.718 118.858 127.155 118.632 127.545C118.407 127.936 118.093 128.268 117.716 128.514L51.3562 166.824C50.954 167.029 50.5092 167.135 50.0581 167.135C49.6069 167.135 49.1622 167.029 48.7599 166.824L47.302 165.981C46.9247 165.734 46.6107 165.402 46.3852 165.012C46.1597 164.622 46.0291 164.184 46.0039 163.734V112.867Z" fill="#BA68C8"/>
<path opacity="0.3" d="M46.0039 112.867C46.0283 112.417 46.1586 111.979 46.3841 111.588C46.6097 111.198 46.9242 110.866 47.302 110.62L113.662 72.3052C114.064 72.1032 114.507 71.998 114.957 71.998C115.407 71.998 115.851 72.1032 116.253 72.3052L117.716 73.154C118.095 73.3991 118.41 73.7306 118.635 74.1212C118.861 74.5117 118.991 74.9503 119.014 75.4008V126.268C118.988 126.718 118.858 127.155 118.632 127.545C118.407 127.936 118.093 128.268 117.716 128.514L51.3562 166.824C50.954 167.029 50.5092 167.135 50.0581 167.135C49.6069 167.135 49.1622 167.029 48.7599 166.824L47.302 165.981C46.9247 165.734 46.6107 165.402 46.3852 165.012C46.1597 164.622 46.0291 164.184 46.0039 163.734V112.867Z" fill="black"/>
<path d="M52.0852 114.884L46.3834 111.589C46.1503 111.976 46.0197 112.416 46.0039 112.867V163.734C46.0291 164.184 46.1597 164.622 46.3852 165.012C46.6107 165.402 46.9247 165.734 47.302 165.981L48.7599 166.824C49.1622 167.029 49.6069 167.135 50.0581 167.135C50.5092 167.135 50.954 167.029 51.3562 166.824L52.0852 166.405V114.884Z" fill="#BA68C8"/>
<path opacity="0.5" d="M52.0852 114.884L46.3834 111.589C46.1503 111.976 46.0197 112.416 46.0039 112.867V163.734C46.0291 164.184 46.1597 164.622 46.3852 165.012C46.6107 165.402 46.9247 165.734 47.302 165.981L48.7599 166.824C49.1622 167.029 49.6069 167.135 50.0581 167.135C50.5092 167.135 50.954 167.029 51.3562 166.824L52.0852 166.405V114.884Z" fill="black"/>
<path d="M119.015 75.401V126.268C118.999 126.734 118.859 127.186 118.611 127.581C118.419 127.913 118.161 128.202 117.852 128.43L117.802 128.46L117.717 128.515L51.3577 166.825C51.2307 166.914 51.0832 166.97 50.9287 166.988C50.7742 167.005 50.6178 166.983 50.474 166.924C50.3358 166.837 50.2241 166.714 50.151 166.568C50.0779 166.422 50.0463 166.258 50.0596 166.096V115.209C50.0483 115.027 50.0813 114.844 50.1559 114.678C50.2304 114.511 50.3443 114.365 50.4876 114.253C50.6309 114.14 50.7995 114.063 50.9789 114.03C51.1583 113.996 51.3431 114.007 51.5175 114.06L79.4224 120.696L83.0771 121.565C83.5085 121.645 83.9538 121.607 84.3647 121.453C84.7757 121.299 85.1367 121.035 85.4088 120.691L89.6427 114.794L118.142 75.1164C118.621 74.4473 119.015 74.5722 119.015 75.401Z" fill="#BA68C8"/>
<path opacity="0.2" d="M119.015 75.401V126.268C118.999 126.734 118.859 127.186 118.611 127.581C118.419 127.913 118.161 128.202 117.852 128.43L117.802 128.46L117.717 128.515L51.3577 166.825C51.2307 166.914 51.0832 166.97 50.9287 166.988C50.7742 167.005 50.6178 166.983 50.474 166.924C50.3358 166.837 50.2241 166.714 50.151 166.568C50.0779 166.422 50.0463 166.258 50.0596 166.096V115.209C50.0483 115.027 50.0813 114.844 50.1559 114.678C50.2304 114.511 50.3443 114.365 50.4876 114.253C50.6309 114.14 50.7995 114.063 50.9789 114.03C51.1583 113.996 51.3431 114.007 51.5175 114.06L79.4224 120.696L83.0771 121.565C83.5085 121.645 83.9538 121.607 84.3647 121.453C84.7757 121.299 85.1367 121.035 85.4088 120.691L89.6427 114.794L118.142 75.1164C118.621 74.4473 119.015 74.5722 119.015 75.401Z" fill="black"/>
<path d="M117.715 128.515L117.8 128.46L117.85 128.43C118.159 128.203 118.417 127.914 118.609 127.581C118.854 127.193 118.994 126.747 119.013 126.288L89.6406 114.805L109.312 133.378L117.715 128.515Z" fill="#BA68C8"/>
<path opacity="0.6" d="M117.715 128.515L117.8 128.46L117.85 128.43C118.159 128.203 118.417 127.914 118.609 127.581C118.854 127.193 118.994 126.747 119.013 126.288L89.6406 114.805L109.312 133.378L117.715 128.515Z" fill="black"/>
<path d="M50.0566 166.096C50.0376 166.262 50.0653 166.43 50.1368 166.58C50.2083 166.731 50.3206 166.859 50.4611 166.95C50.6049 167.009 50.7612 167.03 50.9157 167.013C51.0702 166.996 51.2178 166.939 51.3448 166.85L74.2019 153.614L79.4194 120.661L50.0566 165.232V166.096Z" fill="#BA68C8"/>
<path opacity="0.6" d="M50.0566 166.096C50.0376 166.262 50.0653 166.43 50.1368 166.58C50.2083 166.731 50.3206 166.859 50.4611 166.95C50.6049 167.009 50.7612 167.03 50.9157 167.013C51.0702 166.996 51.2178 166.939 51.3448 166.85L74.2019 153.614L79.4194 120.661L50.0566 165.232V166.096Z" fill="black"/>
<path d="M118.61 127.581C118.418 127.913 118.16 128.202 117.851 128.43L117.801 128.46L51.3564 166.825C51.2294 166.914 51.0818 166.97 50.9273 166.988C50.7728 167.005 50.6165 166.983 50.4727 166.924L82.252 116.192C82.8907 115.176 83.8741 114.424 85.0221 114.074C86.17 113.724 87.4058 113.799 88.503 114.285L118.61 127.581Z" fill="#BA68C8"/>
<path opacity="0.2" d="M118.61 127.581C118.418 127.913 118.16 128.202 117.851 128.43L117.801 128.46L51.3564 166.825C51.2294 166.914 51.0818 166.97 50.9273 166.988C50.7728 167.005 50.6165 166.983 50.4727 166.924L82.252 116.192C82.8907 115.176 83.8741 114.424 85.0221 114.074C86.17 113.724 87.4058 113.799 88.503 114.285L118.61 127.581Z" fill="black"/>
<path d="M50.0586 113.711L80.5797 127.192C81.6786 127.677 82.9156 127.75 84.0638 127.397C85.2119 127.044 86.1943 126.289 86.8307 125.27L118.88 73.9785L50.0586 113.711Z" fill="#BA68C8"/>
<path opacity="0.6" d="M50.0586 113.711L80.5797 127.192C81.6786 127.677 82.9156 127.75 84.0638 127.397C85.2119 127.044 86.1943 126.289 86.8307 125.27L118.88 73.9785L50.0586 113.711Z" fill="black"/>
<path d="M50.0586 113.711L80.7944 125.195C81.8566 125.591 83.0221 125.615 84.0992 125.261C85.1763 124.907 86.1009 124.197 86.7209 123.248L118.88 73.9785L50.0586 113.711Z" fill="#BA68C8"/>
<path opacity="0.2" d="M50.0586 113.711L80.7944 125.195C81.8566 125.591 83.0221 125.615 84.0992 125.261C85.1763 124.907 86.1009 124.197 86.7209 123.248L118.88 73.9785L50.0586 113.711Z" fill="black"/>
<path d="M57.3379 119.133C57.3611 118.683 57.4909 118.244 57.7165 117.854C57.9422 117.463 58.2573 117.132 58.636 116.887L124.996 78.5716C125.398 78.3673 125.843 78.2607 126.294 78.2607C126.745 78.2607 127.19 78.3673 127.592 78.5716L129.055 79.4154C129.432 79.6619 129.745 79.9938 129.97 80.3842C130.195 80.7746 130.324 81.2124 130.348 81.6622V132.529C130.323 132.979 130.193 133.416 129.969 133.806C129.744 134.197 129.431 134.529 129.055 134.776L62.6902 173.086C62.2882 173.288 61.8445 173.393 61.3946 173.393C60.9446 173.393 60.5009 173.288 60.0989 173.086L58.636 172.242C58.259 171.995 57.9451 171.663 57.7197 171.273C57.4942 170.883 57.3635 170.445 57.3379 169.995V119.133Z" fill="#455A64"/>
<path d="M57.3379 119.133C57.3611 118.683 57.4909 118.244 57.7165 117.854C57.9422 117.463 58.2573 117.132 58.636 116.887L124.996 78.5716C125.398 78.3673 125.843 78.2607 126.294 78.2607C126.745 78.2607 127.19 78.3673 127.592 78.5716L129.055 79.4154C129.432 79.6619 129.745 79.9938 129.97 80.3842C130.195 80.7746 130.324 81.2124 130.348 81.6622V132.529C130.323 132.979 130.193 133.416 129.969 133.806C129.744 134.197 129.431 134.529 129.055 134.776L62.6902 173.086C62.2882 173.288 61.8445 173.393 61.3946 173.393C60.9446 173.393 60.5009 173.288 60.0989 173.086L58.636 172.242C58.259 171.995 57.9451 171.663 57.7197 171.273C57.4942 170.883 57.3635 170.445 57.3379 169.995V119.133Z" fill="#455A64"/>
<path d="M63.4241 121.16L57.7173 117.87C57.4836 118.257 57.353 118.697 57.3379 119.148V170C57.3635 170.45 57.4942 170.888 57.7197 171.278C57.9451 171.668 58.259 172 58.636 172.247L60.0989 173.091C60.5009 173.293 60.9446 173.398 61.3946 173.398C61.8445 173.398 62.2882 173.293 62.6902 173.091L63.4241 172.666V121.16Z" fill="#263238"/>
<path d="M130.352 81.6624V132.529C130.335 132.995 130.196 133.448 129.948 133.842C129.756 134.175 129.498 134.464 129.189 134.691L129.139 134.721L129.054 134.776L62.6944 173.086C62.5674 173.176 62.4198 173.232 62.2653 173.249C62.1109 173.267 61.9545 173.245 61.8107 173.186C61.6702 173.096 61.5579 172.968 61.4864 172.817C61.4149 172.666 61.3872 172.498 61.4062 172.332V121.47C61.395 121.288 61.428 121.106 61.5025 120.939C61.5771 120.773 61.6909 120.627 61.8342 120.514C61.9776 120.401 62.1462 120.325 62.3255 120.291C62.5049 120.258 62.6897 120.268 62.8641 120.322L90.769 126.957L94.4238 127.826C94.8551 127.907 95.3004 127.868 95.7114 127.714C96.1224 127.56 96.4834 127.297 96.7554 126.952L100.984 121.056L129.483 81.3778C129.943 80.7188 130.352 80.8336 130.352 81.6624Z" fill="#37474F"/>
<path d="M129.055 134.776L129.14 134.721L129.19 134.691C129.499 134.463 129.757 134.174 129.949 133.842C130.191 133.454 130.329 133.011 130.348 132.554L100.98 121.07L120.647 139.634L129.055 134.776Z" fill="#263238"/>
<path d="M61.3967 172.337C61.3776 172.503 61.4054 172.671 61.4769 172.822C61.5484 172.973 61.6607 173.1 61.8011 173.191C61.9449 173.25 62.1013 173.272 62.2558 173.254C62.4103 173.237 62.5579 173.181 62.6849 173.091L85.532 159.9L90.7495 126.947L61.3867 171.483L61.3967 172.337Z" fill="#263238"/>
<path d="M129.943 133.843C129.751 134.175 129.492 134.464 129.184 134.691L129.134 134.721L62.6943 173.086C62.5673 173.176 62.4197 173.232 62.2652 173.249C62.1107 173.267 61.9544 173.245 61.8105 173.186L93.5849 122.459C94.2221 121.441 95.2048 120.687 96.3529 120.335C97.501 119.983 98.7375 120.056 99.8359 120.542L129.943 133.843Z" fill="#37474F"/>
<path d="M61.3965 119.978L91.9176 133.458C93.0159 133.942 94.2518 134.014 95.3988 133.661C96.5458 133.308 97.5274 132.554 98.1636 131.536L130.213 80.2197L61.3965 119.978Z" fill="#263238"/>
<path d="M61.3965 119.978L92.1273 131.461C93.1901 131.859 94.3567 131.883 95.4349 131.529C96.5131 131.175 97.4386 130.464 98.0588 129.514L130.213 80.2197L61.3965 119.978Z" fill="#37474F"/>
<path d="M106.014 159.511V108.644C106.06 107.679 106.362 106.743 106.887 105.933L138.537 61.8611C139.114 61.0559 139.919 60.4408 140.847 60.094C141.775 59.7473 142.785 59.6845 143.749 59.9139L173.512 66.9887C174.471 67.244 175.396 67.6127 176.268 68.0871L177.731 68.9309C178.107 69.1783 178.42 69.5104 178.644 69.9006C178.869 70.2908 178.999 70.7282 179.024 71.1777V122.045C178.998 122.494 178.868 122.931 178.643 123.321C178.419 123.711 178.106 124.043 177.731 124.291L111.366 162.601C110.964 162.804 110.52 162.91 110.07 162.91C109.62 162.91 109.176 162.804 108.775 162.601L107.312 161.757C106.934 161.511 106.62 161.179 106.395 160.789C106.169 160.399 106.039 159.961 106.014 159.511Z" fill="#BA68C8"/>
<path opacity="0.3" d="M106.014 159.511V108.644C106.06 107.679 106.362 106.743 106.887 105.933L138.537 61.8611C139.114 61.0559 139.919 60.4408 140.847 60.094C141.775 59.7473 142.785 59.6845 143.749 59.9139L173.512 66.9887C174.471 67.244 175.396 67.6127 176.268 68.0871L177.731 68.9309C178.107 69.1783 178.42 69.5104 178.644 69.9006C178.869 70.2908 178.999 70.7282 179.024 71.1777V122.045C178.998 122.494 178.868 122.931 178.643 123.321C178.419 123.711 178.106 124.043 177.731 124.291L111.366 162.601C110.964 162.804 110.52 162.91 110.07 162.91C109.62 162.91 109.176 162.804 108.775 162.601L107.312 161.757C106.934 161.511 106.62 161.179 106.395 160.789C106.169 160.399 106.039 159.961 106.014 159.511Z" fill="white"/>
<path d="M112.094 84.0584V148.965C112.094 149.789 112.678 150.128 113.392 149.714L175.697 113.766C176.075 113.52 176.39 113.188 176.616 112.798C176.841 112.408 176.971 111.969 176.995 111.519V46.6123C176.995 45.7835 176.416 45.4489 175.697 45.8633L113.392 81.8117C113.014 82.0576 112.7 82.3893 112.474 82.7797C112.248 83.1701 112.118 83.6082 112.094 84.0584Z" fill="#FAFAFA"/>
<path d="M112.812 150.149C112.651 150.15 112.492 150.109 112.352 150.029C112.181 149.915 112.045 149.757 111.957 149.571C111.869 149.386 111.833 149.18 111.853 148.976V84.0688C111.877 83.5741 112.018 83.0922 112.266 82.6632C112.513 82.2342 112.86 81.8705 113.276 81.6024L175.581 45.6541C175.744 45.5216 175.943 45.4417 176.152 45.4251C176.361 45.4085 176.571 45.4559 176.752 45.561C176.934 45.6661 177.079 45.824 177.168 46.0136C177.258 46.2033 177.288 46.4157 177.254 46.6227V111.529C177.231 112.023 177.089 112.505 176.842 112.933C176.594 113.361 176.248 113.724 175.831 113.991L113.526 149.939C113.31 150.071 113.064 150.144 112.812 150.149ZM176.275 45.9087C176.114 45.9179 175.958 45.9677 175.821 46.0535L113.516 82.0268C113.176 82.2519 112.894 82.5525 112.69 82.9051C112.487 83.2576 112.368 83.6525 112.342 84.0588V148.966C112.312 149.083 112.322 149.206 112.368 149.318C112.415 149.429 112.497 149.522 112.602 149.583C112.706 149.643 112.828 149.668 112.948 149.653C113.068 149.638 113.179 149.584 113.266 149.5L175.571 113.551C175.911 113.327 176.194 113.026 176.397 112.673C176.601 112.321 176.72 111.926 176.745 111.519V46.6127C176.759 46.4956 176.743 46.3768 176.698 46.2676C176.654 46.1584 176.582 46.0624 176.49 45.9886C176.427 45.943 176.353 45.9154 176.275 45.9087Z" fill="#E0E0E0"/>
<path d="M110.751 109.881L106.257 107.285C106.112 107.724 106.031 108.181 106.018 108.643V159.51C106.043 159.96 106.173 160.398 106.399 160.788C106.624 161.178 106.938 161.51 107.316 161.757L108.774 162.601C109.175 162.805 109.619 162.911 110.069 162.911C110.52 162.911 110.964 162.805 111.365 162.601L111.989 162.246L110.751 109.881Z" fill="#BA68C8"/>
<g opacity="0.1">
<path opacity="0.1" d="M110.751 109.881L106.257 107.285C106.112 107.724 106.031 108.181 106.018 108.643V159.51C106.043 159.96 106.173 160.398 106.399 160.788C106.624 161.178 106.938 161.51 107.316 161.757L108.774 162.601C109.175 162.805 109.619 162.911 110.069 162.911C110.52 162.911 110.964 162.805 111.365 162.601L111.989 162.246L110.751 109.881Z" fill="black"/>
</g>
<path d="M179.028 71.1771V122.044C179.011 122.51 178.872 122.963 178.623 123.357C178.432 123.689 178.173 123.978 177.865 124.206L177.815 124.236L177.73 124.291L111.37 162.601C111.243 162.69 111.096 162.746 110.941 162.764C110.787 162.781 110.63 162.76 110.486 162.7C110.346 162.61 110.234 162.482 110.162 162.331C110.091 162.181 110.063 162.013 110.082 161.847V110.985C110.071 110.803 110.104 110.621 110.178 110.454C110.253 110.287 110.367 110.141 110.51 110.029C110.653 109.916 110.822 109.839 111.001 109.806C111.181 109.772 111.366 109.783 111.54 109.836L139.43 116.472L143.085 117.341C143.517 117.422 143.963 117.384 144.375 117.23C144.787 117.076 145.149 116.812 145.421 116.467L149.655 110.57L178.154 70.8925C178.633 70.2334 179.028 70.3483 179.028 71.1771Z" fill="#BA68C8"/>
<path opacity="0.3" d="M179.028 71.1771V122.044C179.011 122.51 178.872 122.963 178.623 123.357C178.432 123.689 178.173 123.978 177.865 124.206L177.815 124.236L177.73 124.291L111.37 162.601C111.243 162.69 111.096 162.746 110.941 162.764C110.787 162.781 110.63 162.76 110.486 162.7C110.346 162.61 110.234 162.482 110.162 162.331C110.091 162.181 110.063 162.013 110.082 161.847V110.985C110.071 110.803 110.104 110.621 110.178 110.454C110.253 110.287 110.367 110.141 110.51 110.029C110.653 109.916 110.822 109.839 111.001 109.806C111.181 109.772 111.366 109.783 111.54 109.836L139.43 116.472L143.085 117.341C143.517 117.422 143.963 117.384 144.375 117.23C144.787 117.076 145.149 116.812 145.421 116.467L149.655 110.57L178.154 70.8925C178.633 70.2334 179.028 70.3483 179.028 71.1771Z" fill="white"/>
<path d="M177.729 124.291L177.814 124.236L177.864 124.206C178.173 123.979 178.431 123.69 178.623 123.358C178.865 122.968 179.003 122.523 179.022 122.065L149.654 110.581L169.321 129.149L177.729 124.291Z" fill="#BA68C8"/>
<path d="M110.072 161.852C110.053 162.018 110.081 162.185 110.153 162.336C110.224 162.487 110.336 162.615 110.477 162.705C110.621 162.764 110.777 162.786 110.932 162.769C111.086 162.751 111.234 162.695 111.361 162.606L134.208 149.415L139.425 116.462L110.062 160.998L110.072 161.852Z" fill="#BA68C8"/>
<path d="M178.623 123.357C178.432 123.69 178.173 123.979 177.864 124.206L177.815 124.236L111.37 162.601C111.243 162.691 111.095 162.747 110.941 162.764C110.787 162.782 110.63 162.76 110.486 162.701L142.261 111.974C142.898 110.957 143.88 110.204 145.027 109.852C146.174 109.5 147.409 109.572 148.507 110.057L178.623 123.357Z" fill="#BA68C8"/>
<path opacity="0.3" d="M178.623 123.357C178.432 123.69 178.173 123.979 177.864 124.206L177.815 124.236L111.37 162.601C111.243 162.691 111.095 162.747 110.941 162.764C110.787 162.782 110.63 162.76 110.486 162.701L142.261 111.974C142.898 110.957 143.88 110.204 145.027 109.852C146.174 109.5 147.409 109.572 148.507 110.057L178.623 123.357Z" fill="white"/>
<path d="M139.53 99.0075C138.948 99.0976 138.352 99.0447 137.794 98.8534C137.237 98.662 136.734 98.3379 136.33 97.909C135.571 97.0653 135.191 95.7621 135.191 94.0096C135.193 92.0323 135.617 90.0781 136.435 88.2779C137.274 86.4255 138.434 84.7354 139.86 83.2851C141.393 81.6952 143.141 80.3273 145.052 79.2209C146.926 78.1425 148.526 77.545 149.85 77.4285C151.183 77.3087 152.187 77.6532 152.876 78.452C153.565 79.2509 153.905 80.4741 153.905 82.1117C153.933 83.7359 153.549 85.3407 152.786 86.7751C152.114 88.074 151.09 89.1573 149.83 89.9006C149.396 90.2095 148.863 90.348 148.333 90.29C148.144 90.2527 147.97 90.1617 147.832 90.0279C147.694 89.8942 147.597 89.7234 147.554 89.5361C147.138 90.3224 146.61 91.044 145.986 91.678C145.355 92.3292 144.635 92.8889 143.849 93.3406C142.491 94.1095 141.407 94.3392 140.609 94.0746C139.81 93.8099 139.43 93.0011 139.43 91.653C139.442 89.9589 139.964 88.3077 140.928 86.9148C141.978 85.3707 143.373 84.0921 145.002 83.1802C145.683 82.7749 146.422 82.4785 147.194 82.3015C147.768 82.146 148.373 82.146 148.947 82.3015V87.5589C148.947 87.9833 149.022 88.2429 149.166 88.3428C149.311 88.4427 149.551 88.3927 149.89 88.198C150.523 87.7866 150.991 87.1665 151.213 86.4455C151.551 85.4717 151.712 84.4453 151.688 83.4149C151.688 82.1034 151.401 81.1498 150.829 80.554C150.523 80.2549 150.15 80.0335 149.741 79.9084C149.331 79.7833 148.898 79.7581 148.477 79.835C147.258 80.0213 146.091 80.4563 145.047 81.1132C142.84 82.3377 140.937 84.0443 139.48 86.106C138.134 88.0408 137.419 90.3445 137.433 92.7015C137.433 94.1361 137.728 95.183 138.317 95.842C138.622 96.1719 139.005 96.4211 139.43 96.5675C139.855 96.7138 140.31 96.7528 140.753 96.6808C141.996 96.5048 143.187 96.0675 144.248 95.3976C144.981 94.974 145.674 94.4861 146.32 93.9397C146.922 93.4431 147.469 92.8841 147.953 92.2721C148.003 92.2077 148.062 92.1506 148.128 92.1024C148.173 92.0774 148.218 92.1024 148.258 92.1623L148.807 93.1609C148.827 93.2005 148.842 93.2424 148.852 93.2857C148.834 93.3969 148.78 93.499 148.697 93.5753C148.094 94.3006 147.425 94.9691 146.7 95.5724C145.936 96.2131 145.119 96.7877 144.258 97.2899C142.824 98.1957 141.211 98.7815 139.53 99.0075ZM146.021 89.621C146.496 89.06 146.773 88.3581 146.81 87.6238V84.5782C146.097 84.6384 145.411 84.8752 144.813 85.2672C143.86 85.803 143.049 86.5577 142.446 87.4691C141.88 88.3051 141.576 89.2906 141.572 90.3C141.572 91.1438 141.782 91.648 142.206 91.7978C142.631 91.9476 143.285 91.7978 144.178 91.2636C144.902 90.845 145.535 90.2866 146.041 89.621H146.021Z" fill="#E0E0E0"/>
<path d="M75.9407 104.01L71.0727 101.189H71.0377C69.3751 100.25 67.0834 100.39 64.547 101.853C59.4494 104.793 55.3203 111.948 55.3203 117.83C55.3203 120.771 56.3488 122.823 58.0114 123.821L62.5399 126.412L63.3588 125.049C64.2874 124.841 65.1795 124.494 66.005 124.021C71.0976 121.075 75.2317 113.92 75.2317 108.044C75.2289 107.25 75.1317 106.458 74.9421 105.687L75.9407 104.01Z" fill="#F28F8F"/>
<path d="M75.9407 104.01L71.0727 101.189H71.0377C69.3751 100.25 67.0834 100.39 64.547 101.853C59.4494 104.793 55.3203 111.948 55.3203 117.83C55.3203 120.771 56.3488 122.823 58.0114 123.821L62.5399 126.412L63.3588 125.049C64.2874 124.841 65.1795 124.494 66.005 124.021C71.0976 121.075 75.2317 113.92 75.2317 108.044C75.2289 107.25 75.1317 106.458 74.9421 105.687L75.9407 104.01Z" fill="#BA68C8"/>
<path opacity="0.4" d="M75.9407 104.01L71.0727 101.189H71.0377C69.3751 100.25 67.0834 100.39 64.547 101.853C59.4494 104.793 55.3203 111.948 55.3203 117.83C55.3203 120.771 56.3488 122.823 58.0114 123.821L62.5399 126.412L63.3588 125.049C64.2874 124.841 65.1795 124.494 66.005 124.021C71.0976 121.075 75.2317 113.92 75.2317 108.044C75.2289 107.25 75.1317 106.458 74.9421 105.687L75.9407 104.01Z" fill="black"/>
<path d="M69.2267 104.533C64.1291 107.479 60 114.634 60 120.511C60 126.387 64.1291 128.779 69.2267 125.838C74.3244 122.897 78.4535 115.742 78.4535 109.861C78.4535 103.979 74.3244 101.593 69.2267 104.533Z" fill="#BA68C8"/>
<path d="M65.6214 121.919C65.5265 121.919 65.4766 121.864 65.4766 121.779C65.4864 121.685 65.5135 121.593 65.5564 121.509L66.0208 120.466C66.0515 120.363 66.1124 120.273 66.1955 120.206C66.2647 120.175 66.3394 120.158 66.4152 120.156C66.8307 120.131 67.2407 120.049 67.6335 119.911C68.1557 119.735 68.6578 119.504 69.1313 119.222C69.868 118.823 70.514 118.276 71.0286 117.615C71.4145 117.115 71.6298 116.504 71.6427 115.872C71.6427 114.769 70.9687 114.609 69.6206 115.373L68.3075 116.167C68.0928 116.287 67.943 116.332 67.8531 116.292C67.7633 116.252 67.7183 116.132 67.7183 115.932V115.518C67.7112 115.341 67.7583 115.167 67.8531 115.018C67.9734 114.856 68.1287 114.723 68.3075 114.629L69.6106 113.875C70.1328 113.591 70.5756 113.181 70.8988 112.682C71.1696 112.263 71.3183 111.777 71.3282 111.279C71.3282 110.21 70.5759 110.11 69.0714 110.979C68.1462 111.506 67.3131 112.181 66.6049 112.976C66.5384 113.051 66.4648 113.12 66.3853 113.181C66.3559 113.195 66.3227 113.199 66.291 113.191C66.2593 113.184 66.2309 113.166 66.2105 113.141L65.7661 112.642C65.7414 112.619 65.7215 112.591 65.7078 112.56C65.694 112.529 65.6867 112.496 65.6863 112.462C65.6964 112.348 65.7458 112.24 65.8261 112.158C66.2684 111.604 66.7707 111.102 67.3239 110.66C67.9681 110.135 68.6544 109.664 69.376 109.252C70.0274 108.846 70.746 108.561 71.4979 108.408C71.7345 108.35 71.9809 108.345 72.2198 108.392C72.4586 108.44 72.6843 108.539 72.8809 108.683C73.0582 108.853 73.1951 109.062 73.2814 109.293C73.3678 109.523 73.4016 109.77 73.3802 110.016C73.3689 110.565 73.2467 111.107 73.0207 111.608C72.7794 112.187 72.4418 112.72 72.0222 113.186C72.2377 113.114 72.468 113.097 72.6915 113.139C72.9151 113.18 73.1245 113.277 73.3003 113.421C73.4542 113.6 73.5709 113.808 73.6437 114.032C73.7166 114.257 73.7441 114.494 73.7247 114.729C73.6865 115.836 73.2985 116.902 72.6163 117.774C71.7789 118.898 70.7095 119.827 69.4808 120.501C67.7233 121.529 66.4368 122.002 65.6214 121.919Z" fill="white"/>
<path d="M152.909 175.517C151.551 173.939 152.759 171.318 154.077 167.918C155.525 164.178 157.762 157.823 157.762 157.823L173.644 154.542C173.644 154.542 190.565 154.218 192.117 157.453C193.376 160.044 182.232 163.944 180.634 164.084L170.853 164.598L169.824 165.097L162.954 173.79L152.909 175.517Z" fill="#BA68C8"/>
<path d="M182.171 160.104C180.938 161.359 179.789 162.693 178.731 164.099C175.87 168.093 171.342 175.347 171.342 175.347C171.342 175.347 172.046 177.644 174.208 177.544C174.208 177.544 189.086 163.649 190.305 162.366C192.147 160.419 193.625 157.208 190.439 156.944C187.254 156.679 183.409 158.766 182.171 160.104Z" fill="#BA68C8"/>
<path d="M178.653 164.179C178.653 164.179 181.309 160.294 184.06 158.687C184.06 158.687 181.324 159.226 177.18 164.268L178.653 164.179Z" fill="#BA68C8"/>
<path opacity="0.1" d="M178.653 164.179C178.653 164.179 181.309 160.294 184.06 158.687C184.06 158.687 181.324 159.226 177.18 164.268L178.653 164.179Z" fill="black"/>
<path d="M180.46 169.091L179.416 169.291L180.385 172.871C180.385 172.871 181.323 172.781 181.648 172.801C182.121 172.689 182.576 172.512 183.001 172.277L182.751 170.09L181.603 168.892L180.46 169.091Z" fill="#FFA8A7"/>
<path d="M188.697 169.935C189.195 170.136 189.646 170.438 190.023 170.821C190.399 171.204 190.692 171.661 190.884 172.162C191.106 172.687 191.288 173.228 191.428 173.78C191.593 174.359 191.513 175.343 190.779 175.502C190.541 175.53 190.299 175.487 190.085 175.378C188.612 174.808 187.174 174.149 185.666 173.67C184.374 173.192 183.021 172.897 181.647 172.796C181.96 172.316 182.116 171.75 182.094 171.177C182.073 170.604 181.875 170.052 181.527 169.596C181.232 169.323 180.858 169.148 180.459 169.097C180.838 168.927 181.193 168.707 181.557 168.503C182.236 168.028 183.067 167.823 183.889 167.928C184.518 168.063 184.997 168.562 185.532 168.927C186.55 169.591 187.534 169.546 188.697 169.935Z" fill="#263238"/>
<path d="M155.05 172.087C156.363 171.683 158.46 171.323 164.681 171.004C170.903 170.684 179.415 169.286 179.415 169.286C180.863 170.679 180.384 172.866 180.384 172.866C180.384 172.866 169.335 176.361 165.735 176.825C160.003 177.564 158.026 177.509 155.44 176.955C152.534 176.331 150.702 173.42 155.05 172.087Z" fill="#BA68C8"/>
<path d="M177.788 142.455L182.462 153.624L179.116 155.681L172.686 144.792L177.788 142.455Z" fill="#F28F8F"/>
<path d="M168.123 131.93C170.679 131.96 173.49 132.888 174.459 134.89L178.453 143.129C178.453 143.129 176.196 146.434 172.612 146.199L168.123 131.93Z" fill="#E0E0E0"/>
<path d="M151.126 149.29C151.156 148.856 151.78 146.734 152.449 144.447L157.302 146.125L155.999 150.234L151.91 154.113C151.024 152.671 150.743 150.938 151.126 149.29Z" fill="#FFA8A7"/>
<path d="M162.896 132.084C159.85 132.818 155.701 133.772 154.498 137.077C153.295 140.383 151.572 146.219 151.572 146.219C152.241 147.377 155.911 148.336 157.184 147.667L157.783 145.67V157.812C160.165 160.404 171.913 159.74 173.666 154.532V137.991C173.666 135.345 172.198 132.164 168.138 131.93L162.896 132.084Z" fill="#FAFAFA"/>
<path d="M157.768 145.68L159.295 140.872L157.768 147.832V145.68Z" fill="#E0E0E0"/>
<path d="M161.737 118.549C161.466 118.514 161.19 118.541 160.931 118.627C160.671 118.714 160.435 118.858 160.239 119.049C159.595 119.708 159.74 120.926 160.239 123.722L162.236 123.946L161.737 118.549Z" fill="#263238"/>
<path d="M173.325 117.74C173.753 117.742 174.176 117.655 174.568 117.486C175.178 117.136 175.337 117.83 175.003 118.429C174.782 118.861 174.454 119.229 174.05 119.499C173.646 119.768 173.18 119.929 172.696 119.967C172.696 119.882 172.127 118.414 172.127 118.414L173.325 117.74Z" fill="#263238"/>
<path d="M162.669 123.976C162.375 124.151 161.951 123.587 161.586 123.202C161.443 123.039 161.261 122.914 161.056 122.841C160.852 122.767 160.632 122.747 160.418 122.782C160.204 122.817 160.002 122.906 159.831 123.041C159.661 123.175 159.528 123.351 159.444 123.552C158.84 124.825 160.213 126.517 161.017 127.077C161.242 127.271 161.524 127.389 161.821 127.414C162.117 127.439 162.414 127.37 162.669 127.216L162.879 132.084C163.235 132.864 163.779 133.544 164.462 134.063C165.145 134.581 165.946 134.922 166.794 135.055C169.649 135.439 169.06 133.083 168.122 131.93V130.147C168.837 130.3 169.572 130.337 170.299 130.257C170.668 130.157 171.557 129.084 172.131 127.88C172.775 126.532 173.848 124.136 172.895 120.077C171.866 115.723 167.188 115.583 164.407 117.345C161.626 119.108 162.669 123.976 162.669 123.976Z" fill="#FFA8A7"/>
<path d="M162.669 124.471C162.519 124.471 161.955 123.537 161.585 123.202C161.086 122.738 161.735 118.549 161.735 118.549C161.735 118.549 161.236 116.956 162.234 115.903C163.233 114.849 165.19 115.024 166.618 114.974C168.368 114.984 170.101 114.635 171.711 113.951C173.738 113.072 173.888 112.952 174.137 113.856C174.387 114.76 174.487 116.782 173.278 118.145L172.619 119.218C172.619 119.218 172.005 119.717 170.123 119.967C168.241 120.217 165.015 119.183 164.631 119.128C164.082 119.053 163.967 119.583 163.672 121.031C163.393 122.304 163.168 124.461 162.669 124.471Z" fill="#263238"/>
<path d="M161.741 118.874L159.953 117.915C160.012 117.796 160.094 117.69 160.194 117.603C160.294 117.517 160.411 117.451 160.537 117.409C160.662 117.368 160.795 117.352 160.928 117.363C161.06 117.373 161.188 117.41 161.306 117.471C161.544 117.605 161.722 117.825 161.803 118.086C161.883 118.347 161.861 118.629 161.741 118.874Z" fill="#263238"/>
<path d="M168.118 130.148C168.118 130.148 165.471 129.613 164.548 129.149C164.004 128.864 163.559 128.422 163.27 127.881C163.41 128.424 163.658 128.933 163.998 129.379C164.673 130.242 168.118 130.877 168.118 130.877V130.148Z" fill="#F28F8F"/>
<path d="M168.203 123.876C168.199 123.98 168.164 124.08 168.104 124.165C168.043 124.249 167.959 124.314 167.862 124.351C167.765 124.388 167.66 124.396 167.558 124.373C167.457 124.35 167.365 124.298 167.293 124.224C167.221 124.149 167.172 124.055 167.153 123.953C167.134 123.85 167.146 123.745 167.187 123.65C167.227 123.554 167.295 123.472 167.382 123.415C167.468 123.358 167.57 123.327 167.673 123.327C167.744 123.328 167.814 123.344 167.879 123.372C167.944 123.4 168.003 123.441 168.052 123.492C168.101 123.543 168.14 123.603 168.165 123.669C168.191 123.735 168.204 123.806 168.203 123.876Z" fill="#263238"/>
<path d="M167.642 121.879L166.504 122.503C166.425 122.347 166.408 122.167 166.457 121.999C166.507 121.832 166.618 121.689 166.768 121.6C166.844 121.559 166.926 121.533 167.012 121.525C167.097 121.517 167.183 121.526 167.265 121.553C167.347 121.579 167.422 121.621 167.487 121.677C167.552 121.734 167.604 121.802 167.642 121.879Z" fill="#263238"/>
<path d="M167.887 127.421L169.1 127.88C169.073 127.961 169.03 128.036 168.974 128.1C168.918 128.164 168.849 128.217 168.773 128.254C168.696 128.291 168.612 128.312 168.527 128.317C168.442 128.321 168.357 128.309 168.276 128.28C168.113 128.215 167.981 128.089 167.908 127.929C167.836 127.769 167.828 127.587 167.887 127.421Z" fill="#F28F8F"/>
<path d="M172.93 122.319L171.896 121.52C171.945 121.451 172.008 121.392 172.08 121.347C172.153 121.303 172.233 121.273 172.317 121.261C172.401 121.248 172.487 121.253 172.569 121.274C172.651 121.296 172.728 121.333 172.795 121.385C172.933 121.494 173.024 121.651 173.049 121.825C173.074 121.999 173.032 122.176 172.93 122.319Z" fill="#263238"/>
<path d="M172.611 123.727C172.607 123.831 172.573 123.931 172.512 124.015C172.452 124.1 172.368 124.164 172.271 124.201C172.174 124.238 172.068 124.246 171.967 124.223C171.865 124.201 171.773 124.149 171.701 124.074C171.629 123.999 171.58 123.905 171.562 123.803C171.543 123.701 171.554 123.596 171.595 123.5C171.635 123.405 171.703 123.323 171.79 123.266C171.876 123.208 171.978 123.178 172.082 123.178C172.152 123.179 172.222 123.194 172.287 123.223C172.352 123.251 172.411 123.292 172.46 123.343C172.509 123.394 172.548 123.454 172.574 123.52C172.6 123.586 172.612 123.656 172.611 123.727Z" fill="#263238"/>
<path d="M170.115 123.662L169.615 126.818L171.363 126.613L170.115 123.662Z" fill="#F28F8F"/>
<path d="M188.329 159.495L177.569 153.284C177.475 153.23 177.368 153.202 177.259 153.202C177.151 153.202 177.044 153.23 176.95 153.284L158.082 164.179L169.146 170.589L188.329 159.495Z" fill="#37474F"/>
<path d="M169.046 169.656L163.244 166.311L180.21 156.515L186.041 159.845L169.046 169.656Z" fill="#263238"/>
<path d="M166.193 160.349L166.303 160.409L169.144 162.051L174.202 159.131L174.307 159.071L171.356 157.368L166.193 160.349Z" fill="#263238"/>
<path d="M166.305 160.409L169.146 162.052L174.203 159.131L171.357 157.488L166.305 160.409Z" fill="#263238"/>
<path d="M158.082 164.179V164.433C158.081 164.614 158.126 164.791 158.213 164.948C158.301 165.106 158.428 165.238 158.581 165.332L168.607 171.119C168.765 171.21 168.944 171.259 169.126 171.259C169.309 171.259 169.488 171.21 169.645 171.119L187.789 160.634C187.943 160.539 188.069 160.407 188.157 160.25C188.244 160.092 188.29 159.915 188.289 159.735V159.48L169.146 170.589L158.082 164.179Z" fill="#263238"/>
<path d="M169.146 170.589V171.278C169.322 171.276 169.495 171.228 169.646 171.138L187.79 160.653C187.943 160.559 188.07 160.427 188.157 160.269C188.244 160.112 188.29 159.935 188.289 159.755V159.5L169.146 170.589Z" fill="#263238"/>
<path d="M169.439 170.724C169.611 170.789 169.795 170.816 169.978 170.801C170.161 170.786 170.339 170.731 170.498 170.639L188.562 160.209C188.719 160.119 188.853 159.995 188.956 159.846C189.059 159.698 189.127 159.528 189.156 159.35L191.153 147.562C191.158 147.494 191.158 147.425 191.153 147.357C191.152 147.029 191.021 146.715 190.789 146.483L172.016 157.323C171.9 157.39 171.801 157.481 171.725 157.591C171.649 157.7 171.598 157.825 171.576 157.957L169.439 170.724Z" fill="#263238"/>
<path d="M169.146 170.59L169.271 170.659C169.326 170.691 169.383 170.719 169.441 170.744L171.578 157.978C171.6 157.846 171.651 157.721 171.727 157.611C171.803 157.502 171.902 157.41 172.017 157.344L190.79 146.504C190.714 146.433 190.63 146.369 190.541 146.314L171.733 157.154C171.617 157.221 171.517 157.312 171.44 157.422C171.363 157.531 171.312 157.656 171.288 157.788L169.146 170.59Z" fill="#455A64"/>
<path d="M179.609 159.835C179.894 158.849 180.546 158.011 181.432 157.493C182.306 156.994 182.905 157.219 182.775 157.993C182.491 158.978 181.838 159.817 180.953 160.334C180.079 160.859 179.48 160.604 179.609 159.835Z" fill="#37474F"/>
<path d="M155.999 150.223C155.999 150.223 159.24 162.706 160.608 163.599C161.976 164.493 164.522 165.147 165.74 165.596C166.959 166.046 167.513 166.66 167.303 166.83C167.093 166.999 165.336 167.184 164.727 167.399C164.118 167.613 164.906 168.597 166.255 169.641C167.603 170.684 168.751 170.589 168.601 171.283C168.451 171.977 165.446 172.671 162.909 171.183C160.373 169.695 159.604 167.688 158.091 165.986C156.578 164.283 153.123 157.208 151.91 154.113C151.91 154.113 152.025 148.361 153.907 148.726C155.79 149.09 155.999 150.223 155.999 150.223Z" fill="#FFA8A7"/>
<path d="M171.416 175.517C171.646 176.071 172.44 177.599 174.207 177.514L178.551 173.45L171.416 175.517Z" fill="#BA68C8"/>
<path opacity="0.1" d="M171.416 175.517C171.646 176.071 172.44 177.599 174.207 177.514L178.551 173.45L171.416 175.517Z" fill="black"/>
<path d="M174.037 177.999C174.039 178.018 174.039 178.036 174.037 178.055C174.039 178.036 174.039 178.018 174.037 177.999Z" fill="#263238"/>
<path d="M172.731 182.667C172.689 181.359 172.905 180.057 173.365 178.832C173.156 178.978 172.915 179.072 172.662 179.105C172.409 179.138 172.152 179.109 171.912 179.022C170.459 178.588 170.095 176.56 170.324 176.121C170.115 176.306 169.895 176.481 169.68 176.66C168.992 177.123 168.502 177.826 168.307 178.632C168.207 179.267 168.502 179.891 168.647 180.52C168.926 181.718 168.647 182.966 168.602 184.194C168.612 184.731 168.732 185.259 168.954 185.747C169.177 186.234 169.497 186.671 169.895 187.03C170.304 187.43 170.745 187.795 171.213 188.124C171.383 188.315 171.609 188.449 171.859 188.507C172.108 188.565 172.37 188.544 172.607 188.447C172.844 188.35 173.045 188.182 173.183 187.966C173.321 187.75 173.388 187.496 173.375 187.24C173.185 185.682 172.821 184.289 172.731 182.667Z" fill="#263238"/>
<path d="M174.377 177.255C174.242 177.51 174.122 177.754 174.018 177.999C174.142 177.759 174.262 177.51 174.377 177.255Z" fill="#37474F"/>
<path d="M170.314 176.121L170.409 176.036L170.314 176.121Z" fill="#37474F"/>
</svg>
