<svg width="105" height="21" viewBox="0 0 105 21" fill="none" xmlns="http://www.w3.org/2000/svg">
<path d="M53.9184 10.4224C53.0585 10.4224 52.4394 10.7016 51.8109 10.9859V17.4239C52.4135 17.4823 52.7564 17.4823 53.3289 17.4823C55.3924 17.4823 55.6746 16.545 55.6746 15.2385V12.1629C55.6746 11.1978 55.3517 10.4224 53.9184 10.4224ZM40.2176 10.0709C38.786 10.0709 38.4605 10.8497 38.4605 11.8139V12.3551H41.9746V11.8139C41.9742 10.8492 41.6475 10.0709 40.2176 10.0709ZM13.6771 16.7725C13.6771 17.5345 14.0398 17.931 14.8416 17.931C15.7019 17.931 16.2105 17.6535 16.8386 17.3671V15.8411H14.9578C14.0678 15.8415 13.6771 16.0047 13.6771 16.7725ZM67.2463 10.4224C65.8126 10.4224 65.3159 11.1978 65.3159 12.1621V15.6855C65.3159 16.6535 65.8126 17.4298 67.2463 17.4298C68.6758 17.4298 69.1767 16.6527 69.1767 15.6855V12.1621C69.1763 11.1978 68.6758 10.4224 67.2463 10.4224ZM6.65055 20.7215H2.43718V10.6138H0.330078V7.12985H2.43718V5.03866C2.43718 2.19686 3.62635 0.506836 7.00314 0.506836H9.81629V3.99075H8.05924C6.74378 3.99075 6.65648 4.4777 6.65648 5.386L6.65055 7.12943H9.83663L9.46369 10.6133H6.65055V20.7215ZM21.0549 20.7476H17.5425L17.3916 19.8671C15.7871 20.7476 14.3555 20.8906 13.4113 20.8906C10.8347 20.8906 9.46412 19.1854 9.46412 16.8272C9.46412 14.0455 11.0635 13.0519 13.9258 13.0519H16.839V12.4505C16.839 11.0296 16.6745 10.6133 14.4708 10.6133H10.8669L11.2195 7.12943H15.1582C19.9946 7.12943 21.0549 8.64452 21.0549 12.4787V20.7476ZM32.9991 10.8694C30.8136 10.4977 30.1855 10.4161 29.1345 10.4161C27.2452 10.4161 26.674 10.8295 26.674 12.4186V15.4261C26.674 17.0156 27.2452 17.4302 29.1345 17.4302C30.1855 17.4302 30.8136 17.3482 32.9991 16.9752V20.3721C31.084 20.7985 29.8372 20.9099 28.7836 20.9099C24.2579 20.9099 22.4606 18.5521 22.4606 15.1452V12.7045C22.4606 9.29589 24.2579 6.93305 28.7836 6.93305C29.8372 6.93305 31.0848 7.04616 32.9991 7.47214V10.8694ZM46.188 15.1452H38.4601V15.4261C38.4601 17.0156 39.0314 17.4302 40.9198 17.4302C42.6184 17.4302 43.6541 17.3482 45.8358 16.9752V20.3721C43.7321 20.7985 42.6362 20.9099 40.5706 20.9099C36.0453 20.9099 34.2459 18.5521 34.2459 15.1452V12.3547C34.2459 9.37494 35.5817 6.93305 40.218 6.93305C44.8552 6.93305 46.1884 9.34593 46.1884 12.3547L46.188 15.1452ZM59.8884 15.2091C59.8884 18.5017 58.9391 20.9032 53.187 20.9032C51.1112 20.9032 49.8911 20.7215 47.598 20.3717V1.55264L51.8109 0.856698V7.43892C52.7208 7.10335 53.9002 6.93347 54.9728 6.93347C59.187 6.93347 59.8888 8.80599 59.8888 11.813L59.8884 15.2091ZM73.3947 15.281C73.3947 18.1211 72.2111 20.8763 67.2603 20.8763C62.3066 20.8763 61.1013 18.1211 61.1013 15.281V12.5388C61.1013 9.69789 62.3066 6.9423 67.2603 6.9423C72.2111 6.9423 73.3947 9.69789 73.3947 12.5388V15.281ZM86.8896 15.281C86.8896 18.1211 85.7051 20.8763 80.756 20.8763C75.8023 20.8763 74.5962 18.1211 74.5962 15.281V12.5388C74.5962 9.69789 75.8023 6.9423 80.756 6.9423C85.7051 6.9423 86.8896 9.69789 86.8896 12.5388V15.281ZM100.742 20.7215H96.1737L92.3116 14.3336V20.7215H88.0983V1.55264L92.3116 0.856698V13.1969L96.1737 7.12985H100.742L96.5246 13.7503L100.742 20.7215ZM80.7416 10.4224C79.3105 10.4224 78.8138 11.1978 78.8138 12.1621V15.6855C78.8138 16.6535 79.3105 17.4298 80.7416 17.4298C82.1711 17.4298 82.6767 16.6527 82.6767 15.6855V12.1621C82.6767 11.1978 82.1711 10.4224 80.7416 10.4224ZM103.147 18.3381C103.857 18.3381 104.422 18.9112 104.422 19.6269C104.422 20.354 103.857 20.9213 103.141 20.9213C102.431 20.9213 101.854 20.3536 101.854 19.6269C101.854 18.9112 102.431 18.3381 103.141 18.3381H103.147ZM103.14 18.5387C102.57 18.5387 102.102 19.0256 102.102 19.6278C102.102 20.2405 102.57 20.7224 103.147 20.7224C103.724 20.7283 104.186 20.2405 104.186 19.6332C104.186 19.0265 103.724 18.5387 103.147 18.5387H103.14ZM102.898 20.3784H102.668V18.9394C102.789 18.9222 102.904 18.9058 103.077 18.9058C103.297 18.9058 103.441 18.9508 103.528 19.0143C103.614 19.0778 103.66 19.1749 103.66 19.3124C103.66 19.5012 103.534 19.616 103.378 19.6623V19.6736C103.505 19.6967 103.592 19.8099 103.62 20.0218C103.654 20.2459 103.689 20.3321 103.713 20.3784H103.47C103.435 20.333 103.4 20.2001 103.372 20.0121C103.337 19.8279 103.246 19.759 103.059 19.759H102.898L102.898 20.3784ZM102.898 19.5815H103.066C103.255 19.5815 103.418 19.5126 103.418 19.3351C103.418 19.2081 103.325 19.0824 103.066 19.0824C102.99 19.0824 102.937 19.0887 102.898 19.0937V19.5815Z" fill="white"/>
</svg>
