<svg width="207" height="130" viewBox="0 0 207 130" fill="none" xmlns="http://www.w3.org/2000/svg">
<path d="M103.32 130.001C160.382 130.001 206.64 110.803 206.64 87.1224C206.64 63.4414 160.382 44.2441 103.32 44.2441C46.2579 44.2441 0 63.4414 0 87.1224C0 110.803 46.2579 130.001 103.32 130.001Z" fill="#EFEFEF"/>
<path d="M127.52 28.1338L82.5195 21.3838L75.5195 63.1338L94.5195 83.1338L122.02 72.6338L127.52 28.1338Z" fill="white"/>
<path d="M76.512 60.185L69.4772 55.122L72.1703 53.0751L77.3844 53.7859L76.512 60.185Z" fill="#D7B0FF"/>
<path d="M76.512 60.185L69.4772 55.122L72.1703 53.0751L77.3844 53.7859L76.512 60.185Z" fill="black" fill-opacity="0.25"/>
<path d="M122.016 66.3888L122.889 59.9897L130.236 60.9914L129.913 63.3614L122.016 66.3888Z" fill="#D7B0FF"/>
<path d="M122.016 66.3888L122.889 59.9897L130.236 60.9914L129.913 63.3614L122.016 66.3888Z" fill="black" fill-opacity="0.25"/>
<path d="M127.559 29.2431L81.3438 22.9424L76.3355 59.6777L97.2136 76.5258L122.551 65.9785L127.559 29.2431Z" stroke="#D7B0FF"/>
<path d="M127.559 29.2431L81.3438 22.9424L76.3355 59.6777L97.2136 76.5258L122.551 65.9785L127.559 29.2431Z" stroke="black" stroke-opacity="0.25"/>
<path d="M96.7727 76.2266L69.4738 55.1235L62.9897 93.8303L65.446 97.0621L122.165 106.002L124.621 103.923L130.146 63.3952L96.7727 76.2266Z" fill="#D7B0FF"/>
<path d="M131.199 62.3718C131.195 62.3667 131.196 62.3623 131.192 62.3572C130.996 61.9242 130.711 61.5385 130.363 61.2082C130.355 61.2025 130.351 61.193 130.343 61.1873C130.323 61.1663 130.298 61.1492 130.274 61.1276C130.176 61.0413 130.074 60.9543 129.961 60.8751C129.43 60.4878 128.786 60.2265 128.082 60.1306L123.772 59.543L127.981 28.6702C128.014 28.4327 127.951 28.1914 127.808 28.0031C127.664 27.8147 127.444 27.6888 127.211 27.6571L81.5002 21.4251C81.2627 21.3927 81.0214 21.4557 80.833 21.5988C80.6447 21.742 80.5188 21.9621 80.487 22.1951L76.278 53.068L71.9681 52.4804C71.3857 52.401 70.8181 52.4468 70.2921 52.5896C70.1785 52.6197 70.0643 52.6543 69.9539 52.694C69.3338 52.9244 68.7901 53.2975 68.3706 53.797C68.37 53.8015 68.3655 53.8009 68.3649 53.8054C67.9816 54.2734 67.711 54.8525 67.6243 55.4887L62.3097 94.4707C62.2413 94.9725 62.2924 95.4677 62.4354 95.9253C62.6566 96.6126 63.0818 97.209 63.6449 97.6646C64.2086 98.1156 64.9096 98.4302 65.6846 98.5359L121.803 106.187C122.838 106.328 123.844 106.082 124.633 105.55C125.029 105.285 125.372 104.944 125.633 104.541C125.897 104.139 126.075 103.675 126.143 103.173L131.458 64.1914C131.553 63.5564 131.448 62.9259 131.199 62.3718ZM123.533 61.3312L127.843 61.9188C128.264 61.9762 128.63 62.1357 128.925 62.3538L123.065 64.7675L123.533 61.3312ZM82.1486 23.3298L126.077 29.3186L121.135 65.5632L97.4334 75.3331L77.2066 59.5788L82.1486 23.3298ZM70.5812 54.3859C70.9225 54.259 71.3122 54.2118 71.7244 54.2679L76.0298 54.8549L75.5608 58.2957L70.5569 54.3963C70.5665 54.393 70.5761 54.3898 70.5812 54.3859ZM124.36 102.93C124.329 103.159 124.251 103.363 124.125 103.551C123.941 103.831 123.652 104.075 123.293 104.231C122.934 104.388 122.505 104.453 122.053 104.391L65.934 96.74C65.3292 96.6575 64.8305 96.3659 64.5032 95.9882C64.3421 95.7974 64.2244 95.5896 64.1578 95.3752C64.0912 95.1608 64.0668 94.9384 64.0973 94.7144L69.4045 55.7862L75.6873 60.6814L96.7347 77.0769C96.9905 77.2761 97.331 77.3225 97.6352 77.1997L122.304 67.0323L129.672 63.9982L124.365 102.931L124.36 102.93Z" fill="#D7B0FF"/>
<path d="M131.199 62.3718C131.195 62.3667 131.196 62.3623 131.192 62.3572C130.996 61.9242 130.711 61.5385 130.363 61.2082C130.355 61.2025 130.351 61.193 130.343 61.1873C130.323 61.1663 130.298 61.1492 130.274 61.1276C130.176 61.0413 130.074 60.9543 129.961 60.8751C129.43 60.4878 128.786 60.2265 128.082 60.1306L123.772 59.543L127.981 28.6702C128.014 28.4327 127.951 28.1914 127.808 28.0031C127.664 27.8147 127.444 27.6888 127.211 27.6571L81.5002 21.4251C81.2627 21.3927 81.0214 21.4557 80.833 21.5988C80.6447 21.742 80.5188 21.9621 80.487 22.1951L76.278 53.068L71.9681 52.4804C71.3857 52.401 70.8181 52.4468 70.2921 52.5896C70.1785 52.6197 70.0643 52.6543 69.9539 52.694C69.3338 52.9244 68.7901 53.2975 68.3706 53.797C68.37 53.8015 68.3655 53.8009 68.3649 53.8054C67.9816 54.2734 67.711 54.8525 67.6243 55.4887L62.3097 94.4707C62.2413 94.9725 62.2924 95.4677 62.4354 95.9253C62.6566 96.6126 63.0818 97.209 63.6449 97.6646C64.2086 98.1156 64.9096 98.4302 65.6846 98.5359L121.803 106.187C122.838 106.328 123.844 106.082 124.633 105.55C125.029 105.285 125.372 104.944 125.633 104.541C125.897 104.139 126.075 103.675 126.143 103.173L131.458 64.1914C131.553 63.5564 131.448 62.9259 131.199 62.3718ZM123.533 61.3312L127.843 61.9188C128.264 61.9762 128.63 62.1357 128.925 62.3538L123.065 64.7675L123.533 61.3312ZM82.1486 23.3298L126.077 29.3186L121.135 65.5632L97.4334 75.3331L77.2066 59.5788L82.1486 23.3298ZM70.5812 54.3859C70.9225 54.259 71.3122 54.2118 71.7244 54.2679L76.0298 54.8549L75.5608 58.2957L70.5569 54.3963C70.5665 54.393 70.5761 54.3898 70.5812 54.3859ZM124.36 102.93C124.329 103.159 124.251 103.363 124.125 103.551C123.941 103.831 123.652 104.075 123.293 104.231C122.934 104.388 122.505 104.453 122.053 104.391L65.934 96.74C65.3292 96.6575 64.8305 96.3659 64.5032 95.9882C64.3421 95.7974 64.2244 95.5896 64.1578 95.3752C64.0912 95.1608 64.0668 94.9384 64.0973 94.7144L69.4045 55.7862L75.6873 60.6814L96.7347 77.0769C96.9905 77.2761 97.331 77.3225 97.6352 77.1997L122.304 67.0323L129.672 63.9982L124.365 102.931L124.36 102.93Z" fill="black" fill-opacity="0.25"/>
<path d="M133.405 25.2786C133.077 25.4837 132.658 25.5433 132.28 25.4253C131.525 25.1893 131.142 24.4159 131.343 23.683C132.518 19.8086 137.591 14.7109 142.633 12.3168C145.811 10.8347 148.657 10.5226 150.87 11.4673C151.576 11.7852 151.922 12.5814 151.603 13.2871C151.284 13.9929 150.488 14.3395 149.782 14.0216C148.334 13.4085 146.18 13.6926 143.798 14.8281C139.531 16.8392 134.94 21.3311 133.965 24.4725C133.883 24.8276 133.66 25.1191 133.405 25.2786Z" fill="#D7B0FF"/>
<path d="M79.0688 18.6115C78.9521 18.6865 78.8459 18.7136 78.7105 18.7594C78.1023 18.9032 77.5028 18.5475 77.3596 17.9398C76.0762 12.6722 72.2148 7.49705 67.5125 4.79704C66.9796 4.48085 66.7802 3.78573 67.0971 3.25277C67.414 2.71981 68.1096 2.51974 68.6425 2.83592C73.9443 5.89164 78.1262 11.4372 79.5611 17.3895C79.6773 17.8911 79.4479 18.3678 79.0688 18.6115Z" fill="#D7B0FF"/>
<path d="M115.906 13.6913C115.225 13.5984 114.655 13.001 114.711 12.2722L115.037 2.56924C115.056 1.79208 115.702 1.18705 116.48 1.20648C117.258 1.22591 117.864 1.87169 117.845 2.64885L117.52 12.3518C117.501 13.1289 116.854 13.734 116.076 13.7145C115.991 13.7029 115.948 13.6971 115.906 13.6913Z" fill="#D7B0FF"/>
<path d="M61.3196 41.882L58.1414 36.6612L62.6012 32.4816L68.1294 38.0229L61.3196 41.882Z" fill="#93E9BE"/>
<path d="M61.6839 42.0341L60.1271 41.6471L57.0939 36.69L59.0033 35.5174L62.0365 40.4745L61.6839 42.0341ZM60.1271 41.6471L62.0365 40.4745L62.0662 40.5135L62.0959 40.5525L62.1256 40.5915L62.1552 40.6305L62.1849 40.6694L62.2146 40.7084L62.2443 40.7474L62.2349 40.8161L62.2255 40.8847L62.2162 40.9533L62.2068 41.0219L62.1975 41.0906L62.1881 41.1592L62.1788 41.2278L62.1694 41.2964L62.1601 41.3651L62.1507 41.4337L62.1413 41.5023L62.132 41.571L62.1226 41.6396L62.118 41.6739L62.0789 41.7035L62.0399 41.7331L62.0009 41.7628L61.9618 41.7924L61.9228 41.822L61.8838 41.8517L61.8447 41.8813L61.8057 41.9109L61.7667 41.9406L61.7276 41.9702L61.6886 41.9998L61.6496 42.0294L61.5715 42.0887L61.5325 42.1183L61.4935 42.148L61.4544 42.1776L61.4154 42.2072L61.3764 42.2368L61.3077 42.2275L61.239 42.2181L61.1703 42.2087L61.1016 42.1994L61.0329 42.19L60.9641 42.1806L60.8954 42.1713L60.8267 42.1619L60.758 42.1525L60.6893 42.1432L60.6206 42.1338L60.5519 42.1244L60.4832 42.1151L60.4489 42.1104L60.4192 42.0714L60.3895 42.0324L60.3598 41.9934L60.3302 41.9544L60.3005 41.9154L60.2708 41.8764L60.2411 41.8374L60.2115 41.7984L60.1818 41.7594L60.1521 41.7204L60.1271 41.6471ZM67.7164 37.0547L67.3294 38.6097L61.6793 42.0684L60.5047 40.1608L66.1596 36.6677L67.7164 37.0547ZM67.3341 38.5754L66.1596 36.6677L66.1986 36.6381L66.2376 36.6085L66.2767 36.5789L66.3157 36.5492L66.3547 36.5196L66.3938 36.49L66.4328 36.4603L66.5015 36.4697L66.5702 36.4791L66.6389 36.4884L66.7076 36.4978L66.7763 36.5072L66.845 36.5165L66.9137 36.5259L66.9824 36.5353L67.0511 36.5446L67.1198 36.554L67.1885 36.5634L67.2572 36.5727L67.326 36.5821L67.3603 36.5868L67.39 36.6258L67.4197 36.6648L67.4493 36.7038L67.479 36.7428L67.5087 36.7818L67.5384 36.8208L67.568 36.8598L67.5977 36.8988L67.6274 36.9378L67.6571 36.9768L67.6867 37.0158L67.7164 37.0547L67.7461 37.0937L67.7757 37.1327L67.8054 37.1717L67.8351 37.2107L67.8648 37.2497L67.8944 37.2887L67.8851 37.3574L67.8757 37.426L67.8664 37.4946L67.857 37.5632L67.8477 37.6319L67.8383 37.7005L67.829 37.7691L67.8196 37.8377L67.8102 37.9064L67.8009 37.975L67.7915 38.0436L67.7822 38.1122L67.7728 38.1809L67.7681 38.2152L67.7291 38.2448L67.6901 38.2744L67.651 38.3041L67.612 38.3337L67.573 38.3633L67.534 38.393L67.4949 38.4226L67.4559 38.4522L67.4169 38.4818L67.3778 38.5115L67.3341 38.5754ZM63.1264 31.7106L64.6832 32.0976L67.7164 37.0547L65.807 38.2274L62.7738 33.2703L63.1264 31.7106ZM64.6879 32.0633L62.7785 33.236L62.7488 33.197L62.7191 33.158L62.6894 33.119L62.6598 33.08L62.6301 33.041L62.6004 33.002L62.5707 32.963L62.5801 32.8944L62.5894 32.8258L62.5988 32.7571L62.6082 32.6885L62.6175 32.6199L62.6269 32.5513L62.6362 32.4826L62.6456 32.414L62.6549 32.3454L62.6643 32.2767L62.6736 32.2081L62.683 32.1395L62.6924 32.0709L62.697 32.0366L62.7361 32.0069L62.7751 31.9773L62.8141 31.9477L62.8532 31.918L62.8922 31.8884L62.9312 31.8588L62.9702 31.8292L62.9749 31.7948L63.014 31.7652L63.053 31.7356L63.092 31.7059L63.131 31.6763L63.1701 31.6467L63.2091 31.6171L63.2481 31.5874L63.2872 31.5578L63.3262 31.5282L63.3652 31.4985L63.4339 31.5079L63.5026 31.5173L63.5713 31.5266L63.6401 31.536L63.7088 31.5454L63.7775 31.5547L63.8462 31.5641L63.9149 31.5735L63.9836 31.5828L64.0523 31.5922L64.121 31.6016L64.1897 31.6109L64.224 31.6156L64.2584 31.6203L64.2881 31.6593L64.3177 31.6983L64.3474 31.7373L64.3771 31.7763L64.4068 31.8153L64.4364 31.8543L64.4661 31.8933L64.4958 31.9323L64.5255 31.9713L64.5551 32.0103L64.6879 32.0633ZM57.0939 36.69L57.4809 35.135L63.131 31.6763L64.3056 33.584L58.6554 37.0427L57.0939 36.69ZM57.4809 35.135L58.6554 37.0427L58.6164 37.0723L58.5773 37.102L58.5383 37.1316L58.4993 37.1612L58.4603 37.1908L58.4212 37.2205L58.3822 37.2501L58.3135 37.2407L58.2448 37.2314L58.1761 37.222L58.1074 37.2126L58.0387 37.2033L57.97 37.1939L57.9013 37.1845L57.8326 37.1752L57.7639 37.1658L57.6951 37.1564L57.6264 37.1471L57.5577 37.1377L57.5234 37.133L57.489 37.1283L57.4594 37.0893L57.4297 37.0503L57.4 37.0114L57.3703 36.9724L57.3407 36.9334L57.311 36.8944L57.2813 36.8554L57.2516 36.8164L57.222 36.7774L57.1923 36.7384L57.1626 36.6994L57.1329 36.6604L57.1033 36.6214L57.0736 36.5824L57.0439 36.5434L57.0142 36.5044L56.9846 36.4654L56.9549 36.4264L56.9643 36.3578L56.9736 36.2892L56.983 36.2205L56.9923 36.1519L57.0017 36.0833L57.011 36.0146L57.0204 35.946L57.0297 35.8774L57.0391 35.8088L57.0485 35.7402L57.0578 35.6715L57.0672 35.6029L57.0718 35.5686L57.0765 35.5343L57.1156 35.5046L57.1546 35.475L57.1936 35.4454L57.2326 35.4158L57.2717 35.3861L57.3107 35.3565L57.3497 35.3269L57.3888 35.2972L57.4278 35.2676L57.4668 35.238L57.4809 35.135Z" fill="#D7B0FF"/>
<path d="M61.6839 42.0341L60.1271 41.6471L57.0939 36.69L59.0033 35.5174L62.0365 40.4745L61.6839 42.0341ZM60.1271 41.6471L62.0365 40.4745L62.0662 40.5135L62.0959 40.5525L62.1256 40.5915L62.1552 40.6305L62.1849 40.6694L62.2146 40.7084L62.2443 40.7474L62.2349 40.8161L62.2255 40.8847L62.2162 40.9533L62.2068 41.0219L62.1975 41.0906L62.1881 41.1592L62.1788 41.2278L62.1694 41.2964L62.1601 41.3651L62.1507 41.4337L62.1413 41.5023L62.132 41.571L62.1226 41.6396L62.118 41.6739L62.0789 41.7035L62.0399 41.7331L62.0009 41.7628L61.9618 41.7924L61.9228 41.822L61.8838 41.8517L61.8447 41.8813L61.8057 41.9109L61.7667 41.9406L61.7276 41.9702L61.6886 41.9998L61.6496 42.0294L61.5715 42.0887L61.5325 42.1183L61.4935 42.148L61.4544 42.1776L61.4154 42.2072L61.3764 42.2368L61.3077 42.2275L61.239 42.2181L61.1703 42.2087L61.1016 42.1994L61.0329 42.19L60.9641 42.1806L60.8954 42.1713L60.8267 42.1619L60.758 42.1525L60.6893 42.1432L60.6206 42.1338L60.5519 42.1244L60.4832 42.1151L60.4489 42.1104L60.4192 42.0714L60.3895 42.0324L60.3598 41.9934L60.3302 41.9544L60.3005 41.9154L60.2708 41.8764L60.2411 41.8374L60.2115 41.7984L60.1818 41.7594L60.1521 41.7204L60.1271 41.6471ZM67.7164 37.0547L67.3294 38.6097L61.6793 42.0684L60.5047 40.1608L66.1596 36.6677L67.7164 37.0547ZM67.3341 38.5754L66.1596 36.6677L66.1986 36.6381L66.2376 36.6085L66.2767 36.5789L66.3157 36.5492L66.3547 36.5196L66.3938 36.49L66.4328 36.4603L66.5015 36.4697L66.5702 36.4791L66.6389 36.4884L66.7076 36.4978L66.7763 36.5072L66.845 36.5165L66.9137 36.5259L66.9824 36.5353L67.0511 36.5446L67.1198 36.554L67.1885 36.5634L67.2572 36.5727L67.326 36.5821L67.3603 36.5868L67.39 36.6258L67.4197 36.6648L67.4493 36.7038L67.479 36.7428L67.5087 36.7818L67.5384 36.8208L67.568 36.8598L67.5977 36.8988L67.6274 36.9378L67.6571 36.9768L67.6867 37.0158L67.7164 37.0547L67.7461 37.0937L67.7757 37.1327L67.8054 37.1717L67.8351 37.2107L67.8648 37.2497L67.8944 37.2887L67.8851 37.3574L67.8757 37.426L67.8664 37.4946L67.857 37.5632L67.8477 37.6319L67.8383 37.7005L67.829 37.7691L67.8196 37.8377L67.8102 37.9064L67.8009 37.975L67.7915 38.0436L67.7822 38.1122L67.7728 38.1809L67.7681 38.2152L67.7291 38.2448L67.6901 38.2744L67.651 38.3041L67.612 38.3337L67.573 38.3633L67.534 38.393L67.4949 38.4226L67.4559 38.4522L67.4169 38.4818L67.3778 38.5115L67.3341 38.5754ZM63.1264 31.7106L64.6832 32.0976L67.7164 37.0547L65.807 38.2274L62.7738 33.2703L63.1264 31.7106ZM64.6879 32.0633L62.7785 33.236L62.7488 33.197L62.7191 33.158L62.6894 33.119L62.6598 33.08L62.6301 33.041L62.6004 33.002L62.5707 32.963L62.5801 32.8944L62.5894 32.8258L62.5988 32.7571L62.6082 32.6885L62.6175 32.6199L62.6269 32.5513L62.6362 32.4826L62.6456 32.414L62.6549 32.3454L62.6643 32.2767L62.6736 32.2081L62.683 32.1395L62.6924 32.0709L62.697 32.0366L62.7361 32.0069L62.7751 31.9773L62.8141 31.9477L62.8532 31.918L62.8922 31.8884L62.9312 31.8588L62.9702 31.8292L62.9749 31.7948L63.014 31.7652L63.053 31.7356L63.092 31.7059L63.131 31.6763L63.1701 31.6467L63.2091 31.6171L63.2481 31.5874L63.2872 31.5578L63.3262 31.5282L63.3652 31.4985L63.4339 31.5079L63.5026 31.5173L63.5713 31.5266L63.6401 31.536L63.7088 31.5454L63.7775 31.5547L63.8462 31.5641L63.9149 31.5735L63.9836 31.5828L64.0523 31.5922L64.121 31.6016L64.1897 31.6109L64.224 31.6156L64.2584 31.6203L64.2881 31.6593L64.3177 31.6983L64.3474 31.7373L64.3771 31.7763L64.4068 31.8153L64.4364 31.8543L64.4661 31.8933L64.4958 31.9323L64.5255 31.9713L64.5551 32.0103L64.6879 32.0633ZM57.0939 36.69L57.4809 35.135L63.131 31.6763L64.3056 33.584L58.6554 37.0427L57.0939 36.69ZM57.4809 35.135L58.6554 37.0427L58.6164 37.0723L58.5773 37.102L58.5383 37.1316L58.4993 37.1612L58.4603 37.1908L58.4212 37.2205L58.3822 37.2501L58.3135 37.2407L58.2448 37.2314L58.1761 37.222L58.1074 37.2126L58.0387 37.2033L57.97 37.1939L57.9013 37.1845L57.8326 37.1752L57.7639 37.1658L57.6951 37.1564L57.6264 37.1471L57.5577 37.1377L57.5234 37.133L57.489 37.1283L57.4594 37.0893L57.4297 37.0503L57.4 37.0114L57.3703 36.9724L57.3407 36.9334L57.311 36.8944L57.2813 36.8554L57.2516 36.8164L57.222 36.7774L57.1923 36.7384L57.1626 36.6994L57.1329 36.6604L57.1033 36.6214L57.0736 36.5824L57.0439 36.5434L57.0142 36.5044L56.9846 36.4654L56.9549 36.4264L56.9643 36.3578L56.9736 36.2892L56.983 36.2205L56.9923 36.1519L57.0017 36.0833L57.011 36.0146L57.0204 35.946L57.0297 35.8774L57.0391 35.8088L57.0485 35.7402L57.0578 35.6715L57.0672 35.6029L57.0718 35.5686L57.0765 35.5343L57.1156 35.5046L57.1546 35.475L57.1936 35.4454L57.2326 35.4158L57.2717 35.3861L57.3107 35.3565L57.3497 35.3269L57.3888 35.2972L57.4278 35.2676L57.4668 35.238L57.4809 35.135Z" fill="black" fill-opacity="0.25"/>
<path d="M96.6784 15.4445L93.5003 10.2237L97.96 6.04409L103.488 11.5854L96.6784 15.4445Z" fill="#93E9BE"/>
<path d="M97.0379 15.5976L95.4811 15.2106L92.4479 10.2535L94.3573 9.08083L97.3905 14.0379L97.0379 15.5976ZM95.4811 15.2106L97.3905 14.0379L97.4202 14.0769L97.4499 14.1159L97.4796 14.1549L97.5092 14.1939L97.5389 14.2329L97.5686 14.2719L97.5983 14.3109L97.5889 14.3795L97.5795 14.4482L97.5702 14.5168L97.5608 14.5854L97.5515 14.654L97.5421 14.7227L97.5328 14.7913L97.5234 14.8599L97.5141 14.9285L97.5047 14.9972L97.4953 15.0658L97.486 15.1344L97.4766 15.2031L97.472 15.2374L97.4329 15.267L97.3939 15.2966L97.3549 15.3263L97.3158 15.3559L97.2768 15.3855L97.2378 15.4151L97.1987 15.4448L97.1597 15.4744L97.1207 15.504L97.0817 15.5337L97.0426 15.5633L97.0036 15.5929L96.9255 15.6522L96.8865 15.6818L96.8475 15.7114L96.8084 15.7411L96.7694 15.7707L96.7304 15.8003L96.6617 15.791L96.593 15.7816L96.5243 15.7722L96.4556 15.7629L96.3869 15.7535L96.3182 15.7441L96.2494 15.7348L96.1807 15.7254L96.112 15.716L96.0433 15.7067L95.9746 15.6973L95.9059 15.6879L95.8372 15.6786L95.8029 15.6739L95.7732 15.6349L95.7435 15.5959L95.7138 15.5569L95.6842 15.5179L95.6545 15.4789L95.6248 15.4399L95.5951 15.4009L95.5655 15.3619L95.5358 15.3229L95.5061 15.2839L95.4811 15.2106ZM103.07 10.6182L102.683 12.1732L97.0333 15.6319L95.8587 13.7243L101.514 10.2312L103.07 10.6182ZM102.688 12.1389L101.514 10.2312L101.553 10.2016L101.592 10.172L101.631 10.1423L101.67 10.1127L101.709 10.0831L101.748 10.0534L101.787 10.0238L101.856 10.0332L101.924 10.0426L101.993 10.0519L102.062 10.0613L102.13 10.0707L102.199 10.08L102.268 10.0894L102.336 10.0988L102.405 10.1081L102.474 10.1175L102.543 10.1269L102.611 10.1362L102.68 10.1456L102.714 10.1503L102.744 10.1893L102.774 10.2283L102.803 10.2673L102.833 10.3063L102.863 10.3452L102.892 10.3842L102.922 10.4232L102.952 10.4622L102.981 10.5012L103.011 10.5402L103.041 10.5792L103.07 10.6182L103.1 10.6572L103.13 10.6962L103.159 10.7352L103.189 10.7742L103.219 10.8132L103.248 10.8522L103.239 10.9208L103.23 10.9895L103.22 11.0581L103.211 11.1267L103.202 11.1953L103.192 11.264L103.183 11.3326L103.174 11.4012L103.164 11.4698L103.155 11.5385L103.146 11.6071L103.136 11.6757L103.127 11.7443L103.122 11.7786L103.083 11.8083L103.044 11.8379L103.005 11.8675L102.966 11.8972L102.927 11.9268L102.888 11.9564L102.849 11.9861L102.81 12.0157L102.771 12.0453L102.732 12.0749L102.688 12.1389ZM98.4804 5.27411L100.037 5.66111L103.07 10.6182L101.161 11.7909L98.1278 6.83377L98.4804 5.27411ZM100.042 5.6268L98.1325 6.79946L98.1028 6.76046L98.0731 6.72146L98.0434 6.68247L98.0138 6.64347L97.9841 6.60447L97.9544 6.56548L97.9247 6.52648L97.9341 6.45786L97.9434 6.38923L97.9528 6.3206L97.9622 6.25198L97.9715 6.18335L97.9809 6.11473L97.9902 6.0461L97.9996 5.97747L98.0089 5.90885L98.0183 5.84023L98.0277 5.7716L98.037 5.70298L98.0464 5.63435L98.051 5.60004L98.0901 5.5704L98.1291 5.54078L98.1681 5.51115L98.2072 5.48151L98.2462 5.45189L98.2852 5.42226L98.3243 5.39263L98.3289 5.35832L98.368 5.32868L98.407 5.29906L98.446 5.26943L98.4851 5.2398L98.5241 5.21017L98.5631 5.18054L98.6021 5.15091L98.6412 5.12128L98.6802 5.09165L98.7192 5.06202L98.7879 5.07139L98.8566 5.08075L98.9253 5.09012L98.9941 5.09949L99.0628 5.10885L99.1315 5.11822L99.2002 5.12759L99.2689 5.13696L99.3376 5.14632L99.4063 5.15569L99.475 5.16506L99.5437 5.17442L99.578 5.17911L99.6124 5.18379L99.6421 5.22279L99.6717 5.26178L99.7014 5.30078L99.7311 5.33977L99.7608 5.37877L99.7904 5.41777L99.8201 5.45676L99.8498 5.49576L99.8795 5.53475L99.9091 5.57375L100.042 5.6268ZM92.4479 10.2535L92.8349 8.69851L98.4851 5.2398L99.6596 7.14746L94.0094 10.6062L92.4479 10.2535ZM92.8349 8.69851L94.0094 10.6062L93.9704 10.6358L93.9314 10.6654L93.8923 10.6951L93.8533 10.7247L93.8143 10.7543L93.7752 10.784L93.7362 10.8136L93.6675 10.8042L93.5988 10.7948L93.5301 10.7855L93.4614 10.7761L93.3927 10.7667L93.324 10.7574L93.2553 10.748L93.1866 10.7386L93.1179 10.7293L93.0492 10.7199L92.9804 10.7105L92.9117 10.7012L92.8774 10.6965L92.843 10.6918L92.8134 10.6528L92.7837 10.6138L92.754 10.5748L92.7243 10.5358L92.6947 10.4968L92.665 10.4578L92.6353 10.4188L92.6056 10.3798L92.576 10.3408L92.5463 10.3018L92.5166 10.2629L92.4869 10.2239L92.4573 10.1849L92.4276 10.1459L92.3979 10.1069L92.3682 10.0679L92.3386 10.0289L92.3089 9.98988L92.3183 9.92125L92.3276 9.85263L92.337 9.784L92.3463 9.71538L92.3557 9.64676L92.365 9.57813L92.3744 9.5095L92.3837 9.44088L92.3931 9.37225L92.4025 9.30363L92.4118 9.235L92.4212 9.16637L92.4259 9.13206L92.4305 9.09775L92.4696 9.06812L92.5086 9.03849L92.5476 9.00886L92.5866 8.97923L92.6257 8.9496L92.6647 8.91997L92.7037 8.89034L92.7428 8.86071L92.7818 8.83108L92.8208 8.80145L92.8349 8.69851Z" fill="#D7B0FF"/>
<path d="M97.0379 15.5976L95.4811 15.2106L92.4479 10.2535L94.3573 9.08083L97.3905 14.0379L97.0379 15.5976ZM95.4811 15.2106L97.3905 14.0379L97.4202 14.0769L97.4499 14.1159L97.4796 14.1549L97.5092 14.1939L97.5389 14.2329L97.5686 14.2719L97.5983 14.3109L97.5889 14.3795L97.5795 14.4482L97.5702 14.5168L97.5608 14.5854L97.5515 14.654L97.5421 14.7227L97.5328 14.7913L97.5234 14.8599L97.5141 14.9285L97.5047 14.9972L97.4953 15.0658L97.486 15.1344L97.4766 15.2031L97.472 15.2374L97.4329 15.267L97.3939 15.2966L97.3549 15.3263L97.3158 15.3559L97.2768 15.3855L97.2378 15.4151L97.1987 15.4448L97.1597 15.4744L97.1207 15.504L97.0817 15.5337L97.0426 15.5633L97.0036 15.5929L96.9255 15.6522L96.8865 15.6818L96.8475 15.7114L96.8084 15.7411L96.7694 15.7707L96.7304 15.8003L96.6617 15.791L96.593 15.7816L96.5243 15.7722L96.4556 15.7629L96.3869 15.7535L96.3182 15.7441L96.2494 15.7348L96.1807 15.7254L96.112 15.716L96.0433 15.7067L95.9746 15.6973L95.9059 15.6879L95.8372 15.6786L95.8029 15.6739L95.7732 15.6349L95.7435 15.5959L95.7138 15.5569L95.6842 15.5179L95.6545 15.4789L95.6248 15.4399L95.5951 15.4009L95.5655 15.3619L95.5358 15.3229L95.5061 15.2839L95.4811 15.2106ZM103.07 10.6182L102.683 12.1732L97.0333 15.6319L95.8587 13.7243L101.514 10.2312L103.07 10.6182ZM102.688 12.1389L101.514 10.2312L101.553 10.2016L101.592 10.172L101.631 10.1423L101.67 10.1127L101.709 10.0831L101.748 10.0534L101.787 10.0238L101.856 10.0332L101.924 10.0426L101.993 10.0519L102.062 10.0613L102.13 10.0707L102.199 10.08L102.268 10.0894L102.336 10.0988L102.405 10.1081L102.474 10.1175L102.543 10.1269L102.611 10.1362L102.68 10.1456L102.714 10.1503L102.744 10.1893L102.774 10.2283L102.803 10.2673L102.833 10.3063L102.863 10.3452L102.892 10.3842L102.922 10.4232L102.952 10.4622L102.981 10.5012L103.011 10.5402L103.041 10.5792L103.07 10.6182L103.1 10.6572L103.13 10.6962L103.159 10.7352L103.189 10.7742L103.219 10.8132L103.248 10.8522L103.239 10.9208L103.23 10.9895L103.22 11.0581L103.211 11.1267L103.202 11.1953L103.192 11.264L103.183 11.3326L103.174 11.4012L103.164 11.4698L103.155 11.5385L103.146 11.6071L103.136 11.6757L103.127 11.7443L103.122 11.7786L103.083 11.8083L103.044 11.8379L103.005 11.8675L102.966 11.8972L102.927 11.9268L102.888 11.9564L102.849 11.9861L102.81 12.0157L102.771 12.0453L102.732 12.0749L102.688 12.1389ZM98.4804 5.27411L100.037 5.66111L103.07 10.6182L101.161 11.7909L98.1278 6.83377L98.4804 5.27411ZM100.042 5.6268L98.1325 6.79946L98.1028 6.76046L98.0731 6.72146L98.0434 6.68247L98.0138 6.64347L97.9841 6.60447L97.9544 6.56548L97.9247 6.52648L97.9341 6.45786L97.9434 6.38923L97.9528 6.3206L97.9622 6.25198L97.9715 6.18335L97.9809 6.11473L97.9902 6.0461L97.9996 5.97747L98.0089 5.90885L98.0183 5.84023L98.0277 5.7716L98.037 5.70298L98.0464 5.63435L98.051 5.60004L98.0901 5.5704L98.1291 5.54078L98.1681 5.51115L98.2072 5.48151L98.2462 5.45189L98.2852 5.42226L98.3243 5.39263L98.3289 5.35832L98.368 5.32868L98.407 5.29906L98.446 5.26943L98.4851 5.2398L98.5241 5.21017L98.5631 5.18054L98.6021 5.15091L98.6412 5.12128L98.6802 5.09165L98.7192 5.06202L98.7879 5.07139L98.8566 5.08075L98.9253 5.09012L98.9941 5.09949L99.0628 5.10885L99.1315 5.11822L99.2002 5.12759L99.2689 5.13696L99.3376 5.14632L99.4063 5.15569L99.475 5.16506L99.5437 5.17442L99.578 5.17911L99.6124 5.18379L99.6421 5.22279L99.6717 5.26178L99.7014 5.30078L99.7311 5.33977L99.7608 5.37877L99.7904 5.41777L99.8201 5.45676L99.8498 5.49576L99.8795 5.53475L99.9091 5.57375L100.042 5.6268ZM92.4479 10.2535L92.8349 8.69851L98.4851 5.2398L99.6596 7.14746L94.0094 10.6062L92.4479 10.2535ZM92.8349 8.69851L94.0094 10.6062L93.9704 10.6358L93.9314 10.6654L93.8923 10.6951L93.8533 10.7247L93.8143 10.7543L93.7752 10.784L93.7362 10.8136L93.6675 10.8042L93.5988 10.7948L93.5301 10.7855L93.4614 10.7761L93.3927 10.7667L93.324 10.7574L93.2553 10.748L93.1866 10.7386L93.1179 10.7293L93.0492 10.7199L92.9804 10.7105L92.9117 10.7012L92.8774 10.6965L92.843 10.6918L92.8134 10.6528L92.7837 10.6138L92.754 10.5748L92.7243 10.5358L92.6947 10.4968L92.665 10.4578L92.6353 10.4188L92.6056 10.3798L92.576 10.3408L92.5463 10.3018L92.5166 10.2629L92.4869 10.2239L92.4573 10.1849L92.4276 10.1459L92.3979 10.1069L92.3682 10.0679L92.3386 10.0289L92.3089 9.98988L92.3183 9.92125L92.3276 9.85263L92.337 9.784L92.3463 9.71538L92.3557 9.64676L92.365 9.57813L92.3744 9.5095L92.3837 9.44088L92.3931 9.37225L92.4025 9.30363L92.4118 9.235L92.4212 9.16637L92.4259 9.13206L92.4305 9.09775L92.4696 9.06812L92.5086 9.03849L92.5476 9.00886L92.5866 8.97923L92.6257 8.9496L92.6647 8.91997L92.7037 8.89034L92.7428 8.86071L92.7818 8.83108L92.8208 8.80145L92.8349 8.69851Z" fill="black" fill-opacity="0.25"/>
<path d="M142.428 40.3898L139.25 35.169L143.709 30.9894L149.238 36.5307L142.428 40.3898Z" fill="#93E9BE"/>
<path d="M142.792 40.5429L141.236 40.1559L138.202 35.1988L140.112 34.0261L143.145 38.9833L142.792 40.5429ZM141.236 40.1559L143.145 38.9833L143.175 39.0223L143.204 39.0612L143.234 39.1002L143.264 39.1392L143.293 39.1782L143.323 39.2172L143.353 39.2562L143.343 39.3249L143.334 39.3935L143.325 39.4621L143.315 39.5307L143.306 39.5994L143.297 39.668L143.287 39.7366L143.278 39.8052L143.268 39.8739L143.259 39.9425L143.25 40.0111L143.24 40.0797L143.231 40.1484L143.226 40.1827L143.187 40.2123L143.148 40.2419L143.109 40.2716L143.07 40.3012L143.031 40.3308L142.992 40.3605L142.953 40.3901L142.914 40.4197L142.875 40.4493L142.836 40.479L142.797 40.5086L142.758 40.5382L142.68 40.5975L142.641 40.6271L142.602 40.6567L142.563 40.6864L142.524 40.716L142.485 40.7456L142.416 40.7363L142.347 40.7269L142.279 40.7175L142.21 40.7082L142.141 40.6988L142.073 40.6894L142.004 40.6801L141.935 40.6707L141.866 40.6613L141.798 40.652L141.729 40.6426L141.66 40.6332L141.592 40.6239L141.557 40.6192L141.528 40.5802L141.498 40.5412L141.468 40.5022L141.439 40.4632L141.409 40.4242L141.379 40.3852L141.35 40.3462L141.32 40.3072L141.29 40.2682L141.261 40.2292L141.236 40.1559ZM148.825 35.5635L148.438 37.1185L142.788 40.5772L141.613 38.6696L147.268 35.1765L148.825 35.5635ZM148.443 37.0842L147.268 35.1765L147.307 35.1469L147.346 35.1173L147.385 35.0876L147.424 35.058L147.463 35.0284L147.502 34.9988L147.541 34.9691L147.61 34.9785L147.679 34.9879L147.747 34.9972L147.816 35.0066L147.885 35.016L147.953 35.0253L148.022 35.0347L148.091 35.0441L148.16 35.0534L148.228 35.0628L148.297 35.0722L148.366 35.0815L148.434 35.0909L148.469 35.0956L148.498 35.1346L148.528 35.1736L148.558 35.2126L148.587 35.2516L148.617 35.2906L148.647 35.3296L148.676 35.3686L148.706 35.4076L148.736 35.4465L148.765 35.4855L148.795 35.5245L148.825 35.5635L148.854 35.6025L148.884 35.6415L148.914 35.6805L148.943 35.7195L148.973 35.7585L149.003 35.7975L148.993 35.8661L148.984 35.9348L148.975 36.0034L148.965 36.072L148.956 36.1406L148.947 36.2093L148.937 36.2779L148.928 36.3465L148.919 36.4151L148.909 36.4838L148.9 36.5524L148.891 36.621L148.881 36.6896L148.877 36.724L148.838 36.7536L148.798 36.7832L148.759 36.8129L148.72 36.8425L148.681 36.8721L148.642 36.9017L148.603 36.9314L148.564 36.961L148.525 36.9906L148.486 37.0203L148.443 37.0842ZM144.235 30.2194L145.792 30.6064L148.825 35.5635L146.915 36.7362L143.882 31.7791L144.235 30.2194ZM145.796 30.5721L143.887 31.7448L143.857 31.7058L143.828 31.6668L143.798 31.6278L143.768 31.5888L143.738 31.5498L143.709 31.5108L143.679 31.4718L143.688 31.4032L143.698 31.3345L143.707 31.2659L143.717 31.1973L143.726 31.1287L143.735 31.06L143.745 30.9914L143.754 30.9228L143.763 30.8542L143.773 30.7855L143.782 30.7169L143.791 30.6483L143.801 30.5797L143.805 30.5453L143.844 30.5157L143.883 30.4861L143.923 30.4565L143.962 30.4268L144.001 30.3972L144.04 30.3676L144.079 30.3379L144.083 30.3036L144.122 30.274L144.161 30.2444L144.2 30.2147L144.239 30.1851L144.278 30.1555L144.318 30.1258L144.357 30.0962L144.396 30.0666L144.435 30.037L144.474 30.0073L144.542 30.0167L144.611 30.0261L144.68 30.0354L144.748 30.0448L144.817 30.0542L144.886 30.0635L144.955 30.0729L145.023 30.0823L145.092 30.0916L145.161 30.101L145.229 30.1104L145.298 30.1197L145.332 30.1244L145.367 30.1291L145.396 30.1681L145.426 30.2071L145.456 30.2461L145.485 30.2851L145.515 30.3241L145.545 30.3631L145.575 30.4021L145.604 30.4411L145.634 30.4801L145.664 30.5191L145.796 30.5721ZM138.202 35.1988L138.589 33.6438L144.239 30.1851L145.414 32.0928L139.764 35.5515L138.202 35.1988ZM138.589 33.6438L139.764 35.5515L139.725 35.5811L139.686 35.6107L139.647 35.6404L139.608 35.67L139.569 35.6996L139.53 35.7293L139.491 35.7589L139.422 35.7495L139.353 35.7402L139.284 35.7308L139.216 35.7214L139.147 35.7121L139.078 35.7027L139.01 35.6933L138.941 35.684L138.872 35.6746L138.804 35.6652L138.735 35.6559L138.666 35.6465L138.632 35.6418L138.597 35.6371L138.568 35.5981L138.538 35.5591L138.508 35.5201L138.479 35.4811L138.449 35.4421L138.419 35.4032L138.39 35.3642L138.36 35.3252L138.33 35.2862L138.301 35.2472L138.271 35.2082L138.241 35.1692L138.212 35.1302L138.182 35.0912L138.152 35.0522L138.123 35.0132L138.093 34.9742L138.063 34.9352L138.073 34.8666L138.082 34.7979L138.091 34.7293L138.101 34.6607L138.11 34.5921L138.119 34.5234L138.129 34.4548L138.138 34.3862L138.147 34.3176L138.157 34.2489L138.166 34.1803L138.176 34.1117L138.18 34.0774L138.185 34.0431L138.224 34.0134L138.263 33.9838L138.302 33.9542L138.341 33.9245L138.38 33.8949L138.419 33.8653L138.458 33.8357L138.497 33.806L138.536 33.7764L138.575 33.7468L138.589 33.6438Z" fill="#D7B0FF"/>
<path d="M142.792 40.5429L141.236 40.1559L138.202 35.1988L140.112 34.0261L143.145 38.9833L142.792 40.5429ZM141.236 40.1559L143.145 38.9833L143.175 39.0223L143.204 39.0612L143.234 39.1002L143.264 39.1392L143.293 39.1782L143.323 39.2172L143.353 39.2562L143.343 39.3249L143.334 39.3935L143.325 39.4621L143.315 39.5307L143.306 39.5994L143.297 39.668L143.287 39.7366L143.278 39.8052L143.268 39.8739L143.259 39.9425L143.25 40.0111L143.24 40.0797L143.231 40.1484L143.226 40.1827L143.187 40.2123L143.148 40.2419L143.109 40.2716L143.07 40.3012L143.031 40.3308L142.992 40.3605L142.953 40.3901L142.914 40.4197L142.875 40.4493L142.836 40.479L142.797 40.5086L142.758 40.5382L142.68 40.5975L142.641 40.6271L142.602 40.6567L142.563 40.6864L142.524 40.716L142.485 40.7456L142.416 40.7363L142.347 40.7269L142.279 40.7175L142.21 40.7082L142.141 40.6988L142.073 40.6894L142.004 40.6801L141.935 40.6707L141.866 40.6613L141.798 40.652L141.729 40.6426L141.66 40.6332L141.592 40.6239L141.557 40.6192L141.528 40.5802L141.498 40.5412L141.468 40.5022L141.439 40.4632L141.409 40.4242L141.379 40.3852L141.35 40.3462L141.32 40.3072L141.29 40.2682L141.261 40.2292L141.236 40.1559ZM148.825 35.5635L148.438 37.1185L142.788 40.5772L141.613 38.6696L147.268 35.1765L148.825 35.5635ZM148.443 37.0842L147.268 35.1765L147.307 35.1469L147.346 35.1173L147.385 35.0876L147.424 35.058L147.463 35.0284L147.502 34.9988L147.541 34.9691L147.61 34.9785L147.679 34.9879L147.747 34.9972L147.816 35.0066L147.885 35.016L147.953 35.0253L148.022 35.0347L148.091 35.0441L148.16 35.0534L148.228 35.0628L148.297 35.0722L148.366 35.0815L148.434 35.0909L148.469 35.0956L148.498 35.1346L148.528 35.1736L148.558 35.2126L148.587 35.2516L148.617 35.2906L148.647 35.3296L148.676 35.3686L148.706 35.4076L148.736 35.4465L148.765 35.4855L148.795 35.5245L148.825 35.5635L148.854 35.6025L148.884 35.6415L148.914 35.6805L148.943 35.7195L148.973 35.7585L149.003 35.7975L148.993 35.8661L148.984 35.9348L148.975 36.0034L148.965 36.072L148.956 36.1406L148.947 36.2093L148.937 36.2779L148.928 36.3465L148.919 36.4151L148.909 36.4838L148.9 36.5524L148.891 36.621L148.881 36.6896L148.877 36.724L148.838 36.7536L148.798 36.7832L148.759 36.8129L148.72 36.8425L148.681 36.8721L148.642 36.9017L148.603 36.9314L148.564 36.961L148.525 36.9906L148.486 37.0203L148.443 37.0842ZM144.235 30.2194L145.792 30.6064L148.825 35.5635L146.915 36.7362L143.882 31.7791L144.235 30.2194ZM145.796 30.5721L143.887 31.7448L143.857 31.7058L143.828 31.6668L143.798 31.6278L143.768 31.5888L143.738 31.5498L143.709 31.5108L143.679 31.4718L143.688 31.4032L143.698 31.3345L143.707 31.2659L143.717 31.1973L143.726 31.1287L143.735 31.06L143.745 30.9914L143.754 30.9228L143.763 30.8542L143.773 30.7855L143.782 30.7169L143.791 30.6483L143.801 30.5797L143.805 30.5453L143.844 30.5157L143.883 30.4861L143.923 30.4565L143.962 30.4268L144.001 30.3972L144.04 30.3676L144.079 30.3379L144.083 30.3036L144.122 30.274L144.161 30.2444L144.2 30.2147L144.239 30.1851L144.278 30.1555L144.318 30.1258L144.357 30.0962L144.396 30.0666L144.435 30.037L144.474 30.0073L144.542 30.0167L144.611 30.0261L144.68 30.0354L144.748 30.0448L144.817 30.0542L144.886 30.0635L144.955 30.0729L145.023 30.0823L145.092 30.0916L145.161 30.101L145.229 30.1104L145.298 30.1197L145.332 30.1244L145.367 30.1291L145.396 30.1681L145.426 30.2071L145.456 30.2461L145.485 30.2851L145.515 30.3241L145.545 30.3631L145.575 30.4021L145.604 30.4411L145.634 30.4801L145.664 30.5191L145.796 30.5721ZM138.202 35.1988L138.589 33.6438L144.239 30.1851L145.414 32.0928L139.764 35.5515L138.202 35.1988ZM138.589 33.6438L139.764 35.5515L139.725 35.5811L139.686 35.6107L139.647 35.6404L139.608 35.67L139.569 35.6996L139.53 35.7293L139.491 35.7589L139.422 35.7495L139.353 35.7402L139.284 35.7308L139.216 35.7214L139.147 35.7121L139.078 35.7027L139.01 35.6933L138.941 35.684L138.872 35.6746L138.804 35.6652L138.735 35.6559L138.666 35.6465L138.632 35.6418L138.597 35.6371L138.568 35.5981L138.538 35.5591L138.508 35.5201L138.479 35.4811L138.449 35.4421L138.419 35.4032L138.39 35.3642L138.36 35.3252L138.33 35.2862L138.301 35.2472L138.271 35.2082L138.241 35.1692L138.212 35.1302L138.182 35.0912L138.152 35.0522L138.123 35.0132L138.093 34.9742L138.063 34.9352L138.073 34.8666L138.082 34.7979L138.091 34.7293L138.101 34.6607L138.11 34.5921L138.119 34.5234L138.129 34.4548L138.138 34.3862L138.147 34.3176L138.157 34.2489L138.166 34.1803L138.176 34.1117L138.18 34.0774L138.185 34.0431L138.224 34.0134L138.263 33.9838L138.302 33.9542L138.341 33.9245L138.38 33.8949L138.419 33.8653L138.458 33.8357L138.497 33.806L138.536 33.7764L138.575 33.7468L138.589 33.6438Z" fill="black" fill-opacity="0.25"/>
<g clip-path="url(#clip0)">
<path d="M102.836 37.1154C96.2495 36.3649 90.324 40.9265 89.597 47.3071C88.8699 53.6877 93.6173 59.4654 100.204 60.2159C106.79 60.9664 112.716 56.4048 113.443 50.0242C114.17 43.6436 109.422 37.8659 102.836 37.1154ZM100.458 57.9804C95.1557 57.3761 91.3193 52.7071 91.9046 47.57C92.49 42.433 97.2784 38.7467 102.581 39.3509C107.884 39.9552 111.72 44.6242 111.135 49.7613C110.55 54.8983 105.761 58.5846 100.458 57.9804ZM97.7587 47.4822C98.6096 47.5792 99.373 46.9915 99.4669 46.1672C99.5608 45.3428 98.9492 44.5985 98.0983 44.5015C97.2474 44.4046 96.484 44.9922 96.39 45.8166C96.2961 46.6409 96.9077 47.3853 97.7587 47.4822ZM105.451 48.3587C106.302 48.4557 107.065 47.868 107.159 47.0437C107.253 46.2193 106.641 45.475 105.79 45.378C104.94 45.281 104.176 45.8687 104.082 46.6931C103.988 47.5174 104.6 48.2618 105.451 48.3587ZM105.258 51.7619C104.125 52.8123 102.573 53.3148 101.01 53.1367C99.4479 52.9587 98.0479 52.1245 97.1811 50.8416C96.8266 50.32 96.1027 50.1761 95.5726 50.512C95.0371 50.852 94.8944 51.5482 95.2442 52.0692C96.4954 53.9102 98.5062 55.1112 100.756 55.3676C103.006 55.624 105.236 54.9061 106.869 53.3938C107.332 52.9653 107.345 52.2544 106.899 51.8027C106.458 51.3561 105.721 51.3334 105.258 51.7619Z" fill="black"/>
</g>
<defs>
<clipPath id="clip0">
<rect width="24" height="24" fill="white" transform="translate(90.9551 35.3838) rotate(6.50057)"/>
</clipPath>
</defs>
</svg>
