<svg width="392" height="96" viewBox="0 0 392 96" fill="none" xmlns="http://www.w3.org/2000/svg">
<path d="M327.508 59.3294L320.339 55.5508L322.579 53.3281H327.508V59.3294Z" fill="#D7B0FF"/>
<path d="M327.508 59.3294L320.339 55.5508L322.579 53.3281H327.508V59.3294Z" fill="black" fill-opacity="0.25"/>
<path d="M370.522 59.3294V53.3281H377.467V55.5508L370.522 59.3294Z" fill="#D7B0FF"/>
<path d="M370.522 59.3294V53.3281H377.467V55.5508L370.522 59.3294Z" fill="black" fill-opacity="0.25"/>
<path d="M370.972 24.4326H327.286V58.8847L348.793 71.7764L370.972 58.8847V24.4326Z" stroke="#D7B0FF"/>
<path d="M370.972 24.4326H327.286V58.8847L348.793 71.7764L370.972 58.8847V24.4326Z" stroke="black" stroke-opacity="0.25"/>
<path d="M348.343 71.5543L320.339 55.5508L319.219 92.0033L321.907 94.6705L375.675 95.7819L377.691 93.5592V55.5508L348.343 71.5543Z" fill="#D7B0FF"/>
<path d="M17.4959 94.2153V73.161H29.3596C51.5291 73.161 65.3101 62.6933 65.3101 43.4233C65.3101 24.8669 51.2894 14.2803 28.4009 14.2803H0V94.3343L17.4959 94.2153ZM28.8803 30.3387C40.3844 30.3387 47.3349 34.6209 47.3349 43.4233C47.3349 52.7015 40.3844 57.1026 28.8803 57.1026H17.4959V30.3387H28.8803Z" fill="#262523"/>
<path d="M107.023 95.8807C115.172 95.8807 121.643 92.669 125.837 87.4351V94.3343H142.015V64.7155C142.015 46.9918 128.354 33.6693 109.779 33.6693C91.5643 33.6693 77.6635 47.8245 77.6635 64.7155C77.6635 81.8444 89.7668 95.8807 107.023 95.8807ZM109.779 80.0602C101.031 80.0602 94.68 73.161 94.68 64.8345C94.68 56.5079 101.031 49.6087 109.779 49.6087C118.527 49.6087 124.998 56.5079 124.998 64.8345C124.998 73.161 118.527 80.0602 109.779 80.0602Z" fill="#262523"/>
<path d="M178.068 94.3343V61.147C178.068 54.1289 182.143 49.8466 188.854 49.8466C191.969 49.8466 195.445 50.6793 198.321 52.3446V35.9294C195.325 34.6209 191.13 33.9072 187.296 33.9072C169.68 33.9072 161.052 45.4454 161.052 60.5522V94.3343H178.068Z" fill="#262523"/>
<path d="M244.969 95.9996C249.163 95.9996 254.316 95.048 257.312 93.1448V78.038C254.436 79.8223 250.002 80.8928 246.527 80.8928C240.296 80.8928 236.341 77.0864 236.341 70.5441V49.7277H257.312V35.4536H236.341V20.4657H219.324V35.4536H208.42V49.7277H219.324V71.0199C219.324 85.7698 227.833 95.9996 244.969 95.9996Z" fill="#262523"/>
<path d="M285.229 26.6512C290.981 26.6512 295.655 22.0121 295.655 16.1835C295.655 10.4739 290.981 5.71582 285.229 5.71582C279.477 5.71582 274.684 10.4739 274.684 16.1835C274.684 22.0121 279.477 26.6512 285.229 26.6512ZM276.721 35.4536V94.3343H293.737V35.4536H276.721Z" fill="#262523"/>
<path d="M378.531 54.4789C378.527 54.4747 378.527 54.4705 378.523 54.4663C378.285 54.0924 377.972 53.7731 377.608 53.5126C377.599 53.5084 377.595 53.4999 377.587 53.4957C377.566 53.4789 377.54 53.4663 377.515 53.4495C377.413 53.3823 377.307 53.3151 377.193 53.2562C376.651 52.9663 376.02 52.8067 375.355 52.8067H371.281V23.8527C371.281 23.63 371.192 23.4158 371.035 23.2603C370.879 23.1048 370.658 23.0166 370.438 23.0166H327.229C327.004 23.0166 326.788 23.1048 326.632 23.2603C326.475 23.4158 326.386 23.6343 326.386 23.8527V52.8067H322.312C321.762 52.8067 321.241 52.9201 320.771 53.1176C320.669 53.1596 320.567 53.2058 320.47 53.2562C319.924 53.5462 319.466 53.9579 319.14 54.4705L319.136 54.4789C318.839 54.9579 318.662 55.5252 318.662 56.1218V92.6808C318.662 93.1514 318.772 93.601 318.962 94.0043C319.255 94.6094 319.725 95.1052 320.305 95.4539C320.885 95.7985 321.575 96.0002 322.308 96.0002H375.355C376.333 96.0002 377.235 95.6472 377.9 95.059C378.235 94.7649 378.51 94.4077 378.7 94.0043C378.895 93.601 379.001 93.1514 379.001 92.6808V56.1218C379.01 55.5252 378.832 54.9579 378.531 54.4789ZM371.285 54.4831H375.359C375.757 54.4831 376.117 54.584 376.418 54.7479L371.285 57.7058V54.4831ZM328.072 24.6889H369.595V58.6806L348.836 70.6513L328.072 58.6848V24.6889ZM321.266 54.7352C321.567 54.5756 321.923 54.4831 322.312 54.4831H326.382V57.71L321.245 54.7479C321.253 54.7437 321.262 54.7394 321.266 54.7352ZM377.316 92.6808C377.316 92.8951 377.269 93.0926 377.176 93.2817C377.04 93.5632 376.803 93.8237 376.49 94.0127C376.176 94.2018 375.787 94.3153 375.359 94.3153H322.312C321.74 94.3153 321.241 94.1094 320.889 93.8027C320.716 93.6472 320.58 93.4707 320.491 93.2817C320.402 93.0926 320.351 92.8909 320.351 92.6808V56.1722L326.801 59.8907L348.408 72.3446C348.67 72.4958 348.992 72.4958 349.259 72.3446L370.866 59.8865L377.32 56.168V92.6808H377.316Z" fill="#D7B0FF"/>
<path d="M378.531 54.4789C378.527 54.4747 378.527 54.4705 378.523 54.4663C378.285 54.0924 377.972 53.7731 377.608 53.5126C377.599 53.5084 377.595 53.4999 377.587 53.4957C377.566 53.4789 377.54 53.4663 377.515 53.4495C377.413 53.3823 377.307 53.3151 377.193 53.2562C376.651 52.9663 376.02 52.8067 375.355 52.8067H371.281V23.8527C371.281 23.63 371.192 23.4158 371.035 23.2603C370.879 23.1048 370.658 23.0166 370.438 23.0166H327.229C327.004 23.0166 326.788 23.1048 326.632 23.2603C326.475 23.4158 326.386 23.6343 326.386 23.8527V52.8067H322.312C321.762 52.8067 321.241 52.9201 320.771 53.1176C320.669 53.1596 320.567 53.2058 320.47 53.2562C319.924 53.5462 319.466 53.9579 319.14 54.4705L319.136 54.4789C318.839 54.9579 318.662 55.5252 318.662 56.1218V92.6808C318.662 93.1514 318.772 93.601 318.962 94.0043C319.255 94.6094 319.725 95.1052 320.305 95.4539C320.885 95.7985 321.575 96.0002 322.308 96.0002H375.355C376.333 96.0002 377.235 95.6472 377.9 95.059C378.235 94.7649 378.51 94.4077 378.7 94.0043C378.895 93.601 379.001 93.1514 379.001 92.6808V56.1218C379.01 55.5252 378.832 54.9579 378.531 54.4789ZM371.285 54.4831H375.359C375.757 54.4831 376.117 54.584 376.418 54.7479L371.285 57.7058V54.4831ZM328.072 24.6889H369.595V58.6806L348.836 70.6513L328.072 58.6848V24.6889ZM321.266 54.7352C321.567 54.5756 321.923 54.4831 322.312 54.4831H326.382V57.71L321.245 54.7479C321.253 54.7437 321.262 54.7394 321.266 54.7352ZM377.316 92.6808C377.316 92.8951 377.269 93.0926 377.176 93.2817C377.04 93.5632 376.803 93.8237 376.49 94.0127C376.176 94.2018 375.787 94.3153 375.359 94.3153H322.312C321.74 94.3153 321.241 94.1094 320.889 93.8027C320.716 93.6472 320.58 93.4707 320.491 93.2817C320.402 93.0926 320.351 92.8909 320.351 92.6808V56.1722L326.801 59.8907L348.408 72.3446C348.67 72.4958 348.992 72.4958 349.259 72.3446L370.866 59.8865L377.32 56.168V92.6808H377.316Z" fill="black" fill-opacity="0.25"/>
<path d="M375.898 20.0473C375.62 20.2772 375.238 20.3844 374.872 20.3229C374.141 20.1999 373.687 19.5353 373.78 18.8351C374.378 15.1193 378.439 9.78975 382.815 6.95465C385.577 5.19231 388.179 4.5493 390.354 5.14307C391.049 5.3478 391.472 6.038 391.266 6.72795C391.06 7.41791 390.364 7.83677 389.668 7.63204C388.246 7.24813 386.283 7.77894 384.216 9.12242C380.511 11.508 376.821 16.2192 376.315 19.2347C376.284 19.5721 376.114 19.8685 375.898 20.0473Z" fill="#D7B0FF"/>
<path d="M324.632 20.728C324.533 20.8116 324.438 20.8498 324.318 20.9089C323.772 21.1172 323.171 20.8647 322.961 20.3232C321.101 15.6353 316.861 11.3545 312.156 9.45674C311.621 9.23228 311.348 8.61742 311.574 8.08732C311.8 7.55723 312.42 7.28622 312.955 7.51068C318.262 9.66096 322.846 14.2426 324.933 19.5418C325.105 19.989 324.953 20.4564 324.632 20.728Z" fill="#D7B0FF"/>
<path d="M358.185 11.5754C357.541 11.5754 356.938 11.0967 356.897 10.4186L355.972 1.44404C355.891 0.726068 356.414 0.087874 357.139 0.00809973C357.863 -0.0716745 358.507 0.446858 358.588 1.16483L359.513 10.1394C359.594 10.8574 359.071 11.4956 358.346 11.5754C358.266 11.5754 358.225 11.5754 358.185 11.5754Z" fill="#D7B0FF"/>
<path d="M343.131 50.6952C343.052 50.6952 342.974 50.6741 342.904 50.6318C342.843 50.5936 342.793 50.5411 342.758 50.48C342.724 50.4184 342.706 50.3496 342.706 50.2801V38.965C342.706 38.8252 342.779 38.6914 342.904 38.6142C342.966 38.5764 343.038 38.5546 343.112 38.5512C343.186 38.5479 343.26 38.5633 343.326 38.5957C343.326 38.5958 343.326 38.596 343.327 38.5961L354.729 44.2524C354.729 44.2525 354.729 44.2526 354.729 44.2526C354.8 44.2881 354.859 44.342 354.9 44.4074C354.941 44.4727 354.962 44.5473 354.962 44.6229C354.962 44.6984 354.941 44.773 354.9 44.8384C354.859 44.9037 354.8 44.9576 354.729 44.9931C354.729 44.9932 354.729 44.9932 354.729 44.9933L343.324 50.6509C343.267 50.6793 343.199 50.6952 343.131 50.6952Z" fill="#93E9BE"/>
<path d="M343.131 50.6952C343.052 50.6952 342.974 50.6741 342.904 50.6318C342.843 50.5936 342.793 50.5411 342.758 50.48C342.724 50.4184 342.706 50.3496 342.706 50.2801V38.965C342.706 38.8252 342.779 38.6914 342.904 38.6142C342.966 38.5764 343.038 38.5546 343.112 38.5512C343.186 38.5479 343.26 38.5633 343.326 38.5957C343.326 38.5958 343.326 38.596 343.327 38.5961L354.729 44.2524C354.729 44.2525 354.729 44.2526 354.729 44.2526C354.8 44.2881 354.859 44.342 354.9 44.4074C354.941 44.4727 354.962 44.5473 354.962 44.6229C354.962 44.6984 354.941 44.773 354.9 44.8384C354.859 44.9037 354.8 44.9576 354.729 44.9931C354.729 44.9932 354.729 44.9932 354.729 44.9933L343.324 50.6509C343.267 50.6793 343.199 50.6952 343.131 50.6952Z" stroke="#93E9BE" stroke-width="2"/>
<path d="M343.131 50.6952C343.052 50.6952 342.974 50.6741 342.904 50.6318C342.843 50.5936 342.793 50.5411 342.758 50.48C342.724 50.4184 342.706 50.3496 342.706 50.2801V38.965C342.706 38.8252 342.779 38.6914 342.904 38.6142C342.966 38.5764 343.038 38.5546 343.112 38.5512C343.186 38.5479 343.26 38.5633 343.326 38.5957C343.326 38.5958 343.326 38.596 343.327 38.5961L354.729 44.2524C354.729 44.2525 354.729 44.2526 354.729 44.2526C354.8 44.2881 354.859 44.342 354.9 44.4074C354.941 44.4727 354.962 44.5473 354.962 44.6229C354.962 44.6984 354.941 44.773 354.9 44.8384C354.859 44.9037 354.8 44.9576 354.729 44.9931C354.729 44.9932 354.729 44.9932 354.729 44.9933L343.324 50.6509C343.267 50.6793 343.199 50.6952 343.131 50.6952Z" stroke="black" stroke-opacity="0.25" stroke-width="2"/>
<path d="M311.087 44.3845L307.477 39.9764L311.087 35.5684L316.918 39.9764L311.087 44.3845Z" fill="#93E9BE"/>
<path d="M311.439 44.4808L309.945 44.3199L306.503 40.1365L308.127 38.8171L311.569 43.0005L311.439 44.4808ZM309.945 44.3199L311.569 43.0005L311.601 43.0327L311.634 43.0649L311.666 43.0971L311.699 43.1292L311.731 43.1614L311.764 43.1936L311.796 43.2258V43.2901V43.3545V43.4189V43.4832V43.5476V43.6119V43.6763V43.7407V43.805V43.8694V43.9337V43.9981V44.0625V44.0946L311.764 44.1268L311.731 44.159L311.699 44.1912L311.666 44.2234L311.634 44.2556L311.601 44.2877L311.569 44.3199L311.536 44.3521L311.504 44.3843L311.471 44.4165L311.439 44.4486L311.406 44.4808L311.342 44.5452L311.309 44.5774L311.277 44.6095L311.244 44.6417L311.212 44.6739L311.179 44.7061H311.114H311.049H310.984H310.919H310.854H310.789H310.725H310.66H310.595H310.53H310.465H310.4H310.335H310.302L310.27 44.6739L310.237 44.6417L310.205 44.6095L310.173 44.5774L310.14 44.5452L310.108 44.513L310.075 44.4808L310.043 44.4486L310.01 44.4165L309.978 44.3843L309.945 44.3199ZM316.407 39.1389L316.245 40.6192L311.439 44.513L310.108 42.904L314.913 38.978L316.407 39.1389ZM316.245 40.587L314.913 38.978L314.946 38.9458L314.978 38.9137L315.011 38.8815L315.043 38.8493L315.076 38.8171L315.108 38.7849L315.141 38.7527H315.206H315.271H315.336H315.401H315.465H315.53H315.595H315.66H315.725H315.79H315.855H315.92H315.985H316.017L316.05 38.7849L316.082 38.8171L316.115 38.8493L316.147 38.8815L316.18 38.9137L316.212 38.9458L316.245 38.978L316.277 39.0102L316.31 39.0424L316.342 39.0746L316.375 39.1067L316.407 39.1389L316.44 39.1711L316.472 39.2033L316.505 39.2355L316.537 39.2676L316.57 39.2998L316.602 39.332V39.3964V39.4607V39.5251V39.5894V39.6538V39.7182V39.7825V39.8469V39.9112V39.9756V40.04V40.1043V40.1687V40.2009L316.57 40.233L316.537 40.2652L316.505 40.2974L316.472 40.3296L316.44 40.3618L316.407 40.3939L316.375 40.4261L316.342 40.4583L316.31 40.4905L316.277 40.5227L316.245 40.587ZM311.471 34.7946L312.965 34.9555L316.407 39.1389L314.784 40.4583L311.342 36.2749L311.471 34.7946ZM312.965 34.9233L311.342 36.2427L311.309 36.2105L311.277 36.1783L311.244 36.1462L311.212 36.114L311.179 36.0818L311.147 36.0496L311.114 36.0174V35.9531V35.8887V35.8244V35.76V35.6956V35.6313V35.5669V35.5026V35.4382V35.3738V35.3095V35.2451V35.1808V35.1486L311.147 35.1164L311.179 35.0842L311.212 35.052L311.244 35.0199L311.277 34.9877L311.309 34.9555L311.342 34.9233V34.8911L311.374 34.859L311.406 34.8268L311.439 34.7946L311.471 34.7624L311.504 34.7302L311.536 34.6981L311.569 34.6659L311.601 34.6337L311.634 34.6015L311.666 34.5693H311.731H311.796H311.861H311.926H311.991H312.056H312.121H312.186H312.251H312.316H312.381H312.446H312.478H312.511L312.543 34.6015L312.575 34.6337L312.608 34.6659L312.64 34.6981L312.673 34.7302L312.705 34.7624L312.738 34.7946L312.77 34.8268L312.803 34.859L312.835 34.8911L312.965 34.9233ZM306.503 40.1365L306.666 38.6562L311.471 34.7624L312.803 36.3714L307.997 40.2652L306.503 40.1365ZM306.666 38.6562L307.997 40.2652L307.964 40.2974L307.932 40.3296L307.899 40.3618L307.867 40.3939L307.835 40.4261L307.802 40.4583L307.77 40.4905H307.705H307.64H307.575H307.51H307.445H307.38H307.315H307.25H307.185H307.12H307.055H306.99H306.958H306.925L306.893 40.4583L306.86 40.4261L306.828 40.3939L306.795 40.3618L306.763 40.3296L306.73 40.2974L306.698 40.2652L306.666 40.233L306.633 40.2009L306.601 40.1687L306.568 40.1365L306.536 40.1043L306.503 40.0721L306.471 40.04L306.438 40.0078L306.406 39.9756L306.373 39.9434L306.341 39.9112V39.8469V39.7825V39.7182V39.6538V39.5894V39.5251V39.4607V39.3964V39.332V39.2676V39.2033V39.1389V39.1067V39.0746L306.373 39.0424L306.406 39.0102L306.438 38.978L306.471 38.9458L306.503 38.9137L306.536 38.8815L306.568 38.8493L306.601 38.8171L306.633 38.7849L306.666 38.7527V38.6562Z" fill="#D7B0FF"/>
<path d="M311.439 44.4808L309.945 44.3199L306.503 40.1365L308.127 38.8171L311.569 43.0005L311.439 44.4808ZM309.945 44.3199L311.569 43.0005L311.601 43.0327L311.634 43.0649L311.666 43.0971L311.699 43.1292L311.731 43.1614L311.764 43.1936L311.796 43.2258V43.2901V43.3545V43.4189V43.4832V43.5476V43.6119V43.6763V43.7407V43.805V43.8694V43.9337V43.9981V44.0625V44.0946L311.764 44.1268L311.731 44.159L311.699 44.1912L311.666 44.2234L311.634 44.2556L311.601 44.2877L311.569 44.3199L311.536 44.3521L311.504 44.3843L311.471 44.4165L311.439 44.4486L311.406 44.4808L311.342 44.5452L311.309 44.5774L311.277 44.6095L311.244 44.6417L311.212 44.6739L311.179 44.7061H311.114H311.049H310.984H310.919H310.854H310.789H310.725H310.66H310.595H310.53H310.465H310.4H310.335H310.302L310.27 44.6739L310.237 44.6417L310.205 44.6095L310.173 44.5774L310.14 44.5452L310.108 44.513L310.075 44.4808L310.043 44.4486L310.01 44.4165L309.978 44.3843L309.945 44.3199ZM316.407 39.1389L316.245 40.6192L311.439 44.513L310.108 42.904L314.913 38.978L316.407 39.1389ZM316.245 40.587L314.913 38.978L314.946 38.9458L314.978 38.9137L315.011 38.8815L315.043 38.8493L315.076 38.8171L315.108 38.7849L315.141 38.7527H315.206H315.271H315.336H315.401H315.465H315.53H315.595H315.66H315.725H315.79H315.855H315.92H315.985H316.017L316.05 38.7849L316.082 38.8171L316.115 38.8493L316.147 38.8815L316.18 38.9137L316.212 38.9458L316.245 38.978L316.277 39.0102L316.31 39.0424L316.342 39.0746L316.375 39.1067L316.407 39.1389L316.44 39.1711L316.472 39.2033L316.505 39.2355L316.537 39.2676L316.57 39.2998L316.602 39.332V39.3964V39.4607V39.5251V39.5894V39.6538V39.7182V39.7825V39.8469V39.9112V39.9756V40.04V40.1043V40.1687V40.2009L316.57 40.233L316.537 40.2652L316.505 40.2974L316.472 40.3296L316.44 40.3618L316.407 40.3939L316.375 40.4261L316.342 40.4583L316.31 40.4905L316.277 40.5227L316.245 40.587ZM311.471 34.7946L312.965 34.9555L316.407 39.1389L314.784 40.4583L311.342 36.2749L311.471 34.7946ZM312.965 34.9233L311.342 36.2427L311.309 36.2105L311.277 36.1783L311.244 36.1462L311.212 36.114L311.179 36.0818L311.147 36.0496L311.114 36.0174V35.9531V35.8887V35.8244V35.76V35.6956V35.6313V35.5669V35.5026V35.4382V35.3738V35.3095V35.2451V35.1808V35.1486L311.147 35.1164L311.179 35.0842L311.212 35.052L311.244 35.0199L311.277 34.9877L311.309 34.9555L311.342 34.9233V34.8911L311.374 34.859L311.406 34.8268L311.439 34.7946L311.471 34.7624L311.504 34.7302L311.536 34.6981L311.569 34.6659L311.601 34.6337L311.634 34.6015L311.666 34.5693H311.731H311.796H311.861H311.926H311.991H312.056H312.121H312.186H312.251H312.316H312.381H312.446H312.478H312.511L312.543 34.6015L312.575 34.6337L312.608 34.6659L312.64 34.6981L312.673 34.7302L312.705 34.7624L312.738 34.7946L312.77 34.8268L312.803 34.859L312.835 34.8911L312.965 34.9233ZM306.503 40.1365L306.666 38.6562L311.471 34.7624L312.803 36.3714L307.997 40.2652L306.503 40.1365ZM306.666 38.6562L307.997 40.2652L307.964 40.2974L307.932 40.3296L307.899 40.3618L307.867 40.3939L307.835 40.4261L307.802 40.4583L307.77 40.4905H307.705H307.64H307.575H307.51H307.445H307.38H307.315H307.25H307.185H307.12H307.055H306.99H306.958H306.925L306.893 40.4583L306.86 40.4261L306.828 40.3939L306.795 40.3618L306.763 40.3296L306.73 40.2974L306.698 40.2652L306.666 40.233L306.633 40.2009L306.601 40.1687L306.568 40.1365L306.536 40.1043L306.503 40.0721L306.471 40.04L306.438 40.0078L306.406 39.9756L306.373 39.9434L306.341 39.9112V39.8469V39.7825V39.7182V39.6538V39.5894V39.5251V39.4607V39.3964V39.332V39.2676V39.2033V39.1389V39.1067V39.0746L306.373 39.0424L306.406 39.0102L306.438 38.978L306.471 38.9458L306.503 38.9137L306.536 38.8815L306.568 38.8493L306.601 38.8171L306.633 38.7849L306.666 38.7527V38.6562Z" fill="black" fill-opacity="0.25"/>
<path d="M340.569 15.6033L336.959 11.1952L340.569 6.78711L346.4 11.1952L340.569 15.6033Z" fill="#93E9BE"/>
<path d="M340.921 15.6996L339.427 15.5387L335.985 11.3552L337.609 10.0359L341.051 14.2193L340.921 15.6996ZM339.427 15.5387L341.051 14.2193L341.083 14.2515L341.116 14.2836L341.148 14.3158L341.181 14.348L341.213 14.3802L341.246 14.4124L341.278 14.4445V14.5089V14.5733V14.6376V14.702V14.7663V14.8307V14.8951V14.9594V15.0238V15.0881V15.1525V15.2169V15.2812V15.3134L341.246 15.3456L341.213 15.3778L341.181 15.4099L341.148 15.4421L341.116 15.4743L341.083 15.5065L341.051 15.5387L341.018 15.5708L340.986 15.603L340.953 15.6352L340.921 15.6674L340.888 15.6996L340.823 15.7639L340.791 15.7961L340.759 15.8283L340.726 15.8605L340.694 15.8926L340.661 15.9248H340.596H340.531H340.466H340.401H340.336H340.271H340.207H340.142H340.077H340.012H339.947H339.882H339.817H339.784L339.752 15.8926L339.719 15.8605L339.687 15.8283L339.654 15.7961L339.622 15.7639L339.59 15.7317L339.557 15.6996L339.525 15.6674L339.492 15.6352L339.46 15.603L339.427 15.5387ZM345.889 10.3577L345.727 11.8379L340.921 15.7317L339.59 14.1227L344.395 10.1968L345.889 10.3577ZM345.727 11.8058L344.395 10.1968L344.428 10.1646L344.46 10.1324L344.493 10.1002L344.525 10.068L344.558 10.0359L344.59 10.0037L344.623 9.9715H344.688H344.753H344.818H344.883H344.947H345.012H345.077H345.142H345.207H345.272H345.337H345.402H345.467H345.499L345.532 10.0037L345.564 10.0359L345.597 10.068L345.629 10.1002L345.662 10.1324L345.694 10.1646L345.727 10.1968L345.759 10.2289L345.792 10.2611L345.824 10.2933L345.857 10.3255L345.889 10.3577L345.922 10.3898L345.954 10.422L345.987 10.4542L346.019 10.4864L346.052 10.5186L346.084 10.5507V10.6151V10.6795V10.7438V10.8082V10.8725V10.9369V11.0013V11.0656V11.13V11.1943V11.2587V11.3231V11.3874V11.4196L346.052 11.4518L346.019 11.484L345.987 11.5161L345.954 11.5483L345.922 11.5805L345.889 11.6127L345.857 11.6449L345.824 11.677L345.792 11.7092L345.759 11.7414L345.727 11.8058ZM340.953 6.01335L342.447 6.17425L345.889 10.3577L344.266 11.677L340.823 7.49363L340.953 6.01335ZM342.447 6.14207L340.823 7.46145L340.791 7.42927L340.759 7.39709L340.726 7.36491L340.694 7.33273L340.661 7.30055L340.629 7.26837L340.596 7.23619V7.17183V7.10747V7.04311V6.97875V6.91439V6.85003V6.78567V6.72131V6.65695V6.59259V6.52823V6.46387V6.39951V6.36733L340.629 6.33515L340.661 6.30297L340.694 6.27079L340.726 6.23861L340.759 6.20643L340.791 6.17425L340.823 6.14207V6.10989L340.856 6.0777L340.888 6.04553L340.921 6.01335L340.953 5.98117L340.986 5.94899L341.018 5.9168L341.051 5.88463L341.083 5.85245L341.116 5.82027L341.148 5.78809H341.213H341.278H341.343H341.408H341.473H341.538H341.603H341.668H341.733H341.798H341.863H341.928H341.96H341.992L342.025 5.82027L342.057 5.85245L342.09 5.88463L342.122 5.9168L342.155 5.94899L342.187 5.98117L342.22 6.01335L342.252 6.04553L342.285 6.0777L342.317 6.10989L342.447 6.14207ZM335.985 11.3552L336.147 9.87496L340.953 5.98117L342.285 7.59017L337.479 11.484L335.985 11.3552ZM336.147 9.87496L337.479 11.484L337.446 11.5161L337.414 11.5483L337.381 11.5805L337.349 11.6127L337.316 11.6449L337.284 11.677L337.252 11.7092H337.187H337.122H337.057H336.992H336.927H336.862H336.797H336.732H336.667H336.602H336.537H336.472H336.44H336.407L336.375 11.677L336.342 11.6449L336.31 11.6127L336.277 11.5805L336.245 11.5483L336.212 11.5161L336.18 11.484L336.147 11.4518L336.115 11.4196L336.083 11.3874L336.05 11.3552L336.018 11.3231L335.985 11.2909L335.953 11.2587L335.92 11.2265L335.888 11.1943L335.855 11.1622L335.823 11.13V11.0656V11.0013V10.9369V10.8725V10.8082V10.7438V10.6795V10.6151V10.5507V10.4864V10.422V10.3577V10.3255V10.2933L335.855 10.2611L335.888 10.2289L335.92 10.1968L335.953 10.1646L335.985 10.1324L336.018 10.1002L336.05 10.068L336.083 10.0359L336.115 10.0037L336.147 9.9715V9.87496Z" fill="#D7B0FF"/>
<path d="M340.921 15.6996L339.427 15.5387L335.985 11.3552L337.609 10.0359L341.051 14.2193L340.921 15.6996ZM339.427 15.5387L341.051 14.2193L341.083 14.2515L341.116 14.2836L341.148 14.3158L341.181 14.348L341.213 14.3802L341.246 14.4124L341.278 14.4445V14.5089V14.5733V14.6376V14.702V14.7663V14.8307V14.8951V14.9594V15.0238V15.0881V15.1525V15.2169V15.2812V15.3134L341.246 15.3456L341.213 15.3778L341.181 15.4099L341.148 15.4421L341.116 15.4743L341.083 15.5065L341.051 15.5387L341.018 15.5708L340.986 15.603L340.953 15.6352L340.921 15.6674L340.888 15.6996L340.823 15.7639L340.791 15.7961L340.759 15.8283L340.726 15.8605L340.694 15.8926L340.661 15.9248H340.596H340.531H340.466H340.401H340.336H340.271H340.207H340.142H340.077H340.012H339.947H339.882H339.817H339.784L339.752 15.8926L339.719 15.8605L339.687 15.8283L339.654 15.7961L339.622 15.7639L339.59 15.7317L339.557 15.6996L339.525 15.6674L339.492 15.6352L339.46 15.603L339.427 15.5387ZM345.889 10.3577L345.727 11.8379L340.921 15.7317L339.59 14.1227L344.395 10.1968L345.889 10.3577ZM345.727 11.8058L344.395 10.1968L344.428 10.1646L344.46 10.1324L344.493 10.1002L344.525 10.068L344.558 10.0359L344.59 10.0037L344.623 9.9715H344.688H344.753H344.818H344.883H344.947H345.012H345.077H345.142H345.207H345.272H345.337H345.402H345.467H345.499L345.532 10.0037L345.564 10.0359L345.597 10.068L345.629 10.1002L345.662 10.1324L345.694 10.1646L345.727 10.1968L345.759 10.2289L345.792 10.2611L345.824 10.2933L345.857 10.3255L345.889 10.3577L345.922 10.3898L345.954 10.422L345.987 10.4542L346.019 10.4864L346.052 10.5186L346.084 10.5507V10.6151V10.6795V10.7438V10.8082V10.8725V10.9369V11.0013V11.0656V11.13V11.1943V11.2587V11.3231V11.3874V11.4196L346.052 11.4518L346.019 11.484L345.987 11.5161L345.954 11.5483L345.922 11.5805L345.889 11.6127L345.857 11.6449L345.824 11.677L345.792 11.7092L345.759 11.7414L345.727 11.8058ZM340.953 6.01335L342.447 6.17425L345.889 10.3577L344.266 11.677L340.823 7.49363L340.953 6.01335ZM342.447 6.14207L340.823 7.46145L340.791 7.42927L340.759 7.39709L340.726 7.36491L340.694 7.33273L340.661 7.30055L340.629 7.26837L340.596 7.23619V7.17183V7.10747V7.04311V6.97875V6.91439V6.85003V6.78567V6.72131V6.65695V6.59259V6.52823V6.46387V6.39951V6.36733L340.629 6.33515L340.661 6.30297L340.694 6.27079L340.726 6.23861L340.759 6.20643L340.791 6.17425L340.823 6.14207V6.10989L340.856 6.0777L340.888 6.04553L340.921 6.01335L340.953 5.98117L340.986 5.94899L341.018 5.9168L341.051 5.88463L341.083 5.85245L341.116 5.82027L341.148 5.78809H341.213H341.278H341.343H341.408H341.473H341.538H341.603H341.668H341.733H341.798H341.863H341.928H341.96H341.992L342.025 5.82027L342.057 5.85245L342.09 5.88463L342.122 5.9168L342.155 5.94899L342.187 5.98117L342.22 6.01335L342.252 6.04553L342.285 6.0777L342.317 6.10989L342.447 6.14207ZM335.985 11.3552L336.147 9.87496L340.953 5.98117L342.285 7.59017L337.479 11.484L335.985 11.3552ZM336.147 9.87496L337.479 11.484L337.446 11.5161L337.414 11.5483L337.381 11.5805L337.349 11.6127L337.316 11.6449L337.284 11.677L337.252 11.7092H337.187H337.122H337.057H336.992H336.927H336.862H336.797H336.732H336.667H336.602H336.537H336.472H336.44H336.407L336.375 11.677L336.342 11.6449L336.31 11.6127L336.277 11.5805L336.245 11.5483L336.212 11.5161L336.18 11.484L336.147 11.4518L336.115 11.4196L336.083 11.3874L336.05 11.3552L336.018 11.3231L335.985 11.2909L335.953 11.2587L335.92 11.2265L335.888 11.1943L335.855 11.1622L335.823 11.13V11.0656V11.0013V10.9369V10.8725V10.8082V10.7438V10.6795V10.6151V10.5507V10.4864V10.422V10.3577V10.3255V10.2933L335.855 10.2611L335.888 10.2289L335.92 10.1968L335.953 10.1646L335.985 10.1324L336.018 10.1002L336.05 10.068L336.083 10.0359L336.115 10.0037L336.147 9.9715V9.87496Z" fill="black" fill-opacity="0.25"/>
<path d="M386.167 32.8318L382.557 28.4237L386.167 24.0156L391.999 28.4237L386.167 32.8318Z" fill="#93E9BE"/>
<path d="M386.52 32.9281L385.026 32.7672L381.584 28.5838L383.207 27.2644L386.65 31.4478L386.52 32.9281ZM385.026 32.7672L386.65 31.4478L386.682 31.48L386.714 31.5122L386.747 31.5443L386.779 31.5765L386.812 31.6087L386.844 31.6409L386.877 31.6731V31.7374V31.8018V31.8661V31.9305V31.9949V32.0592V32.1236V32.1879V32.2523V32.3167V32.381V32.4454V32.5097V32.5419L386.844 32.5741L386.812 32.6063L386.779 32.6385L386.747 32.6706L386.714 32.7028L386.682 32.735L386.65 32.7672L386.617 32.7994L386.585 32.8315L386.552 32.8637L386.52 32.8959L386.487 32.9281L386.422 32.9924L386.39 33.0246L386.357 33.0568L386.325 33.089L386.292 33.1212L386.26 33.1533H386.195H386.13H386.065H386H385.935H385.87H385.805H385.74H385.675H385.61H385.545H385.481H385.416H385.383L385.351 33.1212L385.318 33.089L385.286 33.0568L385.253 33.0246L385.221 32.9924L385.188 32.9603L385.156 32.9281L385.123 32.8959L385.091 32.8637L385.058 32.8315L385.026 32.7672ZM391.488 27.5862L391.325 29.0665L386.52 32.9603L385.188 31.3513L389.994 27.4253L391.488 27.5862ZM391.325 29.0343L389.994 27.4253L390.027 27.3931L390.059 27.3609L390.092 27.3287L390.124 27.2966L390.156 27.2644L390.189 27.2322L390.221 27.2H390.286H390.351H390.416H390.481H390.546H390.611H390.676H390.741H390.806H390.871H390.936H391.001H391.066H391.098L391.131 27.2322L391.163 27.2644L391.196 27.2966L391.228 27.3287L391.261 27.3609L391.293 27.3931L391.325 27.4253L391.358 27.4575L391.39 27.4896L391.423 27.5218L391.455 27.554L391.488 27.5862L391.52 27.6184L391.553 27.6505L391.585 27.6827L391.618 27.7149L391.65 27.7471L391.683 27.7793V27.8436V27.908V27.9723V28.0367V28.1011V28.1654V28.2298V28.2941V28.3585V28.4229V28.4872V28.5516V28.6159V28.6481L391.65 28.6803L391.618 28.7125L391.585 28.7447L391.553 28.7768L391.52 28.809L391.488 28.8412L391.455 28.8734L391.423 28.9056L391.39 28.9377L391.358 28.9699L391.325 29.0343ZM386.552 23.2419L388.046 23.4028L391.488 27.5862L389.864 28.9056L386.422 24.7221L386.552 23.2419ZM388.046 23.3706L386.422 24.69L386.39 24.6578L386.357 24.6256L386.325 24.5934L386.292 24.5612L386.26 24.5291L386.227 24.4969L386.195 24.4647V24.4003V24.336V24.2716V24.2073V24.1429V24.0785V24.0142V23.9498V23.8855V23.8211V23.7567V23.6924V23.628V23.5958L386.227 23.5637L386.26 23.5315L386.292 23.4993L386.325 23.4671L386.357 23.4349L386.39 23.4028L386.422 23.3706V23.3384L386.455 23.3062L386.487 23.274L386.52 23.2419L386.552 23.2097L386.585 23.1775L386.617 23.1453L386.65 23.1131L386.682 23.081L386.714 23.0488L386.747 23.0166H386.812H386.877H386.942H387.007H387.072H387.137H387.202H387.266H387.331H387.396H387.461H387.526H387.559H387.591L387.624 23.0488L387.656 23.081L387.689 23.1131L387.721 23.1453L387.754 23.1775L387.786 23.2097L387.819 23.2419L387.851 23.274L387.883 23.3062L387.916 23.3384L388.046 23.3706ZM381.584 28.5838L381.746 27.1035L386.552 23.2097L387.883 24.8187L383.078 28.7125L381.584 28.5838ZM381.746 27.1035L383.078 28.7125L383.045 28.7447L383.013 28.7768L382.98 28.809L382.948 28.8412L382.915 28.8734L382.883 28.9056L382.85 28.9377H382.785H382.72H382.655H382.591H382.526H382.461H382.396H382.331H382.266H382.201H382.136H382.071H382.038H382.006L381.974 28.9056L381.941 28.8734L381.909 28.8412L381.876 28.809L381.844 28.7768L381.811 28.7447L381.779 28.7125L381.746 28.6803L381.714 28.6481L381.681 28.6159L381.649 28.5838L381.616 28.5516L381.584 28.5194L381.551 28.4872L381.519 28.455L381.486 28.4229L381.454 28.3907L381.422 28.3585V28.2941V28.2298V28.1654V28.1011V28.0367V27.9723V27.908V27.8436V27.7793V27.7149V27.6505V27.5862V27.554V27.5218L381.454 27.4896L381.486 27.4575L381.519 27.4253L381.551 27.3931L381.584 27.3609L381.616 27.3287L381.649 27.2966L381.681 27.2644L381.714 27.2322L381.746 27.2V27.1035Z" fill="#D7B0FF"/>
<path d="M386.52 32.9281L385.026 32.7672L381.584 28.5838L383.207 27.2644L386.65 31.4478L386.52 32.9281ZM385.026 32.7672L386.65 31.4478L386.682 31.48L386.714 31.5122L386.747 31.5443L386.779 31.5765L386.812 31.6087L386.844 31.6409L386.877 31.6731V31.7374V31.8018V31.8661V31.9305V31.9949V32.0592V32.1236V32.1879V32.2523V32.3167V32.381V32.4454V32.5097V32.5419L386.844 32.5741L386.812 32.6063L386.779 32.6385L386.747 32.6706L386.714 32.7028L386.682 32.735L386.65 32.7672L386.617 32.7994L386.585 32.8315L386.552 32.8637L386.52 32.8959L386.487 32.9281L386.422 32.9924L386.39 33.0246L386.357 33.0568L386.325 33.089L386.292 33.1212L386.26 33.1533H386.195H386.13H386.065H386H385.935H385.87H385.805H385.74H385.675H385.61H385.545H385.481H385.416H385.383L385.351 33.1212L385.318 33.089L385.286 33.0568L385.253 33.0246L385.221 32.9924L385.188 32.9603L385.156 32.9281L385.123 32.8959L385.091 32.8637L385.058 32.8315L385.026 32.7672ZM391.488 27.5862L391.325 29.0665L386.52 32.9603L385.188 31.3513L389.994 27.4253L391.488 27.5862ZM391.325 29.0343L389.994 27.4253L390.027 27.3931L390.059 27.3609L390.092 27.3287L390.124 27.2966L390.156 27.2644L390.189 27.2322L390.221 27.2H390.286H390.351H390.416H390.481H390.546H390.611H390.676H390.741H390.806H390.871H390.936H391.001H391.066H391.098L391.131 27.2322L391.163 27.2644L391.196 27.2966L391.228 27.3287L391.261 27.3609L391.293 27.3931L391.325 27.4253L391.358 27.4575L391.39 27.4896L391.423 27.5218L391.455 27.554L391.488 27.5862L391.52 27.6184L391.553 27.6505L391.585 27.6827L391.618 27.7149L391.65 27.7471L391.683 27.7793V27.8436V27.908V27.9723V28.0367V28.1011V28.1654V28.2298V28.2941V28.3585V28.4229V28.4872V28.5516V28.6159V28.6481L391.65 28.6803L391.618 28.7125L391.585 28.7447L391.553 28.7768L391.52 28.809L391.488 28.8412L391.455 28.8734L391.423 28.9056L391.39 28.9377L391.358 28.9699L391.325 29.0343ZM386.552 23.2419L388.046 23.4028L391.488 27.5862L389.864 28.9056L386.422 24.7221L386.552 23.2419ZM388.046 23.3706L386.422 24.69L386.39 24.6578L386.357 24.6256L386.325 24.5934L386.292 24.5612L386.26 24.5291L386.227 24.4969L386.195 24.4647V24.4003V24.336V24.2716V24.2073V24.1429V24.0785V24.0142V23.9498V23.8855V23.8211V23.7567V23.6924V23.628V23.5958L386.227 23.5637L386.26 23.5315L386.292 23.4993L386.325 23.4671L386.357 23.4349L386.39 23.4028L386.422 23.3706V23.3384L386.455 23.3062L386.487 23.274L386.52 23.2419L386.552 23.2097L386.585 23.1775L386.617 23.1453L386.65 23.1131L386.682 23.081L386.714 23.0488L386.747 23.0166H386.812H386.877H386.942H387.007H387.072H387.137H387.202H387.266H387.331H387.396H387.461H387.526H387.559H387.591L387.624 23.0488L387.656 23.081L387.689 23.1131L387.721 23.1453L387.754 23.1775L387.786 23.2097L387.819 23.2419L387.851 23.274L387.883 23.3062L387.916 23.3384L388.046 23.3706ZM381.584 28.5838L381.746 27.1035L386.552 23.2097L387.883 24.8187L383.078 28.7125L381.584 28.5838ZM381.746 27.1035L383.078 28.7125L383.045 28.7447L383.013 28.7768L382.98 28.809L382.948 28.8412L382.915 28.8734L382.883 28.9056L382.85 28.9377H382.785H382.72H382.655H382.591H382.526H382.461H382.396H382.331H382.266H382.201H382.136H382.071H382.038H382.006L381.974 28.9056L381.941 28.8734L381.909 28.8412L381.876 28.809L381.844 28.7768L381.811 28.7447L381.779 28.7125L381.746 28.6803L381.714 28.6481L381.681 28.6159L381.649 28.5838L381.616 28.5516L381.584 28.5194L381.551 28.4872L381.519 28.455L381.486 28.4229L381.454 28.3907L381.422 28.3585V28.2941V28.2298V28.1654V28.1011V28.0367V27.9723V27.908V27.8436V27.7793V27.7149V27.6505V27.5862V27.554V27.5218L381.454 27.4896L381.486 27.4575L381.519 27.4253L381.551 27.3931L381.584 27.3609L381.616 27.3287L381.649 27.2966L381.681 27.2644L381.714 27.2322L381.746 27.2V27.1035Z" fill="black" fill-opacity="0.25"/>
</svg>
