<svg width="265" height="247" viewBox="0 0 265 247" fill="none" xmlns="http://www.w3.org/2000/svg">
<rect x="0.777344" width="264" height="247" rx="20" fill="#D7B0FF"/>
<rect x="0.777344" width="264" height="247" rx="20" fill="white" fill-opacity="0.75"/>
<path d="M132.776 229.06C189.103 229.06 234.765 202.697 234.765 170.177C234.765 137.657 189.103 111.294 132.776 111.294C76.4491 111.294 30.7871 137.657 30.7871 170.177C30.7871 202.697 76.4491 229.06 132.776 229.06Z" fill="#F5F5F5"/>
<path d="M214.108 190.807L188.953 205.328C186.769 206.589 182.951 206.432 180.444 204.977L156.513 191.158C153.992 189.703 153.72 187.506 155.899 186.245L181.053 171.733C183.237 170.473 187.056 170.63 189.563 172.084L213.498 185.904C216.015 187.349 216.287 189.546 214.108 190.807Z" fill="#E0E0E0"/>
<path d="M159.339 213.916C170.291 213.916 179.169 208.405 179.169 201.606C179.169 194.808 170.291 189.297 159.339 189.297C148.386 189.297 139.508 194.808 139.508 201.606C139.508 208.405 148.386 213.916 159.339 213.916Z" fill="#E0E0E0"/>
<path d="M62.9636 198.665C73.6634 198.665 82.3373 193.659 82.3373 187.483C82.3373 181.307 73.6634 176.3 62.9636 176.3C52.2638 176.3 43.5898 181.307 43.5898 187.483C43.5898 193.659 52.2638 198.665 62.9636 198.665Z" fill="#E0E0E0"/>
<path d="M141.216 124.98L57.1468 173.52C56.5647 173.856 56.0814 174.339 55.7454 174.921C55.4093 175.503 55.2324 176.163 55.2324 176.835C55.2324 177.507 55.4093 178.167 55.7454 178.749C56.0814 179.331 56.5647 179.814 57.1468 180.15L103.028 206.639C104.632 207.567 106.452 208.055 108.305 208.055C110.158 208.055 111.979 207.567 113.583 206.639L194.291 160.042C194.873 159.707 195.356 159.223 195.692 158.641C196.028 158.059 196.205 157.399 196.205 156.727C196.205 156.055 196.028 155.395 195.692 154.813C195.356 154.231 194.873 153.748 194.291 153.412L145.049 124.98C144.466 124.644 143.805 124.467 143.133 124.467C142.46 124.467 141.799 124.644 141.216 124.98Z" fill="#E0E0E0"/>
<path d="M116.27 204.242C115.799 204.481 115.279 204.605 114.751 204.605C114.223 204.605 113.703 204.481 113.232 204.242C112.391 203.757 112.391 202.972 113.232 202.487C113.703 202.249 114.223 202.124 114.751 202.124C115.279 202.124 115.799 202.249 116.27 202.487C117.11 202.972 117.11 203.757 116.27 204.242Z" fill="#455A64"/>
<path d="M116.906 155.171H112.607V203.314H116.906V155.171Z" fill="#455A64"/>
<path d="M65.8773 175.339C65.4066 175.578 64.8862 175.702 64.3583 175.702C63.8304 175.702 63.31 175.578 62.8392 175.339C61.9989 174.854 61.9989 174.069 62.8392 173.584C63.31 173.345 63.8304 173.221 64.3583 173.221C64.8862 173.221 65.4066 173.345 65.8773 173.584C66.7177 174.069 66.7177 174.854 65.8773 175.339Z" fill="#455A64"/>
<path d="M66.5095 126.267H62.2109V174.41H66.5095V126.267Z" fill="#455A64"/>
<path d="M191.133 160.577C190.662 160.816 190.142 160.94 189.614 160.94C189.086 160.94 188.566 160.816 188.095 160.577C187.255 160.115 187.255 159.307 188.095 158.822C188.566 158.583 189.086 158.459 189.614 158.459C190.142 158.459 190.662 158.583 191.133 158.822C191.974 159.307 191.974 160.092 191.133 160.577Z" fill="#455A64"/>
<path d="M191.765 111.51H187.467V159.653H191.765V111.51Z" fill="#455A64"/>
<path d="M140.741 131.674C140.27 131.912 139.749 132.037 139.222 132.037C138.694 132.037 138.173 131.912 137.703 131.674C136.862 131.189 136.862 130.404 137.703 129.919C138.173 129.68 138.694 129.556 139.222 129.556C139.749 129.556 140.27 129.68 140.741 129.919C141.581 130.404 141.581 131.189 140.741 131.674Z" fill="#455A64"/>
<path d="M141.373 82.6064H137.074V130.75H141.373V82.6064Z" fill="#455A64"/>
<path d="M51.4023 126.812V129.656L108.305 162.512V159.663L51.4023 126.812Z" fill="#BA68C8"/>
<path opacity="0.3" d="M51.4023 126.812V129.656L108.305 162.512V159.663L51.4023 126.812Z" fill="black"/>
<path d="M200.034 106.704L108.305 159.663V162.512L200.034 109.548V106.704Z" fill="#BA68C8"/>
<path opacity="0.3" d="M200.034 106.704L108.305 159.663V162.512L200.034 109.548V106.704Z" fill="white"/>
<path d="M143.134 73.8525L51.4043 126.812L108.306 159.663L200.036 106.704L143.134 73.8525Z" fill="#BA68C8"/>
<path d="M49.4355 158.088V185.888C49.4355 187.975 50.8207 190.043 53.591 191.664C59.1316 194.855 68.0751 194.855 73.6019 191.664C76.3722 190.067 77.7574 187.97 77.7574 185.888V158.088H49.4355Z" fill="#37474F"/>
<path d="M63.5872 166.136C71.403 166.136 77.7389 162.48 77.7389 157.969C77.7389 153.458 71.403 149.801 63.5872 149.801C55.7715 149.801 49.4355 153.458 49.4355 157.969C49.4355 162.48 55.7715 166.136 63.5872 166.136Z" fill="#455A64"/>
<path d="M73.2839 161.814C72.8498 162.171 72.3865 162.491 71.8987 162.77C71.8064 162.825 71.7094 162.881 71.6078 162.931C70.9672 163.275 70.3002 163.567 69.6132 163.804C69.3408 163.896 69.0545 163.989 68.7683 164.063C68.1142 164.26 67.4479 164.414 66.7736 164.524C66.1965 164.621 65.6055 164.691 65.0191 164.732C64.779 164.732 64.5574 164.764 64.3034 164.769C63.8417 164.769 63.38 164.769 62.9552 164.769C62.3966 164.769 61.8379 164.718 61.2884 164.654C60.5859 164.577 59.8889 164.457 59.2015 164.293C58.9244 164.229 58.6566 164.164 58.3888 164.081C57.2954 163.783 56.2437 163.348 55.2584 162.788C54.8328 162.544 54.4254 162.269 54.0394 161.966C51.3569 159.833 51.0983 157.003 53.2499 154.731C53.8391 154.118 54.5159 153.595 55.2584 153.18C56.0813 152.71 56.953 152.33 57.8579 152.049C58.0287 151.989 58.2134 151.933 58.3888 151.887C58.8706 151.747 59.3591 151.632 59.8525 151.541C60.3881 151.439 60.9283 151.356 61.4823 151.301C63.2448 151.115 65.0243 151.164 66.7736 151.448L66.9352 151.472C67.5585 151.573 68.1752 151.712 68.7821 151.887C69.6237 152.117 70.4415 152.426 71.2246 152.81C71.4601 152.921 71.6863 153.046 71.9126 153.175C72.2687 153.38 72.6125 153.605 72.9422 153.849C73.4303 154.213 73.8722 154.635 74.2581 155.105C75.9849 157.248 75.6756 159.824 73.2839 161.814Z" fill="#263238"/>
<path d="M64.0215 122.015V130.64H68.4447V124.771C68.4447 124.771 66.7964 122.366 64.0215 122.015Z" fill="#BA68C8"/>
<path opacity="0.3" d="M64.0215 122.015V130.64H68.4447V124.771C68.4447 124.771 66.7964 122.366 64.0215 122.015Z" fill="white"/>
<path d="M66.7832 124.175V164.515C66.2061 164.612 65.6151 164.681 65.0287 164.723C64.7886 164.723 64.567 164.755 64.3131 164.76C63.8513 164.76 63.3896 164.76 62.9648 164.76C62.4062 164.76 61.8475 164.709 61.298 164.644C60.5956 164.568 59.8985 164.448 59.2111 164.284C58.934 164.22 58.6662 164.155 58.3984 164.072V124.175H66.7832Z" fill="#BA68C8"/>
<path opacity="0.7" d="M66.7832 124.175V164.515C66.2061 164.612 65.6151 164.681 65.0287 164.723C64.7886 164.723 64.567 164.755 64.3131 164.76C63.8513 164.76 63.3896 164.76 62.9648 164.76C62.4062 164.76 61.8475 164.709 61.298 164.644C60.5956 164.568 59.8985 164.448 59.2111 164.284C58.934 164.22 58.6662 164.155 58.3984 164.072V124.175H66.7832Z" fill="white"/>
<path d="M68.7773 125.523V164.063C68.1232 164.26 67.4569 164.415 66.7827 164.525C66.2055 164.622 65.6145 164.691 65.0282 164.733C64.7881 164.733 64.5664 164.765 64.3125 164.77V128.834C65.1812 128.705 66.0186 128.417 66.7827 127.984C67.476 127.601 68.0521 127.036 68.4495 126.35C68.6038 126.094 68.7145 125.815 68.7773 125.523Z" fill="#BA68C8"/>
<path opacity="0.5" d="M68.7773 125.523V164.063C68.1232 164.26 67.4569 164.415 66.7827 164.525C66.2055 164.622 65.6145 164.691 65.0282 164.733C64.7881 164.733 64.5664 164.765 64.3125 164.77V128.834C65.1812 128.705 66.0186 128.417 66.7827 127.984C67.476 127.601 68.0521 127.036 68.4495 126.35C68.6038 126.094 68.7145 125.815 68.7773 125.523Z" fill="white"/>
<path d="M64.5206 129.005C64.4686 129.003 64.4191 128.983 64.3813 128.947C64.3435 128.911 64.3201 128.863 64.3156 128.811C64.311 128.759 64.3256 128.708 64.3566 128.666C64.3876 128.624 64.4327 128.595 64.4836 128.585C65.265 128.443 66.0172 128.171 66.7091 127.781C67.7711 127.172 68.3528 126.368 68.3528 125.528C68.3528 124.688 67.7711 123.884 66.7091 123.27C65.4446 122.596 64.0281 122.257 62.5952 122.287C62.565 122.291 62.5342 122.289 62.5048 122.281C62.4755 122.272 62.4484 122.257 62.4253 122.237C62.4021 122.218 62.3836 122.193 62.3709 122.165C62.3581 122.137 62.3516 122.107 62.3516 122.077C62.3516 122.046 62.3581 122.016 62.3709 121.988C62.3836 121.96 62.4021 121.936 62.4253 121.916C62.4484 121.896 62.4755 121.881 62.5048 121.873C62.5342 121.864 62.565 121.862 62.5952 121.867C64.104 121.836 65.5954 122.194 66.9261 122.905C68.122 123.598 68.773 124.526 68.773 125.528C68.773 126.53 68.1127 127.458 66.9261 128.151C66.1913 128.561 65.3943 128.848 64.5667 129L64.5206 129.005Z" fill="#BA68C8"/>
<path opacity="0.5" d="M64.5206 129.005C64.4686 129.003 64.4191 128.983 64.3813 128.947C64.3435 128.911 64.3201 128.863 64.3156 128.811C64.311 128.759 64.3256 128.708 64.3566 128.666C64.3876 128.624 64.4327 128.595 64.4836 128.585C65.265 128.443 66.0172 128.171 66.7091 127.781C67.7711 127.172 68.3528 126.368 68.3528 125.528C68.3528 124.688 67.7711 123.884 66.7091 123.27C65.4446 122.596 64.0281 122.257 62.5952 122.287C62.565 122.291 62.5342 122.289 62.5048 122.281C62.4755 122.272 62.4484 122.257 62.4253 122.237C62.4021 122.218 62.3836 122.193 62.3709 122.165C62.3581 122.137 62.3516 122.107 62.3516 122.077C62.3516 122.046 62.3581 122.016 62.3709 121.988C62.3836 121.96 62.4021 121.936 62.4253 121.916C62.4484 121.896 62.4755 121.881 62.5048 121.873C62.5342 121.864 62.565 121.862 62.5952 121.867C64.104 121.836 65.5954 122.194 66.9261 122.905C68.122 123.598 68.773 124.526 68.773 125.528C68.773 126.53 68.1127 127.458 66.9261 128.151C66.1913 128.561 65.3943 128.848 64.5667 129L64.5206 129.005Z" fill="white"/>
<path d="M65.5543 122.577C67.1934 123.501 67.1934 125.052 65.5543 125.999C64.6359 126.465 63.6202 126.709 62.59 126.709C61.5598 126.709 60.5442 126.465 59.6258 125.999C57.9867 125.075 57.9867 123.519 59.6258 122.577C60.5442 122.11 61.5598 121.867 62.59 121.867C63.6202 121.867 64.6359 122.11 65.5543 122.577Z" fill="#BA68C8"/>
<path opacity="0.5" d="M65.5543 122.577C67.1934 123.501 67.1934 125.052 65.5543 125.999C64.6359 126.465 63.6202 126.709 62.59 126.709C61.5598 126.709 60.5442 126.465 59.6258 125.999C57.9867 125.075 57.9867 123.519 59.6258 122.577C60.5442 122.11 61.5598 121.867 62.59 121.867C63.6202 121.867 64.6359 122.11 65.5543 122.577Z" fill="white"/>
<path d="M73.3062 136.84L72.3828 143.239L75.6564 143.701L76.289 139.342C75.6526 138.156 74.5847 137.26 73.3062 136.84Z" fill="#BA68C8"/>
<path opacity="0.3" d="M73.3062 136.84L72.3828 143.239L75.6564 143.701L76.289 139.342C75.6526 138.156 74.5847 137.26 73.3062 136.84Z" fill="white"/>
<path d="M75.1209 138.733L74.7376 141.37L74.7099 141.559V141.73L74.4468 143.535L72.96 153.836L71.6395 162.932C70.9988 163.275 70.3319 163.567 69.6449 163.805C69.3725 163.897 69.0862 163.989 68.7999 164.063C68.1459 164.261 67.4796 164.415 66.8053 164.525C66.2282 164.622 65.6372 164.691 65.0508 164.733L66.8053 152.58L66.9669 151.472L68.8138 138.803L68.9523 137.852L73.1078 138.456L75.144 138.752L75.1209 138.733Z" fill="#BA68C8"/>
<path opacity="0.7" d="M75.1209 138.733L74.7376 141.37L74.7099 141.559V141.73L74.4468 143.535L72.96 153.836L71.6395 162.932C70.9988 163.275 70.3319 163.567 69.6449 163.805C69.3725 163.897 69.0862 163.989 68.7999 164.063C68.1459 164.261 67.4796 164.415 66.8053 164.525C66.2282 164.622 65.6372 164.691 65.0508 164.733L66.8053 152.58L66.9669 151.472L68.8138 138.803L68.9523 137.852L73.1078 138.456L75.144 138.752L75.1209 138.733Z" fill="white"/>
<path d="M76.4467 139.952L74.2536 155.11L73.2839 161.833C72.8499 162.19 72.3865 162.51 71.8988 162.789C71.8064 162.844 71.7095 162.9 71.6079 162.95C70.9672 163.294 70.3003 163.586 69.6133 163.823L71.2201 152.802L72.6052 143.277L72.7991 141.924C73.4543 141.92 74.1035 141.798 74.7153 141.564C75.2612 141.354 75.74 140.999 76.1004 140.539C76.2467 140.363 76.3637 140.165 76.4467 139.952Z" fill="#BA68C8"/>
<path opacity="0.5" d="M76.4467 139.952L74.2536 155.11L73.2839 161.833C72.8499 162.19 72.3865 162.51 71.8988 162.789C71.8064 162.844 71.7095 162.9 71.6079 162.95C70.9672 163.294 70.3003 163.586 69.6133 163.823L71.2201 152.802L72.6052 143.277L72.7991 141.924C73.4543 141.92 74.1035 141.798 74.7153 141.564C75.2612 141.354 75.74 140.999 76.1004 140.539C76.2467 140.363 76.3637 140.165 76.4467 139.952Z" fill="white"/>
<path d="M72.9288 142.067C72.8924 142.062 72.8589 142.045 72.8343 142.018C72.8097 141.991 72.7957 141.956 72.7949 141.919C72.7936 141.898 72.7965 141.878 72.8032 141.858C72.81 141.839 72.8205 141.821 72.8342 141.805C72.848 141.79 72.8646 141.777 72.8832 141.768C72.9018 141.759 72.922 141.754 72.9426 141.753C73.5369 141.73 74.1234 141.61 74.6787 141.397C75.5282 141.06 76.0638 140.529 76.1377 139.906C76.2116 139.283 75.8791 138.627 75.1635 138.059C74.2966 137.426 73.2828 137.024 72.2177 136.891C72.196 136.889 72.1748 136.884 72.1554 136.874C72.1361 136.864 72.119 136.85 72.1053 136.833C72.0916 136.816 72.0816 136.796 72.0758 136.775C72.0701 136.754 72.0688 136.732 72.072 136.711C72.0752 136.689 72.0829 136.669 72.0945 136.65C72.1061 136.632 72.1214 136.616 72.1395 136.604C72.1575 136.592 72.1779 136.584 72.1993 136.58C72.2207 136.576 72.2427 136.576 72.2639 136.581C73.384 136.719 74.4495 137.144 75.3574 137.814C76.1654 138.451 76.5533 139.199 76.4471 139.952C76.3409 140.705 75.7545 141.309 74.7941 141.693C74.2038 141.92 73.5795 142.046 72.9472 142.067H72.9288Z" fill="#BA68C8"/>
<path opacity="0.5" d="M72.9288 142.067C72.8924 142.062 72.8589 142.045 72.8343 142.018C72.8097 141.991 72.7957 141.956 72.7949 141.919C72.7936 141.898 72.7965 141.878 72.8032 141.858C72.81 141.839 72.8205 141.821 72.8342 141.805C72.848 141.79 72.8646 141.777 72.8832 141.768C72.9018 141.759 72.922 141.754 72.9426 141.753C73.5369 141.73 74.1234 141.61 74.6787 141.397C75.5282 141.06 76.0638 140.529 76.1377 139.906C76.2116 139.283 75.8791 138.627 75.1635 138.059C74.2966 137.426 73.2828 137.024 72.2177 136.891C72.196 136.889 72.1748 136.884 72.1554 136.874C72.1361 136.864 72.119 136.85 72.1053 136.833C72.0916 136.816 72.0816 136.796 72.0758 136.775C72.0701 136.754 72.0688 136.732 72.072 136.711C72.0752 136.689 72.0829 136.669 72.0945 136.65C72.1061 136.632 72.1214 136.616 72.1395 136.604C72.1575 136.592 72.1779 136.584 72.1993 136.58C72.2207 136.576 72.2427 136.576 72.2639 136.581C73.384 136.719 74.4495 137.144 75.3574 137.814C76.1654 138.451 76.5533 139.199 76.4471 139.952C76.3409 140.705 75.7545 141.309 74.7941 141.693C74.2038 141.92 73.5795 142.046 72.9472 142.067H72.9288Z" fill="white"/>
<path d="M74.3822 137.422C75.4903 138.299 75.3056 139.43 74.0128 139.956C73.283 140.202 72.5055 140.273 71.7434 140.162C70.9813 140.052 70.256 139.763 69.6265 139.319C68.5183 138.447 68.703 137.311 69.9912 136.789C70.7213 136.542 71.4994 136.47 72.2623 136.58C73.0252 136.69 73.7515 136.978 74.3822 137.422Z" fill="#BA68C8"/>
<path opacity="0.5" d="M74.3822 137.422C75.4903 138.299 75.3056 139.43 74.0128 139.956C73.283 140.202 72.5055 140.273 71.7434 140.162C70.9813 140.052 70.256 139.763 69.6265 139.319C68.5183 138.447 68.703 137.311 69.9912 136.789C70.7213 136.542 71.4994 136.47 72.2623 136.58C73.0252 136.69 73.7515 136.978 74.3822 137.422Z" fill="white"/>
<path d="M55.4531 132.172L56.2288 139.255L59.8533 138.858L59.3269 134.033C59.3269 134.033 57.7617 132.209 55.4531 132.172Z" fill="#BA68C8"/>
<path opacity="0.3" d="M55.4531 132.172L56.2288 139.255L59.8533 138.858L59.3269 134.033C59.3269 134.033 57.7617 132.209 55.4531 132.172Z" fill="white"/>
<path d="M61.2983 164.636C60.5958 164.559 59.8988 164.439 59.2113 164.275C58.9343 164.211 58.6665 164.146 58.3987 164.063C57.3052 163.765 56.2535 163.33 55.2682 162.77C54.8426 162.526 54.4353 162.251 54.0493 161.948L53.2597 154.713L51.0527 134.439L55.6699 133.936L57.9277 133.687L58.2463 136.614V136.812V137.011L58.371 138.124L58.4633 139.006L59.8485 151.523L61.2983 164.636Z" fill="#BA68C8"/>
<path opacity="0.7" d="M61.2983 164.636C60.5958 164.559 59.8988 164.439 59.2113 164.275C58.9343 164.211 58.6665 164.146 58.3987 164.063C57.3052 163.765 56.2535 163.33 55.2682 162.77C54.8426 162.526 54.4353 162.251 54.0493 161.948L53.2597 154.713L51.0527 134.439L55.6699 133.936L57.9277 133.687L58.2463 136.614V136.812V137.011L58.371 138.124L58.4633 139.006L59.8485 151.523L61.2983 164.636Z" fill="white"/>
<path d="M61.2957 164.636C60.5932 164.559 59.8962 164.439 59.2087 164.276L58.3961 156.856L57.8651 152.031L56.48 139.232L56.3184 137.731C57.0219 137.55 57.6846 137.236 58.2714 136.808C58.3222 136.771 58.373 136.739 58.4146 136.702C58.8805 136.336 59.2486 135.86 59.4857 135.317C59.5886 135.092 59.6541 134.851 59.6797 134.605L61.5265 151.264L62.9994 164.733C62.4038 164.737 61.8451 164.7 61.2957 164.636Z" fill="#BA68C8"/>
<path opacity="0.5" d="M61.2957 164.636C60.5932 164.559 59.8962 164.439 59.2087 164.276L58.3961 156.856L57.8651 152.031L56.48 139.232L56.3184 137.731C57.0219 137.55 57.6846 137.236 58.2714 136.808C58.3222 136.771 58.373 136.739 58.4146 136.702C58.8805 136.336 59.2486 135.86 59.4857 135.317C59.5886 135.092 59.6541 134.851 59.6797 134.605L61.5265 151.264L62.9994 164.733C62.4038 164.737 61.8451 164.7 61.2957 164.636Z" fill="white"/>
<path d="M56.4899 137.856C56.4494 137.86 56.4089 137.85 56.3752 137.827C56.3415 137.804 56.3168 137.77 56.3052 137.732C56.298 137.71 56.2952 137.687 56.2969 137.665C56.2986 137.642 56.3048 137.62 56.3151 137.6C56.3254 137.58 56.3397 137.562 56.357 137.547C56.3743 137.532 56.3944 137.521 56.416 137.515C57.0447 137.328 57.6378 137.038 58.1705 136.656C58.9878 136.06 59.3941 135.354 59.3156 134.661C59.2371 133.969 58.6923 133.368 57.7688 132.962C56.6699 132.52 55.4757 132.369 54.3013 132.523C54.2788 132.527 54.2558 132.525 54.2338 132.519C54.2118 132.513 54.1913 132.503 54.1736 132.488C54.1558 132.474 54.1412 132.456 54.1306 132.436C54.12 132.416 54.1137 132.394 54.112 132.371C54.108 132.325 54.1215 132.28 54.1498 132.244C54.1781 132.208 54.2191 132.184 54.2644 132.177C55.4982 132.016 56.7526 132.175 57.9074 132.639C58.9508 133.1 59.5742 133.798 59.6619 134.62C59.7496 135.441 59.2971 136.259 58.3783 136.928C57.818 137.336 57.1939 137.648 56.5314 137.852L56.4899 137.856Z" fill="#BA68C8"/>
<path opacity="0.5" d="M56.4899 137.856C56.4494 137.86 56.4089 137.85 56.3752 137.827C56.3415 137.804 56.3168 137.77 56.3052 137.732C56.298 137.71 56.2952 137.687 56.2969 137.665C56.2986 137.642 56.3048 137.62 56.3151 137.6C56.3254 137.58 56.3397 137.562 56.357 137.547C56.3743 137.532 56.3944 137.521 56.416 137.515C57.0447 137.328 57.6378 137.038 58.1705 136.656C58.9878 136.06 59.3941 135.354 59.3156 134.661C59.2371 133.969 58.6923 133.368 57.7688 132.962C56.6699 132.52 55.4757 132.369 54.3013 132.523C54.2788 132.527 54.2558 132.525 54.2338 132.519C54.2118 132.513 54.1913 132.503 54.1736 132.488C54.1558 132.474 54.1412 132.456 54.1306 132.436C54.12 132.416 54.1137 132.394 54.112 132.371C54.108 132.325 54.1215 132.28 54.1498 132.244C54.1781 132.208 54.2191 132.184 54.2644 132.177C55.4982 132.016 56.7526 132.175 57.9074 132.639C58.9508 133.1 59.5742 133.798 59.6619 134.62C59.7496 135.441 59.2971 136.259 58.3783 136.928C57.818 137.336 57.1939 137.648 56.5314 137.852L56.4899 137.856Z" fill="white"/>
<path d="M56.7586 132.486C58.1853 133.114 58.3238 134.37 57.068 135.288C56.3565 135.753 55.5453 136.043 54.7005 136.136C53.8558 136.228 53.0011 136.12 52.2061 135.819C50.7794 135.196 50.6455 133.936 51.9013 133.017C52.612 132.552 53.4223 132.262 54.2664 132.17C55.1104 132.077 55.9643 132.186 56.7586 132.486Z" fill="#BA68C8"/>
<path opacity="0.5" d="M56.7586 132.486C58.1853 133.114 58.3238 134.37 57.068 135.288C56.3565 135.753 55.5453 136.043 54.7005 136.136C53.8558 136.228 53.0011 136.12 52.2061 135.819C50.7794 135.196 50.6455 133.936 51.9013 133.017C52.612 132.552 53.4223 132.262 54.2664 132.17C55.1104 132.077 55.9643 132.186 56.7586 132.486Z" fill="white"/>
<path d="M168.13 102.646L162.59 105.836C162.37 105.936 162.131 105.982 161.89 105.972C161.649 105.961 161.415 105.894 161.205 105.776L142.385 94.9118C141.974 94.6763 141.923 94.3208 142.288 94.113L147.829 90.9226C148.048 90.8234 148.288 90.7771 148.528 90.7876C148.769 90.798 149.004 90.8648 149.214 90.9826L168.029 101.847C168.44 102.082 168.481 102.438 168.13 102.646Z" fill="#263238"/>
<path d="M152.077 94.1083L147.82 96.5646L144.311 94.5423L148.568 92.0859L152.077 94.1083Z" fill="#BA68C8"/>
<path d="M156.697 96.7772L152.44 99.2336L148.936 97.2112L153.188 94.7549L156.697 96.7772Z" fill="#BA68C8"/>
<path d="M161.32 99.4462L157.068 101.907L153.559 99.8802L157.816 97.4238L161.32 99.4462Z" fill="#BA68C8"/>
<path d="M165.947 102.119L161.69 104.575L158.186 102.548L162.438 100.092L165.947 102.119Z" fill="#BA68C8"/>
<path opacity="0.4" d="M152.077 94.1083L147.82 96.5646L144.311 94.5423L148.568 92.0859L152.077 94.1083Z" fill="black"/>
<path opacity="0.5" d="M156.697 96.7772L152.44 99.2336L148.936 97.2112L153.188 94.7549L156.697 96.7772Z" fill="black"/>
<path opacity="0.6" d="M161.32 99.4462L157.068 101.907L153.559 99.8802L157.816 97.4238L161.32 99.4462Z" fill="black"/>
<path opacity="0.8" d="M165.947 102.119L161.69 104.575L158.186 102.548L162.438 100.092L165.947 102.119Z" fill="black"/>
<path d="M169.203 96.7819L164.516 101.113C164.321 101.26 164.094 101.36 163.853 101.403C163.613 101.446 163.365 101.432 163.131 101.362L142.381 94.8981C141.92 94.7596 141.809 94.4364 142.109 94.1409L146.795 89.8099C146.99 89.6618 147.217 89.5619 147.458 89.5186C147.699 89.4753 147.946 89.4897 148.18 89.5606L168.93 96.0247C169.378 96.1632 169.503 96.5002 169.203 96.7819Z" fill="#37474F"/>
<path d="M151.657 91.9934L148.051 95.3317L144.182 94.1266L147.792 90.793L151.657 91.9934Z" fill="#BA68C8"/>
<path d="M156.758 93.582L153.148 96.9156L149.283 95.7106L152.889 92.377L156.758 93.582Z" fill="#BA68C8"/>
<path d="M161.856 95.166L158.25 98.4996L154.381 97.2945L157.991 93.9609L161.856 95.166Z" fill="#BA68C8"/>
<path d="M166.954 96.749L163.348 100.083L159.479 98.8822L163.089 95.5439L166.954 96.749Z" fill="#BA68C8"/>
<path opacity="0.1" d="M151.657 91.9934L148.051 95.3317L144.182 94.1266L147.792 90.793L151.657 91.9934Z" fill="white"/>
<path opacity="0.1" d="M161.856 95.166L158.25 98.4996L154.381 97.2945L157.991 93.9609L161.856 95.166Z" fill="black"/>
<path opacity="0.2" d="M166.954 96.749L163.348 100.083L159.479 98.8822L163.089 95.5439L166.954 96.749Z" fill="black"/>
<path d="M169.012 91.2272L165.319 96.4308C165.16 96.6121 164.962 96.7538 164.739 96.8444C164.516 96.935 164.275 96.972 164.035 96.9525L142.404 94.9117C141.942 94.8701 141.743 94.5608 141.983 94.2284L145.677 89.0248C145.836 88.8435 146.034 88.7015 146.257 88.6101C146.48 88.5188 146.721 88.4805 146.961 88.4984L168.592 90.5392C169.059 90.5854 169.252 90.8901 169.012 91.2272Z" fill="#455A64"/>
<path d="M150.862 90.1511L148.013 94.1588L143.982 93.7802L146.827 89.7725L150.862 90.1511Z" fill="#BA68C8"/>
<path d="M156.176 90.6547L153.332 94.6578L149.297 94.2792L152.146 90.2715L156.176 90.6547Z" fill="#BA68C8"/>
<path d="M161.49 91.153L158.646 95.1607L154.615 94.7821L157.459 90.7744L161.49 91.153Z" fill="#BA68C8"/>
<path d="M166.805 91.6569L163.96 95.6646L159.93 95.2814L162.774 91.2783L166.805 91.6569Z" fill="#BA68C8"/>
<path opacity="0.8" d="M150.862 90.1511L148.013 94.1588L143.982 93.7802L146.827 89.7725L150.862 90.1511Z" fill="white"/>
<path opacity="0.6" d="M156.176 90.6547L153.332 94.6578L149.297 94.2792L152.146 90.2715L156.176 90.6547Z" fill="white"/>
<path opacity="0.4" d="M161.49 91.153L158.646 95.1607L154.615 94.7821L157.459 90.7744L161.49 91.153Z" fill="white"/>
<path opacity="0.2" d="M166.805 91.6569L163.96 95.6646L159.93 95.2814L162.774 91.2783L166.805 91.6569Z" fill="white"/>
<path d="M141.259 96.1356C140.852 96.1379 140.457 96.0062 140.133 95.7608C139.809 95.5154 139.575 95.17 139.467 94.7782C139.401 94.5429 139.383 94.297 139.412 94.0545C139.441 93.8119 139.518 93.5775 139.638 93.3647C139.757 93.1518 139.918 92.9646 140.11 92.8138C140.302 92.663 140.522 92.5515 140.758 92.4857C140.993 92.4199 141.239 92.4011 141.481 92.4304C141.724 92.4596 141.958 92.5364 142.171 92.6562C142.384 92.776 142.571 92.9366 142.722 93.1288C142.873 93.321 142.984 93.541 143.05 93.7762L142.69 93.8732C142.583 93.493 142.33 93.1706 141.986 92.9771C141.642 92.7836 141.235 92.7347 140.855 92.8412C140.474 92.9478 140.152 93.201 139.959 93.5452C139.765 93.8894 139.716 94.2964 139.823 94.6766C139.876 94.8658 139.966 95.0427 140.088 95.1971C140.209 95.3515 140.36 95.4804 140.532 95.5765C140.703 95.6725 140.892 95.7338 141.087 95.7569C141.283 95.7799 141.48 95.7643 141.67 95.7108C141.858 95.6583 142.035 95.5688 142.188 95.4475C142.342 95.3263 142.47 95.1756 142.565 95.0044L142.888 95.1891C142.726 95.4757 142.49 95.7142 142.206 95.8804C141.921 96.0466 141.597 96.1347 141.268 96.1356H141.259Z" fill="#E0E0E0"/>
<path d="M115.088 139.644L99.4538 148.67L79.7246 137.28L95.3769 128.235C95.5803 128.117 95.8112 128.055 96.0464 128.055C96.2815 128.055 96.5125 128.117 96.7158 128.235L115.074 138.831C115.148 138.87 115.21 138.927 115.254 138.998C115.298 139.069 115.322 139.15 115.323 139.233C115.325 139.317 115.303 139.399 115.262 139.471C115.221 139.543 115.16 139.603 115.088 139.644Z" fill="#BA68C8"/>
<path opacity="0.7" d="M115.088 139.644L99.4538 148.67L79.7246 137.28L95.3769 128.235C95.5803 128.117 95.8112 128.055 96.0464 128.055C96.2815 128.055 96.5125 128.117 96.7158 128.235L115.074 138.831C115.148 138.87 115.21 138.927 115.254 138.998C115.298 139.069 115.322 139.15 115.323 139.233C115.325 139.317 115.303 139.399 115.262 139.471C115.221 139.543 115.16 139.603 115.088 139.644Z" fill="black"/>
<path d="M114.008 139.311L99.4543 147.723L81.0918 137.104L95.6729 128.687C95.8625 128.578 96.0775 128.521 96.2962 128.521C96.5149 128.521 96.7298 128.578 96.9195 128.687L114.003 138.554C114.071 138.591 114.127 138.646 114.166 138.712C114.206 138.778 114.227 138.854 114.227 138.931C114.228 139.008 114.208 139.084 114.169 139.151C114.13 139.218 114.075 139.273 114.008 139.311Z" fill="white"/>
<path d="M99.4531 147.715V146.076L114.224 137.548V138.947L99.4531 147.715Z" fill="white"/>
<path d="M99.4543 147.715V146.075L81.0918 135.47V137.109L99.4543 147.715Z" fill="#E0E0E0"/>
<path d="M115.088 137.049L99.4538 146.076L79.7246 134.685L95.3769 125.64C95.5803 125.522 95.8112 125.46 96.0464 125.46C96.2815 125.46 96.5124 125.522 96.7158 125.64L115.074 136.26C115.142 136.3 115.199 136.356 115.24 136.425C115.28 136.493 115.302 136.571 115.303 136.65C115.304 136.73 115.285 136.808 115.248 136.878C115.21 136.948 115.155 137.007 115.088 137.049Z" fill="#BA68C8"/>
<path opacity="0.5" d="M115.088 137.049L99.4538 146.076L79.7246 134.685L95.3769 125.64C95.5803 125.522 95.8112 125.46 96.0464 125.46C96.2815 125.46 96.5124 125.522 96.7158 125.64L115.074 136.26C115.142 136.3 115.199 136.356 115.24 136.425C115.28 136.493 115.302 136.571 115.303 136.65C115.304 136.73 115.285 136.808 115.248 136.878C115.21 136.948 115.155 137.007 115.088 137.049Z" fill="black"/>
<path d="M97.4173 147.493C97.371 147.514 97.3205 147.526 97.2695 147.526C97.2185 147.526 97.168 147.514 97.1218 147.493C97.0652 147.464 97.018 147.419 96.9853 147.365C96.9527 147.31 96.936 147.247 96.9371 147.184V145.701C96.9369 145.365 97.0241 145.035 97.19 144.743C97.3559 144.451 97.5949 144.207 97.8836 144.035L97.939 144.002C97.9651 143.985 97.9956 143.976 98.0267 143.976C98.0578 143.976 98.0883 143.985 98.1144 144.002C98.1418 144.017 98.1646 144.039 98.1801 144.066C98.1956 144.093 98.2033 144.124 98.2022 144.155C98.2022 144.237 98.2348 144.315 98.2928 144.373C98.3508 144.431 98.4295 144.464 98.5115 144.464C98.5936 144.464 98.6723 144.431 98.7303 144.373C98.7883 144.315 98.8209 144.237 98.8209 144.155C98.8206 144.015 98.7834 143.878 98.7132 143.757C98.6429 143.636 98.542 143.536 98.4207 143.467C98.2994 143.398 98.162 143.362 98.0223 143.362C97.8826 143.363 97.7455 143.401 97.625 143.471L97.5696 143.508C97.1891 143.734 96.8738 144.055 96.6545 144.44C96.4352 144.824 96.3194 145.259 96.3184 145.701V147.184C96.319 147.359 96.367 147.531 96.4572 147.681C96.5474 147.831 96.6765 147.955 96.8309 148.038C96.9736 148.111 97.132 148.149 97.2926 148.149C97.4849 148.151 97.6732 148.094 97.8328 147.987C97.8906 147.945 97.9328 147.885 97.9528 147.816L97.4173 147.493Z" fill="white"/>
<path d="M94.4934 145.807C94.4411 145.825 94.3854 145.83 94.3308 145.821C94.2763 145.813 94.2244 145.792 94.1794 145.761C94.1344 145.729 94.0976 145.687 94.072 145.638C94.0463 145.589 94.0325 145.535 94.0317 145.48V143.997C94.03 143.664 94.1141 143.335 94.2758 143.043C94.4375 142.752 94.6714 142.506 94.9551 142.331L95.0152 142.298C95.042 142.283 95.0722 142.275 95.1029 142.275C95.1336 142.275 95.1638 142.283 95.1906 142.298C95.2167 142.314 95.2385 142.337 95.2538 142.363C95.2691 142.39 95.2775 142.42 95.2783 142.451C95.273 142.494 95.277 142.538 95.2899 142.58C95.3029 142.622 95.3247 142.661 95.3537 142.693C95.3827 142.726 95.4184 142.752 95.4583 142.77C95.4983 142.788 95.5416 142.798 95.5854 142.798C95.6292 142.798 95.6725 142.788 95.7124 142.77C95.7524 142.752 95.7881 142.726 95.8171 142.693C95.8461 142.661 95.8678 142.622 95.8808 142.58C95.8938 142.538 95.8978 142.494 95.8924 142.451C95.8922 142.311 95.8553 142.175 95.7853 142.054C95.7153 141.934 95.6147 141.835 95.4937 141.766C95.3728 141.697 95.2358 141.661 95.0966 141.662C94.9574 141.663 94.821 141.701 94.7012 141.772L94.6458 141.804C94.2649 142.031 93.9495 142.353 93.7301 142.738C93.5108 143.123 93.3952 143.559 93.3945 144.002V145.484C93.3947 145.66 93.4424 145.832 93.5327 145.982C93.623 146.133 93.7523 146.256 93.907 146.338C94.0498 146.412 94.2082 146.45 94.3688 146.449C94.5592 146.448 94.7452 146.392 94.9043 146.288C94.9648 146.248 95.0077 146.187 95.0244 146.117L94.4934 145.807Z" fill="white"/>
<path d="M91.5708 144.122C91.5253 144.143 91.4757 144.154 91.4254 144.154C91.3751 144.154 91.3255 144.143 91.28 144.122C91.2225 144.092 91.1744 144.047 91.141 143.992C91.1076 143.936 91.0902 143.873 91.0907 143.808V142.326C91.0918 141.99 91.18 141.66 91.3467 141.369C91.5134 141.078 91.7529 140.835 92.0418 140.664L92.0972 140.631C92.1235 140.615 92.1539 140.606 92.1849 140.606C92.2159 140.606 92.2463 140.615 92.2726 140.631C92.2994 140.647 92.3216 140.669 92.337 140.696C92.3524 140.722 92.3605 140.753 92.3604 140.784C92.355 140.827 92.359 140.871 92.372 140.913C92.385 140.955 92.4067 140.994 92.4357 141.026C92.4647 141.059 92.5004 141.085 92.5404 141.103C92.5803 141.121 92.6236 141.131 92.6674 141.131C92.7112 141.131 92.7545 141.121 92.7945 141.103C92.8344 141.085 92.8701 141.059 92.8991 141.026C92.9281 140.994 92.9499 140.955 92.9629 140.913C92.9758 140.871 92.9798 140.827 92.9745 140.784C92.9743 140.644 92.9373 140.508 92.8673 140.388C92.7973 140.267 92.6967 140.168 92.5758 140.099C92.4548 140.03 92.3178 139.994 92.1787 139.995C92.0395 139.996 91.9031 140.034 91.7832 140.105L91.7278 140.137C91.3477 140.364 91.0326 140.685 90.8133 141.069C90.594 141.453 90.478 141.888 90.4766 142.33V143.813C90.4762 143.988 90.5238 144.16 90.6141 144.311C90.7044 144.461 90.834 144.584 90.9891 144.667C91.1306 144.744 91.2896 144.784 91.4508 144.782C91.6413 144.782 91.8276 144.726 91.9864 144.621C92.0459 144.58 92.0885 144.519 92.1064 144.45L91.5708 144.122Z" fill="white"/>
<path d="M88.6532 142.433C88.607 142.455 88.5566 142.466 88.5055 142.466C88.4544 142.466 88.4039 142.455 88.3577 142.433C88.3015 142.402 88.2546 142.357 88.2221 142.301C88.1896 142.246 88.1726 142.183 88.173 142.119V140.637C88.1708 140.304 88.2547 139.976 88.4165 139.684C88.5782 139.393 88.8125 139.149 89.0965 138.975L89.1519 138.938C89.1786 138.922 89.2088 138.914 89.2396 138.914C89.2704 138.914 89.3007 138.922 89.3273 138.938C89.3547 138.952 89.3775 138.974 89.393 139.001C89.4085 139.028 89.4161 139.059 89.4151 139.09C89.4151 139.172 89.4477 139.251 89.5057 139.309C89.5637 139.367 89.6424 139.399 89.7244 139.399C89.7648 139.399 89.8048 139.391 89.8421 139.376C89.8794 139.36 89.9132 139.337 89.9415 139.308C89.9699 139.28 89.9923 139.245 90.0073 139.208C90.0223 139.17 90.0298 139.13 90.0292 139.09C90.0304 138.95 89.9944 138.813 89.9247 138.691C89.855 138.57 89.7543 138.47 89.6328 138.401C89.5114 138.332 89.3737 138.296 89.234 138.298C89.0942 138.3 88.9575 138.339 88.8379 138.411L88.7825 138.444C88.4023 138.67 88.0873 138.991 87.868 139.375C87.6487 139.76 87.5327 140.194 87.5313 140.637V142.119C87.5309 142.294 87.5785 142.467 87.6688 142.617C87.7591 142.768 87.8887 142.891 88.0438 142.973C88.1853 143.05 88.3443 143.09 88.5055 143.088C88.6974 143.088 88.8851 143.032 89.0457 142.927C89.1025 142.884 89.1445 142.824 89.1657 142.756L88.6532 142.433Z" fill="white"/>
<path d="M85.731 140.748C85.6845 140.768 85.6341 140.779 85.5832 140.779C85.5324 140.779 85.482 140.768 85.4355 140.748C85.3793 140.717 85.3324 140.671 85.2999 140.616C85.2674 140.561 85.2504 140.498 85.2508 140.434V138.951C85.252 138.616 85.3397 138.286 85.5055 137.994C85.6713 137.702 85.9096 137.458 86.1973 137.285L86.2574 137.252C86.2841 137.237 86.3144 137.229 86.3452 137.229C86.376 137.229 86.4063 137.237 86.433 137.252C86.4597 137.268 86.4818 137.29 86.4972 137.317C86.5126 137.344 86.5206 137.374 86.5205 137.405C86.5298 137.48 86.5661 137.549 86.6226 137.599C86.6792 137.649 86.7521 137.676 86.8276 137.676C86.9031 137.676 86.976 137.649 87.0326 137.599C87.0891 137.549 87.1254 137.48 87.1346 137.405C87.1356 137.265 87.0993 137.128 87.0295 137.007C86.9597 136.886 86.8589 136.786 86.7375 136.717C86.6175 136.645 86.4803 136.607 86.3405 136.607C86.2007 136.607 86.0635 136.645 85.9434 136.717L85.888 136.749C85.5078 136.976 85.1928 137.297 84.9735 137.681C84.7542 138.065 84.6382 138.5 84.6367 138.942V140.424C84.6359 140.6 84.6832 140.772 84.7736 140.923C84.8639 141.074 84.9939 141.197 85.1492 141.279C85.3034 141.362 85.4776 141.401 85.6527 141.392C85.8278 141.383 85.997 141.326 86.1419 141.228C86.2011 141.189 86.2439 141.13 86.262 141.062L85.731 140.748Z" fill="white"/>
<path d="M82.8082 139.062C82.7559 139.078 82.7005 139.082 82.6463 139.074C82.5922 139.065 82.5407 139.044 82.496 139.013C82.4513 138.981 82.4146 138.939 82.3886 138.891C82.3627 138.843 82.3483 138.789 82.3465 138.734V137.252C82.3473 136.916 82.4353 136.585 82.602 136.293C82.7688 136.001 83.0084 135.757 83.2976 135.585L83.3531 135.553C83.3794 135.537 83.4098 135.528 83.4408 135.528C83.4718 135.528 83.5022 135.537 83.5285 135.553C83.5559 135.568 83.5787 135.59 83.5942 135.617C83.6097 135.643 83.6173 135.674 83.6162 135.705C83.6254 135.78 83.6617 135.849 83.7183 135.899C83.7749 135.949 83.8478 135.977 83.9233 135.977C83.9988 135.977 84.0717 135.949 84.1282 135.899C84.1848 135.849 84.2211 135.78 84.2303 135.705C84.2318 135.566 84.1957 135.428 84.1259 135.307C84.056 135.186 83.955 135.086 83.8332 135.017C83.7127 134.947 83.5757 134.91 83.4362 134.91C83.2967 134.91 83.1597 134.947 83.0391 135.017L82.9837 135.054C82.6035 135.281 82.2885 135.602 82.0692 135.986C81.8499 136.37 81.7339 136.805 81.7324 137.247V138.729C81.7331 138.905 81.781 139.077 81.8712 139.227C81.9615 139.377 82.0905 139.501 82.2449 139.584C82.3873 139.659 82.5457 139.698 82.7066 139.699C82.8981 139.701 83.0853 139.642 83.2422 139.533C83.3014 139.494 83.3442 139.435 83.3623 139.367L82.8082 139.062Z" fill="white"/>
<path d="M117.105 132.967L100.201 142.728L78.2051 130.03L95.1086 120.27L117.105 132.967Z" fill="#E6E6E6"/>
<path d="M118.074 132.649L100.414 140.96L79.5625 126.462L97.2232 118.155L118.074 132.649Z" fill="#FAFAFA"/>
<path d="M95.5649 126.9C94.8931 127.558 94.4381 128.405 94.2607 129.328C94.0833 130.251 94.192 131.207 94.5722 132.067C95.3617 133.913 97.3425 134.957 99.2725 135.022C100.265 135.062 101.25 134.824 102.115 134.335C102.98 133.845 103.69 133.124 104.167 132.251C104.627 131.374 104.723 130.35 104.435 129.402C104.112 128.44 103.485 127.608 102.648 127.034C101.539 126.31 100.241 125.931 98.917 125.944C97.795 125.921 96.4422 126.023 95.6849 126.946C95.5326 127.126 95.7958 127.408 95.9481 127.209C96.5853 126.447 97.6472 126.332 98.5799 126.318C99.6929 126.272 100.801 126.492 101.812 126.96C103.506 127.8 104.712 129.684 104.065 131.577C103.729 132.431 103.156 133.171 102.413 133.71C101.67 134.249 100.789 134.565 99.8727 134.62C98.9713 134.705 98.0637 134.547 97.2438 134.163C96.4238 133.779 95.7215 133.183 95.2094 132.436C94.7011 131.616 94.4864 130.648 94.6005 129.69C94.7145 128.732 95.1506 127.841 95.8373 127.163C96.0128 127.006 95.7496 126.743 95.5741 126.9H95.5649Z" fill="#BA68C8"/>
<path d="M98.1689 132.372C98.6008 132.498 99.0549 132.529 99.4999 132.462C99.9448 132.395 100.37 132.232 100.745 131.984C101.106 131.736 101.397 131.399 101.591 131.006C101.784 130.613 101.873 130.177 101.849 129.74C101.825 129.245 101.642 128.77 101.327 128.387C101.175 128.202 100.912 128.466 101.064 128.65C101.349 129.035 101.496 129.505 101.48 129.984C101.464 130.463 101.287 130.922 100.976 131.287C100.637 131.648 100.203 131.908 99.7247 132.037C99.246 132.165 98.7408 132.158 98.2659 132.016C98.22 132.007 98.1724 132.016 98.1325 132.04C98.0927 132.065 98.0637 132.104 98.0514 132.149C98.0391 132.194 98.0444 132.242 98.0662 132.283C98.088 132.325 98.1247 132.356 98.1689 132.372Z" fill="#BA68C8"/>
<path d="M94.606 133.263C94.0703 133.152 93.565 132.926 93.125 132.601C92.685 132.275 92.3208 131.859 92.0573 131.379C91.8587 130.991 91.7064 130.391 92.0203 129.994C92.4821 129.458 93.2023 129.915 93.4932 130.359C93.6435 130.555 93.7448 130.785 93.7887 131.028C93.7887 131.416 93.1793 130.857 93.0592 130.742C92.6608 130.351 92.3821 129.854 92.2558 129.311C92.025 128.281 92.4821 127.002 93.641 126.836C94.1027 126.78 94.7306 126.947 94.8738 127.454C94.9476 127.722 94.8091 128.032 94.4859 127.842C94.3724 127.758 94.2771 127.651 94.2057 127.529C94.1343 127.407 94.0883 127.272 94.0704 127.131C94.0179 126.886 94.0147 126.634 94.0611 126.388C94.1075 126.141 94.2025 125.907 94.3404 125.698C94.4784 125.489 94.6567 125.31 94.8648 125.171C95.0729 125.032 95.3067 124.935 95.5525 124.887C96.0519 124.809 96.5625 124.924 96.9792 125.211C97.1362 125.317 97.5517 125.64 97.367 125.848C97.09 126.148 96.7945 125.658 96.7622 125.428C96.7518 125.164 96.8273 124.905 96.9772 124.688C97.1271 124.472 97.3433 124.31 97.5933 124.227C97.8733 124.143 98.169 124.124 98.4574 124.173C98.7457 124.222 99.0188 124.337 99.2555 124.509C99.5504 124.679 99.8067 124.908 100.008 125.183C100.234 125.557 99.7726 125.792 99.4956 125.548C98.9554 125.086 99.5325 124.426 100.054 124.324C100.738 124.19 101.439 124.633 101.97 125.003C102.53 125.394 103.024 125.87 103.434 126.416C103.577 126.605 103.896 126.416 103.757 126.226C103.222 125.514 102.556 124.911 101.795 124.449C101.112 124.038 100.22 123.687 99.4863 124.153C99.3483 124.231 99.2295 124.339 99.1385 124.469C99.0476 124.598 98.9868 124.747 98.9607 124.903C98.9346 125.059 98.9438 125.219 98.9876 125.372C99.0314 125.524 99.1087 125.665 99.2139 125.783C99.6525 126.245 100.631 125.963 100.451 125.234C100.308 124.879 100.053 124.579 99.7264 124.379C99.3852 124.108 98.9878 123.915 98.5629 123.816C98.2042 123.729 97.8275 123.753 97.4828 123.885C97.1381 124.017 96.8417 124.25 96.6329 124.555C96.2866 125.072 96.2774 126.069 97.0115 126.277C97.1509 126.314 97.2986 126.304 97.4314 126.248C97.5643 126.192 97.6748 126.093 97.7457 125.968C97.9119 125.635 97.6672 125.307 97.4317 125.09C97.1699 124.85 96.8548 124.676 96.5123 124.581C96.1698 124.486 95.8097 124.474 95.4617 124.546C95.1136 124.618 94.7876 124.771 94.5104 124.993C94.2332 125.215 94.0127 125.5 93.8672 125.825C93.7155 126.152 93.6495 126.513 93.6754 126.873C93.7012 127.233 93.8181 127.581 94.015 127.884C94.105 128.03 94.2402 128.143 94.4002 128.206C94.5601 128.268 94.7361 128.277 94.9015 128.23C95.0224 128.178 95.1242 128.09 95.1928 127.977C95.2615 127.865 95.2936 127.734 95.2847 127.602C95.2847 126.882 94.5413 126.471 93.8995 126.457C93.5338 126.451 93.1737 126.548 92.8597 126.735C92.5457 126.923 92.2902 127.194 92.1219 127.519C91.9449 127.876 91.8456 128.266 91.8305 128.664C91.8153 129.062 91.8848 129.459 92.0342 129.828C92.1721 130.187 92.3705 130.519 92.6206 130.811C92.8604 131.131 93.1784 131.384 93.544 131.545C93.6152 131.569 93.691 131.574 93.7648 131.562C93.8386 131.549 93.9083 131.519 93.9679 131.474C94.0274 131.428 94.075 131.369 94.1065 131.301C94.138 131.233 94.1526 131.158 94.1489 131.084C94.1031 130.709 93.9545 130.354 93.7195 130.059C93.2947 129.477 92.4174 129.103 91.8126 129.652C91.3001 130.114 91.4201 130.913 91.6833 131.471C92.0581 132.201 92.648 132.797 93.3732 133.18C93.7247 133.369 94.1007 133.509 94.4905 133.595C94.7214 133.646 94.823 133.286 94.5875 133.235L94.606 133.263Z" fill="#BA68C8"/>
<path d="M97.0896 130.178C97.0769 130.202 97.0614 130.223 97.0434 130.243C97.0758 130.22 97.0434 130.243 97.0434 130.243L97.0157 130.271C97.0011 130.288 96.984 130.304 96.965 130.317C96.965 130.317 96.9326 130.354 96.965 130.317L96.9188 130.345L96.8541 130.386H96.8264C96.8019 130.399 96.7753 130.406 96.7479 130.409H96.6648C96.6648 130.409 96.711 130.409 96.6648 130.409H96.5125C96.5125 130.409 96.5494 130.409 96.5125 130.409H96.434C96.434 130.409 96.4063 130.409 96.397 130.409C96.3878 130.409 96.397 130.409 96.397 130.409L96.3416 130.372L96.3139 130.349V130.326C96.2816 130.289 96.3139 130.349 96.3139 130.326L96.2816 130.28V130.248C96.2816 130.248 96.2816 130.201 96.2816 130.183C96.2795 130.162 96.2795 130.14 96.2816 130.118C96.2816 130.16 96.2816 130.141 96.2816 130.118V130.026C96.2816 130.026 96.2816 130.003 96.2816 129.994C96.2816 129.984 96.2816 130.021 96.2816 129.994C96.2794 129.968 96.2794 129.941 96.2816 129.915C96.2816 129.915 96.2816 129.892 96.2816 129.915L96.3093 129.86V129.832C96.3093 129.809 96.3324 129.832 96.3093 129.832C96.2862 129.832 96.3416 129.8 96.3555 129.786H96.3786C96.3555 129.818 96.3555 129.786 96.3786 129.786L96.434 129.754C96.434 129.754 96.3878 129.754 96.434 129.754H96.4709H96.5171H96.591C96.6371 129.754 96.554 129.754 96.591 129.754L96.6972 129.786C96.7433 129.786 96.6648 129.786 96.6972 129.786L96.7526 129.818L96.8357 129.869C96.8357 129.869 96.8818 129.906 96.8357 129.869L96.8865 129.915L96.9603 129.984L97.0434 130.072L97.0711 130.109V130.132C97.097 130.174 97.1375 130.204 97.1846 130.217C97.2316 130.229 97.2818 130.224 97.3251 130.201C97.3461 130.189 97.3644 130.173 97.379 130.153C97.3936 130.134 97.4042 130.112 97.4102 130.088C97.4163 130.064 97.4175 130.04 97.414 130.016C97.4105 129.992 97.4022 129.968 97.3897 129.948C97.2154 129.661 96.9349 129.455 96.6094 129.375C96.469 129.349 96.3241 129.37 96.1966 129.434C96.0691 129.498 95.966 129.602 95.903 129.731C95.846 129.845 95.8164 129.972 95.8164 130.1C95.8164 130.228 95.846 130.354 95.903 130.469C95.9718 130.588 96.072 130.685 96.1926 130.75C96.3132 130.815 96.4495 130.846 96.5863 130.839C96.746 130.833 96.9017 130.788 97.0396 130.708C97.1775 130.627 97.293 130.513 97.3759 130.377C97.3903 130.356 97.4003 130.332 97.4051 130.307C97.41 130.282 97.4096 130.256 97.404 130.232C97.3984 130.207 97.3878 130.183 97.3727 130.163C97.3576 130.142 97.3385 130.125 97.3164 130.112C97.2944 130.1 97.27 130.091 97.2447 130.089C97.2194 130.086 97.1937 130.088 97.1694 130.096C97.1451 130.103 97.1225 130.116 97.1032 130.132C97.084 130.149 97.0683 130.169 97.0573 130.192L97.0896 130.178Z" fill="#BA68C8"/>
<path d="M98 128.092C98.0128 128.234 98.068 128.369 98.1586 128.479C98.2492 128.59 98.3709 128.67 98.5079 128.711C98.641 128.757 98.7857 128.759 98.9199 128.716C99.0542 128.672 99.1705 128.586 99.2513 128.47C99.316 128.356 99.3501 128.228 99.3501 128.097C99.3501 127.965 99.316 127.837 99.2513 127.723C99.1847 127.598 99.0769 127.5 98.9464 127.447C98.8159 127.393 98.6706 127.386 98.5356 127.427C98.374 127.476 98.2328 127.576 98.1339 127.713C98.038 127.847 97.9982 128.013 98.0231 128.175C98.038 128.222 98.0702 128.261 98.113 128.285C98.1559 128.309 98.2062 128.316 98.2539 128.304C98.3001 128.288 98.3388 128.256 98.3626 128.214C98.3865 128.171 98.3938 128.121 98.3832 128.073C98.3832 128.073 98.3832 128.115 98.3832 128.097V128.046C98.3852 128.033 98.3852 128.021 98.3832 128.009C98.3853 127.997 98.3853 127.984 98.3832 127.972C98.3832 127.972 98.3832 127.926 98.4202 127.907C98.4571 127.889 98.4479 127.866 98.4202 127.907C98.3925 127.949 98.4202 127.907 98.4202 127.907L98.4756 127.852C98.4756 127.852 98.4987 127.852 98.5079 127.852L98.5725 127.815H98.6095H98.6418C98.6695 127.815 98.6418 127.815 98.6418 127.815C98.6648 127.817 98.688 127.817 98.7111 127.815C98.7434 127.815 98.7111 127.815 98.7111 127.815H98.748H98.7849C98.8172 127.815 98.7526 127.815 98.7849 127.815C98.8034 127.828 98.8236 127.839 98.8449 127.847C98.8126 127.847 98.8172 127.847 98.8449 127.847V127.87V127.893C98.8574 127.911 98.8682 127.929 98.8773 127.949C98.8773 127.949 98.8773 127.986 98.8773 127.949C98.8773 127.912 98.8773 127.949 98.8773 127.949C98.8793 127.97 98.8793 127.992 98.8773 128.013C98.8751 128.023 98.8751 128.032 98.8773 128.041C98.8773 127.99 98.8773 128.041 98.8773 128.041V128.138C98.8773 128.17 98.8773 128.092 98.8773 128.138V128.198C98.8758 128.209 98.8758 128.22 98.8773 128.23C98.8773 128.267 98.8773 128.203 98.8773 128.23C98.8693 128.252 98.8584 128.272 98.8449 128.29V128.314C98.8449 128.314 98.8726 128.286 98.8449 128.314V128.337C98.8449 128.337 98.808 128.364 98.8449 128.337C98.8819 128.309 98.8449 128.337 98.8449 128.337H98.808H98.7757H98.748H98.7249C98.7249 128.337 98.7711 128.337 98.748 128.337H98.6464H98.5725C98.5603 128.334 98.5478 128.334 98.5356 128.337L98.471 128.295C98.434 128.272 98.471 128.295 98.471 128.295L98.4386 128.267L98.4109 128.24C98.4109 128.24 98.3786 128.198 98.4109 128.24C98.4433 128.281 98.4109 128.24 98.4109 128.24L98.3878 128.203C98.3878 128.18 98.3878 128.203 98.3878 128.203C98.3878 128.203 98.3878 128.203 98.3878 128.166C98.3852 128.154 98.3852 128.141 98.3878 128.129C98.3878 128.129 98.3878 128.101 98.3878 128.129C98.3878 128.157 98.3878 128.129 98.3878 128.129C98.3855 128.08 98.3647 128.033 98.3296 127.999C98.2944 127.965 98.2476 127.945 98.1985 127.944C98.1499 127.945 98.1036 127.965 98.0692 128C98.0349 128.034 98.015 128.08 98.0139 128.129L98 128.092Z" fill="#BA68C8"/>
<path d="M126.27 110.203L118.781 114.479C118.199 114.812 117.54 114.987 116.869 114.987C116.199 114.987 115.54 114.812 114.958 114.479L110.156 111.709L109.611 111.395C109.043 111.067 108.571 110.596 108.242 110.029C107.913 109.462 107.739 108.818 107.736 108.163V94.3018L118.979 87.9023V102.012C118.979 102.58 119.129 103.137 119.412 103.628C119.696 104.119 120.104 104.527 120.595 104.81L126.279 108.093C126.466 108.199 126.621 108.353 126.729 108.539C126.837 108.725 126.893 108.936 126.892 109.151C126.891 109.366 126.833 109.577 126.724 109.762C126.614 109.947 126.458 110.099 126.27 110.203Z" fill="#E0E0E0"/>
<path d="M117.179 114.941C117.743 114.897 118.29 114.73 118.781 114.451L126.27 110.185C126.456 110.079 126.61 109.926 126.717 109.742C126.824 109.557 126.88 109.348 126.88 109.134C126.88 108.921 126.824 108.712 126.717 108.527C126.61 108.343 126.456 108.19 126.27 108.084L122.387 105.845H117.17L117.179 114.941Z" fill="#E6E6E6"/>
<path d="M126.135 107.175L126.343 107.341C126.511 107.475 126.647 107.645 126.741 107.838C126.834 108.032 126.883 108.244 126.883 108.458V109.156H126.131L126.135 107.175Z" fill="#E6E6E6"/>
<path d="M119.848 88.9736V101.671C119.847 102.221 119.992 102.762 120.267 103.238C120.541 103.715 120.937 104.111 121.413 104.386L126.141 107.156C126.321 107.259 126.47 107.407 126.574 107.586C126.677 107.764 126.732 107.968 126.732 108.174C126.732 108.381 126.677 108.584 126.574 108.763C126.47 108.941 126.321 109.09 126.141 109.192L125.606 109.497L118.888 113.32C118.325 113.642 117.689 113.811 117.041 113.811C116.393 113.811 115.756 113.642 115.194 113.32L110.54 110.573C110.064 110.298 109.668 109.904 109.394 109.428C109.119 108.952 108.974 108.412 108.975 107.863V95.1653L119.848 88.9736Z" fill="#F0F0F0"/>
<path d="M119.848 101.671V88.9736L108.965 95.1653V107.867C108.965 108.417 109.109 108.956 109.384 109.432C109.659 109.908 110.054 110.303 110.53 110.577L121.233 104.284C120.804 103.997 120.454 103.607 120.212 103.151C119.97 102.696 119.845 102.187 119.848 101.671Z" fill="#E6E6E6"/>
<path d="M85.4084 117.324L84.171 118.039V120.302C83.3775 120.301 82.599 120.085 81.9178 119.678L81.8209 119.623C81.5371 119.454 81.2905 119.23 81.0961 118.963C80.9016 118.697 80.7634 118.393 80.6896 118.072C80.6465 117.933 80.6247 117.788 80.625 117.642V114.562L85.4084 117.324Z" fill="#E0E0E0"/>
<path d="M139.152 34.2326L139.055 34.1771C138.375 33.7696 137.596 33.5542 136.802 33.5538C136.547 33.5505 136.297 33.6176 136.077 33.7477L82.7812 64.3966C82.1256 64.7741 81.5811 65.3177 81.2025 65.9726C80.824 66.6276 80.6248 67.3708 80.625 68.1273V114.562L85.4084 117.333L136.04 88.2444C136.696 87.8658 137.241 87.3214 137.619 86.6657C137.998 86.01 138.197 85.2662 138.197 84.5091V36.338H140.348C140.349 35.9135 140.239 35.4961 140.029 35.127C139.819 34.7579 139.517 34.4496 139.152 34.2326Z" fill="#37474F"/>
<path d="M81.0633 66.1924C80.7611 66.7926 80.603 67.455 80.6016 68.127V114.562L85.385 117.332L87.1764 116.298V69.9831L81.0633 66.1924Z" fill="#263238"/>
<path d="M82.7773 115.805V118.884C82.7773 119.132 82.8426 119.376 82.9666 119.591C83.0906 119.805 83.269 119.984 83.4838 120.108C83.6986 120.232 83.9422 120.297 84.1902 120.297C84.4382 120.297 84.6819 120.232 84.8966 120.108L138.193 89.4589C138.848 89.0814 139.393 88.5378 139.772 87.8829C140.15 87.2279 140.349 86.4847 140.349 85.7282V82.5654L82.7773 115.805Z" fill="#F0F0F0"/>
<path d="M140.349 36.2139C140.349 35.9666 140.283 35.7237 140.159 35.5096C140.036 35.2954 139.858 35.1175 139.644 34.9937C139.43 34.8698 139.187 34.8043 138.939 34.8037C138.692 34.8031 138.449 34.8675 138.234 34.9903L84.9336 65.6392C84.2779 66.0178 83.7335 66.5623 83.355 67.218C82.9764 67.8736 82.7772 68.6174 82.7773 69.3745V115.805L140.349 82.5612" fill="#455A64"/>
<path d="M137.26 38.3516C137.017 38.3503 136.776 38.4057 136.558 38.5132L86.457 67.3106C85.879 67.6454 85.399 68.1261 85.0652 68.7046C84.7313 69.2832 84.5553 69.9393 84.5547 70.6072V110.172C84.554 110.342 84.5886 110.51 84.6563 110.666C84.727 110.827 84.8308 110.972 84.961 111.09C85.0913 111.209 85.245 111.299 85.4121 111.354C85.5793 111.409 85.7563 111.429 85.9315 111.411C86.1068 111.394 86.2763 111.34 86.4293 111.252L136.517 82.4549C137.095 82.1201 137.574 81.6394 137.908 81.0609C138.242 80.4823 138.418 79.8262 138.419 79.1583V39.5936C138.418 39.2784 138.299 38.9751 138.084 38.7446C137.869 38.5142 137.574 38.3738 137.26 38.3516Z" fill="#BA68C8"/>
<path opacity="0.5" d="M137.26 38.3516C137.017 38.3503 136.776 38.4057 136.558 38.5132L86.457 67.3106C85.879 67.6454 85.399 68.1261 85.0652 68.7046C84.7313 69.2832 84.5553 69.9393 84.5547 70.6072V110.172C84.554 110.342 84.5886 110.51 84.6563 110.666C84.727 110.827 84.8308 110.972 84.961 111.09C85.0913 111.209 85.245 111.299 85.4121 111.354C85.5793 111.409 85.7563 111.429 85.9315 111.411C86.1068 111.394 86.2763 111.34 86.4293 111.252L136.517 82.4549C137.095 82.1201 137.574 81.6394 137.908 81.0609C138.242 80.4823 138.418 79.8262 138.419 79.1583V39.5936C138.418 39.2784 138.299 38.9751 138.084 38.7446C137.869 38.5142 137.574 38.3738 137.26 38.3516Z" fill="white"/>
<path d="M158.216 118.27L157.824 118.492C157.661 118.322 157.474 118.176 157.27 118.058L141.982 109.234C140.837 108.57 139.101 108.5 138.109 109.073L111.126 124.637C111.055 124.682 110.987 124.731 110.923 124.785L110.461 124.522V125.662C110.504 125.924 110.61 126.172 110.771 126.383C110.932 126.594 111.143 126.762 111.384 126.872L126.69 135.719C127.835 136.379 129.571 136.453 130.564 135.88L157.547 120.302C157.732 120.215 157.891 120.081 158.007 119.913C158.123 119.745 158.192 119.55 158.207 119.346L158.216 118.27Z" fill="#263238"/>
<path d="M157.546 119.221L130.564 134.795C129.571 135.372 127.835 135.298 126.69 134.638L111.402 125.81C110.257 125.15 110.133 124.148 111.125 123.575L138.108 108.016C139.101 107.438 140.837 107.512 141.982 108.173L157.269 117.001C158.419 117.647 158.544 118.635 157.546 119.221Z" fill="#37474F"/>
<path d="M154.287 118.677L133.117 130.899C132.819 131.035 132.492 131.099 132.164 131.085C131.836 131.072 131.515 130.981 131.229 130.821L118.001 123.193C117.442 122.874 117.382 122.385 117.867 122.108L139.055 109.863C139.354 109.728 139.681 109.665 140.009 109.679C140.336 109.692 140.657 109.782 140.943 109.942L154.153 117.569C154.712 117.911 154.772 118.396 154.287 118.677Z" fill="#455A64"/>
<path d="M121.892 129.661C122.864 129.661 123.651 129.207 123.651 128.646C123.651 128.085 122.864 127.63 121.892 127.63C120.92 127.63 120.133 128.085 120.133 128.646C120.133 129.207 120.92 129.661 121.892 129.661Z" fill="#263238"/>
<path d="M125.924 129.896L124.077 130.958C123.961 131.01 123.835 131.034 123.708 131.028C123.582 131.022 123.458 130.987 123.347 130.926C123.135 130.801 123.112 130.612 123.297 130.506L125.144 129.444C125.259 129.392 125.386 129.368 125.512 129.374C125.639 129.379 125.762 129.414 125.873 129.476C126.085 129.601 126.113 129.79 125.924 129.896Z" fill="#263238"/>
<path d="M127.668 130.903L125.821 131.965C125.705 132.017 125.579 132.041 125.453 132.035C125.326 132.029 125.202 131.994 125.092 131.933C124.879 131.808 124.856 131.623 125.041 131.513L126.888 130.455C127.003 130.402 127.129 130.377 127.256 130.381C127.383 130.386 127.506 130.421 127.617 130.483C127.83 130.608 127.853 130.797 127.668 130.903Z" fill="#263238"/>
<path d="M118.763 125.764L116.916 126.822C116.802 126.875 116.677 126.901 116.551 126.896C116.424 126.891 116.301 126.856 116.191 126.794C115.974 126.669 115.951 126.48 116.136 126.374L117.983 125.312C118.099 125.26 118.225 125.236 118.352 125.242C118.478 125.248 118.602 125.283 118.712 125.344C118.925 125.469 118.953 125.654 118.763 125.764Z" fill="#263238"/>
<path d="M120.508 126.771L118.661 127.833C118.545 127.885 118.419 127.909 118.292 127.903C118.166 127.897 118.042 127.862 117.931 127.801C117.719 127.676 117.696 127.487 117.881 127.381L119.728 126.319C119.843 126.267 119.969 126.243 120.096 126.249C120.223 126.254 120.346 126.289 120.457 126.351C120.674 126.485 120.697 126.665 120.508 126.771Z" fill="#263238"/>
<path d="M136.875 99.8069L133.744 99.5391L130.609 99.7976L131.399 104.272V104.318C131.45 104.489 131.536 104.648 131.651 104.785C131.766 104.922 131.908 105.033 132.068 105.112C132.585 105.373 133.155 105.508 133.733 105.508C134.311 105.508 134.881 105.373 135.397 105.112C135.568 105.031 135.718 104.912 135.836 104.765C135.954 104.618 136.038 104.446 136.081 104.262L136.875 99.8069Z" fill="#37474F"/>
<path d="M135.966 98.3885C137.195 99.0995 137.195 100.235 135.966 100.956C135.279 101.306 134.518 101.489 133.746 101.489C132.973 101.489 132.212 101.306 131.525 100.956C130.296 100.249 130.296 99.1088 131.525 98.3885C132.213 98.04 132.974 97.8584 133.746 97.8584C134.517 97.8584 135.278 98.04 135.966 98.3885Z" fill="#455A64"/>
<path d="M133.746 89.8379C133.631 89.8373 133.517 89.8594 133.411 89.9031C133.305 89.9467 133.208 90.011 133.127 90.0921C133.046 90.1733 132.982 90.2697 132.938 90.3759C132.895 90.482 132.872 90.5958 132.873 90.7106V99.3539C132.88 99.4305 132.907 99.5039 132.951 99.5664C132.996 99.6289 133.057 99.6783 133.127 99.7094C133.318 99.8075 133.529 99.8586 133.743 99.8586C133.958 99.8586 134.169 99.8075 134.36 99.7094C134.431 99.6786 134.492 99.6293 134.537 99.5668C134.583 99.5043 134.611 99.4308 134.618 99.3539V90.7106C134.618 90.4791 134.526 90.2571 134.363 90.0935C134.199 89.9298 133.977 89.8379 133.746 89.8379Z" fill="#263238"/>
<path d="M110.429 29.9854C110.248 29.9854 110.07 30.0265 109.907 30.1054L72.9145 51.3768C72.4911 51.6271 72.1406 51.9838 71.8976 52.4114C71.6546 52.8391 71.5277 53.3228 71.5293 53.8146V83.0276C71.5284 83.1535 71.5552 83.278 71.6078 83.3923C71.6595 83.5116 71.7357 83.6186 71.8316 83.7064C71.9274 83.7941 72.0407 83.8606 72.1641 83.9016C72.2874 83.9426 72.418 83.9571 72.5473 83.9441C72.6766 83.9311 72.8017 83.891 72.9145 83.8264L109.903 62.5596C110.33 62.3122 110.686 61.9567 110.933 61.5289C111.18 61.1011 111.31 60.6158 111.311 60.1217V30.9088C111.311 30.6709 111.22 30.4421 111.055 30.2701C110.891 30.0981 110.667 29.9961 110.429 29.9854Z" fill="#E0E0E0"/>
<path d="M110.411 30.4465C110.527 30.4547 110.637 30.507 110.716 30.5927C110.796 30.6784 110.84 30.7912 110.84 30.9083V60.1212C110.84 60.5365 110.731 60.9446 110.523 61.3044C110.316 61.6642 110.018 61.9631 109.658 62.1712L72.6651 83.438C72.5939 83.4803 72.5125 83.5026 72.4297 83.5026C72.3323 83.5098 72.2352 83.486 72.1523 83.4346C72.0693 83.3831 72.0048 83.3067 71.968 83.2164C71.9442 83.156 71.9317 83.0919 71.931 83.0271V53.8141C71.931 53.3988 72.0402 52.9907 72.2477 52.6309C72.4551 52.2711 72.7536 51.9722 73.113 51.7641L110.152 30.4973C110.24 30.457 110.337 30.4365 110.434 30.4373L110.411 30.4465ZM110.434 29.9756C110.253 29.9757 110.075 30.0167 109.912 30.0956L72.9145 51.3762C72.4911 51.6266 72.1406 51.9833 71.8976 52.4109C71.6546 52.8385 71.5277 53.3223 71.5293 53.8141V83.0271C71.5284 83.1529 71.5552 83.2774 71.6078 83.3918C71.6789 83.5571 71.7967 83.6981 71.9468 83.7973C72.097 83.8966 72.2728 83.9498 72.4528 83.9505C72.6147 83.9483 72.7735 83.9055 72.9145 83.8258L109.903 62.5591C110.33 62.3116 110.686 61.9562 110.933 61.5284C111.18 61.1005 111.31 60.6153 111.311 60.1212V30.9083C111.312 30.6741 111.223 30.4486 111.064 30.2771C110.904 30.1057 110.686 30.0012 110.452 29.9848L110.434 29.9756Z" fill="#E0E0E0"/>
<path d="M71.9121 83.7886L73.2095 84.6982V82.5928L71.9121 83.7886Z" fill="#E0E0E0"/>
<path d="M110.844 30.1279L112.16 31.0467L110.539 32.1964L110.844 30.1279Z" fill="#E0E0E0"/>
<path d="M111.695 30.8809C111.515 30.8792 111.338 30.9203 111.178 31.001L74.1801 52.2677C73.7568 52.517 73.4062 52.8728 73.1631 53.2997C72.9201 53.7266 72.7932 54.2097 72.7949 54.701V83.9185C72.7953 84.0438 72.8204 84.1678 72.8688 84.2833C72.9209 84.4021 72.9975 84.5087 73.0936 84.596C73.1896 84.6832 73.303 84.7493 73.4263 84.7898C73.5495 84.8303 73.68 84.8444 73.8091 84.8311C73.9382 84.8178 74.063 84.7775 74.1755 84.7127L111.168 63.4736C111.592 63.2236 111.943 62.867 112.186 62.4393C112.429 62.0116 112.556 61.5277 112.554 61.0358V31.7997C112.553 31.5664 112.464 31.342 112.305 31.1715C112.145 31.0011 111.927 30.8972 111.695 30.8809Z" fill="white"/>
<path d="M111.676 31.3289C111.793 31.3371 111.902 31.3893 111.982 31.475C112.062 31.5607 112.106 31.6735 112.106 31.7906V61.0128C112.105 61.4279 111.995 61.8356 111.788 62.1953C111.58 62.5549 111.282 62.854 110.924 63.0628L73.9308 84.3296C73.8595 84.3718 73.7782 84.3942 73.6953 84.3942C73.598 84.4014 73.5008 84.3776 73.4179 84.3262C73.3349 84.2747 73.2704 84.1983 73.2336 84.1079C73.2098 84.0476 73.1973 83.9834 73.1966 83.9186V54.7011C73.1974 54.2865 73.307 53.8794 73.5144 53.5205C73.7219 53.1615 74.0199 52.8633 74.3786 52.6557L111.39 31.3704C111.479 31.3285 111.577 31.3079 111.676 31.3104V31.3289ZM111.676 30.8487C111.497 30.8469 111.319 30.8881 111.159 30.9687L74.1801 52.2678C73.7568 52.5171 73.4062 52.8729 73.1631 53.2998C72.9201 53.7267 72.7932 54.2098 72.7949 54.7011V83.9186C72.7953 84.0439 72.8204 84.1678 72.8688 84.2834C72.9409 84.4486 73.0598 84.589 73.2107 84.6875C73.3617 84.7859 73.5382 84.8381 73.7184 84.8374C73.8808 84.839 74.0405 84.7958 74.1801 84.7128L111.173 63.4737C111.597 63.2237 111.947 62.8671 112.19 62.4394C112.434 62.0117 112.56 61.5278 112.558 61.0358V31.7998C112.559 31.5665 112.471 31.3415 112.313 31.1702C112.154 30.9989 111.937 30.8939 111.704 30.8764L111.676 30.8487Z" fill="#E0E0E0"/>
<path d="M91.3139 62.7666C91.3166 62.3682 91.3443 61.9704 91.397 61.5754C88.816 62.4619 86.8121 61.206 86.4012 58.4219C83.5062 60.772 81.3223 64.9875 81.3223 68.5335C81.3223 72.5782 84.1618 74.2173 87.6663 72.1949C89.6978 71.0222 91.4985 68.8752 92.6621 66.4927C91.8171 65.754 91.3139 64.4842 91.3139 62.7666Z" fill="#BA68C8"/>
<path opacity="0.7" d="M91.3139 62.7666C91.3166 62.3682 91.3443 61.9704 91.397 61.5754C88.816 62.4619 86.8121 61.206 86.4012 58.4219C83.5062 60.772 81.3223 64.9875 81.3223 68.5335C81.3223 72.5782 84.1618 74.2173 87.6663 72.1949C89.6978 71.0222 91.4985 68.8752 92.6621 66.4927C91.8171 65.754 91.3139 64.4842 91.3139 62.7666Z" fill="white"/>
<path d="M98.9184 51.2241C98.3824 54.7024 96.6083 57.8701 93.9226 60.1445C93.9789 60.505 94.0082 60.8693 94.0103 61.2341C93.958 63.0745 93.4975 64.8802 92.6621 66.5208C93.821 67.5643 95.6263 67.629 97.6533 66.4562C101.158 64.4339 103.997 59.5304 103.997 55.4673C103.997 51.9167 101.841 50.2175 98.9184 51.2241Z" fill="#BA68C8"/>
<path opacity="0.3" d="M98.9184 51.2241C98.3824 54.7024 96.6083 57.8701 93.9226 60.1445C93.9789 60.505 94.0082 60.8693 94.0103 61.2341C93.958 63.0745 93.4975 64.8802 92.6621 66.5208C93.821 67.5643 95.6263 67.629 97.6533 66.4562C101.158 64.4339 103.997 59.5304 103.997 55.4673C103.997 51.9167 101.841 50.2175 98.9184 51.2241Z" fill="black"/>
<path d="M93.9232 60.1348C93.5257 60.4572 93.1043 60.7489 92.6627 61.0074C92.2597 61.241 91.8362 61.4372 91.3976 61.5938C91.3449 61.9887 91.3172 62.3866 91.3145 62.785C91.3145 64.4842 91.8177 65.7539 92.6627 66.5111C93.4917 64.869 93.9458 63.0633 93.9924 61.2244C93.9964 60.86 93.9733 60.4958 93.9232 60.1348Z" fill="#BA68C8"/>
<path opacity="0.5" d="M93.9232 60.1348C93.5257 60.4572 93.1043 60.7489 92.6627 61.0074C92.2597 61.241 91.8362 61.4372 91.3976 61.5938C91.3449 61.9887 91.3172 62.3866 91.3145 62.785C91.3145 64.4842 91.8177 65.7539 92.6627 66.5111C93.4917 64.869 93.9458 63.0633 93.9924 61.2244C93.9964 60.86 93.9733 60.4958 93.9232 60.1348Z" fill="black"/>
<path d="M92.6624 57.4986C93.8213 55.1161 95.6266 52.9691 97.6535 51.7964C98.056 51.5655 98.4796 51.3738 98.9187 51.2238C98.9711 50.8289 98.9989 50.431 99.0018 50.0326C99.0018 45.9879 96.1622 44.3488 92.6624 46.3712C89.1625 48.3935 86.3184 53.2969 86.3184 57.3554C86.319 57.7218 86.3468 58.0875 86.4015 58.4497C86.7993 58.1242 87.2223 57.8309 87.6666 57.5725C89.6981 56.3905 91.4988 56.4551 92.6624 57.4986Z" fill="#BA68C8"/>
<path d="M91.3962 61.5944C91.5925 60.1696 92.0198 58.7863 92.6613 57.499C91.4978 56.4555 89.6971 56.3908 87.6655 57.5636C87.2212 57.822 86.7982 58.1154 86.4004 58.4409C86.8113 61.225 88.8152 62.4809 91.3962 61.5944Z" fill="#BA68C8"/>
<path opacity="0.3" d="M91.3962 61.5944C91.5925 60.1696 92.0198 58.7863 92.6613 57.499C91.4978 56.4555 89.6971 56.3908 87.6655 57.5636C87.2212 57.822 86.7982 58.1154 86.4004 58.4409C86.8113 61.225 88.8152 62.4809 91.3962 61.5944Z" fill="white"/>
<path d="M92.6621 57.4984C93.3779 58.2026 93.824 59.1356 93.9226 60.1348C96.6064 57.8627 98.3803 54.6986 98.9184 51.2236C98.479 51.3766 98.0554 51.5714 97.6533 51.8054C95.6263 52.9689 93.821 55.1159 92.6621 57.4984Z" fill="#BA68C8"/>
<path opacity="0.7" d="M92.6621 57.4984C93.3779 58.2026 93.824 59.1356 93.9226 60.1348C96.6064 57.8627 98.3803 54.6986 98.9184 51.2236C98.479 51.3766 98.0554 51.5714 97.6533 51.8054C95.6263 52.9689 93.821 55.1159 92.6621 57.4984Z" fill="black"/>
<path d="M92.6616 57.499C92.0201 58.7863 91.5928 60.1696 91.3965 61.5945C91.8351 61.4379 92.2586 61.2416 92.6616 61.0081C93.1033 60.7496 93.5246 60.4578 93.9221 60.1354C93.8235 59.1362 93.3774 58.2032 92.6616 57.499Z" fill="#263238"/>
<path d="M133.049 53.5323C132.901 53.5306 132.754 53.5638 132.62 53.6292L102.054 71.2023C101.699 71.4049 101.405 71.698 101.2 72.0516C100.996 72.4053 100.889 72.8069 100.891 73.2154V97.3586C100.891 97.4631 100.911 97.5666 100.951 97.6633C100.994 97.7614 101.058 97.8492 101.137 97.9211C101.216 97.9931 101.31 98.0476 101.412 98.0811C101.514 98.1146 101.621 98.1264 101.728 98.1156C101.835 98.1049 101.938 98.072 102.031 98.0189L132.601 80.4459C132.955 80.2427 133.249 79.9493 133.453 79.5957C133.656 79.2421 133.762 78.8408 133.76 78.4328V54.2987C133.763 54.1041 133.691 53.9158 133.558 53.7731C133.426 53.6304 133.244 53.5441 133.049 53.5323Z" fill="#E0E0E0"/>
<path d="M133.036 53.9108C133.132 53.9201 133.221 53.9649 133.286 54.0367C133.351 54.1085 133.387 54.2019 133.387 54.2987V78.465C133.387 78.8074 133.297 79.1437 133.126 79.4403C132.955 79.7369 132.709 79.9833 132.412 80.1549L101.842 97.7048C101.784 97.7412 101.717 97.7604 101.648 97.7602C101.571 97.7609 101.496 97.7389 101.432 97.697C101.368 97.6551 101.318 97.5952 101.288 97.5248C101.266 97.4754 101.255 97.4219 101.256 97.3678V73.2245C101.256 72.8822 101.346 72.5458 101.517 72.2492C101.688 71.9527 101.934 71.7062 102.23 71.5346L132.8 53.957C132.874 53.924 132.955 53.9082 133.036 53.9108ZM133.036 53.5415C132.887 53.5398 132.74 53.573 132.606 53.6384L102.04 71.2114C101.686 71.414 101.391 71.7071 101.187 72.0608C100.982 72.4145 100.875 72.816 100.877 73.2245V97.3678C100.877 97.4723 100.898 97.5757 100.937 97.6725C100.98 97.771 101.043 97.8594 101.122 97.9317C101.202 98.0041 101.295 98.0589 101.398 98.0924C101.5 98.126 101.608 98.1376 101.714 98.1265C101.821 98.1154 101.924 98.0819 102.017 98.028L132.588 80.455C132.942 80.2518 133.235 79.9585 133.439 79.6049C133.642 79.2512 133.749 78.85 133.747 78.4419V54.2987C133.75 54.1062 133.679 53.9199 133.55 53.7775C133.42 53.6352 133.241 53.5475 133.05 53.5322L133.036 53.5415Z" fill="#E0E0E0"/>
<path d="M101.221 97.9959L102.292 98.7485V97.0078L101.221 97.9959Z" fill="#E0E0E0"/>
<path d="M133.39 53.6572L134.48 54.4144L133.141 55.361L133.39 53.6572Z" fill="#E0E0E0"/>
<path d="M134.092 54.2754C133.943 54.2741 133.796 54.3089 133.663 54.377L103.097 71.95C102.743 72.1522 102.449 72.4446 102.245 72.7974C102.04 73.1502 101.933 73.5508 101.934 73.9585V98.1018C101.933 98.2068 101.955 98.3107 101.998 98.4065C102.042 98.5045 102.105 98.5923 102.185 98.6643C102.264 98.7362 102.358 98.7907 102.459 98.8242C102.561 98.8577 102.669 98.8695 102.776 98.8588C102.882 98.8481 102.986 98.8151 103.079 98.762L133.649 81.189C134.003 80.9858 134.297 80.6924 134.5 80.3388C134.704 79.9852 134.81 79.5839 134.808 79.1759V55.0326C134.808 54.8388 134.734 54.6523 134.601 54.5114C134.468 54.3705 134.286 54.2861 134.092 54.2754Z" fill="white"/>
<path d="M134.079 54.6448C134.175 54.653 134.265 54.6976 134.331 54.7696C134.396 54.8415 134.431 54.9356 134.43 55.0326V79.1759C134.429 79.5188 134.339 79.8555 134.168 80.1527C133.997 80.45 133.751 80.6974 133.455 80.8704L102.885 98.4434C102.826 98.4763 102.759 98.4937 102.691 98.4942C102.615 98.4943 102.54 98.4721 102.476 98.4302C102.412 98.3884 102.361 98.3288 102.331 98.2587C102.309 98.2094 102.298 98.1558 102.299 98.1018V73.9585C102.299 73.6157 102.39 73.2791 102.562 72.9824C102.733 72.6858 102.98 72.4396 103.277 72.2686L133.843 54.6956C133.917 54.6615 133.997 54.6441 134.079 54.6448ZM134.079 54.2754C133.929 54.2741 133.782 54.3089 133.649 54.377L103.083 71.95C102.729 72.1522 102.435 72.4446 102.231 72.7974C102.027 73.1502 101.919 73.5508 101.92 73.9585V98.1018C101.919 98.2068 101.941 98.3107 101.985 98.4065C102.045 98.5427 102.143 98.6587 102.268 98.7406C102.392 98.8225 102.537 98.8668 102.686 98.8682C102.819 98.8684 102.95 98.8333 103.065 98.7666L133.635 81.1936C133.989 80.9904 134.283 80.6971 134.486 80.3434C134.69 79.9898 134.796 79.5886 134.794 79.1805V55.0326C134.795 54.8403 134.722 54.655 134.591 54.5144C134.46 54.3738 134.28 54.2883 134.088 54.2754H134.079Z" fill="#E0E0E0"/>
<path d="M130.98 78.4008L107.922 91.7122L114.737 73.9868L119.451 79.5921L124.276 72.7217L130.98 78.4008Z" fill="#BA68C8"/>
<path opacity="0.4" d="M130.98 78.4008L107.922 91.7122L114.737 73.9868L119.451 79.5921L124.276 72.7217L130.98 78.4008Z" fill="white"/>
<path d="M122.984 67.3423C122.944 68.0718 122.733 68.7817 122.368 69.4146C122.003 70.0475 121.494 70.5855 120.883 70.9853C119.719 71.6548 118.777 71.1099 118.777 69.7709C118.816 69.0408 119.028 68.3302 119.393 67.6971C119.759 67.064 120.27 66.5264 120.883 66.128C122.042 65.4585 122.984 65.9987 122.984 67.3423Z" fill="#BA68C8"/>
<path d="M178.436 137.312L185.361 174.129C185.419 174.417 185.587 174.671 185.829 174.838C186.071 175.004 186.368 175.07 186.657 175.022C186.947 174.973 187.206 174.814 187.381 174.577C187.555 174.341 187.631 174.046 187.591 173.755L182.513 139.643L178.436 137.312Z" fill="#263238"/>
<path d="M191.738 161.183L184.692 204.173C184.641 204.487 184.48 204.771 184.238 204.977C183.996 205.182 183.689 205.295 183.372 205.295C183.183 205.296 182.997 205.257 182.824 205.18C182.652 205.103 182.498 204.991 182.372 204.851C182.246 204.71 182.151 204.545 182.093 204.366C182.036 204.186 182.017 203.996 182.037 203.809L186.982 159.456L191.738 161.183Z" fill="#455A64"/>
<path d="M167.406 146.722L160.36 189.712C160.31 190.026 160.149 190.312 159.907 190.518C159.665 190.725 159.358 190.838 159.04 190.839C158.851 190.839 158.664 190.799 158.492 190.722C158.32 190.644 158.165 190.532 158.04 190.391C157.914 190.25 157.819 190.085 157.761 189.905C157.704 189.725 157.685 189.535 157.705 189.347L162.65 145.022L167.406 146.722Z" fill="#455A64"/>
<path d="M203.031 151.131L209.957 188.175C210.017 188.46 210.184 188.712 210.425 188.877C210.666 189.042 210.961 189.107 211.249 189.06C211.537 189.012 211.796 188.855 211.97 188.621C212.145 188.387 212.223 188.095 212.187 187.805L207.053 153.467L203.031 151.131Z" fill="#263238"/>
<path d="M179.965 134.509C181.556 133.803 182.933 132.689 183.956 131.28C184.978 129.871 185.61 128.216 185.787 126.484C186.909 115.204 190.866 91.9614 204.343 99.7044C220.965 109.253 215.009 136.988 212.594 145.876C212.054 147.882 211.002 149.713 209.542 151.191C206.536 154.215 200.308 159.423 189.753 163.856C188.455 164.399 187.011 164.485 185.658 164.1C180.408 162.604 166.69 158.01 159.847 149.261C159.459 148.764 159.283 148.135 159.356 147.509C159.43 146.883 159.747 146.311 160.24 145.918C163.015 143.697 169.276 139.274 179.965 134.509Z" fill="#BA68C8"/>
<path opacity="0.3" d="M179.965 134.509C181.556 133.803 182.933 132.689 183.956 131.28C184.978 129.871 185.61 128.216 185.787 126.484C186.909 115.204 190.866 91.9614 204.343 99.7044C220.965 109.253 215.009 136.988 212.594 145.876C212.054 147.882 211.002 149.713 209.542 151.191C206.536 154.215 200.308 159.423 189.753 163.856C188.455 164.399 187.011 164.485 185.658 164.1C180.408 162.604 166.69 158.01 159.847 149.261C159.459 148.764 159.283 148.135 159.356 147.509C159.43 146.883 159.747 146.311 160.24 145.918C163.015 143.697 169.276 139.274 179.965 134.509Z" fill="black"/>
<path d="M159.354 147.649C159.32 148.223 159.495 148.789 159.848 149.242C160.213 149.704 160.6 150.166 161.002 150.628C161.224 150.868 161.464 151.089 161.676 151.343C161.907 151.574 162.138 151.805 162.373 152.031H162.397C162.632 152.257 162.858 152.493 163.117 152.701C163.362 152.922 163.615 153.162 163.869 153.352C167.748 156.611 172.457 159.091 176.664 160.878L177.444 161.201L177.522 161.233C177.767 161.335 177.984 161.432 178.243 161.524L178.367 161.575L179.037 161.833L179.189 161.893L179.813 162.129L179.993 162.198L180.57 162.406L180.778 162.48L181.309 162.669L181.53 162.748L182.02 162.914L182.255 162.997L182.717 163.145L182.971 163.228L183.372 163.357L183.64 163.44L183.987 163.551L184.277 163.639L184.573 163.731L184.928 163.837L185.108 163.888L185.612 164.036C186.965 164.421 188.409 164.334 189.707 163.791C200.276 159.359 206.491 154.15 209.496 151.126C210.964 149.672 212.031 147.864 212.595 145.876C215.009 136.965 220.966 109.23 204.344 99.7046C204.048 99.5338 203.762 99.386 203.476 99.2429L203.286 99.1552C203.006 99.0197 202.729 98.8997 202.455 98.795L202.377 98.7673C202.114 98.6657 201.86 98.5826 201.606 98.5088L201.49 98.4764C201.213 98.3979 200.945 98.3379 200.682 98.2871H200.618C200.092 98.1921 199.558 98.155 199.025 98.1763H198.992C198.482 98.1977 197.975 98.2766 197.483 98.4118C200.137 97.239 203.379 97.2898 206.592 99.1367C223.214 108.69 217.258 136.425 214.843 145.309L214.432 146.837C213.608 149.923 211.785 152.649 209.247 154.589L204.935 157.881C200.273 161.4 195.176 164.304 189.772 166.52C188.47 167.067 187.021 167.155 185.663 166.769C180.417 165.269 166.691 160.651 159.848 151.911C159.557 151.536 159.385 151.083 159.354 150.609V147.645V147.649Z" fill="#BA68C8"/>
<path opacity="0.5" d="M159.354 147.649C159.32 148.223 159.495 148.789 159.848 149.242C160.213 149.704 160.6 150.166 161.002 150.628C161.224 150.868 161.464 151.089 161.676 151.343C161.907 151.574 162.138 151.805 162.373 152.031H162.397C162.632 152.257 162.858 152.493 163.117 152.701C163.362 152.922 163.615 153.162 163.869 153.352C167.748 156.611 172.457 159.091 176.664 160.878L177.444 161.201L177.522 161.233C177.767 161.335 177.984 161.432 178.243 161.524L178.367 161.575L179.037 161.833L179.189 161.893L179.813 162.129L179.993 162.198L180.57 162.406L180.778 162.48L181.309 162.669L181.53 162.748L182.02 162.914L182.255 162.997L182.717 163.145L182.971 163.228L183.372 163.357L183.64 163.44L183.987 163.551L184.277 163.639L184.573 163.731L184.928 163.837L185.108 163.888L185.612 164.036C186.965 164.421 188.409 164.334 189.707 163.791C200.276 159.359 206.491 154.15 209.496 151.126C210.964 149.672 212.031 147.864 212.595 145.876C215.009 136.965 220.966 109.23 204.344 99.7046C204.048 99.5338 203.762 99.386 203.476 99.2429L203.286 99.1552C203.006 99.0197 202.729 98.8997 202.455 98.795L202.377 98.7673C202.114 98.6657 201.86 98.5826 201.606 98.5088L201.49 98.4764C201.213 98.3979 200.945 98.3379 200.682 98.2871H200.618C200.092 98.1921 199.558 98.155 199.025 98.1763H198.992C198.482 98.1977 197.975 98.2766 197.483 98.4118C200.137 97.239 203.379 97.2898 206.592 99.1367C223.214 108.69 217.258 136.425 214.843 145.309L214.432 146.837C213.608 149.923 211.785 152.649 209.247 154.589L204.935 157.881C200.273 161.4 195.176 164.304 189.772 166.52C188.47 167.067 187.021 167.155 185.663 166.769C180.417 165.269 166.691 160.651 159.848 151.911C159.557 151.536 159.385 151.083 159.354 150.609V147.645V147.649Z" fill="black"/>
<path d="M209.934 81.3699C209.934 81.3699 213.627 77.5515 217.843 79.9847C222.058 82.418 220.059 90.1425 218.845 92.3357C217.63 94.5289 215.382 102.415 221.971 100.817C221.971 100.817 219.717 104.049 215.045 103.168C210.372 102.286 209.467 96.662 210.714 92.0079C211.961 87.3538 209.952 85.2391 209.952 85.2391L209.934 81.3699Z" fill="#263238"/>
<path d="M190.638 100.102C190.638 100.102 185.749 99.5941 183.805 100.467C181.861 101.339 169.533 118.825 169.533 118.825C169.533 118.825 174.15 120.284 181.626 114.092C189.101 107.9 190.638 100.102 190.638 100.102Z" fill="#945959"/>
<path d="M206.919 118.021L207.501 104.631L201.328 101.551L193.973 100.12H190.639C190.639 100.12 184.138 105.661 182.13 111.003C180.121 116.345 184.664 120.33 184.664 120.33C184.664 124.831 182.13 129.762 182.13 129.762C182.13 129.762 186.484 136.125 196.064 135.423C199.149 135.13 202.149 134.252 204.906 132.838C204.499 130.493 203.933 128.179 203.212 125.912L206.919 118.021Z" fill="#BA68C8"/>
<path opacity="0.5" d="M206.919 118.021L207.501 104.631L201.328 101.551L193.973 100.12H190.639C190.639 100.12 184.138 105.661 182.13 111.003C180.121 116.345 184.664 120.33 184.664 120.33C184.664 124.831 182.13 129.762 182.13 129.762C182.13 129.762 186.484 136.125 196.064 135.423C199.149 135.13 202.149 134.252 204.906 132.838C204.499 130.493 203.933 128.179 203.212 125.912L206.919 118.021Z" fill="white"/>
<path d="M194.684 73.0588C194.684 73.0588 189.674 70.3901 187.536 75.6121C185.398 80.8341 188.557 86.7164 182.291 87.5799C182.291 87.5799 185.348 91.0566 189.3 86.0746C188.741 86.7811 189.397 89.0897 189.646 89.8469C190.095 91.2198 190.89 92.4539 191.955 93.4298C193.17 94.4659 194.584 95.2422 196.11 95.7107C197.213 96.1208 198.379 96.3333 199.555 96.3387C201.337 96.2971 203.581 95.4845 205.128 94.5934C206.796 93.6129 208.155 92.1845 209.052 90.4702C210.642 87.3348 211.099 83.7461 210.345 80.3124C209.931 78.3936 208.98 76.632 207.602 75.2335C204.07 72.0938 199.065 71.9507 194.684 73.0588Z" fill="#263238"/>
<path d="M194.689 95.5489L193.974 100.125C193.974 100.125 188.433 104.654 192.967 105.794C197.501 106.935 201.329 101.551 201.329 101.551L202.751 92.4785L194.689 95.5489Z" fill="#945959"/>
<path d="M202.908 90.9323L202.866 91.1955C200.188 97.4426 195.696 98.1859 194.26 98.3198L195.783 88.2451L202.959 89.3117L202.908 90.9323Z" fill="#703838"/>
<path d="M198.34 75.377C195.57 75.1738 189.567 76.3004 188.367 83.4709C187.167 90.6414 187.397 96.3205 191.091 97.1332C194.785 97.9458 203.659 95.8819 205.511 86.5967C207.362 77.3116 201.023 75.5755 198.34 75.377Z" fill="#945959"/>
<path d="M192.942 87.1504L192.347 91.389L189.969 90.2762L192.942 87.1504Z" fill="#703838"/>
<path d="M196.673 87.6169C196.648 87.7866 196.574 87.9454 196.459 88.073C196.345 88.2006 196.195 88.2914 196.029 88.334C195.862 88.3765 195.687 88.3688 195.526 88.3119C195.364 88.2551 195.222 88.1515 195.119 88.0144C195.016 87.8772 194.956 87.7126 194.947 87.5414C194.937 87.3701 194.979 87.1998 195.066 87.0521C195.153 86.9043 195.282 86.7857 195.436 86.7112C195.591 86.6367 195.764 86.6096 195.934 86.6334C196.047 86.6492 196.156 86.6873 196.254 86.7453C196.353 86.8034 196.439 86.8803 196.507 86.9717C196.576 87.0631 196.626 87.1671 196.654 87.2778C196.683 87.3885 196.689 87.5037 196.673 87.6169Z" fill="#263238"/>
<path d="M191.083 86.2084C191.059 86.3796 190.985 86.5399 190.87 86.6689C190.755 86.798 190.604 86.89 190.437 86.9333C190.27 86.9766 190.093 86.9692 189.93 86.9121C189.767 86.855 189.624 86.7508 189.521 86.6126C189.417 86.4744 189.356 86.3085 189.347 86.1359C189.338 85.9633 189.38 85.7918 189.468 85.6432C189.556 85.4945 189.686 85.3754 189.842 85.301C189.998 85.2265 190.173 85.2 190.344 85.2249C190.572 85.2581 190.778 85.3801 190.916 85.5644C191.054 85.7486 191.114 85.9801 191.083 86.2084Z" fill="#263238"/>
<path d="M189.425 84.1399L191.272 83.3781C191.272 83.3781 190.722 82.6116 190.016 82.9163C189.31 83.2211 189.425 84.1399 189.425 84.1399Z" fill="#BA68C8"/>
<path d="M192.893 92.4414C193.826 92.1417 194.741 91.7902 195.635 91.3887C195.635 91.3887 195.797 91.9612 194.582 92.3767C193.368 92.7923 192.893 92.4414 192.893 92.4414Z" fill="#703838"/>
<path d="M189.425 84.1399L191.272 83.3781C191.272 83.3781 190.722 82.6116 190.016 82.9163C189.31 83.2211 189.425 84.1399 189.425 84.1399Z" fill="#263238"/>
<path d="M200.98 87.894C200.98 87.894 200.334 90.8998 202.079 91.1722L205.501 91.7078L206.424 85.9271C207.435 79.463 203.58 71.9093 192.282 75.6215C192.263 75.6215 190.402 84.1956 200.98 87.894Z" fill="#263238"/>
<path d="M202.119 90.8161C202.204 90.1574 202.436 89.5263 202.798 88.9692C202.987 88.6135 203.276 88.3211 203.63 88.1282C203.984 87.9354 204.386 87.8505 204.788 87.8841C206.833 88.1658 206.778 90.1697 206.635 90.8622C206.256 92.6768 204.446 94.4082 201.676 94.025L202.119 90.8161Z" fill="#945959"/>
<path d="M147.819 192.187C147.819 192.187 142.177 196.597 141.595 197.843C141.014 199.09 142.491 202.608 150.483 201.329C152.718 200.974 155.932 198.693 157.543 196.504C159.155 194.316 162.41 192.811 162.899 192.026C163.605 190.922 163.208 185.128 161.976 185.021C159.976 184.855 147.819 192.187 147.819 192.187Z" fill="#BA68C8"/>
<path d="M158.79 149.635C158.79 149.635 155.244 178.829 154.657 183.128C154.385 185.141 148.812 191.152 146.887 193.179C146.808 193.263 146.747 193.363 146.71 193.473C146.673 193.582 146.66 193.698 146.672 193.813C146.684 193.928 146.72 194.039 146.779 194.138C146.838 194.237 146.917 194.323 147.011 194.389L147.178 194.505C148.307 195.284 149.66 195.673 151.03 195.611C152.401 195.549 153.714 195.041 154.768 194.163C156.338 192.865 157.968 191.3 158.79 189.85C159.495 188.489 160.405 187.243 161.486 186.157C161.756 185.908 161.921 185.567 161.948 185.201C162.05 183.774 162.377 180.187 163.195 178.178C164.233 175.63 169.525 165.361 169.525 156.071L158.79 149.635Z" fill="#945959"/>
<path d="M169.534 156.085L169.497 156.062L167.11 155.794C168.034 162.207 166.233 171.068 166.229 171.091C167.868 166.801 169.534 161.288 169.534 156.085Z" fill="#703838"/>
<path d="M158.337 198.346C158.337 198.346 152.695 202.756 152.113 204.002C151.531 205.249 153.013 208.767 161.001 207.488C163.236 207.133 166.449 204.852 168.061 202.663C169.672 200.475 172.927 198.97 173.421 198.185C174.123 197.081 173.726 191.287 172.498 191.181C170.494 191.014 158.337 198.346 158.337 198.346Z" fill="#BA68C8"/>
<path d="M169.313 155.794C169.313 155.794 165.762 184.993 165.157 189.287C164.885 191.3 159.312 197.312 157.387 199.339C157.308 199.423 157.247 199.523 157.21 199.632C157.173 199.741 157.16 199.857 157.172 199.972C157.184 200.087 157.22 200.198 157.279 200.297C157.338 200.397 157.417 200.482 157.511 200.548L157.678 200.664C158.807 201.443 160.16 201.832 161.53 201.77C162.901 201.708 164.214 201.2 165.268 200.322C166.838 199.025 168.468 197.459 169.294 196.01C169.999 194.649 170.907 193.403 171.986 192.316C172.256 192.068 172.421 191.726 172.448 191.36C172.55 189.933 172.877 186.346 173.695 184.337C174.733 181.789 180.025 171.525 180.025 162.23L169.313 155.794Z" fill="#945959"/>
<path d="M182.129 129.744C182.129 129.744 165.18 138.979 161.707 143.092C158.235 147.206 156.758 156.681 156.758 156.681C162.677 164.318 180.767 165.153 180.767 165.153C182.291 160.171 186.026 159.294 191.848 156.478C197.671 153.661 204.176 147.968 205.238 141.827C205.7 139.02 205.418 135.7 204.92 132.819C202.163 134.234 199.162 135.111 196.078 135.405C186.483 136.107 182.129 129.744 182.129 129.744Z" fill="#263238"/>
<path d="M191.443 121.101C191.443 121.101 198.882 123.105 202.095 117.781C202.095 117.781 199.486 124.721 191.443 121.101Z" fill="#BA68C8"/>
<path opacity="0.2" d="M202.095 117.781C202.095 117.781 199.486 124.707 191.443 121.101C191.443 121.101 198.882 123.105 202.095 117.781Z" fill="white"/>
<path d="M206.693 104.216C206.693 104.216 201.055 106.681 206.406 119.111C210.003 127.468 210.603 129.73 210.603 129.73C210.603 129.73 208.729 130.654 198.008 138.642L201.24 144.002C201.24 144.002 220.286 137.21 219.866 131.928C219.445 126.646 213.9 113.048 213.032 111.105C212.164 109.161 211.73 106.427 206.693 104.216Z" fill="#945959"/>
<path d="M169.534 118.825C171.381 119.619 175.296 116.188 178.556 111.677C180.474 109.033 182.22 106.268 183.782 103.399C185.116 103.501 186.453 103.249 187.657 102.668C188.861 102.086 189.89 101.196 190.639 100.088C191.064 99.4694 187.661 95.3139 187.661 95.3139L189.457 94.5105C189.457 94.5105 192.315 93.7302 192.14 92.4605C192.066 91.9157 187.347 92.8991 185.569 93.2916C185.135 93.3836 184.742 93.6155 184.452 93.9518L179.184 99.9542C179.184 99.9542 173.782 104.571 170.873 107.3C166.408 111.497 165.692 117.172 169.534 118.825Z" fill="#945959"/>
<path d="M187.66 95.4984C187.628 95.4983 187.596 95.4886 187.569 95.4705C187.542 95.4525 187.521 95.4268 187.508 95.3968C187.491 95.3563 187.49 95.3106 187.505 95.2693C187.521 95.228 187.551 95.1943 187.591 95.1752L189.387 94.3718C190.158 94.1594 192.056 93.4484 191.977 92.525C191.867 92.4696 191.253 92.3449 187.928 92.9867C187.885 92.9952 187.84 92.9862 187.803 92.9615C187.766 92.9368 187.741 92.8986 187.732 92.8551C187.723 92.8116 187.732 92.7665 187.757 92.7297C187.782 92.6929 187.82 92.6674 187.864 92.6589C191.705 91.9155 192.056 92.1694 192.185 92.2618C192.218 92.2828 192.245 92.3106 192.266 92.3433C192.287 92.3759 192.3 92.4127 192.305 92.4511C192.495 93.8362 189.623 94.6535 189.498 94.6858L187.72 95.48C187.702 95.491 187.682 95.4973 187.66 95.4984Z" fill="#703838"/>
<path d="M176.515 114.429C176.475 114.428 176.435 114.414 176.404 114.388C176.388 114.372 176.376 114.354 176.367 114.334C176.358 114.314 176.354 114.292 176.354 114.27C176.354 114.248 176.358 114.226 176.367 114.206C176.376 114.185 176.388 114.167 176.404 114.152C177.097 113.353 177.79 112.485 178.436 111.58C180.346 108.946 182.087 106.193 183.649 103.339L183.704 103.232H183.82C185.12 103.33 186.424 103.087 187.601 102.526C187.641 102.506 187.687 102.503 187.729 102.518C187.75 102.525 187.769 102.536 187.785 102.55C187.802 102.565 187.815 102.582 187.825 102.602C187.835 102.622 187.84 102.643 187.842 102.665C187.843 102.687 187.84 102.709 187.833 102.73C187.826 102.751 187.815 102.77 187.801 102.786C187.786 102.803 187.769 102.816 187.749 102.826C186.548 103.4 185.222 103.659 183.894 103.579C182.336 106.411 180.605 109.143 178.708 111.76C178.044 112.684 177.356 113.552 176.654 114.36C176.638 114.382 176.617 114.4 176.593 114.412C176.569 114.424 176.542 114.43 176.515 114.429Z" fill="#703838"/>
<path d="M198.568 138.702C198.568 138.702 195.89 138.208 193.789 138.656C192.825 138.847 191.834 138.87 190.862 138.725C189.961 138.605 188.632 138.383 189.218 139.773C189.726 140.983 191.453 141.269 192.584 141.38C192.584 141.38 192.182 142.811 189.098 142.723C186.014 142.636 185.169 142.765 185.404 143.748C185.64 144.732 188.636 148.273 191.753 148.324C194.089 148.361 198.268 146.74 201.241 144.016L198.568 138.702Z" fill="#945959"/>
<path d="M199.422 42.1051C199.729 39.5661 199.016 37.0088 197.438 34.9957C195.861 32.9826 193.548 31.6785 191.009 31.3702C190.866 31.3702 190.723 31.3471 190.575 31.3378C190.615 31.1626 190.646 30.9853 190.668 30.8069C190.879 29.0595 190.387 27.2999 189.302 25.9146C188.216 24.5294 186.625 23.6318 184.878 23.4194C184.513 23.3787 184.145 23.3679 183.779 23.387C182.832 21.8413 181.501 20.5671 179.915 19.6882C178.33 18.8093 176.544 18.3557 174.731 18.3715C172.918 18.3873 171.14 18.872 169.57 19.7784C168 20.6848 166.692 21.982 165.772 23.544C164.052 23.3311 162.307 23.586 160.72 24.2818C159.133 24.9777 157.764 26.0887 156.755 27.4978C155.747 28.907 155.138 30.562 154.991 32.2885C154.845 34.015 155.167 35.749 155.923 37.3079C154.264 37.7683 152.848 38.8556 151.975 40.3403C151.102 41.8249 150.84 43.5907 151.244 45.2649C151.649 46.9391 152.688 48.3906 154.142 49.3129C155.597 50.2353 157.353 50.5563 159.04 50.2083C159.214 51.7741 159.786 53.269 160.704 54.55C161.621 55.831 162.851 56.8551 164.277 57.5242C165.704 58.1933 167.278 58.485 168.849 58.3714C170.42 58.2579 171.936 57.7428 173.252 56.8755C174.49 58.4314 176.162 59.5862 178.055 60.1947C179.948 60.8032 181.979 60.8383 183.893 60.2954C185.806 59.7526 187.516 58.6561 188.808 57.1438C190.1 55.6316 190.915 53.7712 191.152 51.7966C191.203 51.3614 191.226 50.9234 191.222 50.4853C193.319 50.1826 195.258 49.1979 196.74 47.6834C198.222 46.1688 199.165 44.2085 199.422 42.1051Z" fill="white"/>
<path d="M181.147 61.1232C180.714 61.1245 180.28 61.0983 179.85 61.0447C177.247 60.7343 174.854 59.4591 173.146 57.471C171.792 58.2821 170.26 58.7496 168.685 58.8326C167.109 58.9156 165.536 58.6116 164.105 57.9472C162.674 57.2828 161.427 56.2781 160.473 55.0208C159.519 53.7636 158.888 52.292 158.634 50.7346C158.021 50.8182 157.4 50.8182 156.787 50.7346C155.196 50.5406 153.717 49.8142 152.592 48.6734C151.466 47.5327 150.759 46.0446 150.586 44.4512C150.414 42.8578 150.785 41.2528 151.64 39.8972C152.495 38.5416 153.783 37.5151 155.296 36.9846C154.63 35.3768 154.39 33.6242 154.601 31.8968C154.811 30.1693 155.464 28.5255 156.497 27.1247C157.529 25.7238 158.906 24.6134 160.494 23.9012C162.082 23.1889 163.827 22.8988 165.56 23.0591C166.54 21.5027 167.896 20.2178 169.503 19.3229C171.11 18.4279 172.917 17.9516 174.756 17.9378C176.596 17.924 178.409 18.3732 180.029 19.2439C181.65 20.1147 183.025 21.379 184.028 22.9206C185.039 22.9073 186.041 23.111 186.966 23.518C187.892 23.925 188.719 24.5259 189.392 25.28C190.065 26.0342 190.569 26.924 190.868 27.8894C191.168 28.8548 191.257 29.8733 191.13 30.876C191.13 30.876 191.13 30.913 191.13 30.9314C193.781 31.2683 196.191 32.64 197.834 34.7471C199.478 36.8542 200.221 39.5257 199.902 42.1789C199.638 44.3155 198.7 46.3122 197.224 47.8791C195.747 49.4459 193.81 50.5012 191.693 50.8915C191.687 51.2173 191.663 51.5424 191.624 51.8658C191.312 54.4205 190.077 56.7733 188.152 58.4816C186.227 60.1899 183.744 61.1359 181.17 61.1417L181.147 61.1232ZM173.238 56.3998C173.308 56.3995 173.377 56.4151 173.441 56.4455C173.504 56.4759 173.559 56.5203 173.603 56.5753C174.785 58.0584 176.38 59.1592 178.185 59.7393C179.991 60.3195 181.928 60.3533 183.753 59.8363C185.579 59.3194 187.21 58.2748 188.444 56.8338C189.677 55.3927 190.457 53.6194 190.686 51.7365C190.734 51.3211 190.755 50.9032 190.751 50.4852C190.75 50.3732 190.79 50.2646 190.863 50.1796C190.936 50.0947 191.037 50.0392 191.148 50.0235C193.346 49.7027 195.354 48.5955 196.798 46.9073C198.242 45.219 199.025 43.0644 199.001 40.8429C198.977 38.6214 198.149 36.4839 196.669 34.8269C195.189 33.1698 193.159 32.1057 190.954 31.8318H190.714H190.543C190.478 31.8264 190.414 31.8071 190.357 31.7753C190.3 31.7434 190.25 31.6997 190.211 31.6471C190.172 31.5949 190.144 31.535 190.13 31.4713C190.115 31.4077 190.115 31.3417 190.128 31.2777C190.16 31.1161 190.192 30.9499 190.211 30.7837C190.408 29.157 189.951 27.5188 188.94 26.2288C187.93 24.9388 186.449 24.1027 184.823 23.9041C184.483 23.8623 184.139 23.8515 183.797 23.8718C183.715 23.8747 183.634 23.8557 183.562 23.8167C183.49 23.7778 183.429 23.7203 183.387 23.6501C182.48 22.1753 181.207 20.9598 179.692 20.1217C178.177 19.2836 176.471 18.8512 174.739 18.8666C173.008 18.8819 171.31 19.3444 169.81 20.2092C168.31 21.074 167.059 22.3118 166.178 23.8025C166.132 23.8809 166.063 23.9438 165.981 23.9832C165.899 24.0226 165.807 24.0369 165.717 24.0241C164.083 23.8251 162.427 24.0687 160.92 24.7294C159.413 25.3901 158.112 26.4437 157.152 27.7799C156.192 29.116 155.609 30.6856 155.463 32.3245C155.318 33.9633 155.615 35.6111 156.325 37.0954C156.354 37.1568 156.369 37.2238 156.369 37.2916C156.369 37.3594 156.354 37.4264 156.325 37.4878C156.297 37.5497 156.255 37.6045 156.204 37.6484C156.152 37.6923 156.091 37.7242 156.025 37.7418C154.641 38.1149 153.43 38.9577 152.599 40.1257C151.768 41.2937 151.369 42.7143 151.471 44.1441C151.572 45.5739 152.168 46.9239 153.155 47.9628C154.143 49.0018 155.461 49.665 156.884 49.8388C157.568 49.9225 158.261 49.8881 158.934 49.7372C158.997 49.7242 159.062 49.7245 159.125 49.738C159.187 49.7515 159.247 49.778 159.299 49.8157C159.351 49.8534 159.395 49.9016 159.428 49.9573C159.46 50.0129 159.481 50.0748 159.488 50.1389C159.654 51.626 160.198 53.0457 161.07 54.2622C161.941 55.4787 163.11 56.4513 164.464 57.0869C165.819 57.7225 167.314 57.9999 168.807 57.8925C170.299 57.7852 171.739 57.2967 172.989 56.4737C173.063 56.4257 173.15 56.4001 173.238 56.3998Z" fill="#E0E0E0"/>
<path d="M172.779 48.1474L177.396 48.1079L177.418 50.6703C177.422 51.2177 177.209 51.7445 176.826 52.1348C176.442 52.5252 175.919 52.7471 175.372 52.7518L174.873 52.7561C174.326 52.7607 173.799 52.5478 173.408 52.1641C173.018 51.7803 172.796 51.2573 172.791 50.7099L172.77 48.1475L172.779 48.1474Z" fill="#263238"/>
<path d="M175.119 50.8427C177.113 50.8257 178.722 49.9292 178.712 48.8404C178.703 47.7516 177.079 46.8827 175.085 46.8998C173.091 46.9168 171.482 47.8133 171.491 48.9021C171.501 49.9909 173.125 50.8598 175.119 50.8427Z" fill="#37474F"/>
<path d="M175.111 49.6933C177.105 49.6763 178.714 48.7798 178.705 47.691C178.695 46.6022 177.071 45.7333 175.077 45.7504C173.083 45.7674 171.474 46.6639 171.484 47.7527C171.493 48.8415 173.117 49.7104 175.111 49.6933Z" fill="#455A64"/>
<path d="M182.695 37.5848C182.684 36.2533 182.328 34.9474 181.661 33.7951C180.993 32.6429 180.038 31.6836 178.889 31.0114C177.739 30.3392 176.435 29.9771 175.104 29.9606C173.772 29.944 172.459 30.2735 171.293 30.9169C170.128 31.5603 169.149 32.4954 168.453 33.6307C167.757 34.7661 167.369 36.0626 167.325 37.3934C167.28 38.7243 167.583 40.0437 168.202 41.2225C168.821 42.4013 169.736 43.3991 170.857 44.1181C171.272 44.3756 171.616 44.7326 171.858 45.1567C172.099 45.5808 172.232 46.0586 172.242 46.5467C172.241 46.7971 172.289 47.0452 172.384 47.2768C172.479 47.5085 172.619 47.7189 172.796 47.8962C172.973 48.0735 173.183 48.214 173.414 48.3096C173.646 48.4053 173.894 48.4543 174.144 48.4536H175.1H176.056C176.305 48.4518 176.551 48.4009 176.781 48.3039C177.01 48.2069 177.219 48.0655 177.394 47.888C177.569 47.7105 177.707 47.5003 177.8 47.2694C177.894 47.0385 177.941 46.7913 177.94 46.5421V46.459C177.944 45.9982 178.063 45.5457 178.286 45.1426C178.51 44.7395 178.83 44.3985 179.219 44.1504C180.306 43.4393 181.195 42.464 181.803 41.3158C182.411 40.1675 182.718 38.8839 182.695 37.5848Z" fill="#BA68C8"/>
<path d="M175.488 48.4532C175.488 48.4255 175.432 47.7375 175.432 41.6429C175.432 41.2273 175.432 40.8302 175.455 40.4562C175.266 40.4562 175.063 40.484 174.851 40.484C174.638 40.484 174.532 40.484 174.389 40.484C174.486 41.1352 174.537 41.7925 174.541 42.4509L174.592 48.4532H174.26L174.209 42.4509C174.209 41.7812 174.155 41.1126 174.047 40.4516C172.246 40.2485 171.406 39.3112 171.401 38.4247C171.388 38.2942 171.402 38.1623 171.442 38.0374C171.482 37.9124 171.547 37.7971 171.634 37.6987C171.721 37.6002 171.827 37.5208 171.946 37.4654C172.065 37.41 172.194 37.3797 172.325 37.3766C173.276 37.3766 173.996 38.4108 174.329 40.1469C174.495 40.1469 174.67 40.1469 174.851 40.1469C175.031 40.1469 175.28 40.1469 175.478 40.1146C175.612 37.806 176.097 36.4208 176.914 36.0976C177.143 36.0195 177.39 36.0112 177.623 36.0737C177.857 36.1361 178.067 36.2666 178.226 36.4485C178.453 36.7531 178.593 37.1141 178.631 37.4925C178.668 37.8708 178.602 38.2523 178.438 38.5955C178.189 39.1911 177.515 40.1377 175.788 40.4055C175.788 40.7795 175.765 41.1904 175.765 41.6336C175.765 47.6683 175.82 48.3886 175.82 48.4163L175.488 48.4532ZM172.32 37.6998C172.233 37.7047 172.149 37.7275 172.071 37.767C171.993 37.8064 171.925 37.8615 171.87 37.9288C171.815 37.996 171.774 38.074 171.751 38.1578C171.727 38.2416 171.722 38.3293 171.734 38.4155C171.734 39.1404 172.454 39.9114 173.987 40.11C173.669 38.6001 173.068 37.6767 172.32 37.6767V37.6998ZM177.293 36.3608C177.205 36.3604 177.117 36.3761 177.034 36.407C176.624 36.5778 175.977 37.2935 175.802 40.1007C177.335 39.8468 177.912 39.0249 178.11 38.5032C178.248 38.2192 178.308 37.9035 178.284 37.5887C178.26 37.2738 178.152 36.9711 177.972 36.7117C177.803 36.5038 177.559 36.3697 177.293 36.3377V36.3608Z" fill="#263238"/>
<path opacity="0.4" d="M179.668 33.9692C179.387 34.4679 178.514 34.5094 177.724 34.057C176.935 33.6045 176.515 32.8426 176.801 32.344C177.087 31.8453 177.955 31.8084 178.745 32.2609C179.534 32.7134 179.95 33.4752 179.668 33.9692Z" fill="white"/>
<path opacity="0.4" d="M181.379 35.987C181.499 36.5226 181.291 37.0213 180.917 37.1044C180.543 37.1875 180.141 36.8181 180.026 36.2871C179.911 35.7562 180.118 35.2529 180.488 35.1698C180.857 35.0867 181.259 35.4607 181.379 35.987Z" fill="white"/>
<path d="M174.668 28.5581C174.584 28.5582 174.502 28.5256 174.441 28.4671C174.38 28.4085 174.344 28.3287 174.341 28.2442L174.211 24.6474C174.209 24.6043 174.216 24.5613 174.231 24.5208C174.246 24.4803 174.268 24.4432 174.297 24.4114C174.327 24.3797 174.362 24.354 174.401 24.3359C174.44 24.3177 174.482 24.3075 174.525 24.3057C174.612 24.3044 174.697 24.3368 174.76 24.3962C174.824 24.4556 174.862 24.5373 174.867 24.6243L174.996 28.2211C174.998 28.2639 174.991 28.3067 174.976 28.3469C174.962 28.3871 174.939 28.424 174.91 28.4553C174.881 28.4867 174.845 28.512 174.806 28.5296C174.767 28.5472 174.725 28.5569 174.682 28.5581H174.668Z" fill="#BA68C8"/>
<path d="M166.996 32.3677C166.941 32.3686 166.887 32.3559 166.839 32.3307L163.667 30.6408C163.59 30.5998 163.532 30.5298 163.507 30.4463C163.481 30.3627 163.49 30.2724 163.531 30.1953C163.572 30.1181 163.642 30.0604 163.725 30.0349C163.809 30.0094 163.899 30.0181 163.976 30.0591L167.148 31.7536C167.215 31.7858 167.269 31.8401 167.3 31.9073C167.332 31.9745 167.339 32.0505 167.322 32.1225C167.304 32.1946 167.262 32.2583 167.202 32.3029C167.143 32.3475 167.07 32.3704 166.996 32.3677Z" fill="#BA68C8"/>
<path d="M182.038 31.8322C181.982 31.8336 181.928 31.8202 181.879 31.7935C181.83 31.7667 181.789 31.7275 181.761 31.6799C181.737 31.6429 181.72 31.6013 181.712 31.5578C181.704 31.5142 181.705 31.4695 181.715 31.4263C181.725 31.3832 181.744 31.3425 181.77 31.3067C181.796 31.2709 181.829 31.2408 181.867 31.2181L184.924 29.3205C184.961 29.2962 185.002 29.2796 185.046 29.2718C185.089 29.2639 185.134 29.265 185.177 29.2749C185.22 29.2849 185.261 29.3034 185.297 29.3295C185.333 29.3556 185.363 29.3886 185.385 29.4267C185.409 29.4639 185.425 29.5054 185.433 29.5488C185.44 29.5923 185.439 29.6368 185.429 29.6798C185.419 29.7227 185.401 29.7633 185.375 29.7991C185.349 29.8349 185.317 29.8653 185.279 29.8884L182.223 31.7861C182.167 31.8184 182.103 31.8344 182.038 31.8322Z" fill="#BA68C8"/>
<path d="M194.315 57.5677C194.196 58.5372 193.792 59.4495 193.154 60.1892C192.516 60.929 191.673 61.4628 190.732 61.7232C189.791 61.9836 188.793 61.9588 187.866 61.652C186.939 61.3452 186.123 60.7702 185.523 59.9997C184.922 59.2292 184.564 58.298 184.493 57.3238C184.423 56.3496 184.642 55.3764 185.125 54.5272C185.608 53.678 186.331 52.9911 187.205 52.5535C188.078 52.1158 189.061 51.9471 190.03 52.0686C191.327 52.2313 192.506 52.9015 193.31 53.9324C194.113 54.9633 194.475 56.2706 194.315 57.5677Z" fill="white"/>
<path d="M189.425 62.3703C188.658 62.3715 187.9 62.2097 187.202 61.8957C186.503 61.5816 185.878 61.1224 185.371 60.5486C184.863 59.9747 184.483 59.2995 184.256 58.5675C184.029 57.8356 183.96 57.0638 184.055 56.3033C184.262 54.9107 185.005 53.6539 186.125 52.8008C187.245 51.9477 188.654 51.5656 190.052 51.736C191.449 51.9063 192.725 52.6156 193.608 53.7128C194.49 54.81 194.909 56.2083 194.776 57.61C194.616 58.9176 193.984 60.1217 192.998 60.9958C192.013 61.8699 190.742 62.3538 189.425 62.3564V62.3703ZM189.425 52.4941C188.332 52.4952 187.278 52.8958 186.461 53.6204C185.643 54.345 185.119 55.3437 184.987 56.428C184.916 57.0113 184.961 57.6029 185.118 58.1691C185.275 58.7352 185.543 59.2648 185.905 59.7277C186.267 60.1905 186.717 60.5775 187.228 60.8665C187.74 61.1556 188.303 61.341 188.887 61.4122C189.47 61.4835 190.062 61.4391 190.628 61.2817C191.194 61.1243 191.723 60.857 192.186 60.4949C192.649 60.1328 193.036 59.6831 193.325 59.1715C193.614 58.6599 193.8 58.0963 193.871 57.513C194.013 56.3352 193.682 55.1491 192.951 54.2151C192.219 53.2811 191.147 52.6754 189.969 52.5311C189.784 52.5068 189.598 52.4945 189.411 52.4941H189.425Z" fill="#E0E0E0"/>
<path d="M196.685 68.141C197.761 68.141 198.633 67.2687 198.633 66.1926C198.633 65.1165 197.761 64.2441 196.685 64.2441C195.609 64.2441 194.736 65.1165 194.736 66.1926C194.736 67.2687 195.609 68.141 196.685 68.141Z" fill="white"/>
<path d="M196.684 68.6035C196.207 68.6035 195.741 68.4622 195.345 68.1974C194.948 67.9325 194.639 67.5561 194.457 67.1157C194.274 66.6753 194.227 66.1907 194.32 65.7232C194.413 65.2556 194.642 64.8262 194.979 64.4891C195.316 64.1521 195.746 63.9225 196.213 63.8295C196.681 63.7365 197.166 63.7842 197.606 63.9667C198.046 64.1491 198.423 64.458 198.688 64.8544C198.952 65.2507 199.094 65.7167 199.094 66.1934C199.094 66.5099 199.031 66.8233 198.91 67.1157C198.789 67.4081 198.612 67.6738 198.388 67.8976C198.164 68.1214 197.898 68.299 197.606 68.4201C197.314 68.5412 197 68.6035 196.684 68.6035ZM196.684 64.7113C196.389 64.7113 196.102 64.7986 195.857 64.9621C195.613 65.1257 195.422 65.3582 195.31 65.6301C195.197 65.902 195.168 66.2012 195.226 66.4897C195.284 66.7783 195.426 67.0432 195.634 67.2509C195.842 67.4586 196.108 67.5999 196.396 67.6567C196.685 67.7136 196.984 67.6835 197.256 67.5702C197.527 67.457 197.759 67.2657 197.922 67.0206C198.085 66.7755 198.171 66.4876 198.17 66.1934C198.17 65.9984 198.132 65.8052 198.057 65.6251C197.982 65.445 197.873 65.2814 197.735 65.1437C197.596 65.006 197.433 64.897 197.252 64.8227C197.072 64.7485 196.879 64.7107 196.684 64.7113Z" fill="#E0E0E0"/>
</svg>
