<svg width="291" height="217" viewBox="0 0 291 217" fill="none" xmlns="http://www.w3.org/2000/svg">
<path d="M290.196 189.985H0.707031V190.13H290.196V189.985Z" fill="#EBEBEB"/>
<path d="M80.4082 193.928H61.2324V194.072H80.4082V193.928Z" fill="#EBEBEB"/>
<path d="M123.386 199.231H99.793V199.376H123.386V199.231Z" fill="#EBEBEB"/>
<path d="M60.6543 197.419H31.0801V197.564H60.6543V197.419Z" fill="#EBEBEB"/>
<path d="M261.19 194.9H207.264V195.045H261.19V194.9Z" fill="#EBEBEB"/>
<path d="M202.11 194.9H198.445V195.045H202.11V194.9Z" fill="#EBEBEB"/>
<path d="M185.655 197.344H161.205V197.488H185.655V197.344Z" fill="#EBEBEB"/>
<path d="M137.925 164.163H26.1303C25.2545 164.161 24.4151 163.812 23.7963 163.192C23.1776 162.572 22.8301 161.732 22.8301 160.857V3.70475C22.8377 2.83398 23.1886 2.00138 23.8065 1.38781C24.4244 0.774228 25.2595 0.429226 26.1303 0.427734H137.925C138.802 0.427734 139.643 0.77604 140.263 1.39603C140.883 2.01602 141.231 2.8569 141.231 3.7337V160.857C141.231 161.733 140.883 162.574 140.263 163.194C139.643 163.814 138.802 164.163 137.925 164.163ZM26.1303 0.54353C25.2928 0.545064 24.4903 0.878796 23.8987 1.47147C23.3071 2.06415 22.9748 2.86734 22.9748 3.70475V160.857C22.9748 161.694 23.3071 162.497 23.8987 163.09C24.4903 163.683 25.2928 164.016 26.1303 164.018H137.925C138.763 164.016 139.566 163.683 140.159 163.09C140.751 162.498 141.085 161.695 141.086 160.857V3.70475C141.085 2.86681 140.751 2.06363 140.159 1.47112C139.566 0.878608 138.763 0.545061 137.925 0.54353H26.1303Z" fill="#EBEBEB"/>
<path d="M263.163 164.163H151.363C150.486 164.161 149.646 163.812 149.027 163.193C148.407 162.573 148.058 161.733 148.057 160.857V3.70475C148.066 2.83345 148.418 2.00086 149.037 1.38744C149.656 0.774026 150.491 0.42921 151.363 0.427734H263.163C264.033 0.430748 264.867 0.776423 265.483 1.38984C266.1 2.00325 266.45 2.83498 266.458 3.70475V160.857C266.458 161.731 266.111 162.571 265.493 163.19C264.876 163.81 264.038 164.16 263.163 164.163ZM151.363 0.54353C150.525 0.545061 149.721 0.878608 149.129 1.47112C148.536 2.06363 148.203 2.86681 148.201 3.70475V160.857C148.203 161.695 148.536 162.498 149.129 163.09C149.721 163.683 150.525 164.016 151.363 164.018H263.163C264.001 164.016 264.804 163.683 265.397 163.09C265.989 162.498 266.323 161.695 266.324 160.857V3.70475C266.323 2.86681 265.989 2.06363 265.397 1.47112C264.804 0.878608 264.001 0.545061 263.163 0.54353H151.363Z" fill="#EBEBEB"/>
<path d="M128.518 93.4645C140.985 91.2102 149.263 79.2764 147.009 66.8097C144.755 54.3429 132.821 46.0642 120.354 48.3185C107.888 50.5729 99.6088 62.5067 101.863 74.9734C104.117 87.4401 116.051 95.7189 128.518 93.4645Z" fill="#FAFAFA"/>
<path d="M26.4141 189.985H263.627C263.627 189.985 251.613 175.69 233.242 173.079C214.871 170.468 183.085 168.864 183.085 168.864C183.085 168.864 178.141 146.978 156.939 145.977C154.113 135.335 145.162 86.7474 123.254 79.1165C101.345 71.4855 102.029 54.8515 83.4202 47.8401C64.8119 40.8287 42.9728 93.8746 38.6652 108.696C28.2957 144.211 26.4141 189.985 26.4141 189.985Z" fill="#F0F0F0"/>
<path d="M38.6596 108.697C40.2314 103.606 42.0575 98.5973 44.1309 93.6895C44.7594 93.3971 45.403 93.1382 46.0589 92.9137C59.7054 88.2819 78.8869 147.141 111.535 117.399C132.025 98.7324 143.889 110.237 150.53 121.278C152.579 128.023 154.131 134.334 155.266 139.133C144.045 139.133 135.679 114.886 122.999 121.683C106.012 130.79 77.2021 140.21 63.2719 121.266C53.5856 108.06 43.3087 109.229 37.959 111.163C38.1906 110.329 38.4222 109.501 38.6596 108.697Z" fill="#EBEBEB"/>
<path d="M34.1426 127.103C54.1868 128.88 59.525 185.388 129.61 166.589C155.323 159.687 184.312 175.47 202.069 189.985H169.247C159.404 180.143 149.023 169.848 137.363 172.68C99.2718 181.914 72.083 181.266 57.0817 159.728C49.555 148.895 39.3418 145.306 31.0566 144.414C31.9251 138.763 32.9441 132.921 34.1426 127.103Z" fill="#EBEBEB"/>
<path d="M248.956 20.9174H171.373C171.373 20.9174 171.842 15.0176 182.009 13.2575C173.324 9.42467 192.367 1.34793 213.019 12.528C211.409 8.80516 229.775 10.1484 235.391 15.2202C237.394 11.9085 254.908 17.704 248.956 20.9174Z" fill="#F5F5F5"/>
<path d="M109.323 32.1614H65.963C65.963 32.1614 55.802 30.1292 57.1105 24.7447C58.419 19.3602 73.7792 23.8473 73.7792 23.8473C73.7792 23.8473 69.1474 16.3206 83.9866 18.4686C98.8258 20.6166 100.291 28.0449 100.291 28.0449C100.291 28.0449 119.825 26.2385 109.323 32.1614Z" fill="#F5F5F5"/>
<path d="M247.715 109.629H225.714C225.714 109.629 220.556 108.598 221.221 105.871C221.887 103.144 229.68 105.414 229.68 105.414C229.68 105.414 227.318 101.604 234.862 102.687C242.406 103.77 243.142 107.544 243.142 107.544C243.142 107.544 253.048 106.624 247.715 109.629Z" fill="#F5F5F5"/>
<path d="M145.451 216.131C207.45 216.131 257.709 213.197 257.709 209.577C257.709 205.958 207.45 203.023 145.451 203.023C83.453 203.023 33.1934 205.958 33.1934 209.577C33.1934 213.197 83.453 216.131 145.451 216.131Z" fill="#F5F5F5"/>
<path d="M77.6931 207.459C94.8005 207.002 108.298 192.764 107.842 175.656C107.385 158.549 93.1458 145.051 76.0383 145.508C58.9309 145.965 45.4329 160.203 45.8899 177.311C46.3468 194.418 60.5856 207.916 77.6931 207.459Z" fill="#407BFF"/>
<path opacity="0.5" d="M95.2695 193.918C107.03 181.486 108.318 163.607 98.146 153.984C87.974 144.362 70.194 146.639 58.4333 159.071C46.6726 171.504 45.3847 189.383 55.5568 199.005C65.7288 208.628 83.5088 206.35 95.2695 193.918Z" fill="white"/>
<path d="M88.953 187.941C100.714 175.509 104.83 160.306 98.147 153.984C91.4639 147.662 76.5124 152.615 64.7517 165.047C52.991 177.479 48.8747 192.683 55.5577 199.005C62.2407 205.327 77.1923 200.373 88.953 187.941Z" fill="#407BFF"/>
<path opacity="0.5" d="M82.0197 181.385C93.7804 168.952 101 156.685 98.1452 153.984C95.2903 151.283 83.442 159.172 71.6813 171.605C59.9207 184.037 52.701 196.305 55.5559 199.005C58.4108 201.706 70.259 193.817 82.0197 181.385Z" fill="white"/>
<path d="M230.48 206.225C230.108 206.226 229.748 206.093 229.467 205.849L127.758 119.002C127.47 118.726 127.299 118.35 127.279 117.952C127.26 117.554 127.393 117.163 127.652 116.86C127.911 116.557 128.276 116.364 128.672 116.321C129.068 116.278 129.466 116.388 129.784 116.628L231.493 203.481C231.736 203.688 231.91 203.964 231.991 204.273C232.072 204.582 232.056 204.908 231.946 205.207C231.835 205.507 231.635 205.765 231.373 205.947C231.111 206.129 230.799 206.226 230.48 206.225Z" fill="#407BFF"/>
<path d="M163.834 206.226C163.481 206.225 163.139 206.107 162.861 205.89C162.632 205.714 162.457 205.477 162.355 205.208C162.253 204.938 162.227 204.645 162.282 204.361L172.015 155.727C172.055 155.526 172.134 155.336 172.247 155.165C172.361 154.995 172.507 154.849 172.677 154.735C172.847 154.622 173.038 154.543 173.239 154.503C173.44 154.463 173.646 154.463 173.847 154.503C174.048 154.543 174.239 154.622 174.409 154.735C174.579 154.849 174.725 154.995 174.839 155.165C174.953 155.335 175.032 155.526 175.072 155.727C175.112 155.928 175.112 156.134 175.072 156.335L165.935 201.958L219.004 177.676C219.191 177.586 219.394 177.533 219.601 177.522C219.808 177.511 220.016 177.541 220.211 177.611C220.406 177.681 220.586 177.79 220.738 177.93C220.891 178.07 221.014 178.24 221.101 178.429C221.187 178.617 221.235 178.821 221.242 179.029C221.248 179.236 221.213 179.443 221.138 179.636C221.064 179.83 220.952 180.007 220.808 180.156C220.664 180.306 220.492 180.425 220.301 180.507L164.459 206.063C164.264 206.16 164.051 206.215 163.834 206.226Z" fill="#407BFF"/>
<path d="M128.771 117.787H79.0254C91.9076 139.817 127.66 185.527 163.099 185.527H206.464C178.453 185.504 141.653 139.817 128.771 117.787Z" fill="#407BFF"/>
<path opacity="0.2" d="M128.771 117.787H79.0254C91.9076 139.817 127.66 185.527 163.099 185.527H206.464C178.453 185.504 141.653 139.817 128.771 117.787Z" fill="black"/>
<path d="M136.187 123.906L136.54 123.53L136.946 123.084C137.218 122.789 137.496 122.505 137.762 122.169C138.3 121.538 138.833 120.907 139.348 120.259C140.371 118.968 141.327 117.627 142.214 116.24C142.654 115.551 143.065 114.851 143.448 114.15C143.83 113.45 144.194 112.738 144.519 112.02C145.157 110.621 145.661 109.165 146.024 107.672L146.968 110.908C146.417 110.241 145.76 109.67 145.022 109.217C144.063 108.585 143.069 108.005 142.046 107.48C140.987 106.93 139.881 106.404 138.752 105.888L135.353 104.36L135.272 104.319C134.82 104.115 134.453 103.76 134.233 103.315C134.013 102.87 133.955 102.363 134.068 101.88C134.181 101.397 134.458 100.968 134.851 100.666C135.245 100.364 135.732 100.209 136.228 100.226C137.585 100.286 138.938 100.423 140.281 100.637C141.633 100.85 142.975 101.132 144.299 101.482C145.683 101.85 147.038 102.322 148.351 102.895C149.938 103.564 151.388 104.517 152.63 105.709C153.005 106.084 153.289 106.54 153.461 107.041C153.633 107.543 153.687 108.078 153.62 108.604L153.574 108.934C153.295 111.029 152.78 113.086 152.04 115.065C151.329 116.975 150.457 118.821 149.434 120.583C148.439 122.309 147.327 123.965 146.105 125.539C145.491 126.32 144.872 127.09 144.206 127.855C143.876 128.225 143.54 128.596 143.193 128.961L142.654 129.505L142.075 130.084C141.283 130.888 140.204 131.344 139.075 131.352C137.946 131.36 136.861 130.92 136.057 130.127C135.253 129.335 134.797 128.256 134.789 127.127C134.781 125.998 135.221 124.913 136.013 124.109L136.187 123.906Z" fill="#FFC3BD"/>
<path d="M137.659 100.331L132.679 99.7168L131.029 105.721C131.029 105.721 136.055 107.012 138.232 103.764L137.659 100.331Z" fill="#FFC3BD"/>
<path d="M128.793 99.6816L128.15 104.713L131.028 105.72L132.678 99.7164L128.793 99.6816Z" fill="#FFC3BD"/>
<path d="M143.43 171.226C143.43 171.226 129.957 160.718 118.534 140.477C117.897 139.347 117.511 138.093 117.403 136.8C117.294 135.508 117.466 134.207 117.905 132.987C118.345 131.766 119.042 130.655 119.95 129.729C120.858 128.802 121.954 128.082 123.165 127.618C127.467 125.973 132.099 124.416 135.874 123.212C137.73 122.613 139.731 122.634 141.574 123.27C143.418 123.905 145.006 125.122 146.099 126.738C150.765 133.685 155.362 143.482 169.686 155.218C169.879 155.373 170.029 155.575 170.124 155.803C170.219 156.032 170.256 156.28 170.232 156.527C170.207 156.773 170.121 157.009 169.983 157.214C169.844 157.419 169.657 157.587 169.437 157.701L143.43 171.226Z" fill="#407BFF"/>
<path opacity="0.8" d="M143.43 171.226C143.43 171.226 129.957 160.718 118.534 140.477C117.897 139.347 117.511 138.093 117.403 136.8C117.294 135.508 117.466 134.207 117.905 132.987C118.345 131.766 119.042 130.655 119.95 129.729C120.858 128.802 121.954 128.082 123.165 127.618C127.467 125.973 132.099 124.416 135.874 123.212C137.73 122.613 139.731 122.634 141.574 123.27C143.418 123.905 145.006 125.122 146.099 126.738C150.765 133.685 155.362 143.482 169.686 155.218C169.879 155.373 170.029 155.575 170.124 155.803C170.219 156.032 170.256 156.28 170.232 156.527C170.207 156.773 170.121 157.009 169.983 157.214C169.844 157.419 169.657 157.587 169.437 157.701L143.43 171.226Z" fill="white"/>
<path opacity="0.2" d="M117.504 137.849C119.195 132.551 120.654 134.149 121.319 134.676C126.49 138.786 129.176 147.656 128.667 155.687C124.892 150.846 121.482 145.731 118.465 140.384C118.014 139.595 117.69 138.739 117.504 137.849Z" fill="black"/>
<path d="M118.598 113.792C121.29 117.231 125.401 123.698 124.092 127.242C127.596 128.731 131.542 128.795 135.093 127.421C139.626 125.794 138.103 124.26 136.083 123.125C131.381 123.803 129.714 120.201 128.921 117.011L118.598 113.792Z" fill="#FFC3BD"/>
<path opacity="0.2" d="M128.944 117.04L123.154 115.245C123.452 116.799 123.981 118.3 124.723 119.697C125.951 121.573 129.228 122.592 131.671 122.112C130.172 120.884 129.407 118.898 128.944 117.04Z" fill="black"/>
<path d="M130.976 100.486C133.072 102.171 134.044 106.016 133.292 108.69C129.499 102.71 129.447 100.944 129.447 100.944L130.976 100.486Z" fill="#263238"/>
<path d="M117.978 108.778C119.321 114.22 119.831 117.462 123.137 119.9C124.182 120.715 125.431 121.226 126.747 121.379C128.064 121.531 129.397 121.319 130.6 120.765C131.804 120.211 132.832 119.336 133.573 118.237C134.313 117.138 134.736 115.856 134.797 114.533C135.081 109.449 132.84 101.413 127.033 99.9424C121.226 98.4718 116.64 103.341 117.978 108.778Z" fill="#FFC3BD"/>
<path d="M118.928 113.786C120.346 111.835 121.041 107.996 120.207 105.142C123.681 104.256 134.433 103.631 131.491 97.8524C128.55 92.0742 124.544 94.6738 124.468 96.7408C117.88 94.8302 113.468 97.0187 115.263 99.0567C108.477 101.512 110.862 107.018 112.368 107.678C110.017 110.48 111.053 116.744 114.724 116.883C118.395 117.022 119.981 119.825 122.054 119.026C121.66 116.895 118.928 113.786 118.928 113.786Z" fill="#263238"/>
<path d="M125.992 109.385C126.056 109.808 126.322 110.115 126.6 110.074C126.878 110.034 127.046 109.663 126.988 109.246C126.93 108.829 126.658 108.517 126.38 108.557C126.102 108.598 125.934 108.968 125.992 109.385Z" fill="#263238"/>
<path d="M131.156 108.39C131.214 108.813 131.486 109.12 131.735 109.079C131.984 109.039 132.187 108.668 132.129 108.251C132.071 107.834 131.816 107.539 131.556 107.539C131.295 107.539 131.093 107.973 131.156 108.39Z" fill="#263238"/>
<path d="M116.311 114.591C117.113 115.587 118.26 116.245 119.525 116.432C121.192 116.658 121.725 115.141 121.001 113.711C120.358 112.42 118.685 110.752 117.162 111.181C115.64 111.609 115.345 113.329 116.311 114.591Z" fill="#FFC3BD"/>
<path d="M129.488 108.858C129.488 108.858 130.982 111.296 132.337 112.39C131.677 113.235 130.258 113.073 130.258 113.073L129.488 108.858Z" fill="#ED847E"/>
<path d="M128.082 115.331C127.03 115.332 126.02 114.916 125.274 114.174C125.262 114.162 125.252 114.147 125.245 114.131C125.238 114.115 125.234 114.098 125.234 114.081C125.234 114.064 125.238 114.046 125.245 114.03C125.252 114.015 125.262 114 125.274 113.988C125.3 113.964 125.334 113.95 125.37 113.95C125.405 113.95 125.44 113.964 125.465 113.988C125.884 114.38 126.386 114.674 126.933 114.847C127.48 115.02 128.058 115.069 128.627 114.99C128.662 114.985 128.698 114.993 128.727 115.014C128.756 115.034 128.776 115.065 128.783 115.1C128.786 115.117 128.786 115.135 128.782 115.152C128.778 115.169 128.771 115.185 128.761 115.199C128.75 115.213 128.737 115.225 128.722 115.234C128.707 115.243 128.69 115.248 128.673 115.25C128.478 115.292 128.281 115.319 128.082 115.331Z" fill="#263238"/>
<path d="M122.9 107.811C122.853 107.809 122.808 107.797 122.767 107.776C122.703 107.742 122.656 107.686 122.634 107.617C122.612 107.549 122.618 107.475 122.651 107.411C122.839 107.04 123.116 106.721 123.458 106.484C123.799 106.246 124.195 106.098 124.608 106.05C124.68 106.046 124.751 106.069 124.806 106.115C124.861 106.162 124.896 106.228 124.903 106.299C124.907 106.333 124.904 106.368 124.894 106.401C124.884 106.434 124.867 106.464 124.845 106.49C124.823 106.516 124.795 106.538 124.765 106.553C124.734 106.568 124.7 106.576 124.666 106.577C124.339 106.619 124.028 106.742 123.76 106.934C123.492 107.126 123.276 107.381 123.131 107.677C123.108 107.718 123.074 107.752 123.034 107.775C122.993 107.798 122.947 107.811 122.9 107.811Z" fill="#263238"/>
<path d="M132.904 106.433C132.86 106.441 132.814 106.438 132.771 106.425C132.728 106.412 132.688 106.389 132.656 106.358C132.421 106.11 132.132 105.921 131.811 105.806C131.49 105.69 131.147 105.651 130.809 105.692C130.738 105.703 130.665 105.687 130.605 105.647C130.545 105.607 130.502 105.547 130.484 105.477C130.476 105.444 130.474 105.41 130.48 105.376C130.485 105.342 130.497 105.31 130.516 105.281C130.534 105.252 130.559 105.228 130.587 105.209C130.616 105.19 130.648 105.177 130.681 105.171C131.104 105.121 131.533 105.168 131.934 105.31C132.335 105.451 132.699 105.683 132.997 105.987C133.046 106.038 133.073 106.105 133.073 106.175C133.073 106.245 133.046 106.313 132.997 106.363C132.971 106.392 132.939 106.415 132.904 106.433Z" fill="#263238"/>
<path d="M225.888 202.879L232.471 201.669L216.144 186.639L211.559 193.222L225.888 202.879Z" fill="#FFC3BD"/>
<path d="M225.61 206.445C225.089 204.94 225.488 202.908 224.012 200.586C224.012 200.586 227.486 197.072 228.933 198.618C230.38 200.163 234.873 201.75 240.339 200.499C241.103 200.326 241.335 202.612 239.615 203.203C236.772 204.176 234.671 204.853 232.245 205.687C230.172 206.399 229.801 207.036 228.192 207.713C226.849 208.281 226.137 207.956 225.61 206.445Z" fill="#FFC3BD"/>
<path d="M163.514 160.759C163.514 160.759 185.058 163.654 197.715 168.112C206.116 171.059 222.032 190.814 222.032 190.814L215.593 197.281C215.593 197.281 199.619 186.726 187.901 181.017C167.388 185.07 146.597 186.413 143.43 171.244C148.16 168.1 163.514 160.759 163.514 160.759Z" fill="#263238"/>
<path opacity="0.2" d="M194.503 167.851L192.291 183.24C195.858 185.139 199.575 187.293 202.967 189.325L194.503 167.851Z" fill="black"/>
<path d="M225.304 191.189L216.029 200.314L212.896 197.326L222.432 187.582L225.304 191.189Z" fill="#407BFF"/>
<path d="M169.884 156.051C169.884 156.051 194.305 148.195 206.938 152.635C215.339 155.582 207.581 183.582 207.581 183.582L196.14 184.983C196.14 184.983 194.873 173.82 193.825 168.129C183.443 172.471 152.966 181.677 149.822 166.508C154.529 163.393 169.884 156.051 169.884 156.051Z" fill="#263238"/>
<path d="M200.702 200.314L206.156 200.557L205.699 182.296L197.697 182.875L200.702 200.314Z" fill="#FFC3BD"/>
<path d="M198.718 203.806C199.175 202.277 200.692 200.87 200.854 198.12C200.854 198.12 205.741 197.321 205.995 199.417C206.25 201.513 208.971 205.433 214.136 207.627C214.854 207.934 213.701 209.943 211.965 209.393C209.07 208.519 206.991 207.83 204.536 207.077C202.44 206.44 201.763 206.735 200.067 206.342C198.665 206.017 198.272 205.34 198.718 203.806Z" fill="#FFC3BD"/>
<path d="M208.732 185.243L195.879 187.252L195.074 182.997L208.501 180.635L208.732 185.243Z" fill="#407BFF"/>
<path d="M125.569 135.712C125.899 139.481 126.224 143.355 126.646 147.129C126.843 149.017 127.098 150.893 127.364 152.728C127.606 154.45 127.96 156.154 128.424 157.829C128.51 158.119 128.61 158.405 128.725 158.686C128.76 158.778 128.794 158.842 128.765 158.807C128.736 158.773 128.765 158.836 128.667 158.709L128.54 158.582L128.447 158.495L128.348 158.425L128.291 158.391C128.263 158.371 128.234 158.353 128.204 158.338C128.117 158.304 128.163 158.338 128.244 158.385C128.36 158.444 128.48 158.494 128.603 158.535C128.952 158.664 129.307 158.772 129.669 158.86C130.462 159.056 131.348 159.219 132.251 159.357C133.154 159.496 134.08 159.635 135.018 159.751C138.764 160.22 142.661 160.527 146.511 160.909H146.552C147.061 160.966 147.532 161.204 147.88 161.58C148.228 161.956 148.428 162.445 148.445 162.956C148.462 163.468 148.294 163.969 147.972 164.367C147.65 164.765 147.195 165.034 146.691 165.124C142.728 165.793 138.723 166.179 134.706 166.282C132.593 166.362 130.478 166.281 128.377 166.039C127.772 165.963 127.171 165.857 126.577 165.72C126.253 165.639 125.917 165.547 125.54 165.414C125.094 165.264 124.663 165.07 124.255 164.835C124.145 164.771 124 164.684 123.861 164.586L123.653 164.441L123.45 164.279L123.219 164.07C123.13 163.988 123.044 163.901 122.964 163.81C122.849 163.686 122.741 163.557 122.64 163.422C122.364 163.069 122.116 162.696 121.899 162.304C121.575 161.712 121.291 161.099 121.048 160.469C120.637 159.416 120.291 158.339 120.011 157.244C119.739 156.208 119.508 155.195 119.293 154.181C118.859 152.161 118.552 150.163 118.251 148.172C117.672 144.177 117.296 140.257 117.093 136.216C117.049 135.107 117.439 134.026 118.18 133.201C118.921 132.375 119.955 131.871 121.062 131.796C122.168 131.721 123.26 132.08 124.106 132.797C124.953 133.514 125.486 134.533 125.593 135.637L125.569 135.712Z" fill="#FFC3BD"/>
<path d="M183.987 151.541L196.093 157.128C196.84 157.47 197.367 158.558 196.863 158.72L162.397 169.489C162.119 169.537 161.834 169.529 161.559 169.464C161.285 169.399 161.026 169.28 160.799 169.113L150.661 163.022C149.937 162.588 149.503 161.598 150.007 161.453L183.987 151.541Z" fill="#407BFF"/>
<path opacity="0.4" d="M183.987 151.541L196.093 157.128C196.84 157.47 197.367 158.558 196.863 158.72L162.397 169.489C162.119 169.537 161.834 169.529 161.559 169.464C161.285 169.399 161.026 169.28 160.799 169.113L150.661 163.022C149.937 162.588 149.503 161.598 150.007 161.453L183.987 151.541Z" fill="black"/>
<path d="M194.419 132.767L191.66 133.604L191.842 134.202L194.601 133.365L194.419 132.767Z" fill="#407BFF"/>
<path d="M188.615 134.515L178.266 137.653L178.447 138.252L188.797 135.113L188.615 134.515Z" fill="#407BFF"/>
<path d="M198.456 133.801L162.936 144.593C162.709 144.67 162.508 144.809 162.357 144.996C162.206 145.183 162.112 145.408 162.085 145.647L160.834 168.32C160.82 168.416 160.831 168.515 160.868 168.605C160.904 168.695 160.965 168.774 161.042 168.833C161.12 168.893 161.212 168.93 161.309 168.941C161.405 168.953 161.504 168.938 161.593 168.899L197.119 158.141C197.346 158.063 197.547 157.922 197.697 157.734C197.848 157.547 197.942 157.321 197.97 157.082L199.22 134.415C199.243 134.315 199.238 134.211 199.204 134.114C199.171 134.017 199.111 133.932 199.031 133.868C198.951 133.804 198.855 133.764 198.753 133.752C198.652 133.74 198.549 133.757 198.456 133.801Z" fill="#407BFF"/>
<path opacity="0.4" d="M162.085 145.618L160.834 168.291C160.82 168.387 160.831 168.486 160.868 168.576C160.904 168.667 160.965 168.746 161.042 168.805C161.12 168.864 161.212 168.901 161.309 168.913C161.405 168.924 161.504 168.909 161.593 168.87L162.936 144.553C162.707 144.63 162.505 144.772 162.354 144.961C162.203 145.149 162.11 145.378 162.085 145.618Z" fill="black"/>
<path d="M145.776 160.746L150.639 159.797L150.384 166.166C150.384 166.166 144.878 166.64 144.016 164.11L144.496 161.98C144.566 161.671 144.724 161.39 144.951 161.171C145.179 160.952 145.465 160.804 145.776 160.746Z" fill="#FFC3BD"/>
<path d="M154.281 160.202L156.099 164.927L150.385 166.166L150.64 159.797L154.281 160.202Z" fill="#FFC3BD"/>
<path d="M180.728 206.225C180.358 206.226 180 206.092 179.721 205.849L78.0117 119.002C77.7241 118.726 77.5529 118.35 77.5332 117.952C77.5134 117.554 77.6467 117.163 77.9055 116.86C78.1644 116.557 78.5294 116.364 78.9259 116.321C79.3223 116.278 79.7202 116.388 80.0381 116.628L181.741 203.481C181.985 203.688 182.158 203.964 182.239 204.273C182.32 204.582 182.304 204.908 182.194 205.207C182.083 205.507 181.883 205.765 181.621 205.947C181.359 206.129 181.047 206.226 180.728 206.225Z" fill="#407BFF"/>
<path opacity="0.3" d="M180.728 206.225C180.358 206.226 180 206.092 179.721 205.849L78.0117 119.002C77.7241 118.726 77.5529 118.35 77.5332 117.952C77.5134 117.554 77.6467 117.163 77.9055 116.86C78.1644 116.557 78.5294 116.364 78.9259 116.321C79.3223 116.278 79.7202 116.388 80.0381 116.628L181.741 203.481C181.985 203.688 182.158 203.964 182.239 204.273C182.32 204.582 182.304 204.908 182.194 205.207C182.083 205.507 181.883 205.765 181.621 205.947C181.359 206.129 181.047 206.226 180.728 206.225Z" fill="white"/>
<path d="M114.081 206.226C113.731 206.224 113.39 206.106 113.114 205.89C112.886 205.713 112.711 205.477 112.609 205.207C112.507 204.937 112.481 204.645 112.535 204.361L122.274 155.727C122.314 155.526 122.393 155.336 122.506 155.165C122.62 154.995 122.766 154.849 122.936 154.735C123.107 154.622 123.297 154.543 123.498 154.503C123.699 154.463 123.906 154.463 124.106 154.503C124.307 154.543 124.498 154.622 124.668 154.735C124.838 154.849 124.984 154.995 125.098 155.165C125.212 155.335 125.291 155.526 125.331 155.727C125.371 155.928 125.371 156.134 125.331 156.335L116.195 201.958L169.264 177.676C169.45 177.586 169.653 177.533 169.86 177.522C170.067 177.511 170.275 177.541 170.47 177.611C170.665 177.681 170.845 177.79 170.997 177.93C171.15 178.07 171.274 178.24 171.36 178.429C171.446 178.617 171.494 178.821 171.501 179.029C171.507 179.236 171.472 179.443 171.398 179.636C171.323 179.83 171.211 180.007 171.067 180.156C170.923 180.306 170.751 180.425 170.56 180.507L114.712 206.063C114.515 206.16 114.301 206.216 114.081 206.226Z" fill="#407BFF"/>
<path opacity="0.3" d="M114.081 206.226C113.731 206.224 113.39 206.106 113.114 205.89C112.886 205.713 112.711 205.477 112.609 205.207C112.507 204.937 112.481 204.645 112.535 204.361L122.274 155.727C122.314 155.526 122.393 155.336 122.506 155.165C122.62 154.995 122.766 154.849 122.936 154.735C123.107 154.622 123.297 154.543 123.498 154.503C123.699 154.463 123.906 154.463 124.106 154.503C124.307 154.543 124.498 154.622 124.668 154.735C124.838 154.849 124.984 154.995 125.098 155.165C125.212 155.335 125.291 155.526 125.331 155.727C125.371 155.928 125.371 156.134 125.331 156.335L116.195 201.958L169.264 177.676C169.45 177.586 169.653 177.533 169.86 177.522C170.067 177.511 170.275 177.541 170.47 177.611C170.665 177.681 170.845 177.79 170.997 177.93C171.15 178.07 171.274 178.24 171.36 178.429C171.446 178.617 171.494 178.821 171.501 179.029C171.507 179.236 171.472 179.443 171.398 179.636C171.323 179.83 171.211 180.007 171.067 180.156C170.923 180.306 170.751 180.425 170.56 180.507L114.712 206.063C114.515 206.16 114.301 206.216 114.081 206.226Z" fill="white"/>
<path d="M191.77 117.474C191.716 117.475 191.663 117.46 191.617 117.433C191.571 117.405 191.534 117.365 191.509 117.318L184.99 104.58C176.921 102.904 169.76 98.2941 164.893 91.6432C160.026 84.9924 157.799 76.773 158.641 68.5748C159.484 60.3765 163.337 52.7821 169.456 47.2606C175.574 41.739 183.522 38.6826 191.764 38.6826C200.005 38.6826 207.954 41.739 214.072 47.2606C220.19 52.7821 224.044 60.3765 224.886 68.5748C225.729 76.773 223.502 84.9924 218.635 91.6432C213.768 98.2941 206.607 102.904 198.538 104.58L192.024 117.318C192.001 117.365 191.965 117.405 191.92 117.433C191.875 117.461 191.823 117.475 191.77 117.474ZM191.77 39.3121C183.673 39.3264 175.869 42.3432 169.867 47.7788C163.866 53.2145 160.094 60.6827 159.281 68.7388C158.467 76.7949 160.671 84.8663 165.465 91.3917C170.259 97.9171 177.302 102.433 185.233 104.065C185.275 104.074 185.314 104.092 185.348 104.118C185.382 104.144 185.41 104.177 185.43 104.216L191.77 116.548L198.086 104.204C198.107 104.166 198.136 104.132 198.171 104.106C198.206 104.08 198.246 104.062 198.289 104.053C206.237 102.439 213.302 97.9305 218.114 91.4015C222.925 84.8725 225.139 76.7889 224.327 68.7194C223.515 60.6499 219.734 53.1698 213.718 47.7305C207.702 42.2913 199.88 39.2808 191.77 39.2832V39.3121Z" fill="#407BFF"/>
<path d="M166.745 73.7496L170.74 90.1867C170.898 90.8308 171.305 91.3859 171.871 91.73C172.438 92.0742 173.118 92.1792 173.763 92.0221L211.159 82.9264C211.802 82.7673 212.357 82.3604 212.702 81.7943C213.046 81.2282 213.154 80.5489 213 79.9041L209.005 63.4727C208.927 63.1628 208.791 62.8702 208.605 62.61C208.315 62.2046 207.91 61.8949 207.443 61.7206C206.976 61.5463 206.468 61.5153 205.983 61.6316L168.61 70.7273C168.121 70.8429 167.678 71.102 167.337 71.4713C166.997 71.8407 166.774 72.3034 166.699 72.8C166.651 73.1165 166.667 73.4393 166.745 73.7496Z" fill="#D7B0FF"/>
<path d="M166.745 73.7496L170.74 90.1867C170.898 90.8308 171.305 91.3859 171.871 91.73C172.438 92.0742 173.118 92.1792 173.763 92.0221L211.159 82.9264C211.802 82.7673 212.357 82.3604 212.702 81.7943C213.046 81.2282 213.154 80.5489 213 79.9041L209.005 63.4727C208.927 63.1628 208.791 62.8702 208.605 62.61C208.315 62.2046 207.91 61.8949 207.443 61.7206C206.976 61.5463 206.468 61.5153 205.983 61.6316L168.61 70.7273C168.121 70.8429 167.678 71.102 167.337 71.4713C166.997 71.8407 166.774 72.3034 166.699 72.8C166.651 73.1165 166.667 73.4393 166.745 73.7496Z" fill="white" fill-opacity="0.5"/>
<path opacity="0.1" d="M166.699 72.8L193.008 83.7022L208.606 62.61C208.315 62.2046 207.911 61.8949 207.444 61.7206C206.976 61.5463 206.468 61.5153 205.983 61.6316L168.61 70.7273C168.121 70.8429 167.678 71.102 167.337 71.4713C166.997 71.8407 166.775 72.3034 166.699 72.8Z" fill="black"/>
<path d="M166.699 72.8003L193.332 81.485L208.594 62.6335C208.304 62.228 207.899 61.9184 207.432 61.7441C206.965 61.5698 206.456 61.5388 205.971 61.655L168.61 70.7276C168.121 70.8431 167.678 71.1022 167.337 71.4716C166.997 71.841 166.775 72.3037 166.699 72.8003Z" fill="#407BFF"/>
<path opacity="0.1" d="M166.699 72.8003L193.332 81.485L208.594 62.6335C208.304 62.228 207.899 61.9184 207.432 61.7441C206.965 61.5698 206.456 61.5388 205.971 61.655L168.61 70.7276C168.121 70.8431 167.678 71.1022 167.337 71.4716C166.997 71.841 166.775 72.3037 166.699 72.8003Z" fill="#D7B0FF"/>
<path opacity="0.1" d="M210.296 68.7999L179.205 68.1456L188.845 65.8008L209.879 67.0861L210.296 68.7999Z" fill="black"/>
<path d="M182.35 48.3098L181.348 63.3632C181.31 63.9525 181.507 64.5329 181.895 64.9777C182.284 65.4224 182.832 65.6954 183.421 65.737L217.61 68.0124C218.199 68.0506 218.779 67.854 219.224 67.4657C219.669 67.0773 219.942 66.5287 219.984 65.9397L220.985 50.9152C221.02 50.3258 220.822 49.7462 220.433 49.302C220.044 48.8577 219.496 48.5845 218.907 48.5414L184.718 46.266C184.275 46.2385 183.834 46.3433 183.45 46.5669C183.067 46.7906 182.758 47.1232 182.564 47.5224C182.443 47.7686 182.37 48.036 182.35 48.3098Z" fill="#D7B0FF"/>
<path opacity="0.1" d="M182.564 47.4931L201.989 63.7855L220.875 50.0464C220.738 49.6235 220.477 49.2513 220.126 48.9779C219.775 48.7045 219.351 48.5423 218.907 48.5121L184.718 46.2367C184.275 46.2092 183.834 46.314 183.45 46.5376C183.067 46.7613 182.759 47.0939 182.564 47.4931Z" fill="black"/>
<path d="M182.564 47.4934L207.657 61.0299L220.875 50.0293C220.738 49.6064 220.477 49.2342 220.126 48.9608C219.775 48.6874 219.351 48.5252 218.907 48.495L184.718 46.2196C184.273 46.1936 183.831 46.301 183.447 46.5279C183.063 46.7548 182.756 47.0909 182.564 47.4934Z" fill="#407BFF"/>
<path opacity="0.2" d="M182.564 47.4934L207.657 61.0299L220.875 50.0293C220.738 49.6064 220.477 49.2342 220.126 48.9608C219.775 48.6874 219.351 48.5252 218.907 48.495L184.718 46.2196C184.273 46.1936 183.831 46.301 183.447 46.5279C183.063 46.7548 182.756 47.0909 182.564 47.4934Z" fill="white"/>
</svg>
