<svg width="217" height="217" viewBox="0 0 217 217" fill="none" xmlns="http://www.w3.org/2000/svg">
<path d="M216.777 190.741H0.777344V190.886H216.777V190.741Z" fill="#E0E0E0"/>
<path d="M46.9311 196.243H32.0703V196.388H46.9311V196.243Z" fill="#E0E0E0"/>
<path d="M129.609 197.275H125.168V197.42H129.609V197.275Z" fill="#E0E0E0"/>
<path d="M59.8147 198.308H51.4512V198.453H59.8147V198.308Z" fill="#E0E0E0"/>
<path d="M182.127 197.966H171.033V198.111H182.127V197.966Z" fill="#E0E0E0"/>
<path d="M163.47 195.907H155.893V196.052H163.47V195.907Z" fill="#E0E0E0"/>
<path d="M118.925 195.675H78.4551V195.82H118.925V195.675Z" fill="#E0E0E0"/>
<path d="M103.16 164.883H19.7456C19.0921 164.882 18.4658 164.533 18.0042 163.912C17.5425 163.291 17.2832 162.45 17.2832 161.573V4.20534C17.2889 3.33338 17.5507 2.49964 18.0117 1.88522C18.4728 1.2708 19.0959 0.925322 19.7456 0.923828H103.16C103.815 0.923828 104.442 1.27261 104.905 1.89345C105.367 2.51429 105.627 3.35633 105.627 4.23433V161.573C105.627 162.451 105.367 163.293 104.905 163.914C104.442 164.535 103.815 164.883 103.16 164.883ZM19.7456 1.03978C19.1208 1.04132 18.5219 1.37551 18.0805 1.969C17.6391 2.56249 17.3912 3.36679 17.3912 4.20534V161.573C17.3912 162.412 17.6391 163.216 18.0805 163.809C18.5219 164.403 19.1208 164.737 19.7456 164.739H103.16C103.786 164.737 104.385 164.403 104.827 163.81C105.269 163.216 105.518 162.412 105.519 161.573V4.20534C105.518 3.36625 105.269 2.56197 104.827 1.96865C104.385 1.37532 103.786 1.04132 103.16 1.03978H19.7456Z" fill="#E0E0E0"/>
<path d="M196.609 164.883H113.189C112.536 164.882 111.909 164.533 111.446 163.912C110.984 163.292 110.724 162.451 110.723 161.573V4.20534C110.729 3.33285 110.992 2.49911 111.454 1.88485C111.916 1.2706 112.539 0.925306 113.189 0.923828H196.609C197.258 0.926846 197.88 1.273 198.34 1.88725C198.8 2.50151 199.061 3.33438 199.067 4.20534V161.573C199.067 162.449 198.808 163.289 198.347 163.91C197.886 164.53 197.261 164.88 196.609 164.883ZM113.189 1.03978C112.564 1.04132 111.965 1.37532 111.523 1.96865C111.081 2.56197 110.832 3.36625 110.831 4.20534V161.573C110.832 162.412 111.081 163.216 111.523 163.81C111.965 164.403 112.564 164.737 113.189 164.739H196.609C197.234 164.737 197.833 164.403 198.275 163.81C198.717 163.216 198.966 162.412 198.967 161.573V4.20534C198.966 3.36625 198.717 2.56197 198.275 1.96865C197.833 1.37532 197.234 1.04132 196.609 1.03978H113.189Z" fill="#E0E0E0"/>
<path d="M189.711 104.964H179.451V191.791H189.711V104.964Z" fill="#E0E0E0"/>
<path d="M187.76 191.791H189.708V184.353H185.717L187.76 191.791Z" fill="#F0F0F0"/>
<path d="M151.373 104.964H141.113V191.791H151.373V104.964Z" fill="#E0E0E0"/>
<path d="M189.708 104.964H149.67V187.228H189.708V104.964Z" fill="#F0F0F0"/>
<path d="M170.342 107.399V177.929H188.196V107.399H170.342Z" fill="#E0E0E0"/>
<path d="M151.182 107.399V177.929H169.036V107.399H151.182Z" fill="#E0E0E0"/>
<path d="M161.873 109.48H158.34C157.582 109.483 156.831 109.279 156.134 108.88C155.437 108.481 154.807 107.897 154.283 107.161H165.947C165.422 107.9 164.789 108.486 164.089 108.885C163.388 109.284 162.634 109.486 161.873 109.48Z" fill="#F0F0F0"/>
<path d="M181.219 109.48H177.685C176.927 109.483 176.177 109.279 175.479 108.881C174.782 108.482 174.152 107.897 173.629 107.161H185.293C184.767 107.899 184.135 108.486 183.434 108.885C182.734 109.283 181.98 109.486 181.219 109.48Z" fill="#F0F0F0"/>
<path d="M151.618 191.791H149.67V184.353H153.662L151.618 191.791Z" fill="#F0F0F0"/>
<path d="M169.822 29.1123H149.51V59.046H169.822V29.1123Z" fill="#E0E0E0"/>
<path d="M172.027 29.1123H151.045V59.046H172.027V29.1123Z" fill="#F0F0F0"/>
<path d="M170.264 56.6801V31.4658H152.798V56.6801H170.264Z" fill="#FAFAFA"/>
<path d="M166.031 50.5699V37.5771H157.033V50.5699H166.031Z" fill="#F0F0F0"/>
<path d="M123.255 11.9336H31.8652V94.2033H123.255V11.9336Z" fill="#E0E0E0"/>
<path d="M125.609 11.9336H32.9668V94.2033H125.609V11.9336Z" fill="#93E9BE"/>
<path d="M125.609 11.9336H32.9668V94.2033H125.609V11.9336Z" fill="white" fill-opacity="0.5"/>
<path d="M123.255 94.2031H31.8652V100.065H123.255V94.2031Z" fill="#E0E0E0"/>
<path d="M129.521 94.2031H36.8789V100.065H129.521V94.2031Z" fill="#EBEBEB"/>
<path d="M122.316 89.7856V16.3516L36.2534 16.3516V89.7856H122.316Z" fill="#F5F5F5"/>
<path d="M56.6914 89.7856L76.0061 16.3516H85.1256L65.8109 89.7856H56.6914Z" fill="#FAFAFA"/>
<path d="M37.7782 64.8726C37.7159 64.8711 37.6566 64.8368 37.613 64.7772C37.5694 64.7175 37.5449 64.6373 37.5449 64.5537V19.2213C37.5449 19.1802 37.551 19.1395 37.5627 19.1015C37.5744 19.0635 37.5916 19.029 37.6132 18.9999C37.6349 18.9708 37.6606 18.9478 37.6889 18.932C37.7172 18.9163 37.7476 18.9082 37.7782 18.9082C37.8405 18.9082 37.9003 18.941 37.9447 18.9995C37.9891 19.0581 38.0147 19.1377 38.0158 19.2213V64.5537C38.0158 64.6383 37.9908 64.7194 37.9462 64.7792C37.9017 64.839 37.8412 64.8726 37.7782 64.8726Z" fill="#EBEBEB"/>
<path d="M67.7676 89.7856L87.0823 16.3516H90.6377L71.3229 89.7856H67.7676Z" fill="#FAFAFA"/>
<path d="M122.316 89.7856V16.3516H121.897V89.7856H122.316Z" fill="#E0E0E0"/>
<path d="M126.385 21.9982H34.9958L34.6934 18.0674H126.083L126.385 21.9982Z" fill="#93E9BE"/>
<path d="M126.385 21.9982H34.9958L34.6934 18.0674H126.083L126.385 21.9982Z" fill="white" fill-opacity="0.5"/>
<path d="M126.385 24.88H34.9958L34.6934 20.9434H126.083L126.385 24.88Z" fill="#93E9BE"/>
<path d="M126.385 24.88H34.9958L34.6934 20.9434H126.083L126.385 24.88Z" fill="white" fill-opacity="0.5"/>
<path d="M126.385 28.3351H34.9958L34.6934 24.3984H126.083L126.385 28.3351Z" fill="#93E9BE"/>
<path d="M126.385 28.3351H34.9958L34.6934 24.3984H126.083L126.385 28.3351Z" fill="white" fill-opacity="0.5"/>
<path d="M126.385 32.1789H34.9958L34.6934 28.248H126.083L126.385 32.1789Z" fill="#93E9BE"/>
<path d="M126.385 32.1789H34.9958L34.6934 28.248H126.083L126.385 32.1789Z" fill="white" fill-opacity="0.5"/>
<path d="M126.385 36.7882H34.9958L34.6934 32.8516H126.083L126.385 36.7882Z" fill="#93E9BE"/>
<path d="M126.385 36.7882H34.9958L34.6934 32.8516H126.083L126.385 36.7882Z" fill="white" fill-opacity="0.5"/>
<path d="M126.385 41.966H34.9958L34.6934 38.0352H126.083L126.385 41.966Z" fill="#93E9BE"/>
<path d="M126.385 41.966H34.9958L34.6934 38.0352H126.083L126.385 41.966Z" fill="white" fill-opacity="0.75"/>
<path d="M170.634 64.9541H157.834V83.8199H170.634V64.9541Z" fill="#E0E0E0"/>
<path d="M172.022 64.9541H158.799V83.8199H172.022V64.9541Z" fill="#F0F0F0"/>
<path d="M170.916 82.33V66.4385H159.909V82.33H170.916Z" fill="#FAFAFA"/>
<path d="M162.574 74.677V74.0973C162.575 73.088 162.875 72.1207 163.407 71.4076C163.939 70.6945 164.66 70.2939 165.412 70.2939C166.164 70.2939 166.885 70.6947 167.416 71.4079C167.948 72.1212 168.246 73.0886 168.246 74.0973V74.677C168.246 75.6857 167.948 76.6531 167.416 77.3664C166.885 78.0796 166.164 78.4803 165.412 78.4803C164.66 78.4803 163.939 78.0798 163.407 77.3667C162.875 76.6536 162.575 75.6863 162.574 74.677Z" fill="#F0F0F0"/>
<path d="M190.922 46.958H175.854V69.1633H190.922V46.958Z" fill="#E0E0E0"/>
<path d="M192.555 46.958H176.99V69.1633H192.555V46.958Z" fill="#F0F0F0"/>
<path d="M191.25 67.4124V48.709H178.294V67.4124H191.25Z" fill="#FAFAFA"/>
<path d="M184.775 53.335L181.232 61.5677H188.317L184.775 53.335Z" fill="#F0F0F0"/>
<path d="M126.57 137.176H107.199V191.79H126.57V137.176Z" fill="#E0E0E0"/>
<path d="M124.623 191.791H126.572V184.353H122.58L124.623 191.791Z" fill="#F0F0F0"/>
<path d="M56.9803 137.176H37.6094V191.79H56.9803V137.176Z" fill="#E0E0E0"/>
<path d="M126.572 137.176H55.2832V187.228H126.572V137.176Z" fill="#F0F0F0"/>
<path d="M125.06 139.391H56.7949V153.12H125.06V139.391Z" fill="#E0E0E0"/>
<path d="M94.4555 143.658H87.3923C85.8738 143.658 84.3712 143.243 82.9763 142.437C81.5815 141.632 80.3235 140.453 79.2793 138.974H102.568C101.525 140.454 100.267 141.633 98.8718 142.439C97.4769 143.244 95.9741 143.659 94.4555 143.658Z" fill="#F0F0F0"/>
<path d="M57.2315 191.791H55.2832V184.353H59.2749L57.2315 191.791Z" fill="#F0F0F0"/>
<path d="M125.06 155.341H56.7949V169.07H125.06V155.341Z" fill="#E0E0E0"/>
<path d="M94.4555 159.602H87.3923C85.8742 159.601 84.3721 159.186 82.9773 158.382C81.5826 157.577 80.3244 156.401 79.2793 154.923H102.568C101.524 156.401 100.266 157.579 98.8709 158.383C97.476 159.188 95.9736 159.602 94.4555 159.602Z" fill="#F0F0F0"/>
<path d="M125.06 171.284H56.7949V185.013H125.06V171.284Z" fill="#E0E0E0"/>
<path d="M94.4555 175.552H87.3923C85.8739 175.55 84.3717 175.134 82.9769 174.329C81.5822 173.523 80.3241 172.346 79.2793 170.867H102.568C101.524 172.347 100.266 173.525 98.8712 174.33C97.4764 175.136 95.9739 175.551 94.4555 175.552Z" fill="#F0F0F0"/>
<path d="M88.04 136.579H99.5312V110.889H88.04V136.579Z" fill="#FAFAFA"/>
<path d="M97.7435 136.979H98.5254V111.29H97.7435V136.979Z" fill="#F0F0F0"/>
<path d="M98.5819 137.176H100.591C100.743 137.176 100.867 137.01 100.867 136.805V111.469C100.867 111.264 100.743 111.098 100.591 111.098H98.5819C98.4292 111.098 98.3054 111.264 98.3054 111.469V136.805C98.3054 137.01 98.4292 137.176 98.5819 137.176Z" fill="#E0E0E0"/>
<path d="M98.3054 123.146H100.867V117.052H98.3054V123.146Z" fill="#F0F0F0"/>
<path d="M98.3054 128.781H100.867V125.024H98.3054V128.781Z" fill="#F0F0F0"/>
<path d="M87.4622 137.176H97.8173C97.97 137.176 98.0938 137.01 98.0938 136.805V111.469C98.0938 111.264 97.97 111.098 97.8173 111.098H87.4622C87.3095 111.098 87.1858 111.264 87.1858 111.469V136.805C87.1858 137.01 87.3095 137.176 87.4622 137.176Z" fill="#E0E0E0"/>
<path d="M82.4423 136.516H95.1172V108.182H82.4423V136.516Z" fill="#FAFAFA"/>
<path d="M93.1481 136.962H94.0078V108.628H93.1481V136.962Z" fill="#F0F0F0"/>
<path d="M94.0713 137.176H96.2831C96.4525 137.176 96.5898 136.991 96.5898 136.764V108.819C96.5898 108.592 96.4525 108.407 96.2831 108.407H94.0713C93.9019 108.407 93.7646 108.592 93.7646 108.819V136.764C93.7646 136.991 93.9019 137.176 94.0713 137.176Z" fill="#E6E6E6"/>
<path d="M93.7646 118.548H96.5898V117.568H93.7646V118.548Z" fill="#F0F0F0"/>
<path d="M93.7646 121.389H96.5898V120.409H93.7646V121.389Z" fill="#F0F0F0"/>
<path d="M93.7646 124.229H96.5898V123.25H93.7646V124.229Z" fill="#F0F0F0"/>
<path d="M81.8029 137.176H93.2206C93.39 137.176 93.5273 136.991 93.5273 136.764V108.819C93.5273 108.592 93.39 108.407 93.2206 108.407H81.8029C81.6335 108.407 81.4961 108.592 81.4961 108.819V136.764C81.4961 136.991 81.6335 137.176 81.8029 137.176Z" fill="#E6E6E6"/>
<path d="M63.5729 131.662C65.367 131.662 66.8215 129.71 66.8215 127.302C66.8215 124.894 65.367 122.942 63.5729 122.942C61.7787 122.942 60.3242 124.894 60.3242 127.302C60.3242 129.71 61.7787 131.662 63.5729 131.662Z" fill="#E6E6E6"/>
<path d="M61.2795 129.384C61.2795 130.058 61.1305 130.718 60.8511 131.278C60.5718 131.839 60.1749 132.276 59.7105 132.534C59.2461 132.792 58.7351 132.859 58.2422 132.727C57.7494 132.595 57.2968 132.27 56.9417 131.792C56.5866 131.315 56.345 130.707 56.2475 130.045C56.15 129.384 56.2009 128.698 56.3938 128.075C56.5867 127.452 56.913 126.92 57.3313 126.546C57.7496 126.172 58.2411 125.973 58.7437 125.975C59.0771 125.975 59.4072 126.063 59.7151 126.234C60.0231 126.406 60.3028 126.657 60.5383 126.973C60.7739 127.29 60.9606 127.666 61.0878 128.08C61.2149 128.493 61.2801 128.936 61.2795 129.384Z" fill="#E6E6E6"/>
<path d="M69.1314 133.744C70.9256 133.744 72.3801 131.792 72.3801 129.384C72.3801 126.976 70.9256 125.024 69.1314 125.024C67.3373 125.024 65.8828 126.976 65.8828 129.384C65.8828 131.792 67.3373 133.744 69.1314 133.744Z" fill="#E6E6E6"/>
<path d="M75.6954 132.139C77.3543 131.222 78.1451 128.673 77.4617 126.447C76.7783 124.221 74.8794 123.159 73.2205 124.077C71.5616 124.994 70.7708 127.542 71.4542 129.769C72.1376 131.995 74.0365 133.056 75.6954 132.139Z" fill="#E6E6E6"/>
<path d="M51.2383 128.671C51.2383 128.671 51.6703 137.176 68.7775 137.176C85.8847 137.176 86.3124 128.671 86.3124 128.671H51.2383Z" fill="#EBEBEB"/>
<path d="M108.778 216.924C155.038 216.924 192.539 213.986 192.539 210.361C192.539 206.736 155.038 203.798 108.778 203.798C62.5184 203.798 25.0176 206.736 25.0176 210.361C25.0176 213.986 62.5184 216.924 108.778 216.924Z" fill="#F5F5F5"/>
<path opacity="0.4" d="M115.641 45.8927L107.354 129.25L174.428 141.261L182.715 57.9037L115.641 45.8927Z" fill="#FAFAFA"/>
<path d="M110.762 37.0557L100.912 136.127L179.294 150.134L189.131 51.092L110.762 37.0557ZM175.601 129.413L163.855 108.797L150.532 122.468L130.487 87.3104L109.371 108.976L115.639 45.9146L182.711 57.9217L175.601 129.413Z" fill="#407BFF"/>
<g opacity="0.6">
<path d="M110.762 37.0557L100.912 136.127L179.294 150.134L189.131 51.092L110.762 37.0557ZM175.601 129.413L163.855 108.797L150.532 122.468L130.487 87.3104L109.371 108.976L115.639 45.9146L182.711 57.9217L175.601 129.413Z" fill="#D7B0FF"/>
<path d="M110.762 37.0557L100.912 136.127L179.294 150.134L189.131 51.092L110.762 37.0557ZM175.601 129.413L163.855 108.797L150.532 122.468L130.487 87.3104L109.371 108.976L115.639 45.9146L182.711 57.9217L175.601 129.413Z" fill="black" fill-opacity="0.25"/>
</g>
<path d="M165.687 84.3474C168.145 77.67 166.104 69.5826 161.129 66.2839C156.153 62.9851 150.127 65.7241 147.669 72.4016C145.211 79.079 147.252 87.1664 152.228 90.4651C157.203 93.7639 163.229 91.0249 165.687 84.3474Z" fill="#407BFF"/>
<g opacity="0.6">
<path d="M165.687 84.3474C168.145 77.67 166.104 69.5826 161.129 66.2839C156.153 62.9851 150.127 65.7241 147.669 72.4016C145.211 79.079 147.252 87.1664 152.228 90.4651C157.203 93.7639 163.229 91.0249 165.687 84.3474Z" fill="#D7B0FF"/>
<path d="M165.687 84.3474C168.145 77.67 166.104 69.5826 161.129 66.2839C156.153 62.9851 150.127 65.7241 147.669 72.4016C145.211 79.079 147.252 87.1664 152.228 90.4651C157.203 93.7639 163.229 91.0249 165.687 84.3474Z" fill="black" fill-opacity="0.25"/>
</g>
<path d="M178.201 148.03L102.385 134.452C102.374 134.457 102.362 134.457 102.35 134.452C102.347 134.444 102.346 134.435 102.346 134.426C102.346 134.417 102.347 134.408 102.35 134.4L111.854 39.0215C111.851 39.0084 111.851 38.994 111.854 38.9809C111.867 38.9751 111.881 38.9751 111.893 38.9809L187.692 52.5244C187.699 52.525 187.705 52.5276 187.711 52.5318C187.717 52.5361 187.722 52.542 187.726 52.5491C187.73 52.5562 187.733 52.5644 187.735 52.5731C187.736 52.5818 187.736 52.5909 187.735 52.5997L178.231 147.978C178.231 147.99 178.228 148.001 178.222 148.011C178.217 148.02 178.209 148.027 178.201 148.03ZM102.445 134.33L178.158 147.885L187.631 52.6403L111.919 39.0852L102.445 134.33Z" fill="#FAFAFA"/>
<path opacity="0.4" d="M106.878 60.5361H35.7754V148.899H106.878V60.5361Z" fill="#FAFAFA"/>
<path d="M110.675 54.1064L31.6191 54.5645L31.9215 154.564H110.978L110.675 54.1064ZM101.435 146.151C99.387 140.649 96.3284 134.243 93.0798 133.848C93.0798 133.848 90.4446 133.234 86.7078 132.753L86.319 132.706C86.247 132.701 86.1749 132.701 86.103 132.706C84.2151 132.463 82.094 132.289 79.8908 132.242C79.4934 132.242 79.0959 132.242 78.6942 132.242H78.2147C75.5449 128.723 76.1972 119.841 77.1908 112.594C77.4561 112.525 77.7124 112.404 77.9511 112.234C79.5278 111.122 80.7542 109.287 81.4071 107.063C81.6159 106.324 81.6928 105.53 81.6318 104.744C84.7206 100.5 88.1118 96.2617 89.9867 90.5799C92.6996 82.4167 89.9564 79.8078 87.9735 78.9845C89.376 78.9207 90.775 79.2078 92.0991 79.831C90.6217 77.5756 89.0406 77.2046 87.6971 77.5119C89.1745 75.6624 88.9931 72.4968 88.9931 72.4968C88.5541 74.0289 87.9049 75.437 87.0793 76.648C88.2846 71.059 80.4999 66.8846 69.9505 70.5952C62.1356 73.3433 58.1526 72.0272 58.1526 72.0272C58.2904 72.7668 58.5388 73.4612 58.8826 74.0681C59.2265 74.6751 59.6586 75.1819 60.1527 75.558C54.3553 80.66 54.8564 93.0498 56.3295 101.688C56.152 103.111 56.028 104.545 55.958 105.984C55.526 115.644 61.0383 121.691 67.3499 120.479C67.3499 120.653 67.3974 120.827 67.419 121.006C67.4406 121.186 67.4751 121.505 67.4967 121.749C67.5486 122.328 67.5875 122.85 67.6047 123.401C67.743 127.656 66.7148 131.616 62.2695 133.437C61.4055 133.611 60.5415 133.808 59.6775 134.016L59.3924 134.086L58.4291 134.324L57.9279 134.457L57.159 134.66L56.6881 134.788L55.8932 135.008L55.5433 135.106L54.6404 135.373L54.4331 135.431C54.1047 135.53 53.7851 135.628 53.4697 135.715L53.3012 135.773L52.7353 135.941C49.7113 136.881 47.5513 137.681 47.5513 137.681C43.8361 139.269 41.5033 143.449 40.2073 146.551H37.6412L37.3734 62.4842L105.042 62.0957L105.31 146.163L101.435 146.151Z" fill="#407BFF"/>
<g opacity="0.6">
<path d="M110.675 54.1064L31.6191 54.5645L31.9215 154.564H110.978L110.675 54.1064ZM101.435 146.151C99.387 140.649 96.3284 134.243 93.0798 133.848C93.0798 133.848 90.4446 133.234 86.7078 132.753L86.319 132.706C86.247 132.701 86.1749 132.701 86.103 132.706C84.2151 132.463 82.094 132.289 79.8908 132.242C79.4934 132.242 79.0959 132.242 78.6942 132.242H78.2147C75.5449 128.723 76.1972 119.841 77.1908 112.594C77.4561 112.525 77.7124 112.404 77.9511 112.234C79.5278 111.122 80.7542 109.287 81.4071 107.063C81.6159 106.324 81.6928 105.53 81.6318 104.744C84.7206 100.5 88.1118 96.2617 89.9867 90.5799C92.6996 82.4167 89.9564 79.8078 87.9735 78.9845C89.376 78.9207 90.775 79.2078 92.0991 79.831C90.6217 77.5756 89.0406 77.2046 87.6971 77.5119C89.1745 75.6624 88.9931 72.4968 88.9931 72.4968C88.5541 74.0289 87.9049 75.437 87.0793 76.648C88.2846 71.059 80.4999 66.8846 69.9505 70.5952C62.1356 73.3433 58.1526 72.0272 58.1526 72.0272C58.2904 72.7668 58.5388 73.4612 58.8826 74.0681C59.2265 74.6751 59.6586 75.1819 60.1527 75.558C54.3553 80.66 54.8564 93.0498 56.3295 101.688C56.152 103.111 56.028 104.545 55.958 105.984C55.526 115.644 61.0383 121.691 67.3499 120.479C67.3499 120.653 67.3974 120.827 67.419 121.006C67.4406 121.186 67.4751 121.505 67.4967 121.749C67.5486 122.328 67.5875 122.85 67.6047 123.401C67.743 127.656 66.7148 131.616 62.2695 133.437C61.4055 133.611 60.5415 133.808 59.6775 134.016L59.3924 134.086L58.4291 134.324L57.9279 134.457L57.159 134.66L56.6881 134.788L55.8932 135.008L55.5433 135.106L54.6404 135.373L54.4331 135.431C54.1047 135.53 53.7851 135.628 53.4697 135.715L53.3012 135.773L52.7353 135.941C49.7113 136.881 47.5513 137.681 47.5513 137.681C43.8361 139.269 41.5033 143.449 40.2073 146.551H37.6412L37.3734 62.4842L105.042 62.0957L105.31 146.163L101.435 146.151Z" fill="#D7B0FF"/>
<path d="M110.675 54.1064L31.6191 54.5645L31.9215 154.564H110.978L110.675 54.1064ZM101.435 146.151C99.387 140.649 96.3284 134.243 93.0798 133.848C93.0798 133.848 90.4446 133.234 86.7078 132.753L86.319 132.706C86.247 132.701 86.1749 132.701 86.103 132.706C84.2151 132.463 82.094 132.289 79.8908 132.242C79.4934 132.242 79.0959 132.242 78.6942 132.242H78.2147C75.5449 128.723 76.1972 119.841 77.1908 112.594C77.4561 112.525 77.7124 112.404 77.9511 112.234C79.5278 111.122 80.7542 109.287 81.4071 107.063C81.6159 106.324 81.6928 105.53 81.6318 104.744C84.7206 100.5 88.1118 96.2617 89.9867 90.5799C92.6996 82.4167 89.9564 79.8078 87.9735 78.9845C89.376 78.9207 90.775 79.2078 92.0991 79.831C90.6217 77.5756 89.0406 77.2046 87.6971 77.5119C89.1745 75.6624 88.9931 72.4968 88.9931 72.4968C88.5541 74.0289 87.9049 75.437 87.0793 76.648C88.2846 71.059 80.4999 66.8846 69.9505 70.5952C62.1356 73.3433 58.1526 72.0272 58.1526 72.0272C58.2904 72.7668 58.5388 73.4612 58.8826 74.0681C59.2265 74.6751 59.6586 75.1819 60.1527 75.558C54.3553 80.66 54.8564 93.0498 56.3295 101.688C56.152 103.111 56.028 104.545 55.958 105.984C55.526 115.644 61.0383 121.691 67.3499 120.479C67.3499 120.653 67.3974 120.827 67.419 121.006C67.4406 121.186 67.4751 121.505 67.4967 121.749C67.5486 122.328 67.5875 122.85 67.6047 123.401C67.743 127.656 66.7148 131.616 62.2695 133.437C61.4055 133.611 60.5415 133.808 59.6775 134.016L59.3924 134.086L58.4291 134.324L57.9279 134.457L57.159 134.66L56.6881 134.788L55.8932 135.008L55.5433 135.106L54.6404 135.373L54.4331 135.431C54.1047 135.53 53.7851 135.628 53.4697 135.715L53.3012 135.773L52.7353 135.941C49.7113 136.881 47.5513 137.681 47.5513 137.681C43.8361 139.269 41.5033 143.449 40.2073 146.551H37.6412L37.3734 62.4842L105.042 62.0957L105.31 146.163L101.435 146.151Z" fill="white" fill-opacity="0.5"/>
</g>
<path d="M33.2558 153.166C33.246 153.171 33.2353 153.171 33.2255 153.166C33.2216 153.151 33.2216 153.135 33.2255 153.12L32.8713 56.298C32.8707 56.2892 32.8715 56.2802 32.8736 56.2718C32.8757 56.2634 32.8791 56.2557 32.8836 56.2491C32.8881 56.2426 32.8935 56.2373 32.8996 56.2338C32.9056 56.2302 32.9122 56.2284 32.9188 56.2284L109.383 55.7878C109.389 55.7841 109.396 55.7822 109.402 55.7822C109.409 55.7822 109.416 55.7841 109.422 55.7878C109.425 55.8048 109.425 55.823 109.422 55.84L109.78 152.662C109.78 152.68 109.775 152.698 109.765 152.711C109.755 152.724 109.742 152.732 109.728 152.732L33.2644 153.172L33.2558 153.166ZM32.9534 56.3444L33.3076 153.016L109.694 152.575L109.335 55.9038L32.9534 56.3444Z" fill="#FAFAFA"/>
<path d="M91.9292 149.525C92.1668 149.525 92.4088 149.525 92.655 149.554C97.7872 150.047 101.939 155.88 102.267 163.057C102.34 164.642 102.228 166.233 101.934 167.771C100.802 173.944 100.256 180.285 100.31 186.642V205.195C100.319 205.825 100.143 206.434 99.8194 206.89C99.4958 207.346 99.0511 207.612 98.582 207.63H64.2812V149.525H91.9292Z" fill="#407BFF"/>
<path opacity="0.2" d="M91.9292 149.525C92.1668 149.525 92.4088 149.525 92.655 149.554C97.7872 150.047 101.939 155.88 102.267 163.057C102.34 164.642 102.228 166.233 101.934 167.771C100.802 173.944 100.256 180.285 100.31 186.642V205.195C100.319 205.825 100.143 206.434 99.8194 206.89C99.4958 207.346 99.0511 207.612 98.582 207.63H64.2812V149.525H91.9292Z" fill="black"/>
<path d="M53.9141 164.008C53.9141 155.677 58.9469 148.981 64.9992 149.56C70.1314 150.053 74.2829 155.886 74.6112 163.063C74.684 164.648 74.5718 166.239 74.2786 167.777C73.1459 173.95 72.6001 180.291 72.6542 186.648V205.201C72.6636 205.831 72.4872 206.44 72.1636 206.896C71.84 207.352 71.3953 207.618 70.9262 207.636H57.6293C57.1599 207.62 56.7145 207.354 56.3906 206.898C56.0668 206.441 55.8908 205.831 55.9013 205.201V185.558C55.9357 179.603 55.3925 173.666 54.2856 167.899C54.037 166.629 53.9121 165.321 53.9141 164.008Z" fill="#407BFF"/>
<path opacity="0.1" d="M53.9141 164.008C53.9141 155.677 58.9469 148.981 64.9992 149.56C70.1314 150.053 74.2829 155.886 74.6112 163.063C74.684 164.648 74.5718 166.239 74.2786 167.777C73.1459 173.95 72.6001 180.291 72.6542 186.648V205.201C72.6636 205.831 72.4872 206.44 72.1636 206.896C71.84 207.352 71.3953 207.618 70.9262 207.636H57.6293C57.1599 207.62 56.7145 207.354 56.3906 206.898C56.0668 206.441 55.8908 205.831 55.9013 205.201V185.558C55.9357 179.603 55.3925 173.666 54.2856 167.899C54.037 166.629 53.9121 165.321 53.9141 164.008Z" fill="#FAFAFA"/>
<path d="M78.5508 207.607H122.252V172.346H78.5508V207.607Z" fill="#407BFF"/>
<g opacity="0.2">
<path d="M78.5508 207.607H122.252V172.346H78.5508V207.607Z" fill="#D7B0FF"/>
<path d="M78.5508 207.607H122.252V172.346H78.5508V207.607Z" fill="white" fill-opacity="0.5"/>
</g>
<path d="M153.455 180.312H89.1908V140.841C89.1908 137.993 90.0337 135.262 91.5341 133.248C93.0345 131.234 95.0695 130.103 97.1914 130.103H145.45C147.572 130.103 149.607 131.234 151.107 133.248C152.608 135.262 153.451 137.993 153.451 140.841V180.312H153.455Z" fill="#407BFF"/>
<path opacity="0.3" d="M153.455 180.312H89.1908V140.841C89.1908 137.993 90.0337 135.262 91.5341 133.248C93.0345 131.234 95.0695 130.103 97.1914 130.103H145.45C147.572 130.103 149.607 131.234 151.107 133.248C152.608 135.262 153.451 137.993 153.451 140.841V180.312H153.455Z" fill="black"/>
<path d="M143.58 180.312H87.1004V140.307C87.1004 137.596 87.9028 134.996 89.3311 133.08C90.7594 131.163 92.6966 130.086 94.7166 130.086H135.964C137.984 130.086 139.921 131.163 141.349 133.08C142.778 134.996 143.58 137.596 143.58 140.307V180.312Z" fill="#407BFF"/>
<path opacity="0.1" d="M143.58 180.312H87.1004V140.307C87.1004 137.596 87.9028 134.996 89.3311 133.08C90.7594 131.163 92.6966 130.086 94.7166 130.086H135.964C137.984 130.086 139.921 131.163 141.349 133.08C142.778 134.996 143.58 137.596 143.58 140.307V180.312Z" fill="#FAFAFA"/>
<path d="M119.751 183.482H79.1125C78.4869 183.482 77.887 183.149 77.4446 182.555C77.0023 181.962 76.7537 181.156 76.7537 180.317V171.835C76.7537 170.995 77.0023 170.19 77.4446 169.596C77.887 169.003 78.4869 168.669 79.1125 168.669H119.751C119.937 168.669 120.117 168.769 120.249 168.946C120.381 169.123 120.455 169.364 120.455 169.614V182.514C120.457 182.64 120.441 182.766 120.406 182.883C120.372 183 120.32 183.107 120.255 183.197C120.189 183.288 120.111 183.359 120.024 183.408C119.938 183.457 119.845 183.482 119.751 183.482Z" fill="#407BFF"/>
<path opacity="0.3" d="M119.751 183.482H79.1125C78.4869 183.482 77.887 183.149 77.4446 182.555C77.0023 181.962 76.7537 181.156 76.7537 180.317V171.835C76.7537 170.995 77.0023 170.19 77.4446 169.596C77.887 169.003 78.4869 168.669 79.1125 168.669H119.751C119.937 168.669 120.117 168.769 120.249 168.946C120.381 169.123 120.455 169.364 120.455 169.614V182.514C120.457 182.64 120.441 182.766 120.406 182.883C120.372 183 120.32 183.107 120.255 183.197C120.189 183.288 120.111 183.359 120.024 183.408C119.938 183.457 119.845 183.482 119.751 183.482Z" fill="black"/>
<path d="M156.41 209.363L65.0376 209.363C64.6939 209.363 64.3642 209.18 64.1212 208.854C63.8781 208.528 63.7416 208.085 63.7416 207.624V207.589L157.697 207.589V207.624C157.697 208.083 157.562 208.524 157.321 208.85C157.08 209.176 156.752 209.36 156.41 209.363Z" fill="#407BFF"/>
<path opacity="0.4" d="M156.41 209.363L65.0376 209.363C64.6939 209.363 64.3642 209.18 64.1212 208.854C63.8781 208.528 63.7416 208.085 63.7416 207.624V207.589L157.697 207.589V207.624C157.697 208.083 157.562 208.524 157.321 208.85C157.08 209.176 156.752 209.36 156.41 209.363Z" fill="black"/>
<path d="M134.265 90.2089C136.309 88.0579 133.302 84.5445 128.109 84.5793C124.653 84.5793 123.107 83.4951 123.107 83.4951C123.106 83.8197 123.154 84.1411 123.249 84.4401C123.343 84.739 123.481 85.0092 123.655 85.2344C119.525 87.1187 119.811 97.4792 120.243 99.3171L126.191 105.863C127.487 100.813 132.261 100.013 134.831 95.6703C137.402 91.3278 134.265 90.2089 134.265 90.2089Z" fill="#263238"/>
<path d="M133.355 90.4061C133.355 90.4061 135.515 88.777 136.557 91.5193C135.609 90.6892 134.484 90.2982 133.355 90.4061Z" fill="#263238"/>
<path d="M135.847 88.0518C135.847 88.0518 135.518 90.6144 133.756 90.11C134.601 89.7471 135.335 89.0245 135.847 88.0518Z" fill="#263238"/>
<path d="M95.637 88.8926L92.7512 88.278C92.703 88.27 92.6568 88.2474 92.6161 88.2119C92.5754 88.1764 92.5412 88.1288 92.5163 88.073C92.4913 88.0171 92.4761 87.9543 92.4719 87.8894C92.4677 87.8244 92.4746 87.7591 92.492 87.6982L94.5786 78.6364C94.6085 78.5037 94.6729 78.3897 94.7601 78.3153C94.8473 78.2408 94.9515 78.2107 95.0538 78.2306L97.9395 78.8509C97.9881 78.8578 98.0348 78.8797 98.076 78.915C98.1172 78.9502 98.1517 78.9979 98.1768 79.0541C98.202 79.1103 98.217 79.1736 98.2208 79.2389C98.2246 79.3043 98.2171 79.3699 98.1987 79.4307L96.1122 88.4693C96.0848 88.6053 96.0214 88.7233 95.934 88.8012C95.8465 88.879 95.741 88.9115 95.637 88.8926Z" fill="#407BFF"/>
<path opacity="0.3" d="M95.637 88.8926L92.7512 88.278C92.703 88.27 92.6568 88.2474 92.6161 88.2119C92.5754 88.1764 92.5412 88.1288 92.5163 88.073C92.4913 88.0171 92.4761 87.9543 92.4719 87.8894C92.4677 87.8244 92.4746 87.7591 92.492 87.6982L94.5786 78.6364C94.6085 78.5037 94.6729 78.3897 94.7601 78.3153C94.8473 78.2408 94.9515 78.2107 95.0538 78.2306L97.9395 78.8509C97.9881 78.8578 98.0348 78.8797 98.076 78.915C98.1172 78.9502 98.1517 78.9979 98.1768 79.0541C98.202 79.1103 98.217 79.1736 98.2208 79.2389C98.2246 79.3043 98.2171 79.3699 98.1987 79.4307L96.1122 88.4693C96.0848 88.6053 96.0214 88.7233 95.934 88.8012C95.8465 88.879 95.741 88.9115 95.637 88.8926Z" fill="black"/>
<path d="M95.2817 88.8174L92.3916 88.2028C92.3438 88.194 92.2981 88.1709 92.2579 88.135C92.2177 88.0991 92.1841 88.0515 92.1596 87.9958C92.1351 87.94 92.1203 87.8775 92.1163 87.8129C92.1124 87.7484 92.1193 87.6835 92.1367 87.623L94.2233 78.5612C94.2532 78.4285 94.3176 78.3145 94.4048 78.2401C94.492 78.1656 94.5962 78.1355 94.6985 78.1554L97.5843 78.7757C97.6328 78.7826 97.6796 78.8045 97.7207 78.8398C97.7619 78.875 97.7965 78.9226 97.8216 78.9789C97.8467 79.0351 97.8618 79.0984 97.8656 79.1637C97.8694 79.2291 97.8618 79.2947 97.8435 79.3555L95.7569 88.4231C95.7253 88.5537 95.6602 88.665 95.5732 88.7372C95.4862 88.8094 95.3829 88.8378 95.2817 88.8174Z" fill="#263238"/>
<path d="M102.635 163.857L98.8546 163.793L98.7207 156.192L102.501 156.256L102.635 163.857Z" fill="#E4897B"/>
<path d="M98.6699 163.202L102.921 163.272C102.956 163.271 102.991 163.28 103.024 163.297C103.056 163.314 103.086 163.34 103.111 163.373C103.137 163.406 103.157 163.445 103.171 163.488C103.185 163.532 103.192 163.578 103.193 163.625L103.288 168.148C103.286 168.39 103.212 168.622 103.084 168.792C102.955 168.962 102.782 169.058 102.601 169.058C101.124 169 100.441 168.872 98.5532 168.843C97.4041 168.843 93.4686 168.959 91.8832 168.93C90.2977 168.901 90.3928 166.797 91.0667 166.611C94.0907 165.8 96.916 164.628 98.0132 163.515C98.2013 163.319 98.4316 163.209 98.6699 163.202Z" fill="#263238"/>
<path d="M102.501 156.256L98.7207 156.198L98.8244 162.274L102.609 162.332L102.501 156.256Z" fill="#CE6F64"/>
<path d="M97.3427 164.072C97.0785 164.106 96.8146 164.005 96.6039 163.788C96.5458 163.702 96.5062 163.595 96.4895 163.481C96.4727 163.367 96.4794 163.248 96.5089 163.139C96.521 163.064 96.5472 162.994 96.585 162.936C96.6228 162.878 96.6709 162.834 96.7249 162.808C97.1958 162.576 98.2369 163.574 98.3535 163.69C98.3677 163.703 98.3788 163.722 98.3857 163.743C98.3925 163.765 98.3949 163.788 98.3924 163.811C98.3882 163.834 98.3796 163.854 98.3674 163.871C98.3552 163.887 98.34 163.898 98.3233 163.904C98.0017 164.006 97.673 164.063 97.3427 164.072ZM96.9107 163.011C96.875 163.002 96.8383 163.002 96.8027 163.011C96.7757 163.024 96.7519 163.047 96.7337 163.076C96.7155 163.106 96.7035 163.141 96.699 163.179C96.6791 163.249 96.6734 163.324 96.6826 163.398C96.6917 163.471 96.7152 163.54 96.7508 163.597C96.9193 163.834 97.4161 163.869 98.0943 163.701C97.737 163.355 97.3268 163.119 96.8934 163.011H96.9107Z" fill="#FAFAFA"/>
<path d="M98.3019 163.91C98.2865 163.917 98.2698 163.917 98.2544 163.91C97.8915 163.608 97.3515 162.541 97.4466 161.985C97.4631 161.884 97.5045 161.794 97.5641 161.728C97.6237 161.663 97.698 161.627 97.7749 161.625C97.8423 161.612 97.9111 161.62 97.9757 161.65C98.0403 161.679 98.0988 161.728 98.1464 161.793C98.5179 162.298 98.397 163.765 98.3927 163.823C98.3908 163.843 98.3851 163.862 98.376 163.878C98.3669 163.895 98.3548 163.907 98.3408 163.915C98.3277 163.919 98.3142 163.917 98.3019 163.91ZM97.8311 161.834H97.7965C97.6626 161.834 97.6323 161.938 97.6194 162.008C97.5546 162.391 97.9261 163.167 98.2285 163.55C98.2285 163.069 98.2285 162.234 98.0211 161.938C97.9963 161.905 97.9666 161.878 97.934 161.86C97.9013 161.842 97.8663 161.833 97.8311 161.834Z" fill="#FAFAFA"/>
<path d="M115.133 144.081C113.405 143.78 112.601 144.539 111.552 140.255C109.314 131.141 98.9545 108.477 93.6582 124.995C88.9839 139.489 96.518 156.842 98.0214 160.066C98.1049 160.242 98.215 160.392 98.3444 160.508C98.4738 160.624 98.6198 160.702 98.773 160.738L102.445 161.77C102.857 161.877 103.281 161.877 103.694 161.77C105.244 161.393 108.899 160.095 111.565 156.14C113.578 153.155 115.245 147.815 115.422 144.545C115.429 144.491 115.427 144.435 115.417 144.381C115.406 144.328 115.388 144.278 115.362 144.235C115.337 144.192 115.304 144.156 115.268 144.131C115.231 144.105 115.191 144.09 115.15 144.087L115.133 144.081Z" fill="#407BFF"/>
<g opacity="0.7">
<path d="M115.133 144.081C113.405 143.78 112.601 144.539 111.552 140.255C109.314 131.141 98.9545 108.477 93.6582 124.995C88.9839 139.489 96.518 156.842 98.0214 160.066C98.1049 160.242 98.215 160.392 98.3444 160.508C98.4738 160.624 98.6198 160.702 98.773 160.738L102.445 161.77C102.857 161.877 103.281 161.877 103.694 161.77C105.244 161.393 108.899 160.095 111.565 156.14C113.578 153.155 115.245 147.815 115.422 144.545C115.429 144.491 115.427 144.435 115.417 144.381C115.406 144.328 115.388 144.278 115.362 144.235C115.337 144.192 115.304 144.156 115.268 144.131C115.231 144.105 115.191 144.09 115.15 144.087L115.133 144.081Z" fill="#D7B0FF"/>
<path d="M115.133 144.081C113.405 143.78 112.601 144.539 111.552 140.255C109.314 131.141 98.9545 108.477 93.6582 124.995C88.9839 139.489 96.518 156.842 98.0214 160.066C98.1049 160.242 98.215 160.392 98.3444 160.508C98.4738 160.624 98.6198 160.702 98.773 160.738L102.445 161.77C102.857 161.877 103.281 161.877 103.694 161.77C105.244 161.393 108.899 160.095 111.565 156.14C113.578 153.155 115.245 147.815 115.422 144.545C115.429 144.491 115.427 144.435 115.417 144.381C115.406 144.328 115.388 144.278 115.362 144.235C115.337 144.192 115.304 144.156 115.268 144.131C115.231 144.105 115.191 144.09 115.15 144.087L115.133 144.081Z" fill="white" fill-opacity="0.9"/>
</g>
<path d="M112.407 114.2C111.707 114.096 111.111 113.98 110.45 113.829C109.789 113.678 109.18 113.516 108.545 113.336C107.283 112.983 106.035 112.519 104.791 111.997C102.232 110.98 99.8059 109.439 97.5979 107.428C97.3171 107.144 97.0363 106.883 96.7684 106.576C96.6302 106.414 96.5049 106.292 96.3364 106.106C96.1852 105.923 96.041 105.73 95.9044 105.527C95.4183 104.811 94.9843 104.034 94.6084 103.208C93.9208 101.707 93.3186 100.139 92.807 98.5172C91.8069 95.3877 90.9809 92.1631 90.3359 88.8698L92.1417 88.0117C93.2001 90.957 94.3017 93.937 95.4767 96.7083C96.0442 98.0808 96.6716 99.4069 97.3559 100.68C97.6605 101.241 98.0001 101.767 98.3711 102.251C98.4458 102.35 98.5252 102.443 98.6087 102.529C98.6865 102.616 98.8161 102.738 98.9198 102.836C99.1271 103.057 99.3518 103.248 99.5894 103.457C101.565 105.031 103.69 106.244 105.905 107.063C107.033 107.509 108.191 107.863 109.361 108.223C109.94 108.391 110.523 108.541 111.111 108.681C111.698 108.82 112.299 108.947 112.839 109.04L112.407 114.2Z" fill="#E4897B"/>
<path d="M117.824 110.837C116.796 107.938 109.283 107.938 109.283 107.938L109.486 117.934C109.486 117.934 113.374 118.398 115.215 116.774C117.12 115.041 118.792 113.568 117.824 110.837Z" fill="#D7B0FF"/>
<path d="M117.824 110.837C116.796 107.938 109.283 107.938 109.283 107.938L109.486 117.934C109.486 117.934 113.374 118.398 115.215 116.774C117.12 115.041 118.792 113.568 117.824 110.837Z" fill="black" fill-opacity="0.5"/>
<path d="M92.1979 89.1822L95.1657 85.5297L91.2475 83.9121C91.2475 83.9121 89.6232 88.1329 90.5952 89.8084L92.1979 89.1822Z" fill="#E4897B"/>
<path d="M95.8555 81.286L92.6371 81.1816L91.2461 83.9124L95.1643 85.5299L95.8555 81.286Z" fill="#E4897B"/>
<path d="M114.16 163.857L110.38 163.793L110.246 156.192L114.03 156.256L114.16 163.857Z" fill="#E4897B"/>
<path d="M110.198 163.202L114.445 163.272C114.48 163.271 114.515 163.28 114.548 163.297C114.581 163.314 114.61 163.34 114.636 163.373C114.661 163.406 114.681 163.445 114.695 163.488C114.709 163.532 114.717 163.578 114.717 163.625L114.812 168.148C114.807 168.386 114.732 168.612 114.605 168.779C114.478 168.945 114.307 169.039 114.13 169.04C112.652 168.982 111.948 168.855 110.077 168.826C108.928 168.826 105.485 168.942 103.9 168.913C102.314 168.884 102.409 166.779 103.088 166.594C106.112 165.782 108.445 164.611 109.537 163.498C109.729 163.307 109.96 163.204 110.198 163.202Z" fill="#263238"/>
<path d="M114.03 156.256L110.246 156.198L110.354 162.274L114.134 162.332L114.03 156.256Z" fill="#CE6F64"/>
<path d="M113.53 109.04C113.53 109.04 111.327 111.412 108.346 141.606C111.966 142.186 119.932 143.345 123.422 143.531C124.999 135.217 126.114 130.132 132.732 113.963C130.774 112.821 128.751 111.886 126.684 111.168C124.481 110.354 122.235 109.759 119.967 109.388C116.986 108.988 113.53 109.04 113.53 109.04Z" fill="#D7B0FF"/>
<path d="M113.53 109.04C113.53 109.04 111.327 111.412 108.346 141.606C111.966 142.186 119.932 143.345 123.422 143.531C124.999 135.217 126.114 130.132 132.732 113.963C130.774 112.821 128.751 111.886 126.684 111.168C124.481 110.354 122.235 109.759 119.967 109.388C116.986 108.988 113.53 109.04 113.53 109.04Z" fill="black" fill-opacity="0.5"/>
<path d="M120.234 109.371C119.828 109.151 118.77 109.035 117.69 110.484C116.61 111.933 117.798 113.963 117.798 113.963L120.234 112.223V109.371Z" fill="#D7B0FF"/>
<path d="M120.234 109.371C119.828 109.151 118.77 109.035 117.69 110.484C116.61 111.933 117.798 113.963 117.798 113.963L120.234 112.223V109.371Z" fill="white" fill-opacity="0.5"/>
<path d="M121.963 112.628L122.55 116.008C122.55 116.008 128.987 114.559 127.575 111.335L126.356 110.825L121.963 112.628Z" fill="#D7B0FF"/>
<path d="M121.963 112.628L122.55 116.008C122.55 116.008 128.987 114.559 127.575 111.335L126.356 110.825L121.963 112.628Z" fill="white" fill-opacity="0.5"/>
<path d="M120.399 115.139C120.265 115.621 119.967 115.992 119.76 115.974C119.553 115.957 119.47 115.551 119.604 115.07C119.738 114.589 120.036 114.218 120.244 114.235C120.451 114.252 120.533 114.647 120.399 115.139Z" fill="#407BFF"/>
<path opacity="0.7" d="M120.399 115.139C120.265 115.621 119.967 115.992 119.76 115.974C119.553 115.957 119.47 115.551 119.604 115.07C119.738 114.589 120.036 114.218 120.244 114.235C120.451 114.252 120.533 114.647 120.399 115.139Z" fill="#FAFAFA"/>
<path d="M128.65 100.645C127.57 103.497 125.626 108.808 126.697 111.185C126.697 111.185 125.44 114.031 121.427 112.965C117.008 111.805 119.98 109.405 119.98 109.405C122.572 109.254 123.043 106.79 123.129 104.378L128.65 100.645Z" fill="#E4897B"/>
<path d="M126.192 102.158L123.12 104.361C123.104 104.931 123.052 105.497 122.965 106.054C123.928 106.112 125.496 105.063 125.889 103.77C126.058 103.26 126.161 102.715 126.192 102.158Z" fill="#CE6F64"/>
<path d="M131.242 96.8007C129.082 101.201 128.218 103.12 125.583 104.338C121.622 106.187 118.295 102.204 119.5 97.1544C120.58 92.6089 123.946 86.1735 127.877 86.4981C131.808 86.8228 133.428 92.3944 131.242 96.8007Z" fill="#E4897B"/>
<path d="M123.203 88.1328C126.871 87.553 127.419 92.2202 129.381 91.2694C129.381 91.2694 127.99 92.6376 128.923 100.024L130.841 99.1948L133.835 91.6288L132.647 88.9503C132.647 88.9503 128.482 82.4916 123.203 88.1328Z" fill="#263238"/>
<path d="M129.979 101.225C129.535 102.05 128.885 102.634 128.147 102.871C127.188 103.155 126.851 102.013 127.24 100.854C127.595 99.8157 128.515 98.4127 129.422 98.6446C130.329 98.8765 130.519 100.21 129.979 101.225Z" fill="#E4897B"/>
<path d="M131.37 97.972C130.131 97.456 129.068 96.9574 126.83 100.024C128.211 98.8971 129.762 98.1961 131.37 97.972Z" fill="#263238"/>
<path d="M131.509 98.0245C130.559 97.2824 129.756 96.6041 127.475 98.5637C128.773 97.9841 130.151 97.7999 131.509 98.0245Z" fill="#263238"/>
<path d="M125.834 94.7656C125.674 95.1309 125.402 95.3454 125.233 95.2237C125.065 95.1019 125.056 94.7135 125.233 94.3424C125.41 93.9714 125.665 93.7626 125.834 93.8844C126.002 94.0061 125.993 94.3946 125.834 94.7656Z" fill="#263238"/>
<path d="M122.877 92.7598C122.713 93.1308 122.445 93.3396 122.277 93.2178C122.108 93.096 122.095 92.7076 122.255 92.3365C122.415 91.9655 122.687 91.7568 122.856 91.8785C123.024 92.0003 123.033 92.3887 122.877 92.7598Z" fill="#263238"/>
<path d="M122.927 91.9478L122.408 91.2637C122.408 91.2637 122.43 92.1797 122.927 91.9478Z" fill="#263238"/>
<path d="M123.383 93.9248C122.786 94.6125 122.127 95.1968 121.422 95.6641C121.573 96.3541 122.247 96.5454 122.247 96.5454L123.383 93.9248Z" fill="#DE5753"/>
<path d="M123.708 98.9864C123.304 98.984 122.906 98.8549 122.546 98.6095C122.524 98.5957 122.508 98.5708 122.499 98.5404C122.491 98.5099 122.493 98.4764 122.503 98.4472C122.513 98.418 122.532 98.3954 122.554 98.3846C122.577 98.3737 122.602 98.3754 122.624 98.3892C122.964 98.6164 123.339 98.7347 123.719 98.7347C124.099 98.7347 124.474 98.6164 124.814 98.3892C124.835 98.3744 124.859 98.371 124.882 98.3797C124.904 98.3883 124.923 98.4084 124.935 98.4356C124.941 98.4488 124.945 98.4636 124.947 98.479C124.949 98.4945 124.949 98.5102 124.946 98.5254C124.943 98.5406 124.938 98.5548 124.931 98.5673C124.924 98.5797 124.915 98.5902 124.905 98.5979C124.535 98.8545 124.124 98.9877 123.708 98.9864Z" fill="#263238"/>
<path d="M127.354 94.0696C127.311 94.0688 127.269 94.0473 127.237 94.0091C127.204 93.9708 127.183 93.9182 127.177 93.8609C127.128 93.1736 126.898 92.5321 126.529 92.052C126.497 92.0102 126.478 91.9543 126.475 91.8948C126.472 91.8354 126.485 91.7765 126.512 91.7294C126.54 91.6822 126.579 91.6501 126.622 91.639C126.666 91.6279 126.711 91.6387 126.749 91.6693C127.196 92.2228 127.475 92.9786 127.531 93.7913C127.535 93.8226 127.535 93.8548 127.529 93.8859C127.524 93.9169 127.514 93.9462 127.5 93.9717C127.486 93.9973 127.468 94.0187 127.447 94.0345C127.426 94.0504 127.404 94.0603 127.38 94.0638L127.354 94.0696Z" fill="#263238"/>
<path d="M124.33 89.5015C124.292 89.5029 124.255 89.4864 124.226 89.4551C124.03 89.3044 123.811 89.2176 123.586 89.2014C123.361 89.1853 123.136 89.2404 122.93 89.3623C122.908 89.3743 122.885 89.3802 122.861 89.3797C122.838 89.3791 122.815 89.3721 122.793 89.359C122.772 89.346 122.752 89.3272 122.737 89.3039C122.721 89.2805 122.709 89.2531 122.701 89.2232C122.693 89.1939 122.689 89.1627 122.69 89.1313C122.69 89.1 122.696 89.0692 122.705 89.0406C122.715 89.012 122.729 88.9863 122.746 88.9649C122.763 88.9435 122.783 88.9269 122.805 88.9159C123.068 88.7619 123.355 88.6952 123.641 88.7214C123.928 88.7476 124.205 88.8661 124.451 89.0667C124.48 89.0977 124.502 89.1401 124.512 89.1881C124.523 89.2362 124.522 89.2875 124.511 89.3351C124.499 89.3826 124.476 89.4242 124.446 89.4539C124.416 89.4837 124.38 89.5003 124.343 89.5015H124.33Z" fill="#263238"/>
<path d="M108.869 164.072C108.606 164.106 108.343 164.004 108.134 163.788C108.075 163.702 108.035 163.596 108.018 163.481C108 163.367 108.006 163.248 108.035 163.138C108.048 163.063 108.075 162.993 108.114 162.935C108.152 162.878 108.201 162.834 108.255 162.808C108.722 162.582 109.767 163.573 109.884 163.689C109.898 163.702 109.909 163.721 109.915 163.743C109.921 163.765 109.923 163.788 109.919 163.811C109.914 163.833 109.906 163.854 109.894 163.87C109.881 163.886 109.866 163.898 109.849 163.904C109.528 164.006 109.199 164.062 108.869 164.072ZM108.437 163.011C108.403 163.002 108.367 163.002 108.333 163.011C108.305 163.022 108.281 163.044 108.262 163.074C108.244 163.104 108.232 163.14 108.229 163.179C108.208 163.248 108.201 163.323 108.21 163.397C108.218 163.47 108.241 163.539 108.277 163.596C108.45 163.834 108.947 163.869 109.625 163.701C109.265 163.355 108.854 163.12 108.42 163.011H108.437Z" fill="#FAFAFA"/>
<path d="M109.833 163.91C109.817 163.918 109.801 163.918 109.785 163.91C109.418 163.608 108.882 162.541 108.973 161.985C108.991 161.884 109.034 161.794 109.094 161.729C109.154 161.664 109.228 161.628 109.306 161.625C109.373 161.612 109.442 161.62 109.507 161.65C109.571 161.679 109.63 161.728 109.677 161.793C110.049 162.298 109.928 163.765 109.919 163.823C109.918 163.842 109.913 163.861 109.905 163.878C109.897 163.894 109.885 163.907 109.872 163.915C109.859 163.919 109.845 163.917 109.833 163.91ZM109.362 161.834H109.323C109.193 161.834 109.163 161.938 109.15 162.008C109.085 162.391 109.457 163.167 109.755 163.55C109.777 163.069 109.755 162.234 109.548 161.938C109.524 161.905 109.495 161.878 109.463 161.861C109.431 161.843 109.396 161.834 109.362 161.834Z" fill="#FAFAFA"/>
<path d="M125.88 93.9547L125.361 93.2764C125.361 93.2764 125.383 94.1866 125.88 93.9547Z" fill="#263238"/>
<path d="M123.898 142.388L124.036 144.272C124.036 144.429 123.924 144.551 123.747 144.533L108.108 142.794C107.97 142.794 107.871 142.672 107.875 142.556L107.996 140.701C107.996 140.573 108.134 140.475 108.286 140.492L123.673 142.232C123.718 142.228 123.762 142.241 123.802 142.268C123.841 142.296 123.875 142.337 123.898 142.388Z" fill="#263238"/>
<path d="M121.496 144.493L121.928 144.54C122.006 144.54 122.079 144.499 122.084 144.429L122.222 142.012C122.222 141.942 122.162 141.878 122.079 141.867L121.647 141.826C121.565 141.826 121.496 141.867 121.492 141.936L121.354 144.348C121.349 144.418 121.414 144.487 121.496 144.493Z" fill="#407BFF"/>
<path opacity="0.9" d="M121.496 144.493L121.928 144.54C122.006 144.54 122.079 144.499 122.084 144.429L122.222 142.012C122.222 141.942 122.162 141.878 122.079 141.867L121.647 141.826C121.565 141.826 121.496 141.867 121.492 141.936L121.354 144.348C121.349 144.418 121.414 144.487 121.496 144.493Z" fill="#FAFAFA"/>
<path d="M109.21 143.125L109.642 143.171C109.724 143.171 109.793 143.125 109.797 143.055L109.935 140.643C109.935 140.574 109.875 140.51 109.793 140.499L109.361 140.452C109.279 140.452 109.205 140.493 109.201 140.562L109.08 142.968C109.08 143.05 109.141 143.113 109.21 143.125Z" fill="#407BFF"/>
<path opacity="0.9" d="M109.21 143.125L109.642 143.171C109.724 143.171 109.793 143.125 109.797 143.055L109.935 140.643C109.935 140.574 109.875 140.51 109.793 140.499L109.361 140.452C109.279 140.452 109.205 140.493 109.201 140.562L109.08 142.968C109.08 143.05 109.141 143.113 109.21 143.125Z" fill="#FAFAFA"/>
<path d="M115.361 143.809L115.772 143.855C115.854 143.855 115.923 143.814 115.927 143.745L116.066 141.327C116.066 141.258 116.005 141.194 115.923 141.182L115.491 141.136C115.409 141.136 115.34 141.176 115.336 141.252L115.197 143.664C115.215 143.733 115.279 143.797 115.361 143.809Z" fill="#407BFF"/>
<path opacity="0.9" d="M115.361 143.809L115.772 143.855C115.854 143.855 115.923 143.814 115.927 143.745L116.066 141.327C116.066 141.258 116.005 141.194 115.923 141.182L115.491 141.136C115.409 141.136 115.34 141.176 115.336 141.252L115.197 143.664C115.215 143.733 115.279 143.797 115.361 143.809Z" fill="#FAFAFA"/>
<path d="M123.094 144.082C121.314 143.78 120.666 144.54 118.679 140.255C114.458 131.141 99.1567 108.478 97.4374 124.978C95.9254 139.472 107.239 156.825 109.447 160.049C109.684 160.397 110 160.633 110.346 160.721L114.234 161.753C114.646 161.86 115.07 161.86 115.482 161.753C116.951 161.376 120.32 160.078 122.122 156.123C123.483 153.138 123.988 147.798 123.461 144.528C123.442 144.408 123.396 144.299 123.329 144.217C123.261 144.135 123.176 144.083 123.085 144.07L123.094 144.082Z" fill="#407BFF"/>
<g opacity="0.9">
<path d="M123.094 144.082C121.314 143.78 120.666 144.54 118.679 140.255C114.458 131.141 99.1567 108.478 97.4374 124.978C95.9254 139.472 107.239 156.825 109.447 160.049C109.684 160.397 110 160.633 110.346 160.721L114.234 161.753C114.646 161.86 115.07 161.86 115.482 161.753C116.951 161.376 120.32 160.078 122.122 156.123C123.483 153.138 123.988 147.798 123.461 144.528C123.442 144.408 123.396 144.299 123.329 144.217C123.261 144.135 123.176 144.083 123.085 144.07L123.094 144.082Z" fill="#D7B0FF"/>
<path d="M123.094 144.082C121.314 143.78 120.666 144.54 118.679 140.255C114.458 131.141 99.1567 108.478 97.4374 124.978C95.9254 139.472 107.239 156.825 109.447 160.049C109.684 160.397 110 160.633 110.346 160.721L114.234 161.753C114.646 161.86 115.07 161.86 115.482 161.753C116.951 161.376 120.32 160.078 122.122 156.123C123.483 153.138 123.988 147.798 123.461 144.528C123.442 144.408 123.396 144.299 123.329 144.217C123.261 144.135 123.176 144.083 123.085 144.07L123.094 144.082Z" fill="white" fill-opacity="0.9"/>
</g>
<path d="M133.215 120.838C133.47 122.351 133.647 123.766 133.811 125.233C133.975 126.699 134.101 128.131 134.204 129.61C134.308 131.088 134.381 132.549 134.438 134.022C134.494 135.495 134.485 136.985 134.438 138.469C134.416 139.217 134.403 139.959 134.36 140.707L134.299 141.826V141.965V142.174C134.299 142.307 134.273 142.446 134.252 142.579C134.218 142.854 134.169 143.126 134.105 143.391C133.866 144.417 133.453 145.356 132.9 146.133C132.416 146.813 131.856 147.388 131.241 147.838C130.172 148.622 129.017 149.173 127.819 149.473C127.257 149.628 126.689 149.739 126.117 149.803C125.543 149.881 124.966 149.914 124.389 149.902L124.199 147.171C126.091 146.481 128.113 145.501 129.452 144.127C129.75 143.827 130.015 143.472 130.239 143.072C130.4 142.78 130.508 142.44 130.554 142.081C130.558 142.004 130.558 141.926 130.554 141.849C130.556 141.808 130.556 141.768 130.554 141.727V141.536V140.515C130.554 139.831 130.554 139.147 130.554 138.463C130.554 137.089 130.472 135.709 130.39 134.335C130.308 132.961 130.221 131.575 130.092 130.195C129.962 128.816 129.82 127.442 129.66 126.067C129.5 124.693 129.323 123.302 129.141 122.009L133.215 120.838Z" fill="#E4897B"/>
<path d="M132.715 113.979C135.044 115.087 135.644 123.882 135.644 123.882L128.706 128.16C128.706 128.16 126.831 120.67 127.911 118.043C129.039 115.301 130.866 113.086 132.715 113.979Z" fill="#D7B0FF"/>
<path d="M132.715 113.979C135.044 115.087 135.644 123.882 135.644 123.882L128.706 128.16C128.706 128.16 126.831 120.67 127.911 118.043C129.039 115.301 130.866 113.086 132.715 113.979Z" fill="black" fill-opacity="0.5"/>
<path d="M124.628 147.194L120.74 145.554L121.738 149.925C121.738 149.925 124.261 151.085 125.376 149.374L124.628 147.194Z" fill="#E4897B"/>
<path d="M117.953 147.432L118.338 151.618L121.75 149.896L120.757 145.554L117.953 147.432Z" fill="#E4897B"/>
<path d="M109.076 135.432C109.076 135.432 114.178 150.025 114.977 158.623C114.977 158.623 115.357 141.229 109.076 135.432Z" fill="#407BFF"/>
<path opacity="0.7" d="M109.076 135.432C109.076 135.432 114.178 150.025 114.977 158.623C114.977 158.623 115.357 141.229 109.076 135.432Z" fill="#FAFAFA"/>
<path d="M167.067 189.101H166.635V196.052H167.067V189.101Z" fill="#407BFF"/>
<path opacity="0.2" d="M167.067 189.101H166.635V196.052H167.067V189.101Z" fill="black"/>
<path d="M167.067 198.725H166.635V201.194H167.067V198.725Z" fill="#407BFF"/>
<path opacity="0.2" d="M167.067 198.725H166.635V201.194H167.067V198.725Z" fill="black"/>
<path d="M157.16 149.525C157.402 149.525 157.644 149.525 157.89 149.554C163.023 150.047 167.174 155.88 167.498 163.057C167.575 164.642 167.463 166.234 167.165 167.771C166.035 173.945 165.489 180.285 165.541 186.642V205.195C165.552 205.825 165.376 206.435 165.052 206.892C164.728 207.348 164.283 207.613 163.813 207.63H121.736V149.525H157.16Z" fill="#407BFF"/>
<g opacity="0.2">
<path d="M157.16 149.525C157.402 149.525 157.644 149.525 157.89 149.554C163.023 150.047 167.174 155.88 167.498 163.057C167.575 164.642 167.463 166.234 167.165 167.771C166.035 173.945 165.489 180.285 165.541 186.642V205.195C165.552 205.825 165.376 206.435 165.052 206.892C164.728 207.348 164.283 207.613 163.813 207.63H121.736V149.525H157.16Z" fill="#D7B0FF"/>
<path d="M157.16 149.525C157.402 149.525 157.644 149.525 157.89 149.554C163.023 150.047 167.174 155.88 167.498 163.057C167.575 164.642 167.463 166.234 167.165 167.771C166.035 173.945 165.489 180.285 165.541 186.642V205.195C165.552 205.825 165.376 206.435 165.052 206.892C164.728 207.348 164.283 207.613 163.813 207.63H121.736V149.525H157.16Z" fill="black" fill-opacity="0.5"/>
</g>
<path d="M111.397 164.008C111.397 155.677 116.434 148.981 122.486 149.56C127.618 150.053 131.77 155.886 132.094 163.063C132.171 164.648 132.058 166.24 131.761 167.777C130.63 173.951 130.085 180.291 130.137 186.648V205.201C130.147 205.831 129.971 206.441 129.647 206.898C129.323 207.354 128.878 207.62 128.409 207.636H115.116C114.647 207.618 114.202 207.352 113.879 206.896C113.555 206.44 113.379 205.831 113.388 205.201V185.558C113.422 179.603 112.879 173.666 111.772 167.899C111.52 166.63 111.394 165.322 111.397 164.008Z" fill="#407BFF"/>
<path opacity="0.1" d="M111.397 164.008C111.397 155.677 116.434 148.981 122.486 149.56C127.618 150.053 131.77 155.886 132.094 163.063C132.171 164.648 132.058 166.24 131.761 167.777C130.63 173.951 130.085 180.291 130.137 186.648V205.201C130.147 205.831 129.971 206.441 129.647 206.898C129.323 207.354 128.878 207.62 128.409 207.636H115.116C114.647 207.618 114.202 207.352 113.879 206.896C113.555 206.44 113.379 205.831 113.388 205.201V185.558C113.422 179.603 112.879 173.666 111.772 167.899C111.52 166.63 111.394 165.322 111.397 164.008Z" fill="#FAFAFA"/>
</svg>
