<svg width="208" height="116" viewBox="0 0 208 116" fill="none" xmlns="http://www.w3.org/2000/svg">
<path d="M104.086 115.189C161.148 115.189 207.406 95.9918 207.406 72.3108C207.406 48.6299 161.148 29.4326 104.086 29.4326C47.0235 29.4326 0.765625 48.6299 0.765625 72.3108C0.765625 95.9918 47.0235 115.189 104.086 115.189Z" fill="#EFEFEF"/>
<path d="M87.3545 3.2832L81.8945 39.4557L94.043 60.7498L125.438 52.5598L130.762 9.42571L87.3545 3.2832Z" fill="white"/>
<path d="M81.9304 39.4353L75.1495 34.555L77.7454 32.582L82.7713 33.2672L81.9304 39.4353Z" fill="#D7B0FF"/>
<path d="M81.9304 39.4353L75.1495 34.555L77.7454 32.582L82.7713 33.2672L81.9304 39.4353Z" fill="black" fill-opacity="0.25"/>
<path d="M125.793 45.4152L126.633 39.247L133.715 40.2126L133.404 42.497L125.793 45.4152Z" fill="#D7B0FF"/>
<path d="M125.793 45.4152L126.633 39.247L133.715 40.2126L133.404 42.497L125.793 45.4152Z" fill="black" fill-opacity="0.25"/>
<path d="M130.147 9.47633L87.5807 3.67317C87.0335 3.59857 86.5294 3.9817 86.4548 4.52892L81.8385 38.3886C81.7912 38.7356 81.9289 39.082 82.2014 39.3019L101.424 54.814C101.709 55.0442 102.098 55.0999 102.436 54.9589L125.781 45.2412C126.108 45.1048 126.339 44.8048 126.387 44.4531L131.002 10.6022C131.077 10.055 130.694 9.55094 130.147 9.47633Z" stroke="#D7B0FF"/>
<path d="M130.147 9.47633L87.5807 3.67317C87.0335 3.59857 86.5294 3.9817 86.4548 4.52892L81.8385 38.3886C81.7912 38.7356 81.9289 39.082 82.2014 39.3019L101.424 54.814C101.709 55.0442 102.098 55.0999 102.436 54.9589L125.781 45.2412C126.108 45.1048 126.339 44.8048 126.387 44.4531L131.002 10.6022C131.077 10.055 130.694 9.55094 130.147 9.47633Z" stroke="black" stroke-opacity="0.25"/>
<path d="M101.46 54.8986L75.1461 34.5571L68.8961 71.8669L71.2637 74.9821L125.936 83.5992L128.303 81.595L133.629 42.5303L101.46 54.8986Z" fill="#D7B0FF"/>
<path d="M134.638 41.5438C134.634 41.5388 134.635 41.5345 134.631 41.5296C134.441 41.1123 134.167 40.7405 133.832 40.4222C133.824 40.4167 133.821 40.4074 133.813 40.4019C133.793 40.3817 133.769 40.3652 133.746 40.3444C133.651 40.2612 133.553 40.1774 133.444 40.101C132.932 39.7277 132.311 39.4759 131.633 39.3834L127.479 38.8171L131.536 9.05844C131.567 8.82956 131.507 8.59695 131.369 8.41538C131.231 8.23382 131.018 8.11251 130.794 8.0819L86.7324 2.07484C86.5035 2.04364 86.2709 2.1043 86.0893 2.2423C85.9077 2.3803 85.7864 2.59249 85.7558 2.81705L81.6987 32.5757L77.5444 32.0093C76.983 31.9328 76.4359 31.9769 75.9289 32.1145C75.8193 32.1436 75.7092 32.177 75.6028 32.2153C75.0051 32.4373 74.481 32.7969 74.0767 33.2784C74.0761 33.2827 74.0718 33.2822 74.0712 33.2865C73.7018 33.7376 73.4409 34.2958 73.3573 34.9091L68.2345 72.4841C68.1686 72.9678 68.2179 73.4452 68.3557 73.8862C68.5689 74.5487 68.9788 75.1236 69.5215 75.5627C70.0649 75.9975 70.7405 76.3008 71.4876 76.4026L125.581 83.7774C126.578 83.9134 127.548 83.676 128.308 83.1639C128.691 82.9081 129.021 82.5793 129.272 82.1912C129.527 81.8037 129.698 81.3564 129.764 80.8727L134.887 43.2976C134.979 42.6856 134.877 42.0779 134.638 41.5438ZM127.248 40.5407L131.403 41.1071C131.809 41.1624 132.162 41.3161 132.445 41.5263L126.797 43.853L127.248 40.5407ZM87.3574 3.91075L129.7 9.68349L124.937 44.62L102.091 54.0372L82.5938 38.8515L87.3574 3.91075ZM76.2075 33.846C76.5364 33.7237 76.9121 33.6782 77.3094 33.7324L81.4595 34.2982L81.0073 37.6147L76.1841 33.8561C76.1933 33.8529 76.2025 33.8498 76.2075 33.846ZM128.045 80.6384C128.015 80.8586 127.94 81.0551 127.819 81.2365C127.641 81.507 127.363 81.7418 127.017 81.8925C126.671 82.0433 126.257 82.1057 125.821 82.0462L71.728 74.6715C71.1451 74.592 70.6643 74.3109 70.3489 73.9468C70.1936 73.7629 70.0801 73.5627 70.0159 73.356C69.9517 73.1493 69.9282 72.935 69.9576 72.719L75.0733 35.1958L81.1293 39.9143L101.417 55.7181C101.664 55.9101 101.992 55.9548 102.285 55.8364L126.064 46.036L133.166 43.1114L128.05 80.6389L128.045 80.6384Z" fill="#D7B0FF"/>
<path d="M134.638 41.5438C134.634 41.5388 134.635 41.5345 134.631 41.5296C134.441 41.1123 134.167 40.7405 133.832 40.4222C133.824 40.4167 133.821 40.4074 133.813 40.4019C133.793 40.3817 133.769 40.3652 133.746 40.3444C133.651 40.2612 133.553 40.1774 133.444 40.101C132.932 39.7277 132.311 39.4759 131.633 39.3834L127.479 38.8171L131.536 9.05844C131.567 8.82956 131.507 8.59695 131.369 8.41538C131.231 8.23382 131.018 8.11251 130.794 8.0819L86.7324 2.07484C86.5035 2.04364 86.2709 2.1043 86.0893 2.2423C85.9077 2.3803 85.7864 2.59249 85.7558 2.81705L81.6987 32.5757L77.5444 32.0093C76.983 31.9328 76.4359 31.9769 75.9289 32.1145C75.8193 32.1436 75.7092 32.177 75.6028 32.2153C75.0051 32.4373 74.481 32.7969 74.0767 33.2784C74.0761 33.2827 74.0718 33.2822 74.0712 33.2865C73.7018 33.7376 73.4409 34.2958 73.3573 34.9091L68.2345 72.4841C68.1686 72.9678 68.2179 73.4452 68.3557 73.8862C68.5689 74.5487 68.9788 75.1236 69.5215 75.5627C70.0649 75.9975 70.7405 76.3008 71.4876 76.4026L125.581 83.7774C126.578 83.9134 127.548 83.676 128.308 83.1639C128.691 82.9081 129.021 82.5793 129.272 82.1912C129.527 81.8037 129.698 81.3564 129.764 80.8727L134.887 43.2976C134.979 42.6856 134.877 42.0779 134.638 41.5438ZM127.248 40.5407L131.403 41.1071C131.809 41.1624 132.162 41.3161 132.445 41.5263L126.797 43.853L127.248 40.5407ZM87.3574 3.91075L129.7 9.68349L124.937 44.62L102.091 54.0372L82.5938 38.8515L87.3574 3.91075ZM76.2075 33.846C76.5364 33.7237 76.9121 33.6782 77.3094 33.7324L81.4595 34.2982L81.0073 37.6147L76.1841 33.8561C76.1933 33.8529 76.2025 33.8498 76.2075 33.846ZM128.045 80.6384C128.015 80.8586 127.94 81.0551 127.819 81.2365C127.641 81.507 127.363 81.7418 127.017 81.8925C126.671 82.0433 126.257 82.1057 125.821 82.0462L71.728 74.6715C71.1451 74.592 70.6643 74.3109 70.3489 73.9468C70.1936 73.7629 70.0801 73.5627 70.0159 73.356C69.9517 73.1493 69.9282 72.935 69.9576 72.719L75.0733 35.1958L81.1293 39.9143L101.417 55.7181C101.664 55.9101 101.992 55.9548 102.285 55.8364L126.064 46.036L133.166 43.1114L128.05 80.6389L128.045 80.6384Z" fill="black" fill-opacity="0.25"/>
<path d="M165.338 80.5126C165.022 80.7103 164.618 80.7677 164.253 80.6539C163.525 80.4265 163.156 79.681 163.349 78.9745C164.482 75.24 169.373 70.3263 174.232 68.0186C177.296 66.5899 180.039 66.2891 182.172 67.1997C182.853 67.5061 183.186 68.2736 182.879 68.9539C182.572 69.6342 181.803 69.9683 181.123 69.6618C179.727 69.0708 177.651 69.3447 175.355 70.4392C171.242 72.3777 166.817 76.7075 165.878 79.7355C165.799 80.0778 165.583 80.3588 165.338 80.5126Z" fill="#D7B0FF"/>
<path d="M80.458 93.6316C80.414 93.7579 80.3495 93.8416 80.274 93.9568C79.8979 94.4274 79.2315 94.5136 78.7617 94.1375C74.6575 90.9023 68.6516 89.2692 63.4783 90.0143C62.886 90.091 62.3216 89.6819 62.2454 89.0891C62.1692 88.4963 62.5783 87.9311 63.1706 87.8544C69.0102 87.023 75.4794 88.7468 80.1055 92.4117C80.4918 92.7233 80.601 93.2214 80.458 93.6316Z" fill="#D7B0FF"/>
<path d="M132.548 92.5816C132.518 91.9195 132.987 91.2767 133.688 91.2041L142.945 89.8386C143.686 89.7228 144.371 90.2313 144.487 90.9725C144.603 91.7137 144.095 92.3997 143.354 92.5156L134.097 93.881C133.356 93.9969 132.671 93.4884 132.555 92.7472C132.551 92.6644 132.55 92.623 132.548 92.5816Z" fill="#D7B0FF"/>
<path d="M52.6567 71.1656L49.5933 66.1331L53.892 62.1044L59.2208 67.4457L52.6567 71.1656Z" fill="#93E9BE"/>
<path d="M52.9973 71.3146L51.4967 70.9416L48.573 66.1634L50.4135 65.0331L53.3372 69.8113L52.9973 71.3146ZM51.4967 70.9416L53.3372 69.8113L53.3658 69.8489L53.3944 69.8864L53.423 69.924L53.4516 69.9616L53.4802 69.9992L53.5088 70.0368L53.5374 70.0744L53.5284 70.1405L53.5194 70.2067L53.5104 70.2728L53.5014 70.339L53.4923 70.4051L53.4833 70.4713L53.4743 70.5374L53.4653 70.6036L53.4563 70.6697L53.4473 70.7359L53.4382 70.802L53.4292 70.8682L53.4202 70.9343L53.4157 70.9674L53.3781 70.996L53.3404 71.0245L53.3028 71.0531L53.2652 71.0816L53.2276 71.1102L53.19 71.1388L53.1523 71.1673L53.1147 71.1959L53.0771 71.2244L53.0395 71.253L53.0019 71.2816L52.9642 71.3101L52.889 71.3672L52.8514 71.3958L52.8137 71.4244L52.7761 71.4529L52.7385 71.4815L52.7009 71.51L52.6347 71.501L52.5684 71.492L52.5022 71.483L52.436 71.4739L52.3698 71.4649L52.3035 71.4559L52.2373 71.4468L52.1711 71.4378L52.1049 71.4288L52.0386 71.4198L51.9724 71.4107L51.9062 71.4017L51.84 71.3927L51.8068 71.3882L51.7782 71.3506L51.7496 71.313L51.721 71.2754L51.6924 71.2378L51.6638 71.2002L51.6352 71.1626L51.6066 71.125L51.578 71.0874L51.5494 71.0499L51.5208 71.0123L51.4967 70.9416ZM58.8121 66.515L58.4391 68.0138L52.9928 71.3477L51.8607 69.5089L57.3115 66.1419L58.8121 66.515ZM58.4436 67.9808L57.3115 66.1419L57.3491 66.1134L57.3867 66.0848L57.4243 66.0563L57.4619 66.0277L57.4996 65.9991L57.5372 65.9706L57.5748 65.942L57.641 65.951L57.7073 65.9601L57.7735 65.9691L57.8397 65.9781L57.9059 65.9872L57.9722 65.9962L58.0384 66.0052L58.1046 66.0142L58.1708 66.0233L58.2371 66.0323L58.3033 66.0413L58.3695 66.0504L58.4357 66.0594L58.4688 66.0639L58.4974 66.1015L58.5261 66.1391L58.5547 66.1767L58.5833 66.2143L58.6119 66.2519L58.6405 66.2894L58.6691 66.327L58.6977 66.3646L58.7263 66.4022L58.7549 66.4398L58.7835 66.4774L58.8121 66.515L58.8407 66.5526L58.8693 66.5901L58.8979 66.6277L58.9265 66.6653L58.9551 66.7029L58.9837 66.7405L58.9747 66.8067L58.9657 66.8728L58.9567 66.939L58.9476 67.0051L58.9386 67.0713L58.9296 67.1374L58.9206 67.2035L58.9116 67.2697L58.9025 67.3358L58.8935 67.402L58.8845 67.4681L58.8755 67.5343L58.8665 67.6004L58.862 67.6335L58.8243 67.6621L58.7867 67.6906L58.7491 67.7192L58.7115 67.7478L58.6738 67.7763L58.6362 67.8049L58.5986 67.8334L58.561 67.862L58.5234 67.8906L58.4857 67.9191L58.4436 67.9808ZM54.3877 61.3637L55.8883 61.7368L58.8121 66.515L56.9716 67.6453L54.0478 62.8671L54.3877 61.3637ZM55.8929 61.7037L54.0524 62.834L54.0238 62.7964L53.9951 62.7589L53.9665 62.7213L53.9379 62.6837L53.9093 62.6461L53.8807 62.6085L53.8521 62.5709L53.8611 62.5048L53.8702 62.4386L53.8792 62.3725L53.8882 62.3063L53.8972 62.2402L53.9062 62.174L53.9153 62.1079L53.9243 62.0417L53.9333 61.9756L53.9423 61.9094L53.9513 61.8433L53.9604 61.7771L53.9694 61.711L53.9739 61.6779L54.0115 61.6493L54.0491 61.6208L54.0867 61.5922L54.1244 61.5637L54.162 61.5351L54.1996 61.5065L54.2372 61.478L54.2417 61.4449L54.2794 61.4163L54.317 61.3878L54.3546 61.3592L54.3922 61.3307L54.4298 61.3021L54.4675 61.2735L54.5051 61.245L54.5427 61.2164L54.5803 61.1879L54.618 61.1593L54.6842 61.1683L54.7504 61.1774L54.8166 61.1864L54.8829 61.1954L54.9491 61.2044L55.0153 61.2135L55.0815 61.2225L55.1478 61.2315L55.214 61.2406L55.2802 61.2496L55.3464 61.2586L55.4127 61.2676L55.4458 61.2722L55.4789 61.2767L55.5075 61.3143L55.5361 61.3519L55.5647 61.3894L55.5933 61.427L55.6219 61.4646L55.6505 61.5022L55.6791 61.5398L55.7077 61.5774L55.7363 61.615L55.7649 61.6526L55.8929 61.7037ZM48.573 66.1634L48.946 64.6645L54.3922 61.3307L55.5244 63.1695L50.0781 66.5034L48.573 66.1634ZM48.946 64.6645L50.0781 66.5034L50.0405 66.5319L50.0029 66.5605L49.9653 66.589L49.9276 66.6176L49.89 66.6462L49.8524 66.6747L49.8148 66.7033L49.7485 66.6942L49.6823 66.6852L49.6161 66.6762L49.5499 66.6672L49.4836 66.6581L49.4174 66.6491L49.3512 66.6401L49.285 66.631L49.2187 66.622L49.1525 66.613L49.0863 66.604L49.0201 66.5949L48.987 66.5904L48.9538 66.5859L48.9252 66.5483L48.8966 66.5107L48.868 66.4731L48.8394 66.4356L48.8108 66.398L48.7822 66.3604L48.7536 66.3228L48.725 66.2852L48.6964 66.2476L48.6678 66.21L48.6392 66.1724L48.6106 66.1348L48.582 66.0973L48.5534 66.0597L48.5248 66.0221L48.4962 65.9845L48.4676 65.9469L48.439 65.9093L48.448 65.8432L48.457 65.777L48.466 65.7109L48.4751 65.6447L48.4841 65.5786L48.4931 65.5124L48.5021 65.4463L48.5111 65.3801L48.5201 65.314L48.5292 65.2478L48.5382 65.1817L48.5472 65.1155L48.5517 65.0824L48.5562 65.0494L48.5938 65.0208L48.6315 64.9923L48.6691 64.9637L48.7067 64.9351L48.7443 64.9066L48.7819 64.878L48.8196 64.8495L48.8572 64.8209L48.8948 64.7923L48.9324 64.7638L48.946 64.6645Z" fill="#D7B0FF"/>
<path d="M52.9973 71.3146L51.4967 70.9416L48.573 66.1634L50.4135 65.0331L53.3372 69.8113L52.9973 71.3146ZM51.4967 70.9416L53.3372 69.8113L53.3658 69.8489L53.3944 69.8864L53.423 69.924L53.4516 69.9616L53.4802 69.9992L53.5088 70.0368L53.5374 70.0744L53.5284 70.1405L53.5194 70.2067L53.5104 70.2728L53.5014 70.339L53.4923 70.4051L53.4833 70.4713L53.4743 70.5374L53.4653 70.6036L53.4563 70.6697L53.4473 70.7359L53.4382 70.802L53.4292 70.8682L53.4202 70.9343L53.4157 70.9674L53.3781 70.996L53.3404 71.0245L53.3028 71.0531L53.2652 71.0816L53.2276 71.1102L53.19 71.1388L53.1523 71.1673L53.1147 71.1959L53.0771 71.2244L53.0395 71.253L53.0019 71.2816L52.9642 71.3101L52.889 71.3672L52.8514 71.3958L52.8137 71.4244L52.7761 71.4529L52.7385 71.4815L52.7009 71.51L52.6347 71.501L52.5684 71.492L52.5022 71.483L52.436 71.4739L52.3698 71.4649L52.3035 71.4559L52.2373 71.4468L52.1711 71.4378L52.1049 71.4288L52.0386 71.4198L51.9724 71.4107L51.9062 71.4017L51.84 71.3927L51.8068 71.3882L51.7782 71.3506L51.7496 71.313L51.721 71.2754L51.6924 71.2378L51.6638 71.2002L51.6352 71.1626L51.6066 71.125L51.578 71.0874L51.5494 71.0499L51.5208 71.0123L51.4967 70.9416ZM58.8121 66.515L58.4391 68.0138L52.9928 71.3477L51.8607 69.5089L57.3115 66.1419L58.8121 66.515ZM58.4436 67.9808L57.3115 66.1419L57.3491 66.1134L57.3867 66.0848L57.4243 66.0563L57.4619 66.0277L57.4996 65.9991L57.5372 65.9706L57.5748 65.942L57.641 65.951L57.7073 65.9601L57.7735 65.9691L57.8397 65.9781L57.9059 65.9872L57.9722 65.9962L58.0384 66.0052L58.1046 66.0142L58.1708 66.0233L58.2371 66.0323L58.3033 66.0413L58.3695 66.0504L58.4357 66.0594L58.4688 66.0639L58.4974 66.1015L58.5261 66.1391L58.5547 66.1767L58.5833 66.2143L58.6119 66.2519L58.6405 66.2894L58.6691 66.327L58.6977 66.3646L58.7263 66.4022L58.7549 66.4398L58.7835 66.4774L58.8121 66.515L58.8407 66.5526L58.8693 66.5901L58.8979 66.6277L58.9265 66.6653L58.9551 66.7029L58.9837 66.7405L58.9747 66.8067L58.9657 66.8728L58.9567 66.939L58.9476 67.0051L58.9386 67.0713L58.9296 67.1374L58.9206 67.2035L58.9116 67.2697L58.9025 67.3358L58.8935 67.402L58.8845 67.4681L58.8755 67.5343L58.8665 67.6004L58.862 67.6335L58.8243 67.6621L58.7867 67.6906L58.7491 67.7192L58.7115 67.7478L58.6738 67.7763L58.6362 67.8049L58.5986 67.8334L58.561 67.862L58.5234 67.8906L58.4857 67.9191L58.4436 67.9808ZM54.3877 61.3637L55.8883 61.7368L58.8121 66.515L56.9716 67.6453L54.0478 62.8671L54.3877 61.3637ZM55.8929 61.7037L54.0524 62.834L54.0238 62.7964L53.9951 62.7589L53.9665 62.7213L53.9379 62.6837L53.9093 62.6461L53.8807 62.6085L53.8521 62.5709L53.8611 62.5048L53.8702 62.4386L53.8792 62.3725L53.8882 62.3063L53.8972 62.2402L53.9062 62.174L53.9153 62.1079L53.9243 62.0417L53.9333 61.9756L53.9423 61.9094L53.9513 61.8433L53.9604 61.7771L53.9694 61.711L53.9739 61.6779L54.0115 61.6493L54.0491 61.6208L54.0867 61.5922L54.1244 61.5637L54.162 61.5351L54.1996 61.5065L54.2372 61.478L54.2417 61.4449L54.2794 61.4163L54.317 61.3878L54.3546 61.3592L54.3922 61.3307L54.4298 61.3021L54.4675 61.2735L54.5051 61.245L54.5427 61.2164L54.5803 61.1879L54.618 61.1593L54.6842 61.1683L54.7504 61.1774L54.8166 61.1864L54.8829 61.1954L54.9491 61.2044L55.0153 61.2135L55.0815 61.2225L55.1478 61.2315L55.214 61.2406L55.2802 61.2496L55.3464 61.2586L55.4127 61.2676L55.4458 61.2722L55.4789 61.2767L55.5075 61.3143L55.5361 61.3519L55.5647 61.3894L55.5933 61.427L55.6219 61.4646L55.6505 61.5022L55.6791 61.5398L55.7077 61.5774L55.7363 61.615L55.7649 61.6526L55.8929 61.7037ZM48.573 66.1634L48.946 64.6645L54.3922 61.3307L55.5244 63.1695L50.0781 66.5034L48.573 66.1634ZM48.946 64.6645L50.0781 66.5034L50.0405 66.5319L50.0029 66.5605L49.9653 66.589L49.9276 66.6176L49.89 66.6462L49.8524 66.6747L49.8148 66.7033L49.7485 66.6942L49.6823 66.6852L49.6161 66.6762L49.5499 66.6672L49.4836 66.6581L49.4174 66.6491L49.3512 66.6401L49.285 66.631L49.2187 66.622L49.1525 66.613L49.0863 66.604L49.0201 66.5949L48.987 66.5904L48.9538 66.5859L48.9252 66.5483L48.8966 66.5107L48.868 66.4731L48.8394 66.4356L48.8108 66.398L48.7822 66.3604L48.7536 66.3228L48.725 66.2852L48.6964 66.2476L48.6678 66.21L48.6392 66.1724L48.6106 66.1348L48.582 66.0973L48.5534 66.0597L48.5248 66.0221L48.4962 65.9845L48.4676 65.9469L48.439 65.9093L48.448 65.8432L48.457 65.777L48.466 65.7109L48.4751 65.6447L48.4841 65.5786L48.4931 65.5124L48.5021 65.4463L48.5111 65.3801L48.5201 65.314L48.5292 65.2478L48.5382 65.1817L48.5472 65.1155L48.5517 65.0824L48.5562 65.0494L48.5938 65.0208L48.6315 64.9923L48.6691 64.9637L48.7067 64.9351L48.7443 64.9066L48.7819 64.878L48.8196 64.8495L48.8572 64.8209L48.8948 64.7923L48.9324 64.7638L48.946 64.6645Z" fill="black" fill-opacity="0.25"/>
<path d="M106.615 102.206L103.551 97.1732L107.85 93.1444L113.179 98.4857L106.615 102.206Z" fill="#93E9BE"/>
<path d="M106.685 102.755L105.184 102.382L102.26 97.6038L104.101 96.4735L107.025 101.252L106.685 102.755ZM105.184 102.382L107.025 101.252L107.053 101.289L107.082 101.327L107.111 101.364L107.139 101.402L107.168 101.44L107.196 101.477L107.225 101.515L107.216 101.581L107.207 101.647L107.198 101.713L107.189 101.779L107.18 101.846L107.171 101.912L107.162 101.978L107.153 102.044L107.144 102.11L107.135 102.176L107.126 102.242L107.117 102.309L107.108 102.375L107.103 102.408L107.066 102.436L107.028 102.465L106.99 102.494L106.953 102.522L106.915 102.551L106.877 102.579L106.84 102.608L106.802 102.636L106.765 102.665L106.727 102.693L106.689 102.722L106.652 102.751L106.576 102.808L106.539 102.836L106.501 102.865L106.464 102.893L106.426 102.922L106.388 102.95L106.322 102.941L106.256 102.932L106.19 102.923L106.123 102.914L106.057 102.905L105.991 102.896L105.925 102.887L105.859 102.878L105.792 102.869L105.726 102.86L105.66 102.851L105.594 102.842L105.527 102.833L105.494 102.829L105.466 102.791L105.437 102.753L105.409 102.716L105.38 102.678L105.351 102.641L105.323 102.603L105.294 102.565L105.266 102.528L105.237 102.49L105.208 102.453L105.184 102.382ZM112.5 97.9554L112.127 99.4543L106.68 102.788L105.548 100.949L110.999 97.5824L112.5 97.9554ZM112.131 99.4212L110.999 97.5824L111.037 97.5538L111.074 97.5252L111.112 97.4967L111.149 97.4681L111.187 97.4396L111.225 97.411L111.262 97.3824L111.329 97.3915L111.395 97.4005L111.461 97.4095L111.527 97.4186L111.593 97.4276L111.66 97.4366L111.726 97.4456L111.792 97.4547L111.858 97.4637L111.925 97.4727L111.991 97.4818L112.057 97.4908L112.123 97.4998L112.156 97.5043L112.185 97.5419L112.214 97.5795L112.242 97.6171L112.271 97.6547L112.299 97.6923L112.328 97.7299L112.357 97.7675L112.385 97.805L112.414 97.8426L112.442 97.8802L112.471 97.9178L112.5 97.9554L112.528 97.993L112.557 98.0306L112.585 98.0682L112.614 98.1058L112.643 98.1433L112.671 98.1809L112.662 98.2471L112.653 98.3132L112.644 98.3794L112.635 98.4455L112.626 98.5117L112.617 98.5778L112.608 98.644L112.599 98.7101L112.59 98.7763L112.581 98.8424L112.572 98.9086L112.563 98.9747L112.554 99.0409L112.549 99.0739L112.512 99.1025L112.474 99.1311L112.437 99.1596L112.399 99.1882L112.361 99.2167L112.324 99.2453L112.286 99.2739L112.248 99.3024L112.211 99.331L112.173 99.3595L112.131 99.4212ZM108.075 92.8042L109.576 93.1772L112.5 97.9554L110.659 99.0857L107.735 94.3075L108.075 92.8042ZM109.58 93.1441L107.74 94.2745L107.711 94.2369L107.683 94.1993L107.654 94.1617L107.625 94.1241L107.597 94.0865L107.568 94.0489L107.54 94.0113L107.549 93.9452L107.558 93.879L107.567 93.8129L107.576 93.7467L107.585 93.6806L107.594 93.6144L107.603 93.5483L107.612 93.4821L107.621 93.416L107.63 93.3498L107.639 93.2837L107.648 93.2176L107.657 93.1514L107.661 93.1183L107.699 93.0898L107.737 93.0612L107.774 93.0326L107.812 93.0041L107.849 92.9755L107.887 92.947L107.925 92.9184L107.929 92.8853L107.967 92.8568L108.004 92.8282L108.042 92.7996L108.08 92.7711L108.117 92.7425L108.155 92.714L108.193 92.6854L108.23 92.6568L108.268 92.6283L108.305 92.5997L108.372 92.6088L108.438 92.6178L108.504 92.6268L108.57 92.6358L108.637 92.6449L108.703 92.6539L108.769 92.6629L108.835 92.672L108.901 92.681L108.968 92.69L109.034 92.699L109.1 92.7081L109.133 92.7126L109.166 92.7171L109.195 92.7547L109.224 92.7923L109.252 92.8299L109.281 92.8675L109.309 92.905L109.338 92.9426L109.367 92.9802L109.395 93.0178L109.424 93.0554L109.452 93.093L109.58 93.1441ZM102.26 97.6038L102.633 96.105L108.08 92.7711L109.212 94.6099L103.766 97.9438L102.26 97.6038ZM102.633 96.105L103.766 97.9438L103.728 97.9724L103.69 98.0009L103.653 98.0295L103.615 98.058L103.578 98.0866L103.54 98.1152L103.502 98.1437L103.436 98.1347L103.37 98.1257L103.304 98.1166L103.237 98.1076L103.171 98.0986L103.105 98.0895L103.039 98.0805L102.972 98.0715L102.906 98.0624L102.84 98.0534L102.774 98.0444L102.708 98.0354L102.674 98.0308L102.641 98.0263L102.613 97.9887L102.584 97.9512L102.556 97.9136L102.527 97.876L102.498 97.8384L102.47 97.8008L102.441 97.7632L102.413 97.7256L102.384 97.688L102.355 97.6504L102.327 97.6129L102.298 97.5753L102.269 97.5377L102.241 97.5001L102.212 97.4625L102.184 97.4249L102.155 97.3873L102.126 97.3497L102.135 97.2836L102.145 97.2174L102.154 97.1513L102.163 97.0851L102.172 97.019L102.181 96.9528L102.19 96.8867L102.199 96.8205L102.208 96.7544L102.217 96.6883L102.226 96.6221L102.235 96.5559L102.239 96.5229L102.244 96.4898L102.281 96.4612L102.319 96.4327L102.357 96.4041L102.394 96.3756L102.432 96.347L102.469 96.3184L102.507 96.2899L102.545 96.2613L102.582 96.2328L102.62 96.2042L102.633 96.105Z" fill="#D7B0FF"/>
<path d="M106.685 102.755L105.184 102.382L102.26 97.6038L104.101 96.4735L107.025 101.252L106.685 102.755ZM105.184 102.382L107.025 101.252L107.053 101.289L107.082 101.327L107.111 101.364L107.139 101.402L107.168 101.44L107.196 101.477L107.225 101.515L107.216 101.581L107.207 101.647L107.198 101.713L107.189 101.779L107.18 101.846L107.171 101.912L107.162 101.978L107.153 102.044L107.144 102.11L107.135 102.176L107.126 102.242L107.117 102.309L107.108 102.375L107.103 102.408L107.066 102.436L107.028 102.465L106.99 102.494L106.953 102.522L106.915 102.551L106.877 102.579L106.84 102.608L106.802 102.636L106.765 102.665L106.727 102.693L106.689 102.722L106.652 102.751L106.576 102.808L106.539 102.836L106.501 102.865L106.464 102.893L106.426 102.922L106.388 102.95L106.322 102.941L106.256 102.932L106.19 102.923L106.123 102.914L106.057 102.905L105.991 102.896L105.925 102.887L105.859 102.878L105.792 102.869L105.726 102.86L105.66 102.851L105.594 102.842L105.527 102.833L105.494 102.829L105.466 102.791L105.437 102.753L105.409 102.716L105.38 102.678L105.351 102.641L105.323 102.603L105.294 102.565L105.266 102.528L105.237 102.49L105.208 102.453L105.184 102.382ZM112.5 97.9554L112.127 99.4543L106.68 102.788L105.548 100.949L110.999 97.5824L112.5 97.9554ZM112.131 99.4212L110.999 97.5824L111.037 97.5538L111.074 97.5252L111.112 97.4967L111.149 97.4681L111.187 97.4396L111.225 97.411L111.262 97.3824L111.329 97.3915L111.395 97.4005L111.461 97.4095L111.527 97.4186L111.593 97.4276L111.66 97.4366L111.726 97.4456L111.792 97.4547L111.858 97.4637L111.925 97.4727L111.991 97.4818L112.057 97.4908L112.123 97.4998L112.156 97.5043L112.185 97.5419L112.214 97.5795L112.242 97.6171L112.271 97.6547L112.299 97.6923L112.328 97.7299L112.357 97.7675L112.385 97.805L112.414 97.8426L112.442 97.8802L112.471 97.9178L112.5 97.9554L112.528 97.993L112.557 98.0306L112.585 98.0682L112.614 98.1058L112.643 98.1433L112.671 98.1809L112.662 98.2471L112.653 98.3132L112.644 98.3794L112.635 98.4455L112.626 98.5117L112.617 98.5778L112.608 98.644L112.599 98.7101L112.59 98.7763L112.581 98.8424L112.572 98.9086L112.563 98.9747L112.554 99.0409L112.549 99.0739L112.512 99.1025L112.474 99.1311L112.437 99.1596L112.399 99.1882L112.361 99.2167L112.324 99.2453L112.286 99.2739L112.248 99.3024L112.211 99.331L112.173 99.3595L112.131 99.4212ZM108.075 92.8042L109.576 93.1772L112.5 97.9554L110.659 99.0857L107.735 94.3075L108.075 92.8042ZM109.58 93.1441L107.74 94.2745L107.711 94.2369L107.683 94.1993L107.654 94.1617L107.625 94.1241L107.597 94.0865L107.568 94.0489L107.54 94.0113L107.549 93.9452L107.558 93.879L107.567 93.8129L107.576 93.7467L107.585 93.6806L107.594 93.6144L107.603 93.5483L107.612 93.4821L107.621 93.416L107.63 93.3498L107.639 93.2837L107.648 93.2176L107.657 93.1514L107.661 93.1183L107.699 93.0898L107.737 93.0612L107.774 93.0326L107.812 93.0041L107.849 92.9755L107.887 92.947L107.925 92.9184L107.929 92.8853L107.967 92.8568L108.004 92.8282L108.042 92.7996L108.08 92.7711L108.117 92.7425L108.155 92.714L108.193 92.6854L108.23 92.6568L108.268 92.6283L108.305 92.5997L108.372 92.6088L108.438 92.6178L108.504 92.6268L108.57 92.6358L108.637 92.6449L108.703 92.6539L108.769 92.6629L108.835 92.672L108.901 92.681L108.968 92.69L109.034 92.699L109.1 92.7081L109.133 92.7126L109.166 92.7171L109.195 92.7547L109.224 92.7923L109.252 92.8299L109.281 92.8675L109.309 92.905L109.338 92.9426L109.367 92.9802L109.395 93.0178L109.424 93.0554L109.452 93.093L109.58 93.1441ZM102.26 97.6038L102.633 96.105L108.08 92.7711L109.212 94.6099L103.766 97.9438L102.26 97.6038ZM102.633 96.105L103.766 97.9438L103.728 97.9724L103.69 98.0009L103.653 98.0295L103.615 98.058L103.578 98.0866L103.54 98.1152L103.502 98.1437L103.436 98.1347L103.37 98.1257L103.304 98.1166L103.237 98.1076L103.171 98.0986L103.105 98.0895L103.039 98.0805L102.972 98.0715L102.906 98.0624L102.84 98.0534L102.774 98.0444L102.708 98.0354L102.674 98.0308L102.641 98.0263L102.613 97.9887L102.584 97.9512L102.556 97.9136L102.527 97.876L102.498 97.8384L102.47 97.8008L102.441 97.7632L102.413 97.7256L102.384 97.688L102.355 97.6504L102.327 97.6129L102.298 97.5753L102.269 97.5377L102.241 97.5001L102.212 97.4625L102.184 97.4249L102.155 97.3873L102.126 97.3497L102.135 97.2836L102.145 97.2174L102.154 97.1513L102.163 97.0851L102.172 97.019L102.181 96.9528L102.19 96.8867L102.199 96.8205L102.208 96.7544L102.217 96.6883L102.226 96.6221L102.235 96.5559L102.239 96.5229L102.244 96.4898L102.281 96.4612L102.319 96.4327L102.357 96.4041L102.394 96.3756L102.432 96.347L102.469 96.3184L102.507 96.2899L102.545 96.2613L102.582 96.2328L102.62 96.2042L102.633 96.105Z" fill="black" fill-opacity="0.25"/>
<path d="M153.844 71.4976L150.781 66.4652L155.08 62.4364L160.408 67.7777L153.844 71.4976Z" fill="#93E9BE"/>
<path d="M154.181 71.6457L152.68 71.2727L149.757 66.4945L151.597 65.3641L154.521 70.1423L154.181 71.6457ZM152.68 71.2727L154.521 70.1423L154.549 70.1799L154.578 70.2175L154.607 70.2551L154.635 70.2927L154.664 70.3303L154.692 70.3679L154.721 70.4054L154.712 70.4716L154.703 70.5377L154.694 70.6039L154.685 70.67L154.676 70.7362L154.667 70.8023L154.658 70.8685L154.649 70.9346L154.64 71.0008L154.631 71.0669L154.622 71.1331L154.613 71.1992L154.604 71.2654L154.599 71.2985L154.562 71.327L154.524 71.3556L154.486 71.3841L154.449 71.4127L154.411 71.4413L154.374 71.4698L154.336 71.4984L154.298 71.5269L154.261 71.5555L154.223 71.5841L154.185 71.6126L154.148 71.6412L154.073 71.6983L154.035 71.7269L153.997 71.7554L153.96 71.784L153.922 71.8125L153.884 71.8411L153.818 71.8321L153.752 71.823L153.686 71.814L153.62 71.805L153.553 71.796L153.487 71.7869L153.421 71.7779L153.355 71.7689L153.288 71.7598L153.222 71.7508L153.156 71.7418L153.09 71.7328L153.024 71.7237L152.99 71.7192L152.962 71.6816L152.933 71.644L152.905 71.6064L152.876 71.5689L152.847 71.5313L152.819 71.4937L152.79 71.4561L152.762 71.4185L152.733 71.3809L152.704 71.3433L152.68 71.2727ZM159.996 66.846L159.623 68.3449L154.176 71.6788L153.044 69.84L158.495 66.473L159.996 66.846ZM159.627 68.3118L158.495 66.473L158.533 66.4444L158.57 66.4159L158.608 66.3873L158.646 66.3588L158.683 66.3302L158.721 66.3016L158.758 66.2731L158.825 66.2821L158.891 66.2911L158.957 66.3002L159.023 66.3092L159.09 66.3182L159.156 66.3272L159.222 66.3363L159.288 66.3453L159.354 66.3543L159.421 66.3634L159.487 66.3724L159.553 66.3814L159.619 66.3904L159.652 66.395L159.681 66.4326L159.71 66.4701L159.738 66.5077L159.767 66.5453L159.795 66.5829L159.824 66.6205L159.853 66.6581L159.881 66.6957L159.91 66.7333L159.938 66.7708L159.967 66.8084L159.996 66.846L160.024 66.8836L160.053 66.9212L160.081 66.9588L160.11 66.9964L160.139 67.034L160.167 67.0716L160.158 67.1377L160.149 67.2039L160.14 67.27L160.131 67.3362L160.122 67.4023L160.113 67.4685L160.104 67.5346L160.095 67.6007L160.086 67.6669L160.077 67.7331L160.068 67.7992L160.059 67.8653L160.05 67.9315L160.046 67.9646L160.008 67.9931L159.97 68.0217L159.933 68.0503L159.895 68.0788L159.857 68.1074L159.82 68.1359L159.782 68.1645L159.745 68.1931L159.707 68.2216L159.669 68.2502L159.627 68.3118ZM155.571 61.6948L157.072 62.0678L159.996 66.846L158.155 67.9764L155.231 63.1982L155.571 61.6948ZM157.076 62.0348L155.236 63.1651L155.207 63.1275L155.179 63.0899L155.15 63.0523L155.122 63.0147L155.093 62.9771L155.064 62.9396L155.036 62.902L155.045 62.8358L155.054 62.7697L155.063 62.7035L155.072 62.6374L155.081 62.5712L155.09 62.5051L155.099 62.4389L155.108 62.3728L155.117 62.3066L155.126 62.2405L155.135 62.1743L155.144 62.1082L155.153 62.042L155.157 62.009L155.195 61.9804L155.233 61.9518L155.27 61.9233L155.308 61.8947L155.346 61.8662L155.383 61.8376L155.421 61.809L155.425 61.776L155.463 61.7474L155.501 61.7188L155.538 61.6903L155.576 61.6617L155.613 61.6332L155.651 61.6046L155.689 61.576L155.726 61.5475L155.764 61.5189L155.802 61.4904L155.868 61.4994L155.934 61.5084L156 61.5174L156.066 61.5265L156.133 61.5355L156.199 61.5445L156.265 61.5536L156.331 61.5626L156.398 61.5716L156.464 61.5806L156.53 61.5897L156.596 61.5987L156.629 61.6032L156.662 61.6077L156.691 61.6453L156.72 61.6829L156.748 61.7205L156.777 61.7581L156.805 61.7957L156.834 61.8333L156.863 61.8708L156.891 61.9084L156.92 61.946L156.949 61.9836L157.076 62.0348ZM149.757 66.4945L150.13 64.9956L155.576 61.6617L156.708 63.5005L151.262 66.8344L149.757 66.4945ZM150.13 64.9956L151.262 66.8344L151.224 66.863L151.186 66.8915L151.149 66.9201L151.111 66.9487L151.074 66.9772L151.036 67.0058L150.998 67.0343L150.932 67.0253L150.866 67.0163L150.8 67.0072L150.733 66.9982L150.667 66.9892L150.601 66.9802L150.535 66.9711L150.469 66.9621L150.402 66.9531L150.336 66.944L150.27 66.935L150.204 66.926L150.171 66.9215L150.137 66.917L150.109 66.8794L150.08 66.8418L150.052 66.8042L150.023 66.7666L149.994 66.729L149.966 66.6914L149.937 66.6538L149.909 66.6163L149.88 66.5787L149.851 66.5411L149.823 66.5035L149.794 66.4659L149.766 66.4283L149.737 66.3907L149.708 66.3531L149.68 66.3155L149.651 66.278L149.623 66.2404L149.632 66.1742L149.641 66.1081L149.65 66.0419L149.659 65.9758L149.668 65.9096L149.677 65.8435L149.686 65.7773L149.695 65.7112L149.704 65.645L149.713 65.5789L149.722 65.5127L149.731 65.4466L149.735 65.4135L149.74 65.3804L149.777 65.3519L149.815 65.3233L149.853 65.2947L149.89 65.2662L149.928 65.2376L149.966 65.2091L150.003 65.1805L150.041 65.1519L150.078 65.1234L150.116 65.0948L150.13 64.9956Z" fill="#D7B0FF"/>
<path d="M154.181 71.6457L152.68 71.2727L149.757 66.4945L151.597 65.3641L154.521 70.1423L154.181 71.6457ZM152.68 71.2727L154.521 70.1423L154.549 70.1799L154.578 70.2175L154.607 70.2551L154.635 70.2927L154.664 70.3303L154.692 70.3679L154.721 70.4054L154.712 70.4716L154.703 70.5377L154.694 70.6039L154.685 70.67L154.676 70.7362L154.667 70.8023L154.658 70.8685L154.649 70.9346L154.64 71.0008L154.631 71.0669L154.622 71.1331L154.613 71.1992L154.604 71.2654L154.599 71.2985L154.562 71.327L154.524 71.3556L154.486 71.3841L154.449 71.4127L154.411 71.4413L154.374 71.4698L154.336 71.4984L154.298 71.5269L154.261 71.5555L154.223 71.5841L154.185 71.6126L154.148 71.6412L154.073 71.6983L154.035 71.7269L153.997 71.7554L153.96 71.784L153.922 71.8125L153.884 71.8411L153.818 71.8321L153.752 71.823L153.686 71.814L153.62 71.805L153.553 71.796L153.487 71.7869L153.421 71.7779L153.355 71.7689L153.288 71.7598L153.222 71.7508L153.156 71.7418L153.09 71.7328L153.024 71.7237L152.99 71.7192L152.962 71.6816L152.933 71.644L152.905 71.6064L152.876 71.5689L152.847 71.5313L152.819 71.4937L152.79 71.4561L152.762 71.4185L152.733 71.3809L152.704 71.3433L152.68 71.2727ZM159.996 66.846L159.623 68.3449L154.176 71.6788L153.044 69.84L158.495 66.473L159.996 66.846ZM159.627 68.3118L158.495 66.473L158.533 66.4444L158.57 66.4159L158.608 66.3873L158.646 66.3588L158.683 66.3302L158.721 66.3016L158.758 66.2731L158.825 66.2821L158.891 66.2911L158.957 66.3002L159.023 66.3092L159.09 66.3182L159.156 66.3272L159.222 66.3363L159.288 66.3453L159.354 66.3543L159.421 66.3634L159.487 66.3724L159.553 66.3814L159.619 66.3904L159.652 66.395L159.681 66.4326L159.71 66.4701L159.738 66.5077L159.767 66.5453L159.795 66.5829L159.824 66.6205L159.853 66.6581L159.881 66.6957L159.91 66.7333L159.938 66.7708L159.967 66.8084L159.996 66.846L160.024 66.8836L160.053 66.9212L160.081 66.9588L160.11 66.9964L160.139 67.034L160.167 67.0716L160.158 67.1377L160.149 67.2039L160.14 67.27L160.131 67.3362L160.122 67.4023L160.113 67.4685L160.104 67.5346L160.095 67.6007L160.086 67.6669L160.077 67.7331L160.068 67.7992L160.059 67.8653L160.05 67.9315L160.046 67.9646L160.008 67.9931L159.97 68.0217L159.933 68.0503L159.895 68.0788L159.857 68.1074L159.82 68.1359L159.782 68.1645L159.745 68.1931L159.707 68.2216L159.669 68.2502L159.627 68.3118ZM155.571 61.6948L157.072 62.0678L159.996 66.846L158.155 67.9764L155.231 63.1982L155.571 61.6948ZM157.076 62.0348L155.236 63.1651L155.207 63.1275L155.179 63.0899L155.15 63.0523L155.122 63.0147L155.093 62.9771L155.064 62.9396L155.036 62.902L155.045 62.8358L155.054 62.7697L155.063 62.7035L155.072 62.6374L155.081 62.5712L155.09 62.5051L155.099 62.4389L155.108 62.3728L155.117 62.3066L155.126 62.2405L155.135 62.1743L155.144 62.1082L155.153 62.042L155.157 62.009L155.195 61.9804L155.233 61.9518L155.27 61.9233L155.308 61.8947L155.346 61.8662L155.383 61.8376L155.421 61.809L155.425 61.776L155.463 61.7474L155.501 61.7188L155.538 61.6903L155.576 61.6617L155.613 61.6332L155.651 61.6046L155.689 61.576L155.726 61.5475L155.764 61.5189L155.802 61.4904L155.868 61.4994L155.934 61.5084L156 61.5174L156.066 61.5265L156.133 61.5355L156.199 61.5445L156.265 61.5536L156.331 61.5626L156.398 61.5716L156.464 61.5806L156.53 61.5897L156.596 61.5987L156.629 61.6032L156.662 61.6077L156.691 61.6453L156.72 61.6829L156.748 61.7205L156.777 61.7581L156.805 61.7957L156.834 61.8333L156.863 61.8708L156.891 61.9084L156.92 61.946L156.949 61.9836L157.076 62.0348ZM149.757 66.4945L150.13 64.9956L155.576 61.6617L156.708 63.5005L151.262 66.8344L149.757 66.4945ZM150.13 64.9956L151.262 66.8344L151.224 66.863L151.186 66.8915L151.149 66.9201L151.111 66.9487L151.074 66.9772L151.036 67.0058L150.998 67.0343L150.932 67.0253L150.866 67.0163L150.8 67.0072L150.733 66.9982L150.667 66.9892L150.601 66.9802L150.535 66.9711L150.469 66.9621L150.402 66.9531L150.336 66.944L150.27 66.935L150.204 66.926L150.171 66.9215L150.137 66.917L150.109 66.8794L150.08 66.8418L150.052 66.8042L150.023 66.7666L149.994 66.729L149.966 66.6914L149.937 66.6538L149.909 66.6163L149.88 66.5787L149.851 66.5411L149.823 66.5035L149.794 66.4659L149.766 66.4283L149.737 66.3907L149.708 66.3531L149.68 66.3155L149.651 66.278L149.623 66.2404L149.632 66.1742L149.641 66.1081L149.65 66.0419L149.659 65.9758L149.668 65.9096L149.677 65.8435L149.686 65.7773L149.695 65.7112L149.704 65.645L149.713 65.5789L149.722 65.5127L149.731 65.4466L149.735 65.4135L149.74 65.3804L149.777 65.3519L149.815 65.3233L149.853 65.2947L149.89 65.2662L149.928 65.2376L149.966 65.2091L150.003 65.1805L150.041 65.1519L150.078 65.1234L150.116 65.0948L150.13 64.9956Z" fill="black" fill-opacity="0.25"/>
<g clip-path="url(#clip0)">
<path d="M107.39 16.7768C101.071 16.0263 95.3409 20.5396 94.5905 26.8576C94.4119 28.3601 94.531 29.883 94.9411 31.3394C95.3511 32.7958 96.044 34.1572 96.9803 35.3458C97.9165 36.5344 99.0777 37.5269 100.398 38.2667C101.717 39.0065 103.17 39.479 104.673 39.6573C110.989 40.4075 116.72 35.8943 117.471 29.5751C118.22 23.257 113.706 17.5269 107.39 16.7768ZM104.955 37.2715C103.765 37.1302 102.616 36.7561 101.571 36.1705C100.526 35.5849 99.607 34.7992 98.8659 33.8584C98.1248 32.9175 97.5763 31.8399 97.2517 30.6871C96.9271 29.5343 96.8327 28.3288 96.9739 27.1395C97.1152 25.9502 97.4893 24.8003 98.0749 23.7556C98.6606 22.7109 99.4462 21.7918 100.387 21.0507C101.328 20.3096 102.406 19.7611 103.558 19.4365C104.711 19.1118 105.917 19.0175 107.106 19.1587C109.508 19.444 111.698 20.6717 113.195 22.5719C114.691 24.472 115.372 26.8888 115.087 29.2907C114.801 31.6926 113.574 33.8828 111.674 35.3795C109.773 36.8762 107.357 37.5568 104.955 37.2715ZM109.046 28.2724C110.032 28.3895 110.944 27.5516 111.081 26.3993C111.218 25.247 110.528 24.2188 109.541 24.1016C108.555 23.9845 107.643 24.8224 107.506 25.9747C107.369 27.127 108.058 28.155 109.046 28.2724ZM103.088 27.5647C104.074 27.6819 104.986 26.844 105.123 25.6916C105.26 24.5393 104.57 23.5112 103.583 23.394C102.596 23.2768 101.685 24.1148 101.548 25.2671C101.411 26.4194 102.1 27.4474 103.088 27.5647ZM105.856 29.7061C101.776 29.2215 100.02 31.8106 99.9467 31.9215C99.8153 32.1209 99.7686 32.3644 99.8167 32.5983C99.8648 32.8323 100.004 33.0375 100.203 33.1689C100.403 33.3002 100.646 33.347 100.88 33.2989C101.114 33.2507 101.319 33.1116 101.451 32.9122C101.463 32.8931 102.655 31.1386 105.643 31.4936C108.578 31.8421 109.357 33.7799 109.385 33.8533C109.424 33.9654 109.485 34.0686 109.564 34.157C109.644 34.2454 109.74 34.3172 109.847 34.3682C109.954 34.4193 110.071 34.4486 110.189 34.4545C110.308 34.4605 110.427 34.4428 110.538 34.4027C110.65 34.3625 110.753 34.3006 110.841 34.2206C110.928 34.1405 110.999 34.0439 111.05 33.9363C111.1 33.8287 111.128 33.7121 111.133 33.5935C111.138 33.4748 111.12 33.3563 111.079 33.2448C111.034 33.1199 109.936 30.1907 105.856 29.7061Z" fill="black"/>
</g>
<defs>
<clipPath id="clip0">
<rect width="24.0001" height="24.0001" fill="white" transform="translate(95.5273 14.8848) rotate(6.77327)"/>
</clipPath>
</defs>
</svg>
