<svg width="207" height="115" viewBox="0 0 207 115" fill="none" xmlns="http://www.w3.org/2000/svg">
<path d="M103.338 114.689C160.4 114.689 206.658 95.4918 206.658 71.8108C206.658 48.1299 160.4 28.9326 103.338 28.9326C46.2755 28.9326 0.0175781 48.1299 0.0175781 71.8108C0.0175781 95.4918 46.2755 114.689 103.338 114.689Z" fill="#EFEFEF"/>
<path d="M86.6065 2.7832L81.1465 38.9557L93.295 60.2498L124.69 52.0598L130.014 8.92571L86.6065 2.7832Z" fill="white"/>
<path d="M81.1823 38.9353L74.4014 34.055L76.9974 32.082L82.0232 32.7672L81.1823 38.9353Z" fill="#D7B0FF"/>
<path d="M81.1823 38.9353L74.4014 34.055L76.9974 32.082L82.0232 32.7672L81.1823 38.9353Z" fill="black" fill-opacity="0.25"/>
<path d="M125.044 44.9152L125.885 38.747L132.967 39.7126L132.656 41.997L125.044 44.9152Z" fill="#D7B0FF"/>
<path d="M125.044 44.9152L125.885 38.747L132.967 39.7126L132.656 41.997L125.044 44.9152Z" fill="black" fill-opacity="0.25"/>
<path d="M129.398 8.97633L86.8326 3.17317C86.2854 3.09857 85.7813 3.4817 85.7067 4.02892L81.0905 37.8886C81.0432 38.2356 81.1808 38.582 81.4533 38.8019L100.676 54.314C100.961 54.5442 101.35 54.5999 101.688 54.4589L125.033 44.7412C125.36 44.6048 125.591 44.3048 125.639 43.9531L130.254 10.1022C130.329 9.55503 129.946 9.05094 129.398 8.97633Z" stroke="#D7B0FF"/>
<path d="M129.398 8.97633L86.8326 3.17317C86.2854 3.09857 85.7813 3.4817 85.7067 4.02892L81.0905 37.8886C81.0432 38.2356 81.1808 38.582 81.4533 38.8019L100.676 54.314C100.961 54.5442 101.35 54.5999 101.688 54.4589L125.033 44.7412C125.36 44.6048 125.591 44.3048 125.639 43.9531L130.254 10.1022C130.329 9.55503 129.946 9.05094 129.398 8.97633Z" stroke="black" stroke-opacity="0.25"/>
<path d="M100.712 54.3986L74.3981 34.0571L68.148 71.3669L70.5157 74.4821L125.188 83.0992L127.555 81.095L132.881 42.0303L100.712 54.3986Z" fill="#D7B0FF"/>
<path d="M133.89 41.0438C133.886 41.0388 133.887 41.0345 133.883 41.0296C133.693 40.6123 133.419 40.2405 133.084 39.9222C133.076 39.9167 133.073 39.9074 133.064 39.9019C133.045 39.8817 133.021 39.8652 132.998 39.8444C132.903 39.7612 132.805 39.6774 132.696 39.601C132.184 39.2277 131.563 38.9759 130.885 38.8834L126.731 38.3171L130.788 8.55844C130.819 8.32956 130.758 8.09695 130.62 7.91538C130.482 7.73382 130.27 7.61251 130.046 7.5819L85.9843 1.57484C85.7554 1.54364 85.5228 1.6043 85.3413 1.7423C85.1597 1.8803 85.0384 2.09249 85.0078 2.31705L80.9507 32.0757L76.7963 31.5093C76.2349 31.4328 75.6878 31.4769 75.1808 31.6145C75.0713 31.6436 74.9612 31.677 74.8548 31.7153C74.2571 31.9373 73.733 32.2969 73.3286 32.7784C73.328 32.7827 73.3237 32.7822 73.3231 32.7865C72.9537 33.2376 72.6929 33.7958 72.6093 34.4091L67.4865 71.9841C67.4206 72.4678 67.4698 72.9452 67.6077 73.3862C67.8208 74.0487 68.2307 74.6236 68.7735 75.0627C69.3168 75.4975 69.9925 75.8008 70.7396 75.9026L124.833 83.2774C125.83 83.4134 126.8 83.176 127.56 82.6639C127.942 82.4081 128.273 82.0793 128.524 81.6912C128.779 81.3037 128.95 80.8564 129.016 80.3727L134.139 42.7976C134.231 42.1856 134.129 41.5779 133.89 41.0438ZM126.5 40.0407L130.655 40.6071C131.061 40.6624 131.414 40.8161 131.697 41.0263L126.049 43.353L126.5 40.0407ZM86.6094 3.41075L128.952 9.18349L124.189 44.12L101.342 53.5372L81.8458 38.3515L86.6094 3.41075ZM75.4594 33.346C75.7884 33.2237 76.1641 33.1782 76.5614 33.2324L80.7114 33.7982L80.2593 37.1147L75.436 33.3561C75.4453 33.3529 75.4545 33.3498 75.4594 33.346ZM127.297 80.1384C127.267 80.3586 127.192 80.5551 127.071 80.7365C126.893 81.007 126.615 81.2418 126.269 81.3925C125.923 81.5433 125.509 81.6057 125.073 81.5462L70.98 74.1715C70.397 74.092 69.9163 73.8109 69.6008 73.4468C69.4455 73.2629 69.3321 73.0627 69.2679 72.856C69.2037 72.6493 69.1801 72.435 69.2096 72.219L74.3253 34.6958L80.3813 39.4143L100.669 55.2181C100.916 55.4101 101.244 55.4548 101.537 55.3364L125.316 45.536L132.418 42.6114L127.302 80.1389L127.297 80.1384Z" fill="#D7B0FF"/>
<path d="M133.89 41.0438C133.886 41.0388 133.887 41.0345 133.883 41.0296C133.693 40.6123 133.419 40.2405 133.084 39.9222C133.076 39.9167 133.073 39.9074 133.064 39.9019C133.045 39.8817 133.021 39.8652 132.998 39.8444C132.903 39.7612 132.805 39.6774 132.696 39.601C132.184 39.2277 131.563 38.9759 130.885 38.8834L126.731 38.3171L130.788 8.55844C130.819 8.32956 130.758 8.09695 130.62 7.91538C130.482 7.73382 130.27 7.61251 130.046 7.5819L85.9843 1.57484C85.7554 1.54364 85.5228 1.6043 85.3413 1.7423C85.1597 1.8803 85.0384 2.09249 85.0078 2.31705L80.9507 32.0757L76.7963 31.5093C76.2349 31.4328 75.6878 31.4769 75.1808 31.6145C75.0713 31.6436 74.9612 31.677 74.8548 31.7153C74.2571 31.9373 73.733 32.2969 73.3286 32.7784C73.328 32.7827 73.3237 32.7822 73.3231 32.7865C72.9537 33.2376 72.6929 33.7958 72.6093 34.4091L67.4865 71.9841C67.4206 72.4678 67.4698 72.9452 67.6077 73.3862C67.8208 74.0487 68.2307 74.6236 68.7735 75.0627C69.3168 75.4975 69.9925 75.8008 70.7396 75.9026L124.833 83.2774C125.83 83.4134 126.8 83.176 127.56 82.6639C127.942 82.4081 128.273 82.0793 128.524 81.6912C128.779 81.3037 128.95 80.8564 129.016 80.3727L134.139 42.7976C134.231 42.1856 134.129 41.5779 133.89 41.0438ZM126.5 40.0407L130.655 40.6071C131.061 40.6624 131.414 40.8161 131.697 41.0263L126.049 43.353L126.5 40.0407ZM86.6094 3.41075L128.952 9.18349L124.189 44.12L101.342 53.5372L81.8458 38.3515L86.6094 3.41075ZM75.4594 33.346C75.7884 33.2237 76.1641 33.1782 76.5614 33.2324L80.7114 33.7982L80.2593 37.1147L75.436 33.3561C75.4453 33.3529 75.4545 33.3498 75.4594 33.346ZM127.297 80.1384C127.267 80.3586 127.192 80.5551 127.071 80.7365C126.893 81.007 126.615 81.2418 126.269 81.3925C125.923 81.5433 125.509 81.6057 125.073 81.5462L70.98 74.1715C70.397 74.092 69.9163 73.8109 69.6008 73.4468C69.4455 73.2629 69.3321 73.0627 69.2679 72.856C69.2037 72.6493 69.1801 72.435 69.2096 72.219L74.3253 34.6958L80.3813 39.4143L100.669 55.2181C100.916 55.4101 101.244 55.4548 101.537 55.3364L125.316 45.536L132.418 42.6114L127.302 80.1389L127.297 80.1384Z" fill="black" fill-opacity="0.25"/>
<path d="M164.59 80.0126C164.274 80.2103 163.87 80.2677 163.505 80.1539C162.777 79.9265 162.408 79.181 162.601 78.4745C163.734 74.74 168.625 69.8263 173.484 67.5186C176.548 66.0899 179.291 65.7891 181.424 66.6997C182.105 67.0061 182.438 67.7736 182.131 68.4539C181.823 69.1342 181.055 69.4683 180.375 69.1618C178.979 68.5708 176.903 68.8447 174.607 69.9392C170.494 71.8777 166.069 76.2075 165.13 79.2355C165.051 79.5778 164.835 79.8588 164.59 80.0126Z" fill="#D7B0FF"/>
<path d="M79.71 93.1316C79.666 93.2579 79.6015 93.3416 79.5259 93.4568C79.1499 93.9274 78.4835 94.0136 78.0136 93.6375C73.9094 90.4023 67.9036 88.7692 62.7303 89.5143C62.138 89.591 61.5735 89.1819 61.4973 88.5891C61.4211 87.9963 61.8302 87.4311 62.4226 87.3544C68.2622 86.523 74.7314 88.2468 79.3575 91.9117C79.7438 92.2233 79.8529 92.7214 79.71 93.1316Z" fill="#D7B0FF"/>
<path d="M131.8 92.0816C131.77 91.4195 132.239 90.7767 132.939 90.7041L142.197 89.3386C142.938 89.2228 143.623 89.7313 143.739 90.4725C143.855 91.2137 143.347 91.8997 142.606 92.0156L133.348 93.381C132.608 93.4969 131.923 92.9884 131.807 92.2472C131.803 92.1644 131.802 92.123 131.8 92.0816Z" fill="#D7B0FF"/>
<path d="M51.9086 70.6656L48.8452 65.6331L53.144 61.6044L58.4727 66.9457L51.9086 70.6656Z" fill="#93E9BE"/>
<path d="M52.2493 70.8146L50.7487 70.4416L47.8249 65.6634L49.6654 64.5331L52.5892 69.3113L52.2493 70.8146ZM50.7487 70.4416L52.5892 69.3113L52.6178 69.3489L52.6464 69.3864L52.675 69.424L52.7036 69.4616L52.7322 69.4992L52.7608 69.5368L52.7894 69.5744L52.7804 69.6405L52.7714 69.7067L52.7623 69.7728L52.7533 69.839L52.7443 69.9051L52.7353 69.9713L52.7263 70.0374L52.7172 70.1036L52.7082 70.1697L52.6992 70.2359L52.6902 70.302L52.6812 70.3682L52.6722 70.4343L52.6676 70.4674L52.63 70.496L52.5924 70.5245L52.5548 70.5531L52.5172 70.5816L52.4795 70.6102L52.4419 70.6388L52.4043 70.6673L52.3667 70.6959L52.329 70.7244L52.2914 70.753L52.2538 70.7816L52.2162 70.8101L52.1409 70.8672L52.1033 70.8958L52.0657 70.9244L52.0281 70.9529L51.9905 70.9815L51.9528 71.01L51.8866 71.001L51.8204 70.992L51.7542 70.983L51.6879 70.9739L51.6217 70.9649L51.5555 70.9559L51.4893 70.9468L51.423 70.9378L51.3568 70.9288L51.2906 70.9198L51.2244 70.9107L51.1581 70.9017L51.0919 70.8927L51.0588 70.8882L51.0302 70.8506L51.0016 70.813L50.973 70.7754L50.9444 70.7378L50.9158 70.7002L50.8872 70.6626L50.8586 70.625L50.83 70.5874L50.8014 70.5499L50.7728 70.5123L50.7487 70.4416ZM58.064 66.015L57.6911 67.5138L52.2448 70.8477L51.1126 69.0089L56.5634 65.6419L58.064 66.015ZM57.6956 67.4808L56.5634 65.6419L56.601 65.6134L56.6387 65.5848L56.6763 65.5563L56.7139 65.5277L56.7515 65.4991L56.7891 65.4706L56.8268 65.442L56.893 65.451L56.9592 65.4601L57.0254 65.4691L57.0917 65.4781L57.1579 65.4872L57.2241 65.4962L57.2903 65.5052L57.3566 65.5142L57.4228 65.5233L57.489 65.5323L57.5552 65.5413L57.6215 65.5504L57.6877 65.5594L57.7208 65.5639L57.7494 65.6015L57.778 65.6391L57.8066 65.6767L57.8352 65.7143L57.8638 65.7519L57.8924 65.7894L57.921 65.827L57.9496 65.8646L57.9782 65.9022L58.0068 65.9398L58.0354 65.9774L58.064 66.015L58.0926 66.0526L58.1212 66.0901L58.1498 66.1277L58.1785 66.1653L58.2071 66.2029L58.2357 66.2405L58.2266 66.3067L58.2176 66.3728L58.2086 66.439L58.1996 66.5051L58.1906 66.5713L58.1815 66.6374L58.1725 66.7035L58.1635 66.7697L58.1545 66.8358L58.1455 66.902L58.1365 66.9681L58.1274 67.0343L58.1184 67.1004L58.1139 67.1335L58.0763 67.1621L58.0387 67.1906L58.001 67.2192L57.9634 67.2478L57.9258 67.2763L57.8882 67.3049L57.8506 67.3334L57.8129 67.362L57.7753 67.3906L57.7377 67.4191L57.6956 67.4808ZM53.6397 60.8637L55.1403 61.2368L58.064 66.015L56.2235 67.1453L53.2998 62.3671L53.6397 60.8637ZM55.1448 61.2037L53.3043 62.334L53.2757 62.2964L53.2471 62.2589L53.2185 62.2213L53.1899 62.1837L53.1613 62.1461L53.1327 62.1085L53.1041 62.0709L53.1131 62.0048L53.1221 61.9386L53.1311 61.8725L53.1402 61.8063L53.1492 61.7402L53.1582 61.674L53.1672 61.6079L53.1762 61.5417L53.1852 61.4756L53.1943 61.4094L53.2033 61.3433L53.2123 61.2771L53.2213 61.211L53.2258 61.1779L53.2635 61.1493L53.3011 61.1208L53.3387 61.0922L53.3763 61.0637L53.4139 61.0351L53.4516 61.0065L53.4892 60.978L53.4937 60.9449L53.5313 60.9163L53.5689 60.8878L53.6066 60.8592L53.6442 60.8307L53.6818 60.8021L53.7194 60.7735L53.757 60.745L53.7947 60.7164L53.8323 60.6879L53.8699 60.6593L53.9361 60.6683L54.0024 60.6774L54.0686 60.6864L54.1348 60.6954L54.201 60.7044L54.2673 60.7135L54.3335 60.7225L54.3997 60.7315L54.4659 60.7406L54.5322 60.7496L54.5984 60.7586L54.6646 60.7676L54.6977 60.7722L54.7308 60.7767L54.7594 60.8143L54.788 60.8519L54.8166 60.8894L54.8452 60.927L54.8739 60.9646L54.9025 61.0022L54.9311 61.0398L54.9597 61.0774L54.9883 61.115L55.0169 61.1526L55.1448 61.2037ZM47.8249 65.6634L48.1979 64.1645L53.6442 60.8307L54.7763 62.6695L49.3301 66.0034L47.8249 65.6634ZM48.1979 64.1645L49.3301 66.0034L49.2924 66.0319L49.2548 66.0605L49.2172 66.089L49.1796 66.1176L49.142 66.1462L49.1043 66.1747L49.0667 66.2033L49.0005 66.1942L48.9343 66.1852L48.868 66.1762L48.8018 66.1672L48.7356 66.1581L48.6694 66.1491L48.6031 66.1401L48.5369 66.131L48.4707 66.122L48.4045 66.113L48.3382 66.104L48.272 66.0949L48.2389 66.0904L48.2058 66.0859L48.1772 66.0483L48.1486 66.0107L48.12 65.9731L48.0914 65.9356L48.0628 65.898L48.0342 65.8604L48.0056 65.8228L47.977 65.7852L47.9484 65.7476L47.9198 65.71L47.8912 65.6724L47.8626 65.6348L47.8339 65.5973L47.8053 65.5597L47.7767 65.5221L47.7481 65.4845L47.7195 65.4469L47.6909 65.4093L47.6999 65.3432L47.709 65.277L47.718 65.2109L47.727 65.1447L47.736 65.0786L47.745 65.0124L47.7541 64.9463L47.7631 64.8801L47.7721 64.814L47.7811 64.7478L47.7901 64.6817L47.7992 64.6155L47.8037 64.5824L47.8082 64.5494L47.8458 64.5208L47.8834 64.4923L47.921 64.4637L47.9587 64.4351L47.9963 64.4066L48.0339 64.378L48.0715 64.3495L48.1091 64.3209L48.1468 64.2923L48.1844 64.2638L48.1979 64.1645Z" fill="#D7B0FF"/>
<path d="M52.2493 70.8146L50.7487 70.4416L47.8249 65.6634L49.6654 64.5331L52.5892 69.3113L52.2493 70.8146ZM50.7487 70.4416L52.5892 69.3113L52.6178 69.3489L52.6464 69.3864L52.675 69.424L52.7036 69.4616L52.7322 69.4992L52.7608 69.5368L52.7894 69.5744L52.7804 69.6405L52.7714 69.7067L52.7623 69.7728L52.7533 69.839L52.7443 69.9051L52.7353 69.9713L52.7263 70.0374L52.7172 70.1036L52.7082 70.1697L52.6992 70.2359L52.6902 70.302L52.6812 70.3682L52.6722 70.4343L52.6676 70.4674L52.63 70.496L52.5924 70.5245L52.5548 70.5531L52.5172 70.5816L52.4795 70.6102L52.4419 70.6388L52.4043 70.6673L52.3667 70.6959L52.329 70.7244L52.2914 70.753L52.2538 70.7816L52.2162 70.8101L52.1409 70.8672L52.1033 70.8958L52.0657 70.9244L52.0281 70.9529L51.9905 70.9815L51.9528 71.01L51.8866 71.001L51.8204 70.992L51.7542 70.983L51.6879 70.9739L51.6217 70.9649L51.5555 70.9559L51.4893 70.9468L51.423 70.9378L51.3568 70.9288L51.2906 70.9198L51.2244 70.9107L51.1581 70.9017L51.0919 70.8927L51.0588 70.8882L51.0302 70.8506L51.0016 70.813L50.973 70.7754L50.9444 70.7378L50.9158 70.7002L50.8872 70.6626L50.8586 70.625L50.83 70.5874L50.8014 70.5499L50.7728 70.5123L50.7487 70.4416ZM58.064 66.015L57.6911 67.5138L52.2448 70.8477L51.1126 69.0089L56.5634 65.6419L58.064 66.015ZM57.6956 67.4808L56.5634 65.6419L56.601 65.6134L56.6387 65.5848L56.6763 65.5563L56.7139 65.5277L56.7515 65.4991L56.7891 65.4706L56.8268 65.442L56.893 65.451L56.9592 65.4601L57.0254 65.4691L57.0917 65.4781L57.1579 65.4872L57.2241 65.4962L57.2903 65.5052L57.3566 65.5142L57.4228 65.5233L57.489 65.5323L57.5552 65.5413L57.6215 65.5504L57.6877 65.5594L57.7208 65.5639L57.7494 65.6015L57.778 65.6391L57.8066 65.6767L57.8352 65.7143L57.8638 65.7519L57.8924 65.7894L57.921 65.827L57.9496 65.8646L57.9782 65.9022L58.0068 65.9398L58.0354 65.9774L58.064 66.015L58.0926 66.0526L58.1212 66.0901L58.1498 66.1277L58.1785 66.1653L58.2071 66.2029L58.2357 66.2405L58.2266 66.3067L58.2176 66.3728L58.2086 66.439L58.1996 66.5051L58.1906 66.5713L58.1815 66.6374L58.1725 66.7035L58.1635 66.7697L58.1545 66.8358L58.1455 66.902L58.1365 66.9681L58.1274 67.0343L58.1184 67.1004L58.1139 67.1335L58.0763 67.1621L58.0387 67.1906L58.001 67.2192L57.9634 67.2478L57.9258 67.2763L57.8882 67.3049L57.8506 67.3334L57.8129 67.362L57.7753 67.3906L57.7377 67.4191L57.6956 67.4808ZM53.6397 60.8637L55.1403 61.2368L58.064 66.015L56.2235 67.1453L53.2998 62.3671L53.6397 60.8637ZM55.1448 61.2037L53.3043 62.334L53.2757 62.2964L53.2471 62.2589L53.2185 62.2213L53.1899 62.1837L53.1613 62.1461L53.1327 62.1085L53.1041 62.0709L53.1131 62.0048L53.1221 61.9386L53.1311 61.8725L53.1402 61.8063L53.1492 61.7402L53.1582 61.674L53.1672 61.6079L53.1762 61.5417L53.1852 61.4756L53.1943 61.4094L53.2033 61.3433L53.2123 61.2771L53.2213 61.211L53.2258 61.1779L53.2635 61.1493L53.3011 61.1208L53.3387 61.0922L53.3763 61.0637L53.4139 61.0351L53.4516 61.0065L53.4892 60.978L53.4937 60.9449L53.5313 60.9163L53.5689 60.8878L53.6066 60.8592L53.6442 60.8307L53.6818 60.8021L53.7194 60.7735L53.757 60.745L53.7947 60.7164L53.8323 60.6879L53.8699 60.6593L53.9361 60.6683L54.0024 60.6774L54.0686 60.6864L54.1348 60.6954L54.201 60.7044L54.2673 60.7135L54.3335 60.7225L54.3997 60.7315L54.4659 60.7406L54.5322 60.7496L54.5984 60.7586L54.6646 60.7676L54.6977 60.7722L54.7308 60.7767L54.7594 60.8143L54.788 60.8519L54.8166 60.8894L54.8452 60.927L54.8739 60.9646L54.9025 61.0022L54.9311 61.0398L54.9597 61.0774L54.9883 61.115L55.0169 61.1526L55.1448 61.2037ZM47.8249 65.6634L48.1979 64.1645L53.6442 60.8307L54.7763 62.6695L49.3301 66.0034L47.8249 65.6634ZM48.1979 64.1645L49.3301 66.0034L49.2924 66.0319L49.2548 66.0605L49.2172 66.089L49.1796 66.1176L49.142 66.1462L49.1043 66.1747L49.0667 66.2033L49.0005 66.1942L48.9343 66.1852L48.868 66.1762L48.8018 66.1672L48.7356 66.1581L48.6694 66.1491L48.6031 66.1401L48.5369 66.131L48.4707 66.122L48.4045 66.113L48.3382 66.104L48.272 66.0949L48.2389 66.0904L48.2058 66.0859L48.1772 66.0483L48.1486 66.0107L48.12 65.9731L48.0914 65.9356L48.0628 65.898L48.0342 65.8604L48.0056 65.8228L47.977 65.7852L47.9484 65.7476L47.9198 65.71L47.8912 65.6724L47.8626 65.6348L47.8339 65.5973L47.8053 65.5597L47.7767 65.5221L47.7481 65.4845L47.7195 65.4469L47.6909 65.4093L47.6999 65.3432L47.709 65.277L47.718 65.2109L47.727 65.1447L47.736 65.0786L47.745 65.0124L47.7541 64.9463L47.7631 64.8801L47.7721 64.814L47.7811 64.7478L47.7901 64.6817L47.7992 64.6155L47.8037 64.5824L47.8082 64.5494L47.8458 64.5208L47.8834 64.4923L47.921 64.4637L47.9587 64.4351L47.9963 64.4066L48.0339 64.378L48.0715 64.3495L48.1091 64.3209L48.1468 64.2923L48.1844 64.2638L48.1979 64.1645Z" fill="black" fill-opacity="0.25"/>
<path d="M105.866 101.706L102.802 96.6732L107.101 92.6444L112.43 97.9857L105.866 101.706Z" fill="#93E9BE"/>
<path d="M105.937 102.255L104.436 101.882L101.512 97.1038L103.353 95.9735L106.277 100.752L105.937 102.255ZM104.436 101.882L106.277 100.752L106.305 100.789L106.334 100.827L106.362 100.864L106.391 100.902L106.42 100.94L106.448 100.977L106.477 101.015L106.468 101.081L106.459 101.147L106.45 101.213L106.441 101.279L106.432 101.346L106.423 101.412L106.414 101.478L106.405 101.544L106.396 101.61L106.387 101.676L106.378 101.742L106.369 101.809L106.36 101.875L106.355 101.908L106.318 101.936L106.28 101.965L106.242 101.994L106.205 102.022L106.167 102.051L106.129 102.079L106.092 102.108L106.054 102.136L106.017 102.165L105.979 102.193L105.941 102.222L105.904 102.251L105.828 102.308L105.791 102.336L105.753 102.365L105.716 102.393L105.678 102.422L105.64 102.45L105.574 102.441L105.508 102.432L105.442 102.423L105.375 102.414L105.309 102.405L105.243 102.396L105.177 102.387L105.111 102.378L105.044 102.369L104.978 102.36L104.912 102.351L104.846 102.342L104.779 102.333L104.746 102.329L104.718 102.291L104.689 102.253L104.66 102.216L104.632 102.178L104.603 102.141L104.575 102.103L104.546 102.065L104.517 102.028L104.489 101.99L104.46 101.953L104.436 101.882ZM111.752 97.4554L111.379 98.9543L105.932 102.288L104.8 100.449L110.251 97.0824L111.752 97.4554ZM111.383 98.9212L110.251 97.0824L110.289 97.0538L110.326 97.0252L110.364 96.9967L110.401 96.9681L110.439 96.9396L110.477 96.911L110.514 96.8824L110.58 96.8915L110.647 96.9005L110.713 96.9095L110.779 96.9186L110.845 96.9276L110.912 96.9366L110.978 96.9456L111.044 96.9547L111.11 96.9637L111.177 96.9727L111.243 96.9818L111.309 96.9908L111.375 96.9998L111.408 97.0043L111.437 97.0419L111.466 97.0795L111.494 97.1171L111.523 97.1547L111.551 97.1923L111.58 97.2299L111.609 97.2675L111.637 97.305L111.666 97.3426L111.694 97.3802L111.723 97.4178L111.752 97.4554L111.78 97.493L111.809 97.5306L111.837 97.5682L111.866 97.6058L111.895 97.6433L111.923 97.6809L111.914 97.7471L111.905 97.8132L111.896 97.8794L111.887 97.9455L111.878 98.0117L111.869 98.0778L111.86 98.144L111.851 98.2101L111.842 98.2763L111.833 98.3424L111.824 98.4086L111.815 98.4747L111.806 98.5409L111.801 98.5739L111.764 98.6025L111.726 98.6311L111.689 98.6596L111.651 98.6882L111.613 98.7167L111.576 98.7453L111.538 98.7739L111.5 98.8024L111.463 98.831L111.425 98.8595L111.383 98.9212ZM107.327 92.3042L108.828 92.6772L111.752 97.4554L109.911 98.5857L106.987 93.8075L107.327 92.3042ZM108.832 92.6441L106.992 93.7745L106.963 93.7369L106.935 93.6993L106.906 93.6617L106.877 93.6241L106.849 93.5865L106.82 93.5489L106.792 93.5113L106.801 93.4452L106.81 93.379L106.819 93.3129L106.828 93.2467L106.837 93.1806L106.846 93.1144L106.855 93.0483L106.864 92.9821L106.873 92.916L106.882 92.8498L106.891 92.7837L106.9 92.7176L106.909 92.6514L106.913 92.6183L106.951 92.5898L106.989 92.5612L107.026 92.5326L107.064 92.5041L107.101 92.4755L107.139 92.447L107.177 92.4184L107.181 92.3853L107.219 92.3568L107.256 92.3282L107.294 92.2996L107.332 92.2711L107.369 92.2425L107.407 92.214L107.445 92.1854L107.482 92.1568L107.52 92.1283L107.557 92.0997L107.624 92.1088L107.69 92.1178L107.756 92.1268L107.822 92.1358L107.889 92.1449L107.955 92.1539L108.021 92.1629L108.087 92.172L108.153 92.181L108.22 92.19L108.286 92.199L108.352 92.2081L108.385 92.2126L108.418 92.2171L108.447 92.2547L108.476 92.2923L108.504 92.3299L108.533 92.3675L108.561 92.405L108.59 92.4426L108.619 92.4802L108.647 92.5178L108.676 92.5554L108.704 92.593L108.832 92.6441ZM101.512 97.1038L101.885 95.605L107.332 92.2711L108.464 94.1099L103.018 97.4438L101.512 97.1038ZM101.885 95.605L103.018 97.4438L102.98 97.4724L102.942 97.5009L102.905 97.5295L102.867 97.558L102.829 97.5866L102.792 97.6152L102.754 97.6437L102.688 97.6347L102.622 97.6257L102.556 97.6166L102.489 97.6076L102.423 97.5986L102.357 97.5895L102.291 97.5805L102.224 97.5715L102.158 97.5624L102.092 97.5534L102.026 97.5444L101.96 97.5354L101.926 97.5308L101.893 97.5263L101.865 97.4887L101.836 97.4512L101.807 97.4136L101.779 97.376L101.75 97.3384L101.722 97.3008L101.693 97.2632L101.664 97.2256L101.636 97.188L101.607 97.1504L101.579 97.1129L101.55 97.0753L101.521 97.0377L101.493 97.0001L101.464 96.9625L101.436 96.9249L101.407 96.8873L101.378 96.8497L101.387 96.7836L101.396 96.7174L101.405 96.6513L101.415 96.5851L101.424 96.519L101.433 96.4528L101.442 96.3867L101.451 96.3205L101.46 96.2544L101.469 96.1883L101.478 96.1221L101.487 96.0559L101.491 96.0229L101.496 95.9898L101.533 95.9612L101.571 95.9327L101.609 95.9041L101.646 95.8756L101.684 95.847L101.721 95.8184L101.759 95.7899L101.797 95.7613L101.834 95.7328L101.872 95.7042L101.885 95.605Z" fill="#D7B0FF"/>
<path d="M105.937 102.255L104.436 101.882L101.512 97.1038L103.353 95.9735L106.277 100.752L105.937 102.255ZM104.436 101.882L106.277 100.752L106.305 100.789L106.334 100.827L106.362 100.864L106.391 100.902L106.42 100.94L106.448 100.977L106.477 101.015L106.468 101.081L106.459 101.147L106.45 101.213L106.441 101.279L106.432 101.346L106.423 101.412L106.414 101.478L106.405 101.544L106.396 101.61L106.387 101.676L106.378 101.742L106.369 101.809L106.36 101.875L106.355 101.908L106.318 101.936L106.28 101.965L106.242 101.994L106.205 102.022L106.167 102.051L106.129 102.079L106.092 102.108L106.054 102.136L106.017 102.165L105.979 102.193L105.941 102.222L105.904 102.251L105.828 102.308L105.791 102.336L105.753 102.365L105.716 102.393L105.678 102.422L105.64 102.45L105.574 102.441L105.508 102.432L105.442 102.423L105.375 102.414L105.309 102.405L105.243 102.396L105.177 102.387L105.111 102.378L105.044 102.369L104.978 102.36L104.912 102.351L104.846 102.342L104.779 102.333L104.746 102.329L104.718 102.291L104.689 102.253L104.66 102.216L104.632 102.178L104.603 102.141L104.575 102.103L104.546 102.065L104.517 102.028L104.489 101.99L104.46 101.953L104.436 101.882ZM111.752 97.4554L111.379 98.9543L105.932 102.288L104.8 100.449L110.251 97.0824L111.752 97.4554ZM111.383 98.9212L110.251 97.0824L110.289 97.0538L110.326 97.0252L110.364 96.9967L110.401 96.9681L110.439 96.9396L110.477 96.911L110.514 96.8824L110.58 96.8915L110.647 96.9005L110.713 96.9095L110.779 96.9186L110.845 96.9276L110.912 96.9366L110.978 96.9456L111.044 96.9547L111.11 96.9637L111.177 96.9727L111.243 96.9818L111.309 96.9908L111.375 96.9998L111.408 97.0043L111.437 97.0419L111.466 97.0795L111.494 97.1171L111.523 97.1547L111.551 97.1923L111.58 97.2299L111.609 97.2675L111.637 97.305L111.666 97.3426L111.694 97.3802L111.723 97.4178L111.752 97.4554L111.78 97.493L111.809 97.5306L111.837 97.5682L111.866 97.6058L111.895 97.6433L111.923 97.6809L111.914 97.7471L111.905 97.8132L111.896 97.8794L111.887 97.9455L111.878 98.0117L111.869 98.0778L111.86 98.144L111.851 98.2101L111.842 98.2763L111.833 98.3424L111.824 98.4086L111.815 98.4747L111.806 98.5409L111.801 98.5739L111.764 98.6025L111.726 98.6311L111.689 98.6596L111.651 98.6882L111.613 98.7167L111.576 98.7453L111.538 98.7739L111.5 98.8024L111.463 98.831L111.425 98.8595L111.383 98.9212ZM107.327 92.3042L108.828 92.6772L111.752 97.4554L109.911 98.5857L106.987 93.8075L107.327 92.3042ZM108.832 92.6441L106.992 93.7745L106.963 93.7369L106.935 93.6993L106.906 93.6617L106.877 93.6241L106.849 93.5865L106.82 93.5489L106.792 93.5113L106.801 93.4452L106.81 93.379L106.819 93.3129L106.828 93.2467L106.837 93.1806L106.846 93.1144L106.855 93.0483L106.864 92.9821L106.873 92.916L106.882 92.8498L106.891 92.7837L106.9 92.7176L106.909 92.6514L106.913 92.6183L106.951 92.5898L106.989 92.5612L107.026 92.5326L107.064 92.5041L107.101 92.4755L107.139 92.447L107.177 92.4184L107.181 92.3853L107.219 92.3568L107.256 92.3282L107.294 92.2996L107.332 92.2711L107.369 92.2425L107.407 92.214L107.445 92.1854L107.482 92.1568L107.52 92.1283L107.557 92.0997L107.624 92.1088L107.69 92.1178L107.756 92.1268L107.822 92.1358L107.889 92.1449L107.955 92.1539L108.021 92.1629L108.087 92.172L108.153 92.181L108.22 92.19L108.286 92.199L108.352 92.2081L108.385 92.2126L108.418 92.2171L108.447 92.2547L108.476 92.2923L108.504 92.3299L108.533 92.3675L108.561 92.405L108.59 92.4426L108.619 92.4802L108.647 92.5178L108.676 92.5554L108.704 92.593L108.832 92.6441ZM101.512 97.1038L101.885 95.605L107.332 92.2711L108.464 94.1099L103.018 97.4438L101.512 97.1038ZM101.885 95.605L103.018 97.4438L102.98 97.4724L102.942 97.5009L102.905 97.5295L102.867 97.558L102.829 97.5866L102.792 97.6152L102.754 97.6437L102.688 97.6347L102.622 97.6257L102.556 97.6166L102.489 97.6076L102.423 97.5986L102.357 97.5895L102.291 97.5805L102.224 97.5715L102.158 97.5624L102.092 97.5534L102.026 97.5444L101.96 97.5354L101.926 97.5308L101.893 97.5263L101.865 97.4887L101.836 97.4512L101.807 97.4136L101.779 97.376L101.75 97.3384L101.722 97.3008L101.693 97.2632L101.664 97.2256L101.636 97.188L101.607 97.1504L101.579 97.1129L101.55 97.0753L101.521 97.0377L101.493 97.0001L101.464 96.9625L101.436 96.9249L101.407 96.8873L101.378 96.8497L101.387 96.7836L101.396 96.7174L101.405 96.6513L101.415 96.5851L101.424 96.519L101.433 96.4528L101.442 96.3867L101.451 96.3205L101.46 96.2544L101.469 96.1883L101.478 96.1221L101.487 96.0559L101.491 96.0229L101.496 95.9898L101.533 95.9612L101.571 95.9327L101.609 95.9041L101.646 95.8756L101.684 95.847L101.721 95.8184L101.759 95.7899L101.797 95.7613L101.834 95.7328L101.872 95.7042L101.885 95.605Z" fill="black" fill-opacity="0.25"/>
<path d="M153.096 70.9976L150.033 65.9652L154.331 61.9364L159.66 67.2777L153.096 70.9976Z" fill="#93E9BE"/>
<path d="M153.433 71.1457L151.932 70.7727L149.009 65.9945L150.849 64.8641L153.773 69.6423L153.433 71.1457ZM151.932 70.7727L153.773 69.6423L153.801 69.6799L153.83 69.7175L153.859 69.7551L153.887 69.7927L153.916 69.8303L153.944 69.8679L153.973 69.9054L153.964 69.9716L153.955 70.0377L153.946 70.1039L153.937 70.17L153.928 70.2362L153.919 70.3023L153.91 70.3685L153.901 70.4346L153.892 70.5008L153.883 70.5669L153.874 70.6331L153.865 70.6992L153.856 70.7654L153.851 70.7985L153.814 70.827L153.776 70.8556L153.738 70.8841L153.701 70.9127L153.663 70.9413L153.626 70.9698L153.588 70.9984L153.55 71.0269L153.513 71.0555L153.475 71.0841L153.437 71.1126L153.4 71.1412L153.325 71.1983L153.287 71.2269L153.249 71.2554L153.212 71.284L153.174 71.3125L153.136 71.3411L153.07 71.3321L153.004 71.323L152.938 71.314L152.872 71.305L152.805 71.296L152.739 71.2869L152.673 71.2779L152.607 71.2689L152.54 71.2598L152.474 71.2508L152.408 71.2418L152.342 71.2328L152.276 71.2237L152.242 71.2192L152.214 71.1816L152.185 71.144L152.157 71.1064L152.128 71.0689L152.099 71.0313L152.071 70.9937L152.042 70.9561L152.014 70.9185L151.985 70.8809L151.956 70.8433L151.932 70.7727ZM159.248 66.346L158.875 67.8449L153.428 71.1788L152.296 69.34L157.747 65.973L159.248 66.346ZM158.879 67.8118L157.747 65.973L157.785 65.9444L157.822 65.9159L157.86 65.8873L157.897 65.8588L157.935 65.8302L157.973 65.8016L158.01 65.7731L158.077 65.7821L158.143 65.7911L158.209 65.8002L158.275 65.8092L158.341 65.8182L158.408 65.8272L158.474 65.8363L158.54 65.8453L158.606 65.8543L158.673 65.8634L158.739 65.8724L158.805 65.8814L158.871 65.8904L158.904 65.895L158.933 65.9326L158.962 65.9701L158.99 66.0077L159.019 66.0453L159.047 66.0829L159.076 66.1205L159.105 66.1581L159.133 66.1957L159.162 66.2333L159.19 66.2708L159.219 66.3084L159.248 66.346L159.276 66.3836L159.305 66.4212L159.333 66.4588L159.362 66.4964L159.391 66.534L159.419 66.5716L159.41 66.6377L159.401 66.7039L159.392 66.77L159.383 66.8362L159.374 66.9023L159.365 66.9685L159.356 67.0346L159.347 67.1007L159.338 67.1669L159.329 67.2331L159.32 67.2992L159.311 67.3653L159.302 67.4315L159.298 67.4646L159.26 67.4931L159.222 67.5217L159.185 67.5503L159.147 67.5788L159.109 67.6074L159.072 67.6359L159.034 67.6645L158.997 67.6931L158.959 67.7216L158.921 67.7502L158.879 67.8118ZM154.823 61.1948L156.324 61.5678L159.248 66.346L157.407 67.4764L154.483 62.6982L154.823 61.1948ZM156.328 61.5348L154.488 62.6651L154.459 62.6275L154.431 62.5899L154.402 62.5523L154.373 62.5147L154.345 62.4771L154.316 62.4396L154.288 62.402L154.297 62.3358L154.306 62.2697L154.315 62.2035L154.324 62.1374L154.333 62.0712L154.342 62.0051L154.351 61.9389L154.36 61.8728L154.369 61.8066L154.378 61.7405L154.387 61.6743L154.396 61.6082L154.405 61.542L154.409 61.509L154.447 61.4804L154.485 61.4518L154.522 61.4233L154.56 61.3947L154.598 61.3662L154.635 61.3376L154.673 61.309L154.677 61.276L154.715 61.2474L154.753 61.2188L154.79 61.1903L154.828 61.1617L154.865 61.1332L154.903 61.1046L154.941 61.076L154.978 61.0475L155.016 61.0189L155.054 60.9904L155.12 60.9994L155.186 61.0084L155.252 61.0174L155.318 61.0265L155.385 61.0355L155.451 61.0445L155.517 61.0536L155.583 61.0626L155.65 61.0716L155.716 61.0806L155.782 61.0897L155.848 61.0987L155.881 61.1032L155.914 61.1077L155.943 61.1453L155.972 61.1829L156 61.2205L156.029 61.2581L156.057 61.2957L156.086 61.3333L156.115 61.3708L156.143 61.4084L156.172 61.446L156.2 61.4836L156.328 61.5348ZM149.009 65.9945L149.382 64.4956L154.828 61.1617L155.96 63.0005L150.514 66.3344L149.009 65.9945ZM149.382 64.4956L150.514 66.3344L150.476 66.363L150.438 66.3915L150.401 66.4201L150.363 66.4487L150.326 66.4772L150.288 66.5058L150.25 66.5343L150.184 66.5253L150.118 66.5163L150.052 66.5072L149.985 66.4982L149.919 66.4892L149.853 66.4802L149.787 66.4711L149.721 66.4621L149.654 66.4531L149.588 66.444L149.522 66.435L149.456 66.426L149.422 66.4215L149.389 66.417L149.361 66.3794L149.332 66.3418L149.304 66.3042L149.275 66.2666L149.246 66.229L149.218 66.1914L149.189 66.1538L149.161 66.1163L149.132 66.0787L149.103 66.0411L149.075 66.0035L149.046 65.9659L149.018 65.9283L148.989 65.8907L148.96 65.8531L148.932 65.8155L148.903 65.778L148.875 65.7404L148.884 65.6742L148.893 65.6081L148.902 65.5419L148.911 65.4758L148.92 65.4096L148.929 65.3435L148.938 65.2773L148.947 65.2112L148.956 65.145L148.965 65.0789L148.974 65.0127L148.983 64.9466L148.987 64.9135L148.992 64.8804L149.029 64.8519L149.067 64.8233L149.105 64.7947L149.142 64.7662L149.18 64.7376L149.217 64.7091L149.255 64.6805L149.293 64.6519L149.33 64.6234L149.368 64.5948L149.382 64.4956Z" fill="#D7B0FF"/>
<path d="M153.433 71.1457L151.932 70.7727L149.009 65.9945L150.849 64.8641L153.773 69.6423L153.433 71.1457ZM151.932 70.7727L153.773 69.6423L153.801 69.6799L153.83 69.7175L153.859 69.7551L153.887 69.7927L153.916 69.8303L153.944 69.8679L153.973 69.9054L153.964 69.9716L153.955 70.0377L153.946 70.1039L153.937 70.17L153.928 70.2362L153.919 70.3023L153.91 70.3685L153.901 70.4346L153.892 70.5008L153.883 70.5669L153.874 70.6331L153.865 70.6992L153.856 70.7654L153.851 70.7985L153.814 70.827L153.776 70.8556L153.738 70.8841L153.701 70.9127L153.663 70.9413L153.626 70.9698L153.588 70.9984L153.55 71.0269L153.513 71.0555L153.475 71.0841L153.437 71.1126L153.4 71.1412L153.325 71.1983L153.287 71.2269L153.249 71.2554L153.212 71.284L153.174 71.3125L153.136 71.3411L153.07 71.3321L153.004 71.323L152.938 71.314L152.872 71.305L152.805 71.296L152.739 71.2869L152.673 71.2779L152.607 71.2689L152.54 71.2598L152.474 71.2508L152.408 71.2418L152.342 71.2328L152.276 71.2237L152.242 71.2192L152.214 71.1816L152.185 71.144L152.157 71.1064L152.128 71.0689L152.099 71.0313L152.071 70.9937L152.042 70.9561L152.014 70.9185L151.985 70.8809L151.956 70.8433L151.932 70.7727ZM159.248 66.346L158.875 67.8449L153.428 71.1788L152.296 69.34L157.747 65.973L159.248 66.346ZM158.879 67.8118L157.747 65.973L157.785 65.9444L157.822 65.9159L157.86 65.8873L157.897 65.8588L157.935 65.8302L157.973 65.8016L158.01 65.7731L158.077 65.7821L158.143 65.7911L158.209 65.8002L158.275 65.8092L158.341 65.8182L158.408 65.8272L158.474 65.8363L158.54 65.8453L158.606 65.8543L158.673 65.8634L158.739 65.8724L158.805 65.8814L158.871 65.8904L158.904 65.895L158.933 65.9326L158.962 65.9701L158.99 66.0077L159.019 66.0453L159.047 66.0829L159.076 66.1205L159.105 66.1581L159.133 66.1957L159.162 66.2333L159.19 66.2708L159.219 66.3084L159.248 66.346L159.276 66.3836L159.305 66.4212L159.333 66.4588L159.362 66.4964L159.391 66.534L159.419 66.5716L159.41 66.6377L159.401 66.7039L159.392 66.77L159.383 66.8362L159.374 66.9023L159.365 66.9685L159.356 67.0346L159.347 67.1007L159.338 67.1669L159.329 67.2331L159.32 67.2992L159.311 67.3653L159.302 67.4315L159.298 67.4646L159.26 67.4931L159.222 67.5217L159.185 67.5503L159.147 67.5788L159.109 67.6074L159.072 67.6359L159.034 67.6645L158.997 67.6931L158.959 67.7216L158.921 67.7502L158.879 67.8118ZM154.823 61.1948L156.324 61.5678L159.248 66.346L157.407 67.4764L154.483 62.6982L154.823 61.1948ZM156.328 61.5348L154.488 62.6651L154.459 62.6275L154.431 62.5899L154.402 62.5523L154.373 62.5147L154.345 62.4771L154.316 62.4396L154.288 62.402L154.297 62.3358L154.306 62.2697L154.315 62.2035L154.324 62.1374L154.333 62.0712L154.342 62.0051L154.351 61.9389L154.36 61.8728L154.369 61.8066L154.378 61.7405L154.387 61.6743L154.396 61.6082L154.405 61.542L154.409 61.509L154.447 61.4804L154.485 61.4518L154.522 61.4233L154.56 61.3947L154.598 61.3662L154.635 61.3376L154.673 61.309L154.677 61.276L154.715 61.2474L154.753 61.2188L154.79 61.1903L154.828 61.1617L154.865 61.1332L154.903 61.1046L154.941 61.076L154.978 61.0475L155.016 61.0189L155.054 60.9904L155.12 60.9994L155.186 61.0084L155.252 61.0174L155.318 61.0265L155.385 61.0355L155.451 61.0445L155.517 61.0536L155.583 61.0626L155.65 61.0716L155.716 61.0806L155.782 61.0897L155.848 61.0987L155.881 61.1032L155.914 61.1077L155.943 61.1453L155.972 61.1829L156 61.2205L156.029 61.2581L156.057 61.2957L156.086 61.3333L156.115 61.3708L156.143 61.4084L156.172 61.446L156.2 61.4836L156.328 61.5348ZM149.009 65.9945L149.382 64.4956L154.828 61.1617L155.96 63.0005L150.514 66.3344L149.009 65.9945ZM149.382 64.4956L150.514 66.3344L150.476 66.363L150.438 66.3915L150.401 66.4201L150.363 66.4487L150.326 66.4772L150.288 66.5058L150.25 66.5343L150.184 66.5253L150.118 66.5163L150.052 66.5072L149.985 66.4982L149.919 66.4892L149.853 66.4802L149.787 66.4711L149.721 66.4621L149.654 66.4531L149.588 66.444L149.522 66.435L149.456 66.426L149.422 66.4215L149.389 66.417L149.361 66.3794L149.332 66.3418L149.304 66.3042L149.275 66.2666L149.246 66.229L149.218 66.1914L149.189 66.1538L149.161 66.1163L149.132 66.0787L149.103 66.0411L149.075 66.0035L149.046 65.9659L149.018 65.9283L148.989 65.8907L148.96 65.8531L148.932 65.8155L148.903 65.778L148.875 65.7404L148.884 65.6742L148.893 65.6081L148.902 65.5419L148.911 65.4758L148.92 65.4096L148.929 65.3435L148.938 65.2773L148.947 65.2112L148.956 65.145L148.965 65.0789L148.974 65.0127L148.983 64.9466L148.987 64.9135L148.992 64.8804L149.029 64.8519L149.067 64.8233L149.105 64.7947L149.142 64.7662L149.18 64.7376L149.217 64.7091L149.255 64.6805L149.293 64.6519L149.33 64.6234L149.368 64.5948L149.382 64.4956Z" fill="black" fill-opacity="0.25"/>
<g clip-path="url(#clip0)">
<path d="M106.642 16.2768C100.323 15.5263 94.5929 20.0396 93.8425 26.3576C93.6639 27.8601 93.783 29.383 94.193 30.8394C94.6031 32.2958 95.296 33.6572 96.2322 34.8458C97.1684 36.0344 98.3296 37.0269 99.6495 37.7667C100.969 38.5065 102.422 38.979 103.925 39.1573C110.241 39.9075 115.972 35.3943 116.723 29.0751C117.472 22.757 112.958 17.0269 106.642 16.2768ZM104.207 36.7715C103.017 36.6302 101.868 36.2561 100.823 35.6705C99.7781 35.0849 98.8589 34.2992 98.1179 33.3584C97.3768 32.4175 96.8283 31.3399 96.5036 30.1871C96.179 29.0343 96.0846 27.8288 96.2259 26.6395C96.3671 25.4502 96.7413 24.3003 97.3269 23.2556C97.9125 22.2109 98.6982 21.2918 99.639 20.5507C100.58 19.8096 101.657 19.2611 102.81 18.9365C103.963 18.6118 105.169 18.5175 106.358 18.6587C108.76 18.944 110.95 20.1717 112.447 22.0719C113.943 23.972 114.624 26.3888 114.339 28.7907C114.053 31.1926 112.826 33.3828 110.926 34.8795C109.025 36.3762 106.609 37.0568 104.207 36.7715ZM108.298 27.7724C109.284 27.8895 110.196 27.0516 110.333 25.8993C110.47 24.747 109.78 23.7188 108.793 23.6016C107.806 23.4845 106.895 24.3224 106.758 25.4747C106.621 26.627 107.31 27.655 108.298 27.7724ZM102.34 27.0647C103.326 27.1819 104.238 26.344 104.375 25.1916C104.512 24.0393 103.822 23.0112 102.835 22.894C101.848 22.7768 100.937 23.6148 100.8 24.7671C100.663 25.9194 101.352 26.9474 102.34 27.0647ZM105.108 29.2061C101.027 28.7215 99.2723 31.3106 99.1987 31.4215C99.0673 31.6209 99.0205 31.8644 99.0687 32.0983C99.1168 32.3323 99.2559 32.5375 99.4553 32.6689C99.6548 32.8002 99.8983 32.847 100.132 32.7989C100.366 32.7507 100.571 32.6116 100.703 32.4122C100.715 32.3931 101.907 30.6386 104.895 30.9936C107.83 31.3421 108.609 33.2799 108.637 33.3533C108.676 33.4654 108.737 33.5686 108.816 33.657C108.896 33.7454 108.992 33.8172 109.099 33.8682C109.206 33.9193 109.323 33.9486 109.441 33.9545C109.56 33.9605 109.679 33.9428 109.79 33.9027C109.902 33.8625 110.005 33.8006 110.093 33.7206C110.18 33.6405 110.251 33.5439 110.302 33.4363C110.352 33.3287 110.38 33.2121 110.385 33.0935C110.39 32.9748 110.372 32.8563 110.331 32.7448C110.286 32.6199 109.188 29.6907 105.108 29.2061Z" fill="black"/>
</g>
<defs>
<clipPath id="clip0">
<rect width="24.0001" height="24.0001" fill="white" transform="translate(94.7793 14.3848) rotate(6.77327)"/>
</clipPath>
</defs>
</svg>
