<svg width="217" height="217" viewBox="0 0 217 217" fill="none" xmlns="http://www.w3.org/2000/svg">
<path d="M108.717 216.169C164.462 216.169 209.652 190.079 209.652 157.895C209.652 125.711 164.462 99.6211 108.717 99.6211C52.9716 99.6211 7.78125 125.711 7.78125 157.895C7.78125 190.079 52.9716 216.169 108.717 216.169Z" fill="#EBEBEB"/>
<path d="M180.636 198.786L180.088 199.106C178.377 200.095 176.621 201.037 174.82 201.933C174.527 202.087 174.234 202.226 173.941 202.375C171.012 203.807 167.981 205.129 164.847 206.341C164.252 206.573 163.652 206.806 163.053 207.019L162.904 207.075L161.235 207.68L160.868 207.801C160.291 208.01 159.705 208.205 159.119 208.4C158.534 208.596 157.822 208.828 157.171 209.033C156.52 209.237 155.888 209.432 155.242 209.632C155.186 209.643 155.132 209.658 155.079 209.679L153.624 210.107C152.648 210.386 151.671 210.651 150.681 210.916C150.188 211.041 149.695 211.171 149.198 211.292C148.7 211.413 148.184 211.548 147.673 211.673C146.655 211.92 145.627 212.138 144.6 212.38L143.052 212.71C142.363 212.856 141.671 212.995 140.973 213.129C140.29 213.263 139.602 213.384 138.909 213.515H138.858C138.17 213.64 137.463 213.761 136.789 213.872C136.115 213.984 135.394 214.1 134.701 214.207H134.585C132.502 214.517 130.404 214.795 128.29 215.039C127.858 215.095 127.421 215.142 126.984 215.188C126.547 215.235 126.138 215.272 125.71 215.314C125.087 215.379 124.459 215.439 123.85 215.49C123.353 215.537 122.855 215.579 122.358 215.611C122.018 215.644 121.684 215.662 121.344 215.69C121.005 215.718 120.558 215.746 120.168 215.769C119.866 215.793 119.568 215.811 119.266 215.825L117.932 215.904C117.55 215.927 117.174 215.946 116.793 215.96C116.411 215.974 115.923 216.002 115.491 216.011C115.3 216.011 115.105 216.011 114.914 216.011C114.384 216.039 113.859 216.053 113.329 216.067C112.608 216.067 111.883 216.099 111.162 216.104C110.442 216.109 109.614 216.104 108.838 216.104L7.78125 157.84C7.78125 157.417 7.78125 157.007 7.8045 156.589C7.8045 156.091 7.85564 155.594 7.89748 155.092C7.89748 154.859 7.93932 154.627 7.96257 154.404C7.98582 154.181 8.01371 153.939 8.04161 153.706C8.0695 153.474 8.10205 153.241 8.13459 153.009C8.16714 152.777 8.18574 152.651 8.21828 152.474C8.29732 151.954 8.39495 151.442 8.50189 150.921C8.55303 150.689 8.59952 150.457 8.65531 150.229C8.75759 149.764 8.86918 149.331 8.99006 148.885C9.05515 148.639 9.12489 148.392 9.19462 148.151L9.38989 147.509C9.53867 147.044 9.69675 146.551 9.85482 146.082C9.93386 145.849 10.0175 145.617 10.1059 145.389C10.2826 144.924 10.4639 144.482 10.6545 144.031C10.7521 143.803 10.8498 143.566 10.952 143.348C11.0543 143.129 11.1287 142.948 11.2217 142.757C13.737 137.341 17.6284 132.092 22.896 127.196L23.3981 126.731L23.7143 126.443C23.9049 126.271 24.0955 126.099 24.2908 125.936C24.6395 125.629 24.9975 125.323 25.3555 125.006L26.0017 124.467C26.2156 124.291 26.4341 124.109 26.6573 123.933L27.3546 123.416C27.8196 123.063 28.2845 122.714 28.7494 122.366L29.4515 121.845L30.0001 121.441L30.9764 120.757C31.1949 120.608 31.4088 120.455 31.6273 120.292C33.4405 119.052 35.3591 117.848 37.3831 116.68C37.4389 116.642 37.4947 116.615 37.5551 116.582L180.636 198.786Z" fill="#FAFAFA"/>
<path d="M98.6422 175.837C93.9395 174.724 89.0111 175.048 84.4945 176.767C83.0997 177.292 81.7049 178.027 81.0215 179.319C79.8312 181.546 81.2911 184.294 83.109 186.047C86.4611 189.278 91.0127 190.97 95.5272 192.04C100.042 193.109 104.714 193.625 109.173 194.95C115.217 196.754 120.796 199.995 126.747 202.105C132.698 204.216 139.57 205.113 145.209 202.24C147.757 200.943 150.105 198.484 149.858 195.634C149.64 193.1 147.492 191.207 145.404 189.752C130.801 179.566 112.306 177.199 94.6159 175.158" fill="#F0F0F0"/>
<path d="M41.0273 24.1121C41.0273 24.1121 55.2355 37.0325 58.2296 62.1106C60.982 85.1523 54.4498 106.776 51.9671 115.475C51.4091 117.2 53.1294 119.194 59.3547 119.194C65.5801 119.194 65.7289 115.475 65.7289 115.475C65.7289 115.475 70.2666 88.5091 66.1427 64.5561C62.0606 40.9192 52.0554 29.9795 44.8072 22.7871L41.0273 24.1121Z" fill="#B16668"/>
<path d="M43.4179 23.6057C43.4179 23.6057 40.9538 17.0456 27.0106 16.8503C13.0675 16.655 3.49929 33.8294 1.98828 44.4669C1.98828 44.4669 5.76348 40.2826 10.6499 38.0184L16.0151 28.3247L13.5696 37.2466C15.8665 36.954 18.071 36.1605 20.0274 34.922C20.0274 34.922 22.2498 28.9756 24.8673 25.6234L23.2029 33.4017C24.7345 33.5236 26.2712 33.2381 27.6569 32.5741C30.2093 31.4536 37.8666 29.0221 43.4179 23.6057Z" fill="#BA68C8"/>
<path d="M42.4646 23.9498C42.4646 23.9498 41.5348 20.3699 45.0078 12.6382C48.5319 4.80882 58.0257 1.01502 63.4235 0.345525C68.8213 -0.323969 76.5949 0.763959 84.4335 6.15245C80.0429 6.31225 75.7629 7.57369 71.9875 9.82072C69.3032 7.91601 66.0719 6.93683 62.7819 7.03117C62.7819 7.03117 67.8496 9.86722 69.2165 11.2992C69.2165 11.2992 65.0322 14.8698 59.918 15.1534C59.918 15.1534 55.5756 12.5731 52.0142 12.508C52.0142 12.508 56.087 14.3259 57.6584 16.7714C57.6026 16.7853 47.974 23.6197 42.4646 23.9498Z" fill="#BA68C8"/>
<path opacity="0.15" d="M42.4646 23.9498C42.4646 23.9498 41.5348 20.3699 45.0078 12.6382C48.5319 4.80882 58.0257 1.01502 63.4235 0.345525C68.8213 -0.323969 76.5949 0.763959 84.4335 6.15245C80.0429 6.31225 75.7629 7.57369 71.9875 9.82072C69.3032 7.91601 66.0719 6.93683 62.7819 7.03117C62.7819 7.03117 67.8496 9.86722 69.2165 11.2992C69.2165 11.2992 65.0322 14.8698 59.918 15.1534C59.918 15.1534 55.5756 12.5731 52.0142 12.508C52.0142 12.508 56.087 14.3259 57.6584 16.7714C57.6026 16.7853 47.974 23.6197 42.4646 23.9498Z" fill="black"/>
<path d="M42.8594 23.82C42.8594 23.82 48.564 17.0925 59.5223 18.0456C70.4806 18.9987 80.4208 31.7935 82.8151 38.414C82.8151 38.414 77.8265 35.1177 68.2536 33.7648L63.2231 26.6979L64.4552 33.1743L58.0392 31.8632L53.3063 24.3919L54.6732 31.1193C54.6732 31.1193 46.2161 27.837 42.8594 23.82Z" fill="#BA68C8"/>
<path d="M43.4179 23.6062C43.7862 26.5675 43.6065 29.5713 42.8879 32.4677C41.6837 36.9031 39.3033 39.2835 39.3033 39.2835L36.5881 35.0991L36.7183 43.8119C35.6763 46.4744 34.1362 48.9139 32.1806 50.9996L30.3674 42.631L29.3027 54.0495C29.3027 54.0495 23.3656 62.037 21.8639 65.9331C21.8639 65.9331 18.5629 51.9853 23.5097 40.5155C28.4565 29.0458 34.7935 22.323 43.4179 23.6062Z" fill="#BA68C8"/>
<path opacity="0.15" d="M43.4179 23.6062C43.7862 26.5675 43.6065 29.5713 42.8879 32.4677C41.6837 36.9031 39.3033 39.2835 39.3033 39.2835L36.5881 35.0991L36.7183 43.8119C35.6763 46.4744 34.1362 48.9139 32.1806 50.9996L30.3674 42.631L29.3027 54.0495C29.3027 54.0495 23.3656 62.037 21.8639 65.9331C21.8639 65.9331 18.5629 51.9853 23.5097 40.5155C28.4565 29.0458 34.7935 22.323 43.4179 23.6062Z" fill="black"/>
<path d="M195.601 87.733L186.944 93.6608L195.131 90.5598C195.06 92.7499 194.507 94.8974 193.514 96.8502C193.514 96.8502 188.106 99.4724 185.168 102.243L192.37 99.9652C192.597 101.219 192.52 102.509 192.147 103.726C192.1 103.894 192.049 104.066 191.993 104.238C191.612 105.386 191.063 107.567 190.133 110.147C189.348 112.405 188.352 114.585 187.158 116.656C186.563 117.673 185.901 118.65 185.177 119.58C185.136 119.641 185.089 119.697 185.043 119.757C183.707 118.865 182.312 117.992 180.858 117.14C180.026 115.01 179.11 109.85 178.943 105.661C178.338 89.6439 191.008 81.3682 200.901 78.9971C200.901 78.9971 197.284 82.9304 195.601 87.733Z" fill="#BA68C8"/>
<path opacity="0.25" d="M195.601 87.733L186.944 93.6608L195.131 90.5598C195.06 92.7499 194.507 94.8974 193.514 96.8502C193.514 96.8502 188.106 99.4724 185.168 102.243L192.37 99.9652C192.597 101.219 192.52 102.509 192.147 103.726C192.1 103.894 192.049 104.066 191.993 104.238C191.612 105.386 191.063 107.567 190.133 110.147C189.348 112.405 188.352 114.585 187.158 116.656C186.563 117.673 185.901 118.65 185.177 119.58C185.136 119.641 185.089 119.697 185.043 119.757C183.707 118.865 182.312 117.992 180.858 117.14C180.026 115.01 179.11 109.85 178.943 105.661C178.338 89.6439 191.008 81.3682 200.901 78.9971C200.901 78.9971 197.284 82.9304 195.601 87.733Z" fill="black"/>
<path d="M216.639 97.5898C216.337 97.7478 211.418 100.379 205.997 107.353L197.805 108.153L203.709 110.185L199.623 114.834L191.254 115.21L197.419 117.256C197.419 117.256 194.243 121.315 189.473 122.905C188.441 122.105 187.367 121.329 186.256 120.557L185.219 119.86V119.585C185.052 115.132 186.374 110.749 188.976 107.13C189.876 105.85 190.955 104.706 192.179 103.731C199.209 98.0221 211.05 96.6134 216.639 97.5898Z" fill="#BA68C8"/>
<path d="M216.639 97.5897C216.397 97.8036 212.431 101.235 206.252 108.158H197.805L203.709 110.189L199.623 114.838L191.254 115.215L197.419 117.261C197.419 117.261 194.243 121.32 189.473 122.91C188.441 122.11 187.367 121.334 186.256 120.562L185.219 119.864V119.59C185.052 115.136 186.374 110.754 188.976 107.135C189.876 105.855 190.955 104.71 192.179 103.736C199.209 98.0221 211.05 96.6134 216.639 97.5897Z" fill="#BA68C8"/>
<path opacity="0.1" d="M216.638 97.5898C207.805 97.6177 197.655 101.867 192.025 107.786C191.341 108.52 190.718 109.31 190.165 110.147C188.866 112.163 187.864 114.355 187.19 116.656C186.803 117.934 186.493 119.234 186.26 120.548L185.223 119.85V119.576C185.056 115.122 186.378 110.74 188.98 107.121C189.88 105.841 190.959 104.697 192.183 103.722C199.208 98.0222 211.05 96.6135 216.638 97.5898Z" fill="black"/>
<path d="M44.5852 157.114C44.362 162.749 43.0928 168.737 41.9723 171.527C41.2666 173.127 40.4202 174.661 39.4431 176.111L34.6311 173.321C29.9819 166.222 28.1965 158.137 27.1923 155.189C26.0858 151.851 26.6855 149.494 26.6855 149.494L36.2956 152.511C32.3716 148.82 25.1652 145.314 25.1652 145.314C23.8391 142.717 23.0995 139.86 22.9987 136.946L33.9198 141.088L22.3757 133.184C21.4543 130.653 20.2321 128.241 18.7353 126.001C17.7122 124.43 16.5747 122.937 15.332 121.533C17.2986 122.007 19.2296 122.617 21.1111 123.36C32.9574 128.038 45.3105 138.763 44.5852 157.114Z" fill="#BA68C8"/>
<path opacity="0.25" d="M44.5852 157.114C44.362 162.744 43.0928 168.737 41.9723 171.527C41.2678 173.127 40.4213 174.661 39.4431 176.111L34.6311 173.321C29.9819 166.222 28.1965 158.137 27.1923 155.189C26.0858 151.851 26.6855 149.494 26.6855 149.494L36.2956 152.511C32.3716 148.82 25.1652 145.314 25.1652 145.314C23.8391 142.717 23.0995 139.86 22.9987 136.946L33.9198 141.088L22.3757 133.184C21.4543 130.653 20.2321 128.241 18.7353 126.001C17.7122 124.43 16.5747 122.937 15.332 121.533C17.2986 122.007 19.2296 122.617 21.1111 123.36C32.9574 128.038 45.3105 138.763 44.5852 157.114Z" fill="black"/>
<path d="M34.4398 173.023C34.4398 173.023 37.578 164.348 31.0179 154.891C24.4578 145.435 7.67398 143.077 0.425781 144.342C0.425781 144.342 6.0049 147.132 12.1977 155.147L21.2452 156.03L14.7362 158.28L19.2506 163.395L28.5027 163.818L21.6869 166.077C21.6869 166.077 27.0242 172.958 34.4398 173.023Z" fill="#BA68C8"/>
<path d="M34.4398 173.023C34.4398 173.023 37.578 164.348 31.0179 154.891C24.4578 145.435 7.67398 143.077 0.425781 144.342C0.425781 144.342 4.86118 148.126 11.9095 156.026H21.2452L14.7362 158.276L19.2506 163.39L28.5027 163.813L21.6869 166.073C21.6869 166.073 27.0242 172.958 34.4398 173.023Z" fill="#BA68C8"/>
<path opacity="0.1" d="M31.0179 154.901C37.578 164.348 34.4398 173.033 34.4398 173.033C34.4398 173.033 33.8354 162.172 27.6147 155.631C21.394 149.089 10.1753 144.398 0.425781 144.361C7.67398 143.087 24.4625 145.453 31.0179 154.901Z" fill="black"/>
<path d="M173.501 63.4916C173.538 63.3369 173.606 63.1912 173.701 63.0639C173.872 62.7594 173.958 62.4147 173.95 62.0656C173.943 61.7165 173.843 61.3758 173.659 61.0787C173.545 60.9355 173.449 60.7794 173.371 60.6138C173.241 60.2511 173.403 59.8513 173.371 59.4654C173.25 57.7405 170.116 58.4937 169.14 58.8377C168.856 58.9354 167.457 59.3864 166.815 59.6142C166.845 58.6599 166.729 57.7067 166.471 56.7874C166.006 54.9974 164.198 54.3326 164.114 55.4205C164.022 56.6561 163.819 57.8808 163.505 59.0795C163.332 59.9654 163.053 60.8271 162.673 61.6459C162.02 63.007 161.145 64.2498 160.083 65.3235C158.135 67.1832 149.12 73.6131 149.12 73.6131C146.6 71.9952 136.335 66.0534 132.848 63.7892C129.626 61.697 123.521 63.2359 123.521 63.2359L131.165 74.3942C131.165 74.3942 143.918 81.2053 147.498 83.1441C150.427 84.7341 151.901 83.7252 155.267 80.7218C157.945 78.188 161.469 74.5336 165.277 71.1629C166.797 69.8193 167.875 69.1266 168.996 69.0754C169.4 69.0754 169.81 69.0336 170.214 68.9871C171.111 68.8894 172.181 68.6616 172.618 67.769C172.766 67.4621 172.841 67.1227 172.962 66.8066C173.152 66.3416 173.455 65.8767 173.641 65.4118C173.778 65.0862 173.824 64.7296 173.775 64.3797C173.696 64.0961 173.464 63.8078 173.501 63.4916Z" fill="#FFA8A7"/>
<path d="M167.628 60.1309C166.596 60.3819 166.275 61.0282 166.205 62.4787C166.168 63.3388 165.805 64.9057 164.811 65.4775C165.265 65.4537 165.701 65.2915 166.061 65.0126C166.526 64.5895 166.656 64.5477 166.884 64.822C167.056 65.0057 167.267 65.1473 167.502 65.2357C167.333 65.4059 167.222 65.6264 167.188 65.8643C167.154 66.1022 167.197 66.3449 167.312 66.5561C167.712 67.3279 169.725 67.486 171.431 66.7421C171.431 66.7421 168.697 67.393 168.135 66.5003C167.572 65.6077 169.065 64.6406 170.134 64.4268C170.134 64.4268 167.507 64.8638 167.172 63.9897C166.838 63.1157 167.944 62.5531 169.497 62.2649C169.497 62.2649 167.33 62.5066 167.014 61.7581C166.642 60.8654 167.326 60.4005 167.628 60.1309Z" fill="#F28F8F"/>
<path d="M84.1406 86.1152C84.8613 87.1241 86.5396 85.9153 89.5338 84.4833C92.5279 83.0514 90.2451 69.3965 90.2451 69.3965C90.2451 69.3965 85.3215 69.801 84.7869 74.4688C84.2522 79.1367 84.1406 86.1152 84.1406 86.1152Z" fill="#BA68C8"/>
<path opacity="0.25" d="M84.1406 86.1152C84.8613 87.1241 86.5396 85.9153 89.5338 84.4833C92.5279 83.0514 90.2451 69.3965 90.2451 69.3965C90.2451 69.3965 85.3215 69.801 84.7869 74.4688C84.2522 79.1367 84.1406 86.1152 84.1406 86.1152Z" fill="black"/>
<path d="M107.907 60.0789C110.809 59.8046 117.49 62.6639 118.684 64.849C119.935 67.1365 126.244 98.9607 124.003 102.155C121.186 106.162 106.466 114.708 99.7526 115.019C94.2107 115.27 88.5665 110.602 87.6087 109.189C86.0419 106.864 85.233 73.6826 86.7719 70.7629C89.2685 66.0253 104.211 60.4462 107.907 60.0789Z" fill="#BA68C8"/>
<path opacity="0.1" d="M107.907 60.0789C110.809 59.8046 117.49 62.6639 118.684 64.849C119.935 67.1365 126.244 98.9607 124.003 102.155C121.186 106.162 106.466 114.708 99.7526 115.019C94.2107 115.27 88.5665 110.602 87.6087 109.189C86.0419 106.864 85.233 73.6826 86.7719 70.7629C89.2685 66.0253 104.211 60.4462 107.907 60.0789Z" fill="white"/>
<path opacity="0.2" d="M107.907 60.0789C110.809 59.8046 117.49 62.6639 118.684 64.849C119.935 67.1365 126.244 98.9607 124.003 102.155C121.186 106.162 106.466 114.708 99.7526 115.019C94.2107 115.27 88.5665 110.602 87.6087 109.189C86.0419 106.864 85.233 73.6826 86.7719 70.7629C89.2685 66.0253 104.211 60.4462 107.907 60.0789Z" fill="black"/>
<path d="M85.9771 87.6909C85.9771 86.2962 85.9492 84.9246 85.9492 83.5949C85.9492 83.0649 85.9492 82.5396 85.9492 82.0235C85.9492 80.9914 85.9725 79.9964 85.9911 79.0526C85.9911 78.5877 86.0143 78.1228 86.0283 77.6578C86.0283 76.9883 86.0794 76.356 86.1073 75.7609C86.1352 75.1658 86.1724 74.6079 86.2142 74.1011C86.2142 73.9291 86.2421 73.7618 86.2561 73.6037C86.3816 72.1671 86.5536 71.1582 86.7675 70.7444C86.8419 70.6142 86.9209 70.4794 87.0139 70.3399L87.1069 70.2051C87.172 70.1121 87.2371 70.0191 87.3115 69.9261L87.437 69.7634L87.6648 69.503L87.8136 69.3357C87.9298 69.2101 88.0507 69.0846 88.1809 68.9544L88.4412 68.708L88.6179 68.5453L88.9201 68.2756L89.0735 68.1454L89.4269 67.8525C92.1188 68.7359 94.6666 69.5774 94.741 69.6193C94.9083 69.7122 97.684 71.107 97.8653 75.1705L99.1159 91.5963L99.2415 93.1538C99.3716 95.3343 102.789 115.284 96.5495 114.601H96.2985C92.0537 113.453 88.3622 110.31 87.609 109.194C87.4335 108.856 87.3141 108.491 87.2557 108.115C87.2138 107.901 87.1673 107.65 87.1255 107.404C87.1022 107.274 87.0836 107.139 87.0604 106.999C86.9953 106.572 86.9349 106.097 86.8744 105.572C86.8744 105.4 86.8372 105.223 86.8186 105.037C86.5304 102.285 86.3026 98.4679 86.1491 94.3719C86.1212 93.549 86.0933 92.7214 86.0701 91.8846C86.0701 91.3267 86.0376 90.7688 86.0283 90.2062C86.0283 89.9272 86.0283 89.6483 86.0283 89.3693C85.9957 88.8068 85.9864 88.2489 85.9771 87.6909Z" fill="#BA68C8"/>
<path opacity="0.4" d="M86.3633 72.6319C86.4082 71.9953 86.546 71.3688 86.7724 70.7722C89.2691 66.0439 104.212 60.4322 107.908 60.0789C110.809 59.8046 117.49 62.6639 118.685 64.849C119.06 65.7894 119.353 66.76 119.564 67.7502C113.985 71.2743 99.5253 79.271 97.9399 78.8294C95.9919 78.2854 86.5492 72.8923 86.3679 72.6412L86.3633 72.6319Z" fill="black"/>
<path d="M85.2669 94.3027C85.4342 94.2004 87.8426 92.1082 88.1262 91.9362C88.6283 91.634 96.546 96.1996 97.3085 97.0132C97.8338 97.5851 97.7501 106.967 97.5037 107.655C97.4107 107.902 94.7142 109.771 94.6444 110.017C94.3934 110.705 86.0479 106.089 85.4621 104.866C84.8763 103.643 84.5416 94.7444 85.2669 94.3027Z" fill="#BA68C8"/>
<path opacity="0.18" d="M85.2669 94.3027C85.4342 94.2004 87.8426 92.1082 88.1262 91.9362C88.6283 91.634 96.546 96.1996 97.3085 97.0132C97.8338 97.5851 97.7501 106.967 97.5037 107.655C97.4107 107.902 94.7142 109.771 94.6444 110.017C94.3934 110.705 86.0479 106.089 85.4621 104.866C84.8763 103.643 84.5416 94.7444 85.2669 94.3027Z" fill="black"/>
<path d="M94.4493 99.3794C94.9793 99.9466 94.8909 109.333 94.6445 110.017C94.3981 110.7 86.048 106.088 85.4622 104.866C84.8764 103.643 84.5324 94.7441 85.267 94.3024C85.7691 94.0002 93.6868 98.5704 94.4493 99.3794Z" fill="#BA68C8"/>
<path opacity="0.4" d="M88.1261 91.9362C87.8425 92.1036 85.4389 94.2004 85.2715 94.2981C85.769 94.0005 93.6866 98.5661 94.4445 99.3797L97.3038 97.0179C96.5459 96.195 88.6283 91.634 88.1261 91.9362Z" fill="black"/>
<path opacity="0.3" d="M94.4493 99.3794C94.9793 99.9466 94.8909 109.333 94.6445 110.017C94.3981 110.7 86.048 106.088 85.4622 104.866C84.8764 103.643 84.5324 94.7441 85.267 94.3024C85.7691 94.0002 93.6868 98.5704 94.4493 99.3794Z" fill="black"/>
<path d="M97.3029 97.0177C96.7171 96.6876 95.0991 97.7057 94.4203 98.3799C93.7415 99.054 93.1557 102.034 91.3193 102.629C89.4828 103.224 86.67 100.937 85.9912 99.3748C85.3124 97.8127 84.4291 94.5396 85.252 93.2843C86.0749 92.029 87.6138 91.2712 88.9714 91.8895C90.329 92.5079 97.0425 95.5671 97.3029 97.0177Z" fill="#BA68C8"/>
<path opacity="0.1" d="M97.3029 97.0177C96.7171 96.6876 95.0991 97.7057 94.4203 98.3799C93.7415 99.054 93.1557 102.034 91.3193 102.629C89.4828 103.224 86.67 100.937 85.9912 99.3748C85.3124 97.8127 84.4291 94.5396 85.252 93.2843C86.0749 92.029 87.6138 91.2712 88.9714 91.8895C90.329 92.5079 97.0425 95.5671 97.3029 97.0177Z" fill="black"/>
<path d="M88.962 98.9048C89.1883 99.0242 89.3775 99.2036 89.5087 99.4234C89.6399 99.6432 89.7081 99.8948 89.7058 100.151C89.716 100.252 89.6985 100.354 89.6552 100.446C89.6119 100.538 89.5444 100.617 89.46 100.674C89.3755 100.73 89.2773 100.763 89.1756 100.769C89.074 100.774 88.9729 100.752 88.8829 100.704C88.6541 100.588 88.4629 100.409 88.3313 100.188C88.1996 99.9679 88.133 99.7147 88.139 99.458C88.1623 98.9559 88.5296 98.7048 88.962 98.9048Z" fill="#37474F"/>
<path d="M98.1492 78.8438C98.1492 78.8438 96.8428 75.0547 91.9796 72.6789C87.1165 70.3031 87.0375 71.1679 85.7264 73.8877C84.5455 76.3332 84.6245 85.1389 84.6199 85.9758C84.6152 86.8126 83.611 86.7383 83.3785 81.3684C83.146 75.9985 83.5459 70.8052 88.3253 67.2764C94.7692 62.5202 104.998 58.9961 109.982 59.7167C114.966 60.4374 119.554 62.5993 119.564 67.7507C119.564 67.7507 113.794 76.7191 98.1492 78.8438Z" fill="#BA68C8"/>
<path opacity="0.1" d="M98.1492 78.8438C98.1492 78.8438 96.8428 75.0547 91.9796 72.6789C87.1165 70.3031 87.0375 71.1679 85.7264 73.8877C84.5455 76.3332 84.6245 85.1389 84.6199 85.9758C84.6152 86.8126 83.611 86.7383 83.3785 81.3684C83.146 75.9985 83.5459 70.8052 88.3253 67.2764C94.7692 62.5202 104.998 58.9961 109.982 59.7167C114.966 60.4374 119.554 62.5993 119.564 67.7507C119.564 67.7507 113.794 76.7191 98.1492 78.8438Z" fill="black"/>
<path d="M111.293 66.207C111.293 66.207 113.195 67.1694 113.367 68.3317C113.539 69.4941 114.297 72.279 113.864 73.0786C113.432 73.8783 111.963 74.0689 111.74 73.5436C111.517 73.0182 111.103 69.6614 110.731 68.8106C110.359 67.9598 108.871 66.9509 108.871 66.9509L111.293 66.207Z" fill="#BA68C8"/>
<path d="M100.252 69.5586C100.252 69.5586 102.112 70.3769 102.302 71.5438C102.493 72.7108 103.232 75.3748 102.818 76.1931C102.404 77.0114 100.917 77.188 100.689 76.658C100.461 76.128 100.052 72.7805 99.68 71.9297C99.3081 71.0789 97.8203 70.2653 97.8203 70.2653L100.252 69.5586Z" fill="#BA68C8"/>
<g opacity="0.3">
<path opacity="0.3" d="M111.293 66.207C111.293 66.207 113.195 67.1694 113.367 68.3317C113.539 69.4941 114.297 72.279 113.864 73.0786C113.432 73.8783 111.963 74.0689 111.74 73.5436C111.517 73.0182 111.103 69.6614 110.731 68.8106C110.359 67.9598 108.871 66.9509 108.871 66.9509L111.293 66.207Z" fill="white"/>
<path opacity="0.3" d="M100.252 69.5596C100.252 69.5596 102.112 70.3778 102.302 71.5448C102.493 72.7118 103.232 75.3758 102.818 76.1941C102.404 77.0123 100.917 77.189 100.689 76.659C100.461 76.129 100.052 72.7815 99.68 71.9307C99.3081 71.0799 97.8203 70.2663 97.8203 70.2663L100.252 69.5596Z" fill="white"/>
</g>
<path d="M113.004 49.9716C114.059 49.6136 115.328 49.9716 116.626 51.0782C119.173 53.3238 120.694 57.8428 120.024 61.1764C119.671 62.9198 118.783 63.9659 117.648 64.2867L88.4279 73.1203L83.5508 58.8796L91.7753 57.6197L94.7973 56.634L104.951 53.4167L106.346 52.9146L113.004 49.9716Z" fill="#455A64"/>
<path d="M87.2749 59.9401C89.8227 62.1857 91.343 66.7047 90.6735 70.0336C90.004 73.3625 87.3958 74.2179 84.848 71.9956C82.3002 69.7733 80.7752 65.2309 81.4447 61.9021C82.1142 58.5732 84.7271 57.6945 87.2749 59.9401Z" fill="#37474F"/>
<path d="M105.792 53.1104C105.792 53.1104 111.934 56.6903 111.292 66.2073L108.884 66.9559C108.884 66.9559 109.595 57.7922 102.84 54.1006L105.792 53.1104Z" fill="#BA68C8"/>
<path d="M94.7974 56.6289C94.7974 56.6289 100.948 60.0089 100.311 69.526L97.8938 70.2559C97.8938 70.2559 98.5168 61.3061 91.7754 57.6146L94.7974 56.6289Z" fill="#BA68C8"/>
<g opacity="0.15">
<path opacity="0.15" d="M110.578 59.7256C111.232 61.8196 111.476 64.0201 111.298 66.2067L108.885 66.9552C108.978 64.8217 108.692 62.6887 108.039 60.6554L110.578 59.7256Z" fill="black"/>
<path opacity="0.15" d="M99.7489 63.6035C100.276 65.5307 100.467 67.5346 100.311 69.5267L97.8938 70.2566C97.9621 68.3218 97.7075 66.3892 97.1406 64.538L99.7489 63.6035Z" fill="black"/>
</g>
<path d="M83.4252 63.2362C84.4016 62.6085 85.4476 63.4547 85.9265 64.2915C86.2884 65.0186 86.4489 65.8293 86.3914 66.6394C86.4239 66.98 86.3561 67.3226 86.1962 67.6251C86.0195 67.8808 85.7312 67.997 85.4988 67.7366C85.4104 67.6344 85.4988 67.3182 85.6615 67.3554C85.8242 67.3926 85.7684 67.4344 85.8056 67.3786C85.8428 67.3229 85.8335 67.1415 85.8382 67.0625C85.8296 66.7495 85.7906 66.4381 85.7219 66.1326C85.6636 65.6465 85.5204 65.1745 85.2989 64.7379C85.0915 64.3512 84.7931 64.0209 84.4295 63.7755C84.1133 63.5848 83.6391 63.5058 83.5275 63.9428C83.3462 64.6402 83.7553 65.584 83.9924 66.2349C84.2866 67.2081 84.7596 68.1178 85.3872 68.9176C85.7452 69.3499 86.7448 70.3123 87.3724 69.9171C88.0001 69.522 87.9489 68.341 87.9536 67.7785C87.9577 66.8563 87.8003 65.9405 87.4887 65.0726C87.1884 64.0593 86.6977 63.1125 86.0427 62.2831C85.7706 61.9757 85.4228 61.7449 85.0339 61.6136C84.7224 61.5066 83.9924 61.2742 83.8715 61.7205C83.839 61.8274 83.6251 62.0366 83.5228 61.8786C83.1602 61.33 83.6949 60.8604 84.2388 60.7256C84.6613 60.635 85.0988 60.6415 85.5184 60.7445C85.938 60.8476 86.3287 61.0446 86.6611 61.3207C87.6374 62.0878 88.1861 63.4872 88.6138 64.617C89.0841 65.8281 89.2779 67.1291 89.181 68.4247C89.0927 69.4336 88.7672 70.7029 87.6235 70.9586C86.4007 71.2329 85.1222 70.3356 84.4341 69.3918C83.68 68.2818 83.1727 67.023 82.9463 65.7003C82.7464 64.9006 82.6209 63.7243 83.4252 63.2362Z" fill="#263238"/>
<path d="M133.135 100.556L113.989 101.248L113.464 132.589C113.464 132.589 108.35 136.308 105.095 140.995C102.715 144.384 94.9552 158.709 93.579 160.871L90.9987 164.915C90.7476 165.636 90.8917 167.189 92.6027 168.058C94.3136 168.928 96.2709 168.393 96.6382 167.756C96.6382 167.756 96.9869 166.947 99.9345 164.144C102.882 161.34 124.111 141.176 125.25 139.795C126.947 137.731 127.951 135.853 129.992 128.595C132.503 119.594 133.358 104.484 133.135 100.556Z" fill="#FFA8A7"/>
<path d="M133.419 99.7891C133.419 99.7891 133.419 106.033 132.555 115.945C131.69 125.857 130.886 133.027 126.976 138.429C123.066 143.832 117.114 149.545 115.227 151.252C112.775 150.478 110.517 149.187 108.606 147.466C106.696 145.744 105.177 143.633 104.152 141.274L109.792 133.259L106.812 103.323L133.419 99.7891Z" fill="#455A64"/>
<path d="M109.326 134.012C109.326 134.012 111.516 141.032 111.832 142.204C112.148 143.375 114.622 151.265 114.622 151.265C114.622 151.265 114.863 140.693 114.394 138.773C113.924 136.852 109.326 134.012 109.326 134.012Z" fill="#37474F"/>
<path d="M132.843 103.1C132.843 103.1 133.117 108.065 130.393 111.789C127.668 115.513 125.627 116.582 125.627 116.582L127.975 133.087L123.363 116.039L132.843 103.1Z" fill="#37474F"/>
<path d="M87.9773 167.728C87.6007 167.612 86.8196 168.863 86.7359 169.304C86.6522 169.746 86.9219 170.774 87.3496 171.764C87.889 172.952 88.2298 174.222 88.3585 175.52C88.4899 177.331 88.9532 179.103 89.7254 180.746C90.725 182.815 93.5936 186.418 98.7171 185.521C101.823 184.972 102.158 183.661 102.037 182.931L87.9773 167.728Z" fill="#455A64"/>
<path d="M97.7217 167.124C97.3033 168.677 96.6942 172.959 99.0746 176.218C100.679 178.413 101.627 180.64 101.311 182.727C100.981 184.894 93.0167 182.927 91.8357 181.49C90.6434 180.022 89.8563 178.267 89.553 176.399C89.2182 174.763 89.3484 173.633 88.9579 172.429C88.5394 171.127 87.5631 169.57 87.763 168.338C87.8606 167.659 88.7533 166.524 89.5855 165.608C90.348 164.767 90.9803 163.911 91.4917 164.111L91.1756 164.614C91.6279 165.165 92.1941 165.612 92.8353 165.925C93.1003 166.078 93.1329 167.189 93.4583 167.259C93.7838 167.329 93.6955 166.427 94.2859 166.213C96.2107 165.52 97.7217 167.124 97.7217 167.124Z" fill="#BA68C8"/>
<path opacity="0.4" d="M97.5596 167.129C97.1412 168.677 96.5321 172.964 98.9125 176.223C100.517 178.417 101.465 180.644 101.149 182.732C100.819 184.898 92.8545 182.932 91.6736 181.495C90.4776 180.02 89.6903 178.256 89.3908 176.381C89.0561 174.744 89.1863 173.591 88.7957 172.406C88.3773 171.104 87.401 169.551 87.6009 168.314C87.6985 167.64 88.5912 166.506 89.4234 165.59C90.1859 164.748 90.8182 163.893 91.3296 164.093L91.0134 164.59C91.4644 165.144 92.0308 165.593 92.6732 165.906C92.9382 166.055 92.9708 167.171 93.2962 167.236C93.6217 167.301 93.5333 166.408 94.1238 166.19C96.0253 165.52 97.5596 167.129 97.5596 167.129Z" fill="black"/>
<path d="M91.8359 181.486C91.8359 181.486 93.2679 178.301 96.6805 177.682C100.093 177.064 100.986 178.394 101.362 178.859C101.739 179.324 103.445 182.039 101.316 183.778C101.316 183.778 95.9087 186.232 91.8359 181.486Z" fill="#FAFAFA"/>
<path d="M132.113 181.509C132.113 181.509 129.788 154.803 128.719 143.292C126.59 129.981 122.335 116.466 122.335 116.466C122.335 116.466 125.213 114.862 127.882 111.031C131.76 105.451 131.671 100.77 131.671 100.77L129.43 100.616L105.18 101.607C105.254 105.614 105.105 111.24 105.645 116.433C106.77 127.08 117.11 145.923 117.11 145.923C117.012 147.392 115.952 153.622 117.454 159.067C119.82 167.654 125.037 178.431 126.013 183.122L126.985 187.051L133.029 185.563L132.099 181.509H132.113Z" fill="#FFA8A7"/>
<path d="M104.613 100.458C104.218 104.949 103.906 108.655 103.967 111.951C104.027 115.247 104.966 119.757 106.486 124.318C108.007 128.879 112.419 139.893 112.995 141.497C113.572 143.101 114.971 153.669 114.971 153.669C114.971 153.669 124.456 155.756 130.807 151.572C130.807 151.572 129.877 140.981 129.305 138.294C128.733 135.606 123.363 116.052 123.363 116.052C123.363 116.052 132.969 109.659 133.127 100.57L104.613 100.458Z" fill="#455A64"/>
<path d="M126.096 189.264C125.724 189.431 125.975 190.951 126.212 191.356C126.726 192.079 127.42 192.656 128.225 193.03C129.371 193.592 130.371 194.413 131.145 195.429C132.467 196.974 134.111 198.213 135.961 199.06C138.17 199.99 140.978 199.827 143.442 198.627C145.906 197.428 146.083 196.698 145.92 195.717L126.096 189.264Z" fill="#455A64"/>
<path d="M133.316 182.062C134.06 183.564 136.018 187.567 139.082 189.226C141.518 190.552 144.744 191.974 145.935 193.825C147.171 195.749 142.852 197.567 140.913 197.697C139.402 197.795 137.412 197.995 135.799 197.205C135.013 196.817 134.268 196.35 133.577 195.81C132.182 194.759 131.117 193.374 130.099 192.527C129.081 191.681 127.04 190.965 126.333 189.873C125.943 189.273 125.868 187.771 125.868 186.479C125.868 185.289 125.678 184.205 126.222 184.005L126.389 184.675C127.142 184.68 127.894 184.615 128.635 184.48C128.946 184.414 129.741 185.265 130.029 185.093C130.318 184.921 129.643 184.28 129.955 183.699C131.034 181.83 133.316 182.062 133.316 182.062Z" fill="#BA68C8"/>
<path opacity="0.4" d="M133.316 182.062C134.06 183.564 136.018 187.567 139.082 189.226C141.518 190.552 144.744 191.974 145.935 193.825C147.171 195.749 142.852 197.567 140.913 197.697C139.402 197.795 137.412 197.995 135.799 197.205C135.013 196.817 134.268 196.35 133.577 195.81C132.182 194.759 131.117 193.374 130.099 192.527C129.081 191.681 127.04 190.965 126.333 189.873C125.943 189.273 125.868 187.771 125.868 186.479C125.868 185.289 125.678 184.205 126.222 184.005L126.389 184.675C127.142 184.68 127.894 184.615 128.635 184.48C128.946 184.414 129.741 185.265 130.029 185.093C130.318 184.921 129.643 184.28 129.955 183.699C131.034 181.83 133.316 182.062 133.316 182.062Z" fill="black"/>
<path d="M135.812 197.205C135.812 197.205 136.031 193.337 139.141 191.477C142.252 189.618 143.595 190.896 144.139 191.208C144.683 191.519 147.357 193.23 145.92 195.717C145.911 195.741 141.954 199.99 135.812 197.205Z" fill="#FAFAFA"/>
<path d="M133.294 72.8928C132.708 68.6434 130.072 63.8268 123.489 63.5664L114.99 63.9709C112.898 64.5149 107.203 65.9096 105.017 66.6768L104.608 83.9162C104.608 83.9162 104.088 97.2038 104.25 104.322C110.336 108.181 125.172 108.948 133.485 102.639C133.731 96.7621 133.875 77.1004 133.294 72.8928Z" fill="#BA68C8"/>
<path opacity="0.4" d="M133.294 72.8928C132.708 68.6434 130.072 63.8268 123.489 63.5664L114.99 63.9709C112.898 64.5149 107.203 65.9096 105.017 66.6768L104.608 83.9162C104.608 83.9162 104.088 97.2038 104.25 104.322C110.336 108.181 125.172 108.948 133.485 102.639C133.731 96.7621 133.875 77.1004 133.294 72.8928Z" fill="black"/>
<path d="M132.786 45.2485C132.725 43.0515 131.821 40.9621 130.262 39.4136C128.702 37.8651 126.606 36.9763 124.409 36.9315C122.212 36.8866 120.081 37.6892 118.46 39.1728C116.838 40.6564 115.85 42.7071 115.7 44.8998L111.767 42.2079C111.307 42.168 110.844 42.2341 110.413 42.4009C109.983 42.5677 109.597 42.8309 109.284 43.1703C108.238 44.3093 108.954 47.7451 110.409 51.074C110.409 51.074 111.92 57.1924 112.478 58.1874C112.848 58.8015 113.441 59.2494 114.133 59.438L113.933 55.7186L129.452 54.3238L127.895 53.2545C129.401 52.5416 130.667 51.4041 131.536 49.9818C132.405 48.5595 132.839 46.9143 132.786 45.2485Z" fill="#263238"/>
<path d="M113.626 51.2696C113.161 51.5811 112.403 50.6512 111.767 50.0329C111.13 49.4145 109.116 48.6056 108.187 50.7349C107.257 52.8643 109.228 55.6632 110.813 56.1048C113.547 56.8673 113.896 55.1192 113.896 55.1192L114.421 64.8826C116.839 67.4118 124.794 66.5285 123.218 64.3387L123.129 61.3771C123.129 61.3771 125.593 61.67 126.784 61.4468C128.764 61.0749 129.964 59.4616 130.503 57.2904C131.359 53.7988 131.637 50.9906 130.596 44.212C129.452 36.7732 120.772 36.9917 116.183 40.0881C111.594 43.1845 113.626 51.2696 113.626 51.2696Z" fill="#FFA8A7"/>
<path d="M132.349 37.2005C131.69 36.8961 130.948 36.824 130.243 36.996C130.281 36.4633 130.149 35.9323 129.868 35.4784C129.587 35.0244 129.17 34.6705 128.676 34.4668C128.155 34.2221 127.574 34.1357 127.005 34.2184C126.435 34.301 125.903 34.5491 125.473 34.9317C125.668 34.1739 124.966 33.416 124.194 33.258C123.409 33.1752 122.617 33.3205 121.912 33.6764C120.828 34.1134 119.764 34.6063 118.657 34.9875C116.718 35.6709 114.645 36.0801 112.897 37.1726C112.473 37.4145 112.102 37.7404 111.809 38.1304C111.442 38.7085 111.278 39.3923 111.344 40.0738C111.361 40.298 111.396 40.5204 111.451 40.7386C111.316 40.5961 111.159 40.4767 110.986 40.3853C110.785 40.2875 110.567 40.2313 110.344 40.2199C110.121 40.2085 109.898 40.2422 109.688 40.3191C109.478 40.3959 109.286 40.5143 109.123 40.667C108.961 40.8198 108.83 41.0039 108.74 41.2082L111.711 42.682C111.651 43.2771 111.586 43.8676 111.534 44.4627C111.404 46.0388 111.135 47.8706 111.534 49.4235C111.557 49.6108 111.626 49.7896 111.734 49.9442C111.892 50.0995 112.031 50.2727 112.148 50.4602L112.674 51.3901C112.911 51.8132 113.283 52.3199 113.836 52.2409C114.143 52.2037 114.301 51.776 114.366 51.5249C115.105 48.7354 115.082 45.797 116.012 43.0772C116.032 42.9964 116.074 42.9225 116.133 42.8633C116.247 42.7987 116.382 42.782 116.509 42.8169C117.904 43.0447 119.345 43.2818 120.768 43.4445C123.999 43.8257 127.463 43.8536 130.28 42.2217C131.377 41.5848 133.219 40.2737 133.391 38.9022C133.401 38.548 133.308 38.1984 133.123 37.8962C132.938 37.594 132.669 37.3522 132.349 37.2005Z" fill="#263238"/>
<path d="M123.131 61.3768C123.131 61.3768 118.658 60.6236 117.087 59.8518C116.157 59.406 115.384 58.6897 114.869 57.7969C115.134 58.697 115.577 59.5349 116.171 60.261C117.352 61.679 123.173 62.5577 123.173 62.5577L123.131 61.3768Z" fill="#F28F8F"/>
<path d="M121.69 50.3066C121.689 50.4624 121.642 50.6145 121.555 50.744C121.468 50.8734 121.345 50.9745 121.202 51.0347C121.058 51.0949 120.9 51.1116 120.747 51.0826C120.594 51.0535 120.452 50.9802 120.341 50.8716C120.229 50.763 120.151 50.6239 120.118 50.4717C120.085 50.3195 120.097 50.1608 120.153 50.0154C120.209 49.87 120.306 49.7443 120.433 49.6539C120.56 49.5635 120.711 49.5124 120.867 49.5069C121.082 49.5044 121.289 49.5871 121.443 49.737C121.597 49.8868 121.686 50.0916 121.69 50.3066Z" fill="#263238"/>
<path d="M120.539 46.7782L118.601 47.7638C118.474 47.4983 118.456 47.1942 118.548 46.9152C118.641 46.6362 118.838 46.4038 119.098 46.2667C119.226 46.2027 119.365 46.1652 119.508 46.1563C119.65 46.1475 119.793 46.1676 119.928 46.2153C120.062 46.2631 120.186 46.3376 120.291 46.4343C120.396 46.531 120.481 46.648 120.539 46.7782Z" fill="#263238"/>
<path d="M122.591 56.2861L124.65 56.9835C124.611 57.1212 124.543 57.2495 124.453 57.3607C124.363 57.4719 124.251 57.5636 124.124 57.6305C123.997 57.6973 123.858 57.7379 123.715 57.7498C123.572 57.7616 123.429 57.7445 123.293 57.6995C123.015 57.6011 122.787 57.3987 122.656 57.1349C122.525 56.8711 122.501 56.5668 122.591 56.2861Z" fill="#F28F8F"/>
<path d="M130.202 47.6013L128.463 46.3739C128.54 46.2597 128.64 46.1622 128.755 46.0872C128.871 46.0122 129 45.9612 129.136 45.9374C129.272 45.9135 129.411 45.9172 129.546 45.9483C129.68 45.9793 129.807 46.0371 129.918 46.1182C130.149 46.2799 130.308 46.5252 130.361 46.8022C130.414 47.0791 130.357 47.3658 130.202 47.6013Z" fill="#263238"/>
<path d="M117.085 47.8936L110.111 49.3488C110.503 49.3525 110.888 49.4463 111.237 49.6229C111.586 49.7995 111.89 50.0541 112.124 50.367L117.057 49.4371L117.085 47.8936Z" fill="#263238"/>
<path d="M129.756 50.1627C129.754 50.3184 129.707 50.47 129.619 50.5988C129.532 50.7277 129.409 50.8281 129.265 50.8876C129.121 50.9471 128.963 50.9631 128.81 50.9335C128.657 50.904 128.517 50.8303 128.405 50.7215C128.294 50.6127 128.217 50.4737 128.184 50.3216C128.151 50.1695 128.163 50.011 128.22 49.8659C128.276 49.7208 128.373 49.5953 128.5 49.5051C128.627 49.4149 128.778 49.3639 128.933 49.3584C129.149 49.3572 129.356 49.4409 129.51 49.5915C129.664 49.7421 129.752 49.9473 129.756 50.1627Z" fill="#263238"/>
<path d="M133.159 47.5919L132.694 47.5408C131.22 47.4106 129.296 47.3966 128.129 47.7779C126.664 48.2428 126.139 48.7682 125.339 48.7868C124.539 48.8054 123.944 48.3218 122.396 47.8569C121.159 47.5268 119.1 47.6105 117.519 47.8011L117.031 47.8662C116.858 47.9228 116.71 48.0355 116.609 48.1863C116.507 48.3371 116.46 48.5174 116.473 48.6984C116.532 49.0478 116.694 49.3716 116.938 49.6283C117.011 49.7447 117.062 49.8741 117.087 50.0095C117.245 50.6744 117.324 51.9436 117.635 52.6457C117.781 52.9893 117.988 53.3042 118.244 53.5755C118.341 53.6757 118.445 53.7689 118.556 53.8545L118.737 53.9753C118.909 54.0799 119.091 54.1657 119.281 54.2311L119.374 54.2589L119.518 54.3008L119.667 54.3333C119.82 54.3686 119.975 54.3919 120.132 54.4031C120.197 54.4031 120.267 54.4031 120.336 54.4031H120.597C122.601 54.3752 123.456 53.3849 123.972 52.3713C124.488 51.3578 124.386 49.9444 125.306 49.9305H125.395C125.423 49.9261 125.451 49.9261 125.478 49.9305C126.157 50.0793 126.05 51.3811 126.459 52.3109C126.619 52.6777 126.834 53.0179 127.096 53.3198C127.149 53.3756 127.2 53.4267 127.25 53.4732L127.334 53.5476L127.417 53.6173L127.496 53.6778L127.585 53.7382L127.65 53.7801L127.696 53.808C127.942 53.9521 128.209 54.0572 128.487 54.1195H128.561C128.882 54.1877 129.21 54.2158 129.537 54.2032C130.151 54.2271 130.758 54.0578 131.271 53.7192C131.783 53.3806 132.177 52.8897 132.397 52.3156C132.717 51.5996 132.862 50.3257 133.02 49.6562C133.051 49.5264 133.111 49.4055 133.196 49.3028C133.435 49.0255 133.589 48.6847 133.638 48.3218C133.675 48.001 133.41 47.6198 133.159 47.5919ZM123.479 51.5112C123.361 52.0296 123.113 52.5095 122.759 52.906C122.472 53.1922 122.129 53.4147 121.751 53.5589C121.373 53.7031 120.968 53.7658 120.564 53.7429C120.162 53.7743 119.758 53.7004 119.393 53.5284C119.028 53.3563 118.713 53.0922 118.481 52.7619L118.416 52.6643L118.36 52.5666L118.309 52.4736L118.267 52.3899L118.235 52.3202C118.233 52.3017 118.233 52.283 118.235 52.2644L118.193 52.1621C118.156 52.0662 118.123 51.9684 118.095 51.8692C118.095 51.8088 118.063 51.7483 118.049 51.6926C118.035 51.6368 118.002 51.4926 117.984 51.4089C117.982 51.3919 117.982 51.3748 117.984 51.3578V51.3067C117.844 50.6046 117.686 49.2331 118.035 48.9169C118.384 48.6008 119.3 48.2567 120.792 48.3776H120.95C121.178 48.4016 121.405 48.4372 121.629 48.4846L121.889 48.545C122.113 48.6015 122.334 48.6714 122.549 48.7542L122.754 48.8379C122.827 48.8683 122.898 48.9024 122.968 48.9402C122.983 48.9377 122.999 48.9377 123.014 48.9402L123.093 48.982C123.264 49.0686 123.414 49.1926 123.53 49.3447C123.768 49.8189 123.661 50.7302 123.479 51.5112ZM132.183 51.0463C132.057 51.5949 131.788 52.7805 130.732 53.3151C130.385 53.4866 130.004 53.5787 129.616 53.5848C129.191 53.6365 128.76 53.5696 128.37 53.3916C127.98 53.2135 127.647 52.9313 127.408 52.5759L127.366 52.5108L127.324 52.4364L127.301 52.3992L127.245 52.2877L127.189 52.1575L127.162 52.097V52.0598C127.163 52.0429 127.163 52.0257 127.162 52.0087V51.9669C127.104 51.797 127.061 51.6229 127.031 51.4461C126.892 50.6697 126.827 49.7631 127.115 49.3261C127.403 48.889 128.51 48.3962 129.574 48.2475C129.801 48.2135 130.029 48.1917 130.258 48.1824H130.751H130.862H131.048C131.164 48.1949 131.279 48.2136 131.392 48.2382H131.471H131.495H131.55L131.629 48.2614L131.727 48.2939C131.783 48.312 131.837 48.3337 131.89 48.359H131.918C132.051 48.415 132.174 48.4936 132.28 48.5915C132.545 48.9681 132.341 50.3536 132.183 51.0556V51.0463Z" fill="#263238"/>
<path d="M123.479 51.5109C123.361 52.0293 123.113 52.5092 122.759 52.9057C122.472 53.1919 122.129 53.4144 121.751 53.5586C121.373 53.7028 120.968 53.7655 120.564 53.7426C120.162 53.774 119.758 53.7001 119.393 53.528C119.028 53.356 118.713 53.0919 118.481 52.7616L118.416 52.6639L118.36 52.5663L118.309 52.4733L118.267 52.3896L118.235 52.3199C118.233 52.3013 118.233 52.2827 118.235 52.2641L118.193 52.1618C118.156 52.0659 118.123 51.9681 118.095 51.8689C118.095 51.8085 118.063 51.748 118.049 51.6922C118.035 51.6365 118.002 51.4923 117.984 51.4086C117.982 51.3916 117.982 51.3745 117.984 51.3575V51.3064C117.844 50.6043 117.686 49.2328 118.035 48.9166C118.384 48.6005 119.3 48.2564 120.792 48.3773H120.95C121.178 48.4012 121.405 48.4369 121.629 48.4843L121.889 48.5447C122.113 48.6012 122.334 48.6711 122.549 48.7539L122.754 48.8376C122.827 48.868 122.898 48.9021 122.968 48.9399C122.983 48.9374 122.999 48.9374 123.014 48.9399L123.093 48.9817C123.264 49.0683 123.414 49.1923 123.53 49.3444C123.768 49.8186 123.661 50.7299 123.479 51.5109Z" fill="#BA68C8"/>
<path opacity="0.4" d="M123.479 51.5109C123.361 52.0293 123.113 52.5092 122.759 52.9057C122.472 53.1919 122.129 53.4144 121.751 53.5586C121.373 53.7028 120.968 53.7655 120.564 53.7426C120.162 53.774 119.758 53.7001 119.393 53.528C119.028 53.356 118.713 53.0919 118.481 52.7616L118.416 52.6639L118.36 52.5663L118.309 52.4733L118.267 52.3896L118.235 52.3199C118.233 52.3013 118.233 52.2827 118.235 52.2641L118.193 52.1618C118.156 52.0659 118.123 51.9681 118.095 51.8689C118.095 51.8085 118.063 51.748 118.049 51.6922C118.035 51.6365 118.002 51.4923 117.984 51.4086C117.982 51.3916 117.982 51.3745 117.984 51.3575V51.3064C117.844 50.6043 117.686 49.2328 118.035 48.9166C118.384 48.6005 119.3 48.2564 120.792 48.3773H120.95C121.178 48.4012 121.405 48.4369 121.629 48.4843L121.889 48.5447C122.113 48.6012 122.334 48.6711 122.549 48.7539L122.754 48.8376C122.827 48.868 122.898 48.9021 122.968 48.9399C122.983 48.9374 122.999 48.9374 123.014 48.9399L123.093 48.9817C123.264 49.0683 123.414 49.1923 123.53 49.3444C123.768 49.8186 123.661 50.7299 123.479 51.5109Z" fill="black"/>
<path d="M132.182 51.0554C132.057 51.604 131.787 52.7895 130.732 53.3242C130.384 53.4957 130.003 53.5878 129.616 53.5938C129.19 53.6455 128.759 53.5787 128.369 53.4006C127.98 53.2226 127.647 52.9403 127.407 52.585L127.365 52.5199L127.324 52.4455L127.3 52.4083L127.245 52.2967L127.189 52.1665L127.161 52.1061V52.0689C127.163 52.0519 127.163 52.0347 127.161 52.0178V51.9759C127.104 51.806 127.06 51.6319 127.031 51.4552C126.891 50.6788 126.826 49.7722 127.114 49.3351C127.403 48.8981 128.509 48.4053 129.574 48.2565C129.8 48.2225 130.028 48.2008 130.257 48.1914H130.75H130.862H131.048C131.163 48.204 131.278 48.2226 131.392 48.2472H131.471H131.494H131.55L131.629 48.2704L131.726 48.303C131.782 48.321 131.836 48.3428 131.889 48.3681H131.917C132.051 48.424 132.173 48.5027 132.28 48.6005C132.545 48.9678 132.34 50.3533 132.182 51.0554Z" fill="#BA68C8"/>
<path opacity="0.4" d="M132.182 51.0554C132.057 51.604 131.787 52.7895 130.732 53.3242C130.384 53.4957 130.003 53.5878 129.616 53.5938C129.19 53.6455 128.759 53.5787 128.369 53.4006C127.98 53.2226 127.647 52.9403 127.407 52.585L127.365 52.5199L127.324 52.4455L127.3 52.4083L127.245 52.2967L127.189 52.1665L127.161 52.1061V52.0689C127.163 52.0519 127.163 52.0347 127.161 52.0178V51.9759C127.104 51.806 127.06 51.6319 127.031 51.4552C126.891 50.6788 126.826 49.7722 127.114 49.3351C127.403 48.8981 128.509 48.4053 129.574 48.2565C129.8 48.2225 130.028 48.2008 130.257 48.1914H130.75H130.862H131.048C131.163 48.204 131.278 48.2226 131.392 48.2472H131.471H131.494H131.55L131.629 48.2704L131.726 48.303C131.782 48.321 131.836 48.3428 131.889 48.3681H131.917C132.051 48.424 132.173 48.5027 132.28 48.6005C132.545 48.9678 132.34 50.3533 132.182 51.0554Z" fill="black"/>
<path d="M124.961 50.2559L125.221 55.6537L128.392 54.8586L124.961 50.2559Z" fill="#F28F8F"/>
<path d="M105.021 119.2C105.021 119.2 112.102 119.521 116.073 118.786C116.073 118.786 120.211 133.459 120.429 135.161C120.648 136.862 113.525 136.983 112.084 136.788C110.642 136.593 109.531 136.393 108.429 132.65C107.328 128.908 105.5 122.896 105.021 119.2Z" fill="#37474F"/>
<path d="M107.221 66.0264C103.139 66.7331 101.67 67.6722 100.428 71.9681C99.0985 76.5802 95.3791 89.5237 94.519 94.1405C93.9936 96.9812 93.1753 98.7897 95.5837 100.649C98.6661 103.044 107.695 109.669 113.144 112.524C118.593 115.378 127.194 115.429 127.194 115.429L121.224 111.817L120.969 109.632L104.194 95.6561L110.601 76.7941C110.601 76.7941 112.972 67.8489 107.221 66.0264Z" fill="#FFA8A7"/>
<path d="M115.774 106.995V107.553C115.767 107.832 115.833 108.107 115.966 108.352C116.099 108.597 116.294 108.803 116.532 108.948L131.409 117.963C131.647 118.107 131.918 118.185 132.195 118.191C132.473 118.197 132.747 118.129 132.99 117.995L161.011 102.653C161.256 102.52 161.461 102.325 161.606 102.088C161.75 101.85 161.829 101.578 161.834 101.3V100.914L132.209 117.159L115.774 106.995Z" fill="#BA68C8"/>
<g opacity="0.5">
<path opacity="0.5" d="M115.774 106.995V107.553C115.767 107.832 115.833 108.107 115.966 108.352C116.099 108.597 116.294 108.803 116.532 108.948L131.409 117.963C131.647 118.107 131.918 118.185 132.195 118.191C132.473 118.197 132.747 118.129 132.99 117.995L161.011 102.653C161.256 102.52 161.461 102.325 161.606 102.088C161.75 101.85 161.829 101.578 161.834 101.3V100.914L132.209 117.159L115.774 106.995Z" fill="white"/>
</g>
<g opacity="0.1">
<path opacity="0.1" d="M115.774 106.995V107.553C115.767 107.832 115.833 108.107 115.966 108.352C116.099 108.597 116.294 108.803 116.532 108.948L131.409 117.963C131.647 118.107 131.918 118.185 132.195 118.191C132.473 118.197 132.747 118.129 132.99 117.995L161.011 102.653C161.256 102.52 161.461 102.325 161.606 102.088C161.75 101.85 161.829 101.578 161.834 101.3V100.914L132.209 117.159L115.774 106.995Z" fill="black"/>
</g>
<path d="M161.849 100.895L145.651 91.0621C145.51 90.9805 145.349 90.9375 145.186 90.9375C145.023 90.9375 144.863 90.9805 144.721 91.0621L115.896 106.87C115.864 106.888 115.838 106.914 115.819 106.946C115.801 106.978 115.791 107.014 115.791 107.051C115.791 107.088 115.801 107.124 115.819 107.156C115.838 107.187 115.864 107.214 115.896 107.232L132.247 117.163L161.849 100.895Z" fill="#BA68C8"/>
<g opacity="0.85">
<path opacity="0.85" d="M161.849 100.895L145.651 91.0621C145.51 90.9805 145.349 90.9375 145.186 90.9375C145.023 90.9375 144.863 90.9805 144.721 91.0621L115.896 106.87C115.864 106.888 115.838 106.914 115.819 106.946C115.801 106.978 115.791 107.014 115.791 107.051C115.791 107.088 115.801 107.124 115.819 107.156C115.838 107.187 115.864 107.214 115.896 107.232L132.247 117.163L161.849 100.895Z" fill="white"/>
</g>
<path d="M132.364 115.592L123.623 110.291L149.571 96.0693L158.358 101.342L132.364 115.592Z" fill="#BA68C8"/>
<g opacity="0.6">
<path opacity="0.6" d="M132.364 115.592L123.623 110.291L149.571 96.0693L158.358 101.342L132.364 115.592Z" fill="white"/>
</g>
<path d="M128.068 101.445L128.231 101.542L132.513 104.141L140.324 99.8545L140.487 99.7708L136.042 97.0742L128.068 101.445Z" fill="#BA68C8"/>
<path d="M128.23 101.542L132.512 104.14L140.323 99.8538L136.037 97.2549L128.23 101.542Z" fill="#BA68C8"/>
<g opacity="0.6">
<path opacity="0.6" d="M128.23 101.542L132.512 104.14L140.323 99.8538L136.037 97.2549L128.23 101.542Z" fill="white"/>
</g>
<path d="M132.224 117.13L132.201 118.186C132.479 118.19 132.752 118.123 132.996 117.991L161.017 102.648C161.262 102.516 161.467 102.32 161.612 102.083C161.756 101.845 161.835 101.573 161.84 101.295V100.909L132.224 117.13Z" fill="#BA68C8"/>
<g opacity="0.03">
<path opacity="0.03" d="M132.224 117.13L132.201 118.186C132.479 118.19 132.752 118.123 132.996 117.991L161.017 102.648C161.262 102.516 161.467 102.32 161.612 102.083C161.756 101.845 161.835 101.573 161.84 101.295V100.909L132.224 117.13Z" fill="white"/>
</g>
<g opacity="0.2">
<path opacity="0.2" d="M132.224 117.13L132.201 118.186C132.479 118.19 132.752 118.123 132.996 117.991L161.017 102.648C161.262 102.516 161.467 102.32 161.612 102.083C161.756 101.845 161.835 101.573 161.84 101.295V100.909L132.224 117.13Z" fill="black"/>
</g>
<path d="M132.666 117.378C132.925 117.484 133.205 117.532 133.485 117.516C133.765 117.501 134.038 117.423 134.284 117.289L162.18 101.988C162.42 101.856 162.628 101.671 162.789 101.449C162.95 101.226 163.059 100.971 163.109 100.701L166.536 82.7638C166.554 82.6623 166.564 82.5598 166.568 82.4569C166.575 82.2093 166.532 81.9628 166.441 81.7321C166.351 81.5013 166.216 81.291 166.043 81.1133L137.05 97.0138C136.874 97.1095 136.72 97.2421 136.6 97.4026C136.48 97.5631 136.395 97.7476 136.353 97.9436L132.666 117.378Z" fill="#BA68C8"/>
<g opacity="0.4">
<path opacity="0.4" d="M132.666 117.378C132.925 117.484 133.205 117.532 133.485 117.516C133.765 117.501 134.038 117.423 134.284 117.289L162.18 101.988C162.42 101.856 162.628 101.671 162.789 101.449C162.95 101.226 163.059 100.971 163.109 100.701L166.536 82.7638C166.554 82.6623 166.564 82.5598 166.568 82.4569C166.575 82.2093 166.532 81.9628 166.441 81.7321C166.351 81.5013 166.216 81.291 166.043 81.1133L137.05 97.0138C136.874 97.1095 136.72 97.2421 136.6 97.4026C136.48 97.5631 136.395 97.7476 136.353 97.9436L132.666 117.378Z" fill="white"/>
</g>
<path d="M132.225 117.135L132.411 117.247C132.493 117.295 132.579 117.338 132.666 117.377L136.353 97.9804C136.396 97.7844 136.48 97.5999 136.6 97.4394C136.721 97.2789 136.874 97.1463 137.051 97.0506L166.043 81.1501C165.931 81.0348 165.805 80.9348 165.667 80.8525L136.614 96.7577C136.435 96.8564 136.281 96.9928 136.162 97.1575C136.042 97.3221 135.96 97.511 135.921 97.7108L132.225 117.135Z" fill="#BA68C8"/>
<g opacity="0.6">
<path opacity="0.6" d="M132.225 117.135L132.411 117.247C132.493 117.295 132.579 117.338 132.666 117.377L136.353 97.9804C136.396 97.7844 136.48 97.5999 136.6 97.4394C136.721 97.2789 136.874 97.1463 137.051 97.0506L166.043 81.1501C165.931 81.0348 165.805 80.9348 165.667 80.8525L136.614 96.7577C136.435 96.8564 136.281 96.9928 136.162 97.1575C136.042 97.3221 135.96 97.511 135.921 97.7108L132.225 117.135Z" fill="white"/>
</g>
<path d="M136.614 97.3947L136.177 97.125C136.042 97.2965 135.95 97.4972 135.907 97.7108L132.211 117.135L132.397 117.247C132.48 117.295 132.565 117.338 132.653 117.377L136.339 97.9805C136.383 97.766 136.477 97.5651 136.614 97.3947Z" fill="#BA68C8"/>
<path opacity="0.5" d="M136.614 97.3947L136.177 97.125C136.042 97.2965 135.95 97.4972 135.907 97.7108L132.211 117.135L132.397 117.247C132.48 117.295 132.565 117.338 132.653 117.377L136.339 97.9805C136.383 97.766 136.477 97.5651 136.614 97.3947Z" fill="white"/>
<path opacity="0.1" d="M136.614 97.3947L136.177 97.125C136.042 97.2965 135.95 97.4972 135.907 97.7108L132.211 117.135L132.397 117.247C132.48 117.295 132.565 117.338 132.653 117.377L136.339 97.9805C136.383 97.766 136.477 97.5651 136.614 97.3947Z" fill="black"/>
<path d="M148.547 101.114C148.775 99.9149 150.053 98.3248 151.401 97.6042C152.75 96.8835 153.656 97.2369 153.428 98.4364C153.201 99.6359 151.922 101.226 150.574 101.947C149.226 102.667 148.319 102.314 148.547 101.114Z" fill="#455A64"/>
<path d="M115.648 105.168C117.206 106.265 118.903 105.633 120.963 105.87C123.022 106.107 124.807 106.628 126.467 106.577C128.127 106.526 128.95 106.87 127.788 108.199C126.625 109.529 123.282 108.766 122.385 109.171C121.488 109.575 120.921 111.031 121.962 112.239C122.938 113.374 116.383 111.179 115.532 109.836C114.681 108.492 114.463 105.34 115.648 105.168Z" fill="#FFA8A7"/>
<path d="M156.403 47.0289L154.962 42.9283L156.12 39.5808V37.5352L152.572 39.5808V41.6312L154.097 45.6667C154.12 45.7069 154.156 45.738 154.2 45.7551L156.403 47.0289Z" fill="#BA68C8"/>
<path opacity="0.2" d="M156.403 47.0289L154.962 42.9283L156.12 39.5808V37.5352L152.572 39.5808V41.6312L154.097 45.6667C154.12 45.7069 154.156 45.738 154.2 45.7551L156.403 47.0289Z" fill="black"/>
<path d="M164.88 21.2438C164.862 20.8716 164.757 20.509 164.572 20.1857C164.386 19.8623 164.127 19.5876 163.815 19.3841L162.946 18.8819C162.617 18.7131 162.253 18.625 161.883 18.625C161.514 18.625 161.15 18.7131 160.821 18.8819L147.533 26.5858C147.22 26.7876 146.959 27.062 146.774 27.3856C146.589 27.7093 146.484 28.0728 146.469 28.4455V43.0674C146.486 43.4396 146.592 43.8022 146.777 44.1255C146.962 44.4488 147.221 44.7236 147.533 44.9271L148.398 45.4292C148.728 45.5967 149.093 45.6839 149.463 45.6839C149.833 45.6839 150.198 45.5967 150.528 45.4292L154.8 42.9605L156.325 46.9635C156.347 47.0004 156.379 47.0303 156.417 47.0498C156.456 47.0693 156.499 47.0776 156.541 47.0737C156.584 47.0698 156.625 47.0539 156.659 47.0278C156.693 47.0017 156.719 46.9665 156.734 46.9263L158.343 40.8823L163.815 37.7161C164.127 37.5126 164.386 37.2378 164.572 36.9145C164.757 36.5912 164.862 36.2285 164.88 35.8564V21.2438Z" fill="#BA68C8"/>
<path opacity="0.2" d="M146.469 43.0489C146.486 43.421 146.592 43.7837 146.777 44.107C146.962 44.4303 147.221 44.705 147.533 44.9086L148.398 45.4107C148.698 45.5622 149.027 45.6481 149.363 45.6625C149.699 45.6769 150.034 45.6196 150.346 45.4944C149.844 45.685 149.463 45.4014 149.463 44.797V30.1565C149.476 29.787 149.583 29.427 149.774 29.1104L146.78 27.3809C146.59 27.6977 146.483 28.0575 146.469 28.4269V43.0489Z" fill="black"/>
<path opacity="0.3" d="M164.843 20.9273C164.717 20.4624 164.308 20.3322 163.815 20.6158L150.528 28.315C150.211 28.508 149.953 28.7826 149.779 29.11L146.785 27.3805C146.962 27.0564 147.22 26.7839 147.534 26.5901L160.817 18.9002C161.147 18.7353 161.512 18.6494 161.881 18.6494C162.251 18.6494 162.615 18.7353 162.946 18.9002L163.815 19.4024C164.081 19.5733 164.31 19.7967 164.486 20.0589C164.663 20.3211 164.784 20.6166 164.843 20.9273Z" fill="white"/>
<path d="M162.499 31.6208H162.424L161.406 31.565C161.384 31.5657 161.361 31.5618 161.341 31.5537C161.32 31.5455 161.301 31.5333 161.285 31.5177C161.269 31.5021 161.256 31.4834 161.247 31.4628C161.239 31.4422 161.234 31.42 161.234 31.3977C161.234 31.2396 161.257 31.0769 161.257 30.9327C161.267 30.7639 161.267 30.5948 161.257 30.426C161.258 30.3168 161.298 30.2114 161.369 30.1284L162.503 28.7336C162.537 28.6957 162.561 28.65 162.573 28.6005C162.586 28.5511 162.586 28.4994 162.573 28.45L162.034 27.2598C162.034 27.2598 162.034 27.2273 162.001 27.2226C161.971 27.2127 161.938 27.2123 161.907 27.2214C161.877 27.2306 161.849 27.2488 161.829 27.2738L160.583 28.3663C160.55 28.4025 160.506 28.4264 160.458 28.434C160.41 28.4416 160.36 28.4325 160.318 28.4082C160.162 28.2798 159.986 28.1778 159.797 28.106C159.756 28.0905 159.722 28.0611 159.7 28.023C159.678 27.9848 159.669 27.9402 159.677 27.8968L160.053 26.1998C160.059 26.1763 160.057 26.1516 160.046 26.1296C160.036 26.1077 160.019 26.0898 159.997 26.0789C159.961 26.0661 159.922 26.0661 159.886 26.0789L158.7 26.1951C158.645 26.2006 158.592 26.2202 158.546 26.2519C158.501 26.2837 158.464 26.3265 158.44 26.3765L157.798 28.1013C157.741 28.2112 157.65 28.2994 157.538 28.3524C157.282 28.4732 157.036 28.6147 156.803 28.7755C156.706 28.8452 156.594 28.8499 156.552 28.7755L155.943 27.8456C155.901 27.7805 155.804 27.7945 155.725 27.8735L154.423 29.2683C154.386 29.306 154.358 29.3513 154.34 29.4011C154.322 29.4509 154.316 29.504 154.321 29.5566L154.683 30.784C154.692 30.8347 154.691 30.8866 154.68 30.9369C154.669 30.9872 154.648 31.0347 154.618 31.0769C154.399 31.4014 154.199 31.7382 154.018 32.0858C153.955 32.19 153.853 32.2652 153.735 32.295L152.624 32.5646C152.568 32.5774 152.516 32.603 152.471 32.6393C152.427 32.6756 152.392 32.7216 152.368 32.7738L151.81 34.6614C151.804 34.6823 151.803 34.7044 151.807 34.7257C151.812 34.7471 151.821 34.767 151.835 34.7839C151.848 34.8008 151.866 34.8142 151.886 34.8228C151.906 34.8314 151.928 34.8351 151.949 34.8335L152.968 34.8893C152.99 34.8886 153.012 34.8925 153.033 34.9006C153.054 34.9088 153.073 34.921 153.089 34.9366C153.105 34.9522 153.118 34.9709 153.127 34.9915C153.135 35.0121 153.14 35.0343 153.14 35.0566C153.11 35.3829 153.11 35.7113 153.14 36.0376C153.139 36.1468 153.099 36.2522 153.028 36.3352L151.894 37.73C151.86 37.7679 151.836 37.8136 151.824 37.8631C151.811 37.9125 151.812 37.9642 151.824 38.0136L152.363 39.2038C152.37 39.2203 152.382 39.2348 152.396 39.2456C152.409 39.2499 152.424 39.2499 152.438 39.2456C152.487 39.2419 152.533 39.2204 152.568 39.1852L153.781 38.074C153.815 38.0386 153.859 38.0152 153.907 38.0076C153.955 38 154.004 38.0087 154.046 38.0322C154.202 38.1592 154.376 38.2611 154.562 38.3344C154.604 38.3498 154.639 38.3789 154.662 38.417C154.685 38.455 154.694 38.4996 154.688 38.5436L154.311 40.2452C154.306 40.2675 154.309 40.2908 154.318 40.3117C154.327 40.3327 154.343 40.3501 154.362 40.3614C154.399 40.3738 154.438 40.3738 154.474 40.3614L155.66 40.2406C155.715 40.2351 155.768 40.2155 155.813 40.1838C155.859 40.152 155.896 40.1092 155.92 40.0592L156.566 38.339C156.62 38.2284 156.71 38.1397 156.822 38.088C156.947 38.0275 157.073 37.9624 157.199 37.888C157.322 37.8182 157.441 37.7421 157.557 37.6602C157.659 37.5951 157.77 37.5905 157.812 37.6602L158.421 38.5901C158.423 38.5967 158.427 38.6026 158.432 38.6075C158.437 38.6124 158.443 38.616 158.449 38.618C158.5 38.6505 158.575 38.618 158.64 38.5622L159.942 37.1674C159.979 37.1303 160.008 37.0849 160.025 37.0348C160.041 36.9848 160.047 36.9315 160.039 36.8791L159.677 35.6564C159.662 35.552 159.687 35.446 159.746 35.3588C159.968 35.0254 160.167 34.6775 160.341 34.3174C160.407 34.2148 160.508 34.1402 160.625 34.1082L161.741 33.8385C161.796 33.8257 161.848 33.8001 161.891 33.7638C161.935 33.7275 161.969 33.6814 161.992 33.6293L162.554 31.7417C162.557 31.7184 162.553 31.6949 162.543 31.6736C162.533 31.6523 162.518 31.6341 162.499 31.6208ZM156.552 36.2236H156.487H156.441H156.334H156.213H156.101C155.861 36.2267 155.625 36.1562 155.426 36.0216C155.226 35.887 155.073 35.6947 154.985 35.4704C154.897 35.275 154.842 35.0659 154.823 34.8521C154.813 34.736 154.813 34.6194 154.823 34.5034C154.894 33.2404 155.415 32.0447 156.292 31.1327C156.554 30.8487 156.857 30.6044 157.189 30.4074C157.286 30.3489 157.387 30.2977 157.491 30.2539C157.753 30.1308 158.039 30.0688 158.328 30.0726H158.463C158.669 30.1041 158.863 30.1888 159.026 30.3185C159.19 30.4482 159.316 30.6183 159.393 30.8119C159.9 31.923 159.319 33.8664 158.105 35.1496C157.699 35.6465 157.161 36.0188 156.552 36.2236Z" fill="white"/>
</svg>
