<svg width="105" height="21" viewBox="0 0 105 21" fill="none" xmlns="http://www.w3.org/2000/svg">
<path d="M54.1841 10.1168C53.3242 10.1168 52.705 10.396 52.0765 10.6802V17.1182C52.6792 17.1767 53.022 17.1767 53.5946 17.1767C55.658 17.1767 55.9403 16.2394 55.9403 14.9328V11.8572C55.9403 10.8922 55.6173 10.1168 54.1841 10.1168ZM40.4832 9.76522C39.0516 9.76522 38.7262 10.544 38.7262 11.5082V12.0494H42.2403V11.5082C42.2398 10.5436 41.9131 9.76522 40.4832 9.76522ZM13.9427 16.4669C13.9427 17.2288 14.3054 17.6254 15.1073 17.6254C15.9676 17.6254 16.4761 17.3478 17.1042 17.0615V15.5354H15.2234C14.3334 15.5359 13.9427 15.699 13.9427 16.4669ZM67.512 10.1168C66.0783 10.1168 65.5816 10.8922 65.5816 11.8564V15.3798C65.5816 16.3479 66.0783 17.1241 67.512 17.1241C68.9414 17.1241 69.4423 16.347 69.4423 15.3798V11.8564C69.4419 10.8922 68.9414 10.1168 67.512 10.1168ZM6.91617 20.4159H2.70281V10.3081H0.595703V6.82418H2.70281V4.73299C2.70281 1.8912 3.89197 0.201172 7.26877 0.201172H10.0819V3.68509H8.32486C7.0094 3.68509 6.9221 4.17203 6.9221 5.08033L6.91617 6.82376H10.1023L9.72931 10.3077H6.91617V20.4159ZM21.3205 20.4419H17.8081L17.6572 19.5614C16.0527 20.4419 14.6212 20.5849 13.677 20.5849C11.1003 20.5849 9.72974 18.8797 9.72974 16.5215C9.72974 13.7399 11.3291 12.7462 14.1914 12.7462H17.1046V12.1449C17.1046 10.724 16.9402 10.3077 14.7364 10.3077H11.1325L11.4851 6.82376H15.4238C20.2602 6.82376 21.3205 8.33885 21.3205 12.173V20.4419ZM33.2647 10.5638C31.0792 10.192 30.4512 10.1105 29.4001 10.1105C27.5109 10.1105 26.9396 10.5238 26.9396 12.1129V15.1204C26.9396 16.7099 27.5109 17.1245 29.4001 17.1245C30.4512 17.1245 31.0792 17.0425 33.2647 16.6695V20.0664C31.3496 20.4928 30.1028 20.6042 29.0492 20.6042C24.5235 20.6042 22.7262 18.2465 22.7262 14.8395V12.3989C22.7262 8.99022 24.5235 6.62738 29.0492 6.62738C30.1028 6.62738 31.3504 6.7405 33.2647 7.16648V10.5638ZM46.4536 14.8395H38.7257V15.1204C38.7257 16.7099 39.297 17.1245 41.1854 17.1245C42.884 17.1245 43.9198 17.0425 46.1015 16.6695V20.0664C43.9977 20.4928 42.9018 20.6042 40.8362 20.6042C36.311 20.6042 34.5115 18.2465 34.5115 14.8395V12.049C34.5115 9.06928 35.8473 6.62738 40.4836 6.62738C45.1208 6.62738 46.454 9.04026 46.454 12.049L46.4536 14.8395ZM60.154 14.9034C60.154 18.196 59.2047 20.5975 53.4526 20.5975C51.3768 20.5975 50.1567 20.4159 47.8636 20.066V1.24698L52.0765 0.551034V7.13326C52.9864 6.79769 54.1658 6.6278 55.2385 6.6278C59.4527 6.6278 60.1545 8.50033 60.1545 11.5074L60.154 14.9034ZM73.6604 14.9753C73.6604 17.8154 72.4767 20.5706 67.5259 20.5706C62.5722 20.5706 61.3669 17.8154 61.3669 14.9753V12.2332C61.3669 9.39223 62.5722 6.63663 67.5259 6.63663C72.4767 6.63663 73.6604 9.39223 73.6604 12.2332V14.9753ZM87.1552 14.9753C87.1552 17.8154 85.9707 20.5706 81.0217 20.5706C76.0679 20.5706 74.8618 17.8154 74.8618 14.9753V12.2332C74.8618 9.39223 76.0679 6.63663 81.0217 6.63663C85.9707 6.63663 87.1552 9.39223 87.1552 12.2332V14.9753ZM101.007 20.4159H96.4393L92.5773 14.0279V20.4159H88.3639V1.24698L92.5773 0.551034V12.8913L96.4393 6.82418H101.007L96.7902 13.4447L101.007 20.4159ZM81.0073 10.1168C79.5761 10.1168 79.0794 10.8922 79.0794 11.8564V15.3798C79.0794 16.3479 79.5761 17.1241 81.0073 17.1241C82.4367 17.1241 82.9423 16.347 82.9423 15.3798V11.8564C82.9423 10.8922 82.4367 10.1168 81.0073 10.1168ZM103.413 18.0324C104.122 18.0324 104.688 18.6056 104.688 19.3213C104.688 20.0483 104.122 20.6156 103.407 20.6156C102.697 20.6156 102.12 20.0479 102.12 19.3213C102.12 18.6056 102.697 18.0324 103.407 18.0324H103.413ZM103.406 18.233C102.835 18.233 102.367 18.7199 102.367 19.3221C102.367 19.9348 102.835 20.4167 103.413 20.4167C103.99 20.4226 104.452 19.9348 104.452 19.3276C104.452 18.7208 103.99 18.233 103.413 18.233H103.406ZM103.164 20.0727H102.934V18.6337C103.054 18.6165 103.17 18.6001 103.342 18.6001C103.563 18.6001 103.707 18.6451 103.793 18.7086C103.88 18.7721 103.925 18.8692 103.925 19.0067C103.925 19.1955 103.799 19.3103 103.644 19.3566V19.368C103.771 19.3911 103.857 19.5042 103.885 19.7161C103.92 19.9403 103.955 20.0265 103.978 20.0727H103.736C103.701 20.0273 103.665 19.8944 103.638 19.7065C103.603 19.5223 103.511 19.4533 103.325 19.4533H103.164L103.164 20.0727ZM103.164 19.2759H103.331C103.521 19.2759 103.683 19.2069 103.683 19.0294C103.683 18.9025 103.59 18.7767 103.331 18.7767C103.256 18.7767 103.203 18.783 103.164 18.7881V19.2759Z" fill="white"/>
</svg>
