<svg width="207" height="130" viewBox="0 0 207 130" fill="none" xmlns="http://www.w3.org/2000/svg">
<path d="M103.572 130.001C160.634 130.001 206.892 110.803 206.892 87.1224C206.892 63.4414 160.634 44.2441 103.572 44.2441C46.5099 44.2441 0.251953 63.4414 0.251953 87.1224C0.251953 110.803 46.5099 130.001 103.572 130.001Z" fill="#EFEFEF"/>
<path d="M127.771 28.1338L82.7715 21.3838L75.7715 63.1338L94.7715 83.1338L122.271 72.6338L127.771 28.1338Z" fill="white"/>
<path d="M76.7644 60.185L69.7296 55.122L72.4228 53.0751L77.6368 53.7859L76.7644 60.185Z" fill="#D7B0FF"/>
<path d="M76.7644 60.185L69.7296 55.122L72.4228 53.0751L77.6368 53.7859L76.7644 60.185Z" fill="black" fill-opacity="0.25"/>
<path d="M122.269 66.3888L123.141 59.9897L130.488 60.9914L130.165 63.3614L122.269 66.3888Z" fill="#D7B0FF"/>
<path d="M122.269 66.3888L123.141 59.9897L130.488 60.9914L130.165 63.3614L122.269 66.3888Z" fill="black" fill-opacity="0.25"/>
<path d="M127.811 29.2431L81.5957 22.9424L76.5874 59.6777L97.4656 76.5258L122.803 65.9785L127.811 29.2431Z" stroke="#D7B0FF"/>
<path d="M127.811 29.2431L81.5957 22.9424L76.5874 59.6777L97.4656 76.5258L122.803 65.9785L127.811 29.2431Z" stroke="black" stroke-opacity="0.25"/>
<path d="M97.0249 76.2266L69.726 55.1235L63.2419 93.8303L65.6982 97.0621L122.417 106.002L124.873 103.923L130.399 63.3952L97.0249 76.2266Z" fill="#D7B0FF"/>
<path d="M131.452 62.3718C131.448 62.3667 131.449 62.3623 131.445 62.3572C131.248 61.9242 130.963 61.5385 130.616 61.2082C130.607 61.2025 130.604 61.193 130.596 61.1873C130.576 61.1663 130.551 61.1492 130.526 61.1276C130.429 61.0413 130.326 60.9543 130.214 60.8751C129.683 60.4878 129.038 60.2265 128.335 60.1306L124.025 59.543L128.234 28.6702C128.266 28.4327 128.203 28.1914 128.06 28.0031C127.917 27.8147 127.697 27.6888 127.464 27.6571L81.7528 21.4251C81.5154 21.3927 81.2741 21.4557 81.0857 21.5988C80.8973 21.742 80.7715 21.9621 80.7397 22.1951L76.5307 53.068L72.2208 52.4804C71.6384 52.401 71.0708 52.4468 70.5448 52.5896C70.4312 52.6197 70.3169 52.6543 70.2066 52.694C69.5865 52.9244 69.0428 53.2975 68.6233 53.797C68.6227 53.8015 68.6182 53.8009 68.6176 53.8054C68.2343 54.2734 67.9637 54.8525 67.877 55.4887L62.5624 94.4707C62.494 94.9725 62.5451 95.4677 62.6881 95.9253C62.9093 96.6126 63.3345 97.209 63.8976 97.6646C64.4613 98.1156 65.1622 98.4302 65.9373 98.5359L122.056 106.187C123.091 106.328 124.096 106.082 124.885 105.55C125.282 105.285 125.625 104.944 125.885 104.541C126.15 104.139 126.327 103.675 126.396 103.173L131.71 64.1914C131.806 63.5564 131.7 62.9259 131.452 62.3718ZM123.786 61.3312L128.096 61.9188C128.517 61.9762 128.883 62.1357 129.177 62.3538L123.317 64.7675L123.786 61.3312ZM82.4013 23.3298L126.329 29.3186L121.388 65.5632L97.686 75.3331L77.4593 59.5788L82.4013 23.3298ZM70.8338 54.3859C71.1751 54.259 71.5649 54.2118 71.9771 54.2679L76.2825 54.8549L75.8134 58.2957L70.8096 54.3963C70.8192 54.393 70.8287 54.3898 70.8338 54.3859ZM124.613 102.93C124.582 103.159 124.504 103.363 124.378 103.551C124.193 103.831 123.905 104.075 123.546 104.231C123.186 104.388 122.758 104.453 122.305 104.391L66.1867 96.74C65.5819 96.6575 65.0832 96.3659 64.7559 95.9882C64.5948 95.7974 64.4771 95.5896 64.4105 95.3752C64.3439 95.1608 64.3195 94.9384 64.35 94.7144L69.6572 55.7862L75.94 60.6814L96.9874 77.0769C97.2432 77.2761 97.5837 77.3225 97.8879 77.1997L122.557 67.0323L129.925 63.9982L124.617 102.931L124.613 102.93Z" fill="#D7B0FF"/>
<path d="M131.452 62.3718C131.448 62.3667 131.449 62.3623 131.445 62.3572C131.248 61.9242 130.963 61.5385 130.616 61.2082C130.607 61.2025 130.604 61.193 130.596 61.1873C130.576 61.1663 130.551 61.1492 130.526 61.1276C130.429 61.0413 130.326 60.9543 130.214 60.8751C129.683 60.4878 129.038 60.2265 128.335 60.1306L124.025 59.543L128.234 28.6702C128.266 28.4327 128.203 28.1914 128.06 28.0031C127.917 27.8147 127.697 27.6888 127.464 27.6571L81.7528 21.4251C81.5154 21.3927 81.2741 21.4557 81.0857 21.5988C80.8973 21.742 80.7715 21.9621 80.7397 22.1951L76.5307 53.068L72.2208 52.4804C71.6384 52.401 71.0708 52.4468 70.5448 52.5896C70.4312 52.6197 70.3169 52.6543 70.2066 52.694C69.5865 52.9244 69.0428 53.2975 68.6233 53.797C68.6227 53.8015 68.6182 53.8009 68.6176 53.8054C68.2343 54.2734 67.9637 54.8525 67.877 55.4887L62.5624 94.4707C62.494 94.9725 62.5451 95.4677 62.6881 95.9253C62.9093 96.6126 63.3345 97.209 63.8976 97.6646C64.4613 98.1156 65.1622 98.4302 65.9373 98.5359L122.056 106.187C123.091 106.328 124.096 106.082 124.885 105.55C125.282 105.285 125.625 104.944 125.885 104.541C126.15 104.139 126.327 103.675 126.396 103.173L131.71 64.1914C131.806 63.5564 131.7 62.9259 131.452 62.3718ZM123.786 61.3312L128.096 61.9188C128.517 61.9762 128.883 62.1357 129.177 62.3538L123.317 64.7675L123.786 61.3312ZM82.4013 23.3298L126.329 29.3186L121.388 65.5632L97.686 75.3331L77.4593 59.5788L82.4013 23.3298ZM70.8338 54.3859C71.1751 54.259 71.5649 54.2118 71.9771 54.2679L76.2825 54.8549L75.8134 58.2957L70.8096 54.3963C70.8192 54.393 70.8287 54.3898 70.8338 54.3859ZM124.613 102.93C124.582 103.159 124.504 103.363 124.378 103.551C124.193 103.831 123.905 104.075 123.546 104.231C123.186 104.388 122.758 104.453 122.305 104.391L66.1867 96.74C65.5819 96.6575 65.0832 96.3659 64.7559 95.9882C64.5948 95.7974 64.4771 95.5896 64.4105 95.3752C64.3439 95.1608 64.3195 94.9384 64.35 94.7144L69.6572 55.7862L75.94 60.6814L96.9874 77.0769C97.2432 77.2761 97.5837 77.3225 97.8879 77.1997L122.557 67.0323L129.925 63.9982L124.617 102.931L124.613 102.93Z" fill="black" fill-opacity="0.25"/>
<path d="M133.657 25.2786C133.329 25.4837 132.91 25.5433 132.532 25.4253C131.777 25.1893 131.394 24.4159 131.595 23.683C132.77 19.8086 137.843 14.7109 142.885 12.3168C146.063 10.8347 148.909 10.5226 151.122 11.4673C151.828 11.7852 152.174 12.5814 151.855 13.2871C151.536 13.9929 150.739 14.3395 150.034 14.0216C148.586 13.4085 146.432 13.6926 144.05 14.8281C139.783 16.8392 135.192 21.3311 134.217 24.4725C134.135 24.8276 133.912 25.1191 133.657 25.2786Z" fill="#D7B0FF"/>
<path d="M79.3205 18.6115C79.2038 18.6865 79.0976 18.7136 78.9622 18.7594C78.354 18.9032 77.7545 18.5475 77.6113 17.9398C76.328 12.6722 72.4665 7.49705 67.7642 4.79704C67.2313 4.48085 67.0319 3.78573 67.3488 3.25277C67.6657 2.71981 68.3613 2.51974 68.8942 2.83592C74.1961 5.89164 78.3779 11.4372 79.8128 17.3895C79.929 17.8911 79.6997 18.3678 79.3205 18.6115Z" fill="#D7B0FF"/>
<path d="M116.158 13.6913C115.477 13.5984 114.908 13.001 114.964 12.2722L115.289 2.56924C115.308 1.79208 115.954 1.18705 116.733 1.20648C117.511 1.22591 118.116 1.87169 118.097 2.64885L117.772 12.3518C117.753 13.1289 117.106 13.734 116.328 13.7145C116.243 13.7029 116.201 13.6971 116.158 13.6913Z" fill="#D7B0FF"/>
<path d="M61.5705 41.882L58.3924 36.6612L62.8521 32.4816L68.3804 38.0229L61.5705 41.882Z" fill="#93E9BE"/>
<path d="M61.9349 42.0341L60.3781 41.6471L57.3449 36.69L59.2543 35.5174L62.2875 40.4745L61.9349 42.0341ZM60.3781 41.6471L62.2875 40.4745L62.3172 40.5135L62.3469 40.5525L62.3765 40.5915L62.4062 40.6305L62.4359 40.6694L62.4656 40.7084L62.4952 40.7474L62.4859 40.8161L62.4765 40.8847L62.4672 40.9533L62.4578 41.0219L62.4485 41.0906L62.4391 41.1592L62.4297 41.2278L62.4204 41.2964L62.411 41.3651L62.4017 41.4337L62.3923 41.5023L62.383 41.571L62.3736 41.6396L62.3689 41.6739L62.3299 41.7035L62.2909 41.7331L62.2518 41.7628L62.2128 41.7924L62.1738 41.822L62.1347 41.8517L62.0957 41.8813L62.0567 41.9109L62.0177 41.9406L61.9786 41.9702L61.9396 41.9998L61.9006 42.0294L61.8225 42.0887L61.7835 42.1183L61.7444 42.148L61.7054 42.1776L61.6664 42.2072L61.6274 42.2368L61.5586 42.2275L61.4899 42.2181L61.4212 42.2087L61.3525 42.1994L61.2838 42.19L61.2151 42.1806L61.1464 42.1713L61.0777 42.1619L61.009 42.1525L60.9403 42.1432L60.8716 42.1338L60.8029 42.1244L60.7342 42.1151L60.6998 42.1104L60.6702 42.0714L60.6405 42.0324L60.6108 41.9934L60.5811 41.9544L60.5515 41.9154L60.5218 41.8764L60.4921 41.8374L60.4624 41.7984L60.4328 41.7594L60.4031 41.7204L60.3781 41.6471ZM67.9674 37.0547L67.5804 38.6097L61.9302 42.0684L60.7557 40.1608L66.4106 36.6677L67.9674 37.0547ZM67.5851 38.5754L66.4106 36.6677L66.4496 36.6381L66.4886 36.6085L66.5276 36.5789L66.5667 36.5492L66.6057 36.5196L66.6447 36.49L66.6838 36.4603L66.7525 36.4697L66.8212 36.4791L66.8899 36.4884L66.9586 36.4978L67.0273 36.5072L67.096 36.5165L67.1647 36.5259L67.2334 36.5353L67.3021 36.5446L67.3708 36.554L67.4395 36.5634L67.5082 36.5727L67.5769 36.5821L67.6113 36.5868L67.641 36.6258L67.6706 36.6648L67.7003 36.7038L67.73 36.7428L67.7597 36.7818L67.7893 36.8208L67.819 36.8598L67.8487 36.8988L67.8784 36.9378L67.908 36.9768L67.9377 37.0158L67.9674 37.0547L67.9971 37.0937L68.0267 37.1327L68.0564 37.1717L68.0861 37.2107L68.1157 37.2497L68.1454 37.2887L68.1361 37.3574L68.1267 37.426L68.1174 37.4946L68.108 37.5632L68.0986 37.6319L68.0893 37.7005L68.0799 37.7691L68.0706 37.8377L68.0612 37.9064L68.0519 37.975L68.0425 38.0436L68.0331 38.1122L68.0238 38.1809L68.0191 38.2152L67.9801 38.2448L67.9411 38.2744L67.902 38.3041L67.863 38.3337L67.824 38.3633L67.7849 38.393L67.7459 38.4226L67.7069 38.4522L67.6678 38.4818L67.6288 38.5115L67.5851 38.5754ZM63.3773 31.7106L64.9342 32.0976L67.9674 37.0547L66.058 38.2274L63.0247 33.2703L63.3773 31.7106ZM64.9388 32.0633L63.0294 33.236L62.9998 33.197L62.9701 33.158L62.9404 33.119L62.9107 33.08L62.8811 33.041L62.8514 33.002L62.8217 32.963L62.8311 32.8944L62.8404 32.8258L62.8498 32.7571L62.8591 32.6885L62.8685 32.6199L62.8778 32.5513L62.8872 32.4826L62.8966 32.414L62.9059 32.3454L62.9153 32.2767L62.9246 32.2081L62.934 32.1395L62.9433 32.0709L62.948 32.0366L62.987 32.0069L63.0261 31.9773L63.0651 31.9477L63.1041 31.918L63.1432 31.8884L63.1822 31.8588L63.2212 31.8292L63.2259 31.7948L63.2649 31.7652L63.304 31.7356L63.343 31.7059L63.382 31.6763L63.4211 31.6467L63.4601 31.6171L63.4991 31.5874L63.5381 31.5578L63.5772 31.5282L63.6162 31.4985L63.6849 31.5079L63.7536 31.5173L63.8223 31.5266L63.891 31.536L63.9597 31.5454L64.0284 31.5547L64.0971 31.5641L64.1658 31.5735L64.2346 31.5828L64.3033 31.5922L64.372 31.6016L64.4407 31.6109L64.475 31.6156L64.5094 31.6203L64.539 31.6593L64.5687 31.6983L64.5984 31.7373L64.6281 31.7763L64.6577 31.8153L64.6874 31.8543L64.7171 31.8933L64.7468 31.9323L64.7764 31.9713L64.8061 32.0103L64.9388 32.0633ZM57.3449 36.69L57.7318 35.135L63.382 31.6763L64.5566 33.584L58.9064 37.0427L57.3449 36.69ZM57.7318 35.135L58.9064 37.0427L58.8674 37.0723L58.8283 37.102L58.7893 37.1316L58.7503 37.1612L58.7112 37.1908L58.6722 37.2205L58.6332 37.2501L58.5645 37.2407L58.4958 37.2314L58.4271 37.222L58.3584 37.2126L58.2896 37.2033L58.2209 37.1939L58.1522 37.1845L58.0835 37.1752L58.0148 37.1658L57.9461 37.1564L57.8774 37.1471L57.8087 37.1377L57.7744 37.133L57.74 37.1283L57.7103 37.0893L57.6807 37.0503L57.651 37.0114L57.6213 36.9724L57.5916 36.9334L57.562 36.8944L57.5323 36.8554L57.5026 36.8164L57.4729 36.7774L57.4433 36.7384L57.4136 36.6994L57.3839 36.6604L57.3542 36.6214L57.3246 36.5824L57.2949 36.5434L57.2652 36.5044L57.2355 36.4654L57.2059 36.4264L57.2152 36.3578L57.2246 36.2892L57.2339 36.2205L57.2433 36.1519L57.2527 36.0833L57.262 36.0146L57.2714 35.946L57.2807 35.8774L57.2901 35.8088L57.2994 35.7402L57.3088 35.6715L57.3181 35.6029L57.3228 35.5686L57.3275 35.5343L57.3665 35.5046L57.4056 35.475L57.4446 35.4454L57.4836 35.4158L57.5227 35.3861L57.5617 35.3565L57.6007 35.3269L57.6397 35.2972L57.6788 35.2676L57.7178 35.238L57.7318 35.135Z" fill="#D7B0FF"/>
<path d="M61.9349 42.0341L60.3781 41.6471L57.3449 36.69L59.2543 35.5174L62.2875 40.4745L61.9349 42.0341ZM60.3781 41.6471L62.2875 40.4745L62.3172 40.5135L62.3469 40.5525L62.3765 40.5915L62.4062 40.6305L62.4359 40.6694L62.4656 40.7084L62.4952 40.7474L62.4859 40.8161L62.4765 40.8847L62.4672 40.9533L62.4578 41.0219L62.4485 41.0906L62.4391 41.1592L62.4297 41.2278L62.4204 41.2964L62.411 41.3651L62.4017 41.4337L62.3923 41.5023L62.383 41.571L62.3736 41.6396L62.3689 41.6739L62.3299 41.7035L62.2909 41.7331L62.2518 41.7628L62.2128 41.7924L62.1738 41.822L62.1347 41.8517L62.0957 41.8813L62.0567 41.9109L62.0177 41.9406L61.9786 41.9702L61.9396 41.9998L61.9006 42.0294L61.8225 42.0887L61.7835 42.1183L61.7444 42.148L61.7054 42.1776L61.6664 42.2072L61.6274 42.2368L61.5586 42.2275L61.4899 42.2181L61.4212 42.2087L61.3525 42.1994L61.2838 42.19L61.2151 42.1806L61.1464 42.1713L61.0777 42.1619L61.009 42.1525L60.9403 42.1432L60.8716 42.1338L60.8029 42.1244L60.7342 42.1151L60.6998 42.1104L60.6702 42.0714L60.6405 42.0324L60.6108 41.9934L60.5811 41.9544L60.5515 41.9154L60.5218 41.8764L60.4921 41.8374L60.4624 41.7984L60.4328 41.7594L60.4031 41.7204L60.3781 41.6471ZM67.9674 37.0547L67.5804 38.6097L61.9302 42.0684L60.7557 40.1608L66.4106 36.6677L67.9674 37.0547ZM67.5851 38.5754L66.4106 36.6677L66.4496 36.6381L66.4886 36.6085L66.5276 36.5789L66.5667 36.5492L66.6057 36.5196L66.6447 36.49L66.6838 36.4603L66.7525 36.4697L66.8212 36.4791L66.8899 36.4884L66.9586 36.4978L67.0273 36.5072L67.096 36.5165L67.1647 36.5259L67.2334 36.5353L67.3021 36.5446L67.3708 36.554L67.4395 36.5634L67.5082 36.5727L67.5769 36.5821L67.6113 36.5868L67.641 36.6258L67.6706 36.6648L67.7003 36.7038L67.73 36.7428L67.7597 36.7818L67.7893 36.8208L67.819 36.8598L67.8487 36.8988L67.8784 36.9378L67.908 36.9768L67.9377 37.0158L67.9674 37.0547L67.9971 37.0937L68.0267 37.1327L68.0564 37.1717L68.0861 37.2107L68.1157 37.2497L68.1454 37.2887L68.1361 37.3574L68.1267 37.426L68.1174 37.4946L68.108 37.5632L68.0986 37.6319L68.0893 37.7005L68.0799 37.7691L68.0706 37.8377L68.0612 37.9064L68.0519 37.975L68.0425 38.0436L68.0331 38.1122L68.0238 38.1809L68.0191 38.2152L67.9801 38.2448L67.9411 38.2744L67.902 38.3041L67.863 38.3337L67.824 38.3633L67.7849 38.393L67.7459 38.4226L67.7069 38.4522L67.6678 38.4818L67.6288 38.5115L67.5851 38.5754ZM63.3773 31.7106L64.9342 32.0976L67.9674 37.0547L66.058 38.2274L63.0247 33.2703L63.3773 31.7106ZM64.9388 32.0633L63.0294 33.236L62.9998 33.197L62.9701 33.158L62.9404 33.119L62.9107 33.08L62.8811 33.041L62.8514 33.002L62.8217 32.963L62.8311 32.8944L62.8404 32.8258L62.8498 32.7571L62.8591 32.6885L62.8685 32.6199L62.8778 32.5513L62.8872 32.4826L62.8966 32.414L62.9059 32.3454L62.9153 32.2767L62.9246 32.2081L62.934 32.1395L62.9433 32.0709L62.948 32.0366L62.987 32.0069L63.0261 31.9773L63.0651 31.9477L63.1041 31.918L63.1432 31.8884L63.1822 31.8588L63.2212 31.8292L63.2259 31.7948L63.2649 31.7652L63.304 31.7356L63.343 31.7059L63.382 31.6763L63.4211 31.6467L63.4601 31.6171L63.4991 31.5874L63.5381 31.5578L63.5772 31.5282L63.6162 31.4985L63.6849 31.5079L63.7536 31.5173L63.8223 31.5266L63.891 31.536L63.9597 31.5454L64.0284 31.5547L64.0971 31.5641L64.1658 31.5735L64.2346 31.5828L64.3033 31.5922L64.372 31.6016L64.4407 31.6109L64.475 31.6156L64.5094 31.6203L64.539 31.6593L64.5687 31.6983L64.5984 31.7373L64.6281 31.7763L64.6577 31.8153L64.6874 31.8543L64.7171 31.8933L64.7468 31.9323L64.7764 31.9713L64.8061 32.0103L64.9388 32.0633ZM57.3449 36.69L57.7318 35.135L63.382 31.6763L64.5566 33.584L58.9064 37.0427L57.3449 36.69ZM57.7318 35.135L58.9064 37.0427L58.8674 37.0723L58.8283 37.102L58.7893 37.1316L58.7503 37.1612L58.7112 37.1908L58.6722 37.2205L58.6332 37.2501L58.5645 37.2407L58.4958 37.2314L58.4271 37.222L58.3584 37.2126L58.2896 37.2033L58.2209 37.1939L58.1522 37.1845L58.0835 37.1752L58.0148 37.1658L57.9461 37.1564L57.8774 37.1471L57.8087 37.1377L57.7744 37.133L57.74 37.1283L57.7103 37.0893L57.6807 37.0503L57.651 37.0114L57.6213 36.9724L57.5916 36.9334L57.562 36.8944L57.5323 36.8554L57.5026 36.8164L57.4729 36.7774L57.4433 36.7384L57.4136 36.6994L57.3839 36.6604L57.3542 36.6214L57.3246 36.5824L57.2949 36.5434L57.2652 36.5044L57.2355 36.4654L57.2059 36.4264L57.2152 36.3578L57.2246 36.2892L57.2339 36.2205L57.2433 36.1519L57.2527 36.0833L57.262 36.0146L57.2714 35.946L57.2807 35.8774L57.2901 35.8088L57.2994 35.7402L57.3088 35.6715L57.3181 35.6029L57.3228 35.5686L57.3275 35.5343L57.3665 35.5046L57.4056 35.475L57.4446 35.4454L57.4836 35.4158L57.5227 35.3861L57.5617 35.3565L57.6007 35.3269L57.6397 35.2972L57.6788 35.2676L57.7178 35.238L57.7318 35.135Z" fill="black" fill-opacity="0.25"/>
<path d="M96.9299 15.4445L93.7518 10.2237L98.2115 6.04409L103.74 11.5854L96.9299 15.4445Z" fill="#93E9BE"/>
<path d="M97.2904 15.5976L95.7336 15.2106L92.7004 10.2535L94.6098 9.08083L97.643 14.0379L97.2904 15.5976ZM95.7336 15.2106L97.643 14.0379L97.6727 14.0769L97.7023 14.1159L97.732 14.1549L97.7617 14.1939L97.7914 14.2329L97.821 14.2719L97.8507 14.3109L97.8413 14.3795L97.832 14.4482L97.8226 14.5168L97.8133 14.5854L97.8039 14.654L97.7946 14.7227L97.7852 14.7913L97.7759 14.8599L97.7665 14.9285L97.7571 14.9972L97.7478 15.0658L97.7384 15.1344L97.7291 15.2031L97.7244 15.2374L97.6854 15.267L97.6463 15.2966L97.6073 15.3263L97.5683 15.3559L97.5292 15.3855L97.4902 15.4151L97.4512 15.4448L97.4122 15.4744L97.3731 15.504L97.3341 15.5337L97.2951 15.5633L97.256 15.5929L97.178 15.6522L97.1389 15.6818L97.0999 15.7114L97.0609 15.7411L97.0219 15.7707L96.9828 15.8003L96.9141 15.791L96.8454 15.7816L96.7767 15.7722L96.708 15.7629L96.6393 15.7535L96.5706 15.7441L96.5019 15.7348L96.4332 15.7254L96.3645 15.716L96.2958 15.7067L96.2271 15.6973L96.1584 15.6879L96.0897 15.6786L96.0553 15.6739L96.0256 15.6349L95.996 15.5959L95.9663 15.5569L95.9366 15.5179L95.9069 15.4789L95.8773 15.4399L95.8476 15.4009L95.8179 15.3619L95.7882 15.3229L95.7586 15.2839L95.7336 15.2106ZM103.323 10.6182L102.936 12.1732L97.2857 15.6319L96.1112 13.7243L101.766 10.2312L103.323 10.6182ZM102.941 12.1389L101.766 10.2312L101.805 10.2016L101.844 10.172L101.883 10.1423L101.922 10.1127L101.961 10.0831L102 10.0534L102.039 10.0238L102.108 10.0332L102.177 10.0426L102.245 10.0519L102.314 10.0613L102.383 10.0707L102.451 10.08L102.52 10.0894L102.589 10.0988L102.658 10.1081L102.726 10.1175L102.795 10.1269L102.864 10.1362L102.932 10.1456L102.967 10.1503L102.996 10.1893L103.026 10.2283L103.056 10.2673L103.085 10.3063L103.115 10.3452L103.145 10.3842L103.174 10.4232L103.204 10.4622L103.234 10.5012L103.263 10.5402L103.293 10.5792L103.323 10.6182L103.353 10.6572L103.382 10.6962L103.412 10.7352L103.442 10.7742L103.471 10.8132L103.501 10.8522L103.492 10.9208L103.482 10.9895L103.473 11.0581L103.463 11.1267L103.454 11.1953L103.445 11.264L103.435 11.3326L103.426 11.4012L103.417 11.4698L103.407 11.5385L103.398 11.6071L103.389 11.6757L103.379 11.7443L103.375 11.7786L103.336 11.8083L103.297 11.8379L103.257 11.8675L103.218 11.8972L103.179 11.9268L103.14 11.9564L103.101 11.9861L103.062 12.0157L103.023 12.0453L102.984 12.0749L102.941 12.1389ZM98.7328 5.27411L100.29 5.66111L103.323 10.6182L101.413 11.7909L98.3802 6.83377L98.7328 5.27411ZM100.294 5.6268L98.3849 6.79946L98.3552 6.76046L98.3255 6.72146L98.2959 6.68247L98.2662 6.64347L98.2365 6.60447L98.2069 6.56548L98.1772 6.52648L98.1865 6.45786L98.1959 6.38923L98.2052 6.3206L98.2146 6.25198L98.224 6.18335L98.2333 6.11473L98.2427 6.0461L98.252 5.97747L98.2614 5.90885L98.2707 5.84023L98.2801 5.7716L98.2894 5.70298L98.2988 5.63435L98.3035 5.60004L98.3425 5.5704L98.3815 5.54078L98.4206 5.51115L98.4596 5.48151L98.4986 5.45189L98.5377 5.42226L98.5767 5.39263L98.5814 5.35832L98.6204 5.32868L98.6594 5.29906L98.6985 5.26943L98.7375 5.2398L98.7765 5.21017L98.8156 5.18054L98.8546 5.15091L98.8936 5.12128L98.9326 5.09165L98.9717 5.06202L99.0404 5.07139L99.1091 5.08075L99.1778 5.09012L99.2465 5.09949L99.3152 5.10885L99.3839 5.11822L99.4526 5.12759L99.5213 5.13696L99.59 5.14632L99.6587 5.15569L99.7274 5.16506L99.7961 5.17442L99.8305 5.17911L99.8648 5.18379L99.8945 5.22279L99.9242 5.26178L99.9539 5.30078L99.9835 5.33977L100.013 5.37877L100.043 5.41777L100.073 5.45676L100.102 5.49576L100.132 5.53475L100.162 5.57375L100.294 5.6268ZM92.7004 10.2535L93.0873 8.69851L98.7375 5.2398L99.912 7.14746L94.2619 10.6062L92.7004 10.2535ZM93.0873 8.69851L94.2619 10.6062L94.2228 10.6358L94.1838 10.6654L94.1448 10.6951L94.1057 10.7247L94.0667 10.7543L94.0277 10.784L93.9886 10.8136L93.9199 10.8042L93.8512 10.7948L93.7825 10.7855L93.7138 10.7761L93.6451 10.7667L93.5764 10.7574L93.5077 10.748L93.439 10.7386L93.3703 10.7293L93.3016 10.7199L93.2329 10.7105L93.1642 10.7012L93.1298 10.6965L93.0955 10.6918L93.0658 10.6528L93.0361 10.6138L93.0065 10.5748L92.9768 10.5358L92.9471 10.4968L92.9174 10.4578L92.8878 10.4188L92.8581 10.3798L92.8284 10.3408L92.7987 10.3018L92.7691 10.2629L92.7394 10.2239L92.7097 10.1849L92.68 10.1459L92.6504 10.1069L92.6207 10.0679L92.591 10.0289L92.5613 9.98988L92.5707 9.92125L92.5801 9.85263L92.5894 9.784L92.5988 9.71538L92.6081 9.64676L92.6175 9.57813L92.6268 9.5095L92.6362 9.44088L92.6455 9.37225L92.6549 9.30363L92.6643 9.235L92.6736 9.16637L92.6783 9.13206L92.683 9.09775L92.722 9.06812L92.761 9.03849L92.8001 9.00886L92.8391 8.97923L92.8781 8.9496L92.9172 8.91997L92.9562 8.89034L92.9952 8.86071L93.0342 8.83108L93.0733 8.80145L93.0873 8.69851Z" fill="#D7B0FF"/>
<path d="M97.2904 15.5976L95.7336 15.2106L92.7004 10.2535L94.6098 9.08083L97.643 14.0379L97.2904 15.5976ZM95.7336 15.2106L97.643 14.0379L97.6727 14.0769L97.7023 14.1159L97.732 14.1549L97.7617 14.1939L97.7914 14.2329L97.821 14.2719L97.8507 14.3109L97.8413 14.3795L97.832 14.4482L97.8226 14.5168L97.8133 14.5854L97.8039 14.654L97.7946 14.7227L97.7852 14.7913L97.7759 14.8599L97.7665 14.9285L97.7571 14.9972L97.7478 15.0658L97.7384 15.1344L97.7291 15.2031L97.7244 15.2374L97.6854 15.267L97.6463 15.2966L97.6073 15.3263L97.5683 15.3559L97.5292 15.3855L97.4902 15.4151L97.4512 15.4448L97.4122 15.4744L97.3731 15.504L97.3341 15.5337L97.2951 15.5633L97.256 15.5929L97.178 15.6522L97.1389 15.6818L97.0999 15.7114L97.0609 15.7411L97.0219 15.7707L96.9828 15.8003L96.9141 15.791L96.8454 15.7816L96.7767 15.7722L96.708 15.7629L96.6393 15.7535L96.5706 15.7441L96.5019 15.7348L96.4332 15.7254L96.3645 15.716L96.2958 15.7067L96.2271 15.6973L96.1584 15.6879L96.0897 15.6786L96.0553 15.6739L96.0256 15.6349L95.996 15.5959L95.9663 15.5569L95.9366 15.5179L95.9069 15.4789L95.8773 15.4399L95.8476 15.4009L95.8179 15.3619L95.7882 15.3229L95.7586 15.2839L95.7336 15.2106ZM103.323 10.6182L102.936 12.1732L97.2857 15.6319L96.1112 13.7243L101.766 10.2312L103.323 10.6182ZM102.941 12.1389L101.766 10.2312L101.805 10.2016L101.844 10.172L101.883 10.1423L101.922 10.1127L101.961 10.0831L102 10.0534L102.039 10.0238L102.108 10.0332L102.177 10.0426L102.245 10.0519L102.314 10.0613L102.383 10.0707L102.451 10.08L102.52 10.0894L102.589 10.0988L102.658 10.1081L102.726 10.1175L102.795 10.1269L102.864 10.1362L102.932 10.1456L102.967 10.1503L102.996 10.1893L103.026 10.2283L103.056 10.2673L103.085 10.3063L103.115 10.3452L103.145 10.3842L103.174 10.4232L103.204 10.4622L103.234 10.5012L103.263 10.5402L103.293 10.5792L103.323 10.6182L103.353 10.6572L103.382 10.6962L103.412 10.7352L103.442 10.7742L103.471 10.8132L103.501 10.8522L103.492 10.9208L103.482 10.9895L103.473 11.0581L103.463 11.1267L103.454 11.1953L103.445 11.264L103.435 11.3326L103.426 11.4012L103.417 11.4698L103.407 11.5385L103.398 11.6071L103.389 11.6757L103.379 11.7443L103.375 11.7786L103.336 11.8083L103.297 11.8379L103.257 11.8675L103.218 11.8972L103.179 11.9268L103.14 11.9564L103.101 11.9861L103.062 12.0157L103.023 12.0453L102.984 12.0749L102.941 12.1389ZM98.7328 5.27411L100.29 5.66111L103.323 10.6182L101.413 11.7909L98.3802 6.83377L98.7328 5.27411ZM100.294 5.6268L98.3849 6.79946L98.3552 6.76046L98.3255 6.72146L98.2959 6.68247L98.2662 6.64347L98.2365 6.60447L98.2069 6.56548L98.1772 6.52648L98.1865 6.45786L98.1959 6.38923L98.2052 6.3206L98.2146 6.25198L98.224 6.18335L98.2333 6.11473L98.2427 6.0461L98.252 5.97747L98.2614 5.90885L98.2707 5.84023L98.2801 5.7716L98.2894 5.70298L98.2988 5.63435L98.3035 5.60004L98.3425 5.5704L98.3815 5.54078L98.4206 5.51115L98.4596 5.48151L98.4986 5.45189L98.5377 5.42226L98.5767 5.39263L98.5814 5.35832L98.6204 5.32868L98.6594 5.29906L98.6985 5.26943L98.7375 5.2398L98.7765 5.21017L98.8156 5.18054L98.8546 5.15091L98.8936 5.12128L98.9326 5.09165L98.9717 5.06202L99.0404 5.07139L99.1091 5.08075L99.1778 5.09012L99.2465 5.09949L99.3152 5.10885L99.3839 5.11822L99.4526 5.12759L99.5213 5.13696L99.59 5.14632L99.6587 5.15569L99.7274 5.16506L99.7961 5.17442L99.8305 5.17911L99.8648 5.18379L99.8945 5.22279L99.9242 5.26178L99.9539 5.30078L99.9835 5.33977L100.013 5.37877L100.043 5.41777L100.073 5.45676L100.102 5.49576L100.132 5.53475L100.162 5.57375L100.294 5.6268ZM92.7004 10.2535L93.0873 8.69851L98.7375 5.2398L99.912 7.14746L94.2619 10.6062L92.7004 10.2535ZM93.0873 8.69851L94.2619 10.6062L94.2228 10.6358L94.1838 10.6654L94.1448 10.6951L94.1057 10.7247L94.0667 10.7543L94.0277 10.784L93.9886 10.8136L93.9199 10.8042L93.8512 10.7948L93.7825 10.7855L93.7138 10.7761L93.6451 10.7667L93.5764 10.7574L93.5077 10.748L93.439 10.7386L93.3703 10.7293L93.3016 10.7199L93.2329 10.7105L93.1642 10.7012L93.1298 10.6965L93.0955 10.6918L93.0658 10.6528L93.0361 10.6138L93.0065 10.5748L92.9768 10.5358L92.9471 10.4968L92.9174 10.4578L92.8878 10.4188L92.8581 10.3798L92.8284 10.3408L92.7987 10.3018L92.7691 10.2629L92.7394 10.2239L92.7097 10.1849L92.68 10.1459L92.6504 10.1069L92.6207 10.0679L92.591 10.0289L92.5613 9.98988L92.5707 9.92125L92.5801 9.85263L92.5894 9.784L92.5988 9.71538L92.6081 9.64676L92.6175 9.57813L92.6268 9.5095L92.6362 9.44088L92.6455 9.37225L92.6549 9.30363L92.6643 9.235L92.6736 9.16637L92.6783 9.13206L92.683 9.09775L92.722 9.06812L92.761 9.03849L92.8001 9.00886L92.8391 8.97923L92.8781 8.9496L92.9172 8.91997L92.9562 8.89034L92.9952 8.86071L93.0342 8.83108L93.0733 8.80145L93.0873 8.69851Z" fill="black" fill-opacity="0.25"/>
<path d="M142.68 40.3898L139.502 35.169L143.962 30.9894L149.49 36.5307L142.68 40.3898Z" fill="#93E9BE"/>
<path d="M143.044 40.5429L141.487 40.1559L138.454 35.1988L140.364 34.0261L143.397 38.9833L143.044 40.5429ZM141.487 40.1559L143.397 38.9833L143.427 39.0223L143.456 39.0612L143.486 39.1002L143.516 39.1392L143.545 39.1782L143.575 39.2172L143.605 39.2562L143.595 39.3249L143.586 39.3935L143.577 39.4621L143.567 39.5307L143.558 39.5994L143.548 39.668L143.539 39.7366L143.53 39.8052L143.52 39.8739L143.511 39.9425L143.502 40.0111L143.492 40.0797L143.483 40.1484L143.478 40.1827L143.439 40.2123L143.4 40.2419L143.361 40.2716L143.322 40.3012L143.283 40.3308L143.244 40.3605L143.205 40.3901L143.166 40.4197L143.127 40.4493L143.088 40.479L143.049 40.5086L143.01 40.5382L142.932 40.5975L142.893 40.6271L142.854 40.6567L142.815 40.6864L142.776 40.716L142.737 40.7456L142.668 40.7363L142.599 40.7269L142.531 40.7175L142.462 40.7082L142.393 40.6988L142.324 40.6894L142.256 40.6801L142.187 40.6707L142.118 40.6613L142.05 40.652L141.981 40.6426L141.912 40.6332L141.844 40.6239L141.809 40.6192L141.78 40.5802L141.75 40.5412L141.72 40.5022L141.691 40.4632L141.661 40.4242L141.631 40.3852L141.601 40.3462L141.572 40.3072L141.542 40.2682L141.512 40.2292L141.487 40.1559ZM149.077 35.5635L148.69 37.1185L143.04 40.5772L141.865 38.6696L147.52 35.1765L149.077 35.5635ZM148.694 37.0842L147.52 35.1765L147.559 35.1469L147.598 35.1173L147.637 35.0876L147.676 35.058L147.715 35.0284L147.754 34.9988L147.793 34.9691L147.862 34.9785L147.931 34.9879L147.999 34.9972L148.068 35.0066L148.137 35.016L148.205 35.0253L148.274 35.0347L148.343 35.0441L148.411 35.0534L148.48 35.0628L148.549 35.0722L148.618 35.0815L148.686 35.0909L148.721 35.0956L148.75 35.1346L148.78 35.1736L148.81 35.2126L148.839 35.2516L148.869 35.2906L148.899 35.3296L148.928 35.3686L148.958 35.4076L148.988 35.4465L149.017 35.4855L149.047 35.5245L149.077 35.5635L149.106 35.6025L149.136 35.6415L149.166 35.6805L149.195 35.7195L149.225 35.7585L149.255 35.7975L149.245 35.8661L149.236 35.9348L149.227 36.0034L149.217 36.072L149.208 36.1406L149.199 36.2093L149.189 36.2779L149.18 36.3465L149.171 36.4151L149.161 36.4838L149.152 36.5524L149.143 36.621L149.133 36.6896L149.128 36.724L149.089 36.7536L149.05 36.7832L149.011 36.8129L148.972 36.8425L148.933 36.8721L148.894 36.9017L148.855 36.9314L148.816 36.961L148.777 36.9906L148.738 37.0203L148.694 37.0842ZM144.487 30.2194L146.044 30.6064L149.077 35.5635L147.167 36.7362L144.134 31.7791L144.487 30.2194ZM146.048 30.5721L144.139 31.7448L144.109 31.7058L144.079 31.6668L144.05 31.6278L144.02 31.5888L143.99 31.5498L143.961 31.5108L143.931 31.4718L143.94 31.4032L143.95 31.3345L143.959 31.2659L143.969 31.1973L143.978 31.1287L143.987 31.06L143.997 30.9914L144.006 30.9228L144.015 30.8542L144.025 30.7855L144.034 30.7169L144.043 30.6483L144.053 30.5797L144.057 30.5453L144.096 30.5157L144.135 30.4861L144.174 30.4565L144.214 30.4268L144.253 30.3972L144.292 30.3676L144.331 30.3379L144.335 30.3036L144.374 30.274L144.413 30.2444L144.452 30.2147L144.491 30.1851L144.53 30.1555L144.569 30.1258L144.608 30.0962L144.648 30.0666L144.687 30.037L144.726 30.0073L144.794 30.0167L144.863 30.0261L144.932 30.0354L145 30.0448L145.069 30.0542L145.138 30.0635L145.207 30.0729L145.275 30.0823L145.344 30.0916L145.413 30.101L145.481 30.1104L145.55 30.1197L145.584 30.1244L145.619 30.1291L145.648 30.1681L145.678 30.2071L145.708 30.2461L145.737 30.2851L145.767 30.3241L145.797 30.3631L145.826 30.4021L145.856 30.4411L145.886 30.4801L145.915 30.5191L146.048 30.5721ZM138.454 35.1988L138.841 33.6438L144.491 30.1851L145.666 32.0928L140.016 35.5515L138.454 35.1988ZM138.841 33.6438L140.016 35.5515L139.977 35.5811L139.938 35.6107L139.899 35.6404L139.86 35.67L139.821 35.6996L139.782 35.7293L139.743 35.7589L139.674 35.7495L139.605 35.7402L139.536 35.7308L139.468 35.7214L139.399 35.7121L139.33 35.7027L139.262 35.6933L139.193 35.684L139.124 35.6746L139.056 35.6652L138.987 35.6559L138.918 35.6465L138.884 35.6418L138.849 35.6371L138.82 35.5981L138.79 35.5591L138.76 35.5201L138.731 35.4811L138.701 35.4421L138.671 35.4032L138.642 35.3642L138.612 35.3252L138.582 35.2862L138.553 35.2472L138.523 35.2082L138.493 35.1692L138.464 35.1302L138.434 35.0912L138.404 35.0522L138.375 35.0132L138.345 34.9742L138.315 34.9352L138.325 34.8666L138.334 34.7979L138.343 34.7293L138.353 34.6607L138.362 34.5921L138.371 34.5234L138.381 34.4548L138.39 34.3862L138.399 34.3176L138.409 34.2489L138.418 34.1803L138.428 34.1117L138.432 34.0774L138.437 34.0431L138.476 34.0134L138.515 33.9838L138.554 33.9542L138.593 33.9245L138.632 33.8949L138.671 33.8653L138.71 33.8357L138.749 33.806L138.788 33.7764L138.827 33.7468L138.841 33.6438Z" fill="#D7B0FF"/>
<path d="M143.044 40.5429L141.487 40.1559L138.454 35.1988L140.364 34.0261L143.397 38.9833L143.044 40.5429ZM141.487 40.1559L143.397 38.9833L143.427 39.0223L143.456 39.0612L143.486 39.1002L143.516 39.1392L143.545 39.1782L143.575 39.2172L143.605 39.2562L143.595 39.3249L143.586 39.3935L143.577 39.4621L143.567 39.5307L143.558 39.5994L143.548 39.668L143.539 39.7366L143.53 39.8052L143.52 39.8739L143.511 39.9425L143.502 40.0111L143.492 40.0797L143.483 40.1484L143.478 40.1827L143.439 40.2123L143.4 40.2419L143.361 40.2716L143.322 40.3012L143.283 40.3308L143.244 40.3605L143.205 40.3901L143.166 40.4197L143.127 40.4493L143.088 40.479L143.049 40.5086L143.01 40.5382L142.932 40.5975L142.893 40.6271L142.854 40.6567L142.815 40.6864L142.776 40.716L142.737 40.7456L142.668 40.7363L142.599 40.7269L142.531 40.7175L142.462 40.7082L142.393 40.6988L142.324 40.6894L142.256 40.6801L142.187 40.6707L142.118 40.6613L142.05 40.652L141.981 40.6426L141.912 40.6332L141.844 40.6239L141.809 40.6192L141.78 40.5802L141.75 40.5412L141.72 40.5022L141.691 40.4632L141.661 40.4242L141.631 40.3852L141.601 40.3462L141.572 40.3072L141.542 40.2682L141.512 40.2292L141.487 40.1559ZM149.077 35.5635L148.69 37.1185L143.04 40.5772L141.865 38.6696L147.52 35.1765L149.077 35.5635ZM148.694 37.0842L147.52 35.1765L147.559 35.1469L147.598 35.1173L147.637 35.0876L147.676 35.058L147.715 35.0284L147.754 34.9988L147.793 34.9691L147.862 34.9785L147.931 34.9879L147.999 34.9972L148.068 35.0066L148.137 35.016L148.205 35.0253L148.274 35.0347L148.343 35.0441L148.411 35.0534L148.48 35.0628L148.549 35.0722L148.618 35.0815L148.686 35.0909L148.721 35.0956L148.75 35.1346L148.78 35.1736L148.81 35.2126L148.839 35.2516L148.869 35.2906L148.899 35.3296L148.928 35.3686L148.958 35.4076L148.988 35.4465L149.017 35.4855L149.047 35.5245L149.077 35.5635L149.106 35.6025L149.136 35.6415L149.166 35.6805L149.195 35.7195L149.225 35.7585L149.255 35.7975L149.245 35.8661L149.236 35.9348L149.227 36.0034L149.217 36.072L149.208 36.1406L149.199 36.2093L149.189 36.2779L149.18 36.3465L149.171 36.4151L149.161 36.4838L149.152 36.5524L149.143 36.621L149.133 36.6896L149.128 36.724L149.089 36.7536L149.05 36.7832L149.011 36.8129L148.972 36.8425L148.933 36.8721L148.894 36.9017L148.855 36.9314L148.816 36.961L148.777 36.9906L148.738 37.0203L148.694 37.0842ZM144.487 30.2194L146.044 30.6064L149.077 35.5635L147.167 36.7362L144.134 31.7791L144.487 30.2194ZM146.048 30.5721L144.139 31.7448L144.109 31.7058L144.079 31.6668L144.05 31.6278L144.02 31.5888L143.99 31.5498L143.961 31.5108L143.931 31.4718L143.94 31.4032L143.95 31.3345L143.959 31.2659L143.969 31.1973L143.978 31.1287L143.987 31.06L143.997 30.9914L144.006 30.9228L144.015 30.8542L144.025 30.7855L144.034 30.7169L144.043 30.6483L144.053 30.5797L144.057 30.5453L144.096 30.5157L144.135 30.4861L144.174 30.4565L144.214 30.4268L144.253 30.3972L144.292 30.3676L144.331 30.3379L144.335 30.3036L144.374 30.274L144.413 30.2444L144.452 30.2147L144.491 30.1851L144.53 30.1555L144.569 30.1258L144.608 30.0962L144.648 30.0666L144.687 30.037L144.726 30.0073L144.794 30.0167L144.863 30.0261L144.932 30.0354L145 30.0448L145.069 30.0542L145.138 30.0635L145.207 30.0729L145.275 30.0823L145.344 30.0916L145.413 30.101L145.481 30.1104L145.55 30.1197L145.584 30.1244L145.619 30.1291L145.648 30.1681L145.678 30.2071L145.708 30.2461L145.737 30.2851L145.767 30.3241L145.797 30.3631L145.826 30.4021L145.856 30.4411L145.886 30.4801L145.915 30.5191L146.048 30.5721ZM138.454 35.1988L138.841 33.6438L144.491 30.1851L145.666 32.0928L140.016 35.5515L138.454 35.1988ZM138.841 33.6438L140.016 35.5515L139.977 35.5811L139.938 35.6107L139.899 35.6404L139.86 35.67L139.821 35.6996L139.782 35.7293L139.743 35.7589L139.674 35.7495L139.605 35.7402L139.536 35.7308L139.468 35.7214L139.399 35.7121L139.33 35.7027L139.262 35.6933L139.193 35.684L139.124 35.6746L139.056 35.6652L138.987 35.6559L138.918 35.6465L138.884 35.6418L138.849 35.6371L138.82 35.5981L138.79 35.5591L138.76 35.5201L138.731 35.4811L138.701 35.4421L138.671 35.4032L138.642 35.3642L138.612 35.3252L138.582 35.2862L138.553 35.2472L138.523 35.2082L138.493 35.1692L138.464 35.1302L138.434 35.0912L138.404 35.0522L138.375 35.0132L138.345 34.9742L138.315 34.9352L138.325 34.8666L138.334 34.7979L138.343 34.7293L138.353 34.6607L138.362 34.5921L138.371 34.5234L138.381 34.4548L138.39 34.3862L138.399 34.3176L138.409 34.2489L138.418 34.1803L138.428 34.1117L138.432 34.0774L138.437 34.0431L138.476 34.0134L138.515 33.9838L138.554 33.9542L138.593 33.9245L138.632 33.8949L138.671 33.8653L138.71 33.8357L138.749 33.806L138.788 33.7764L138.827 33.7468L138.841 33.6438Z" fill="black" fill-opacity="0.25"/>
<g clip-path="url(#clip0)">
<path d="M103.089 37.1154C96.5025 36.3649 90.577 40.9265 89.8499 47.3071C89.1229 53.6877 93.8702 59.4654 100.457 60.2159C107.043 60.9664 112.969 56.4048 113.696 50.0242C114.423 43.6436 109.675 37.8659 103.089 37.1154ZM100.711 57.9804C95.4086 57.3761 91.5722 52.7071 92.1576 47.57C92.7429 42.433 97.5314 38.7467 102.834 39.3509C108.137 39.9552 111.973 44.6242 111.388 49.7613C110.803 54.8983 106.014 58.5846 100.711 57.9804ZM98.0116 47.4822C98.8625 47.5792 99.6259 46.9915 99.7198 46.1672C99.8138 45.3428 99.2022 44.5985 98.3512 44.5015C97.5003 44.4046 96.7369 44.9922 96.643 45.8166C96.549 46.6409 97.1606 47.3853 98.0116 47.4822ZM105.704 48.3587C106.555 48.4557 107.318 47.868 107.412 47.0437C107.506 46.2193 106.894 45.475 106.043 45.378C105.192 45.281 104.429 45.8687 104.335 46.6931C104.241 47.5174 104.853 48.2618 105.704 48.3587ZM105.511 51.7619C104.378 52.8123 102.826 53.3148 101.263 53.1367C99.7008 52.9587 98.3008 52.1245 97.434 50.8416C97.0795 50.32 96.3556 50.1761 95.8255 50.512C95.29 50.852 95.1474 51.5482 95.4971 52.0692C96.7483 53.9102 98.7591 55.1112 101.009 55.3676C103.259 55.624 105.489 54.9061 107.122 53.3938C107.585 52.9653 107.597 52.2544 107.152 51.8027C106.711 51.3561 105.974 51.3334 105.511 51.7619Z" fill="black"/>
</g>
<defs>
<clipPath id="clip0">
<rect width="24" height="24" fill="white" transform="translate(91.207 35.3838) rotate(6.50057)"/>
</clipPath>
</defs>
</svg>
