<svg width="393" height="96" viewBox="0 0 393 96" fill="none" xmlns="http://www.w3.org/2000/svg">
<path d="M328.333 59.3294L321.164 55.5508L323.404 53.3281H328.333V59.3294Z" fill="#D7B0FF"/>
<path d="M328.333 59.3294L321.164 55.5508L323.404 53.3281H328.333V59.3294Z" fill="black" fill-opacity="0.25"/>
<path d="M371.347 59.3294V53.3281H378.292V55.5508L371.347 59.3294Z" fill="#D7B0FF"/>
<path d="M371.347 59.3294V53.3281H378.292V55.5508L371.347 59.3294Z" fill="black" fill-opacity="0.25"/>
<path d="M371.797 24.4326H328.111V58.8847L349.618 71.7764L371.797 58.8847V24.4326Z" stroke="#D7B0FF"/>
<path d="M371.797 24.4326H328.111V58.8847L349.618 71.7764L371.797 58.8847V24.4326Z" stroke="black" stroke-opacity="0.25"/>
<path d="M349.167 71.5543L321.163 55.5508L320.043 92.0033L322.731 94.6705L376.499 95.7819L378.515 93.5592V55.5508L349.167 71.5543Z" fill="#D7B0FF"/>
<path d="M18.3201 94.2153V73.161H30.1838C52.3533 73.161 66.1344 62.6933 66.1344 43.4233C66.1344 24.8669 52.1136 14.2803 29.2251 14.2803H0.824219V94.3343L18.3201 94.2153ZM29.7045 30.3387C41.2087 30.3387 48.1591 34.6209 48.1591 43.4233C48.1591 52.7015 41.2087 57.1026 29.7045 57.1026H18.3201V30.3387H29.7045Z" fill="#262523"/>
<path d="M107.847 95.8807C115.996 95.8807 122.467 92.669 126.661 87.4351V94.3343H142.839V64.7155C142.839 46.9918 129.178 33.6693 110.603 33.6693C92.3885 33.6693 78.4877 47.8245 78.4877 64.7155C78.4877 81.8444 90.591 95.8807 107.847 95.8807ZM110.603 80.0602C101.856 80.0602 95.5043 73.161 95.5043 64.8345C95.5043 56.5079 101.856 49.6087 110.603 49.6087C119.351 49.6087 125.823 56.5079 125.823 64.8345C125.823 73.161 119.351 80.0602 110.603 80.0602Z" fill="#262523"/>
<path d="M178.893 94.3343V61.147C178.893 54.1289 182.967 49.8466 189.678 49.8466C192.794 49.8466 196.269 50.6793 199.145 52.3446V35.9294C196.149 34.6209 191.955 33.9072 188.12 33.9072C170.504 33.9072 161.876 45.4454 161.876 60.5522V94.3343H178.893Z" fill="#262523"/>
<path d="M245.793 95.9996C249.988 95.9996 255.141 95.048 258.136 93.1448V78.038C255.26 79.8223 250.827 80.8928 247.351 80.8928C241.12 80.8928 237.165 77.0864 237.165 70.5441V49.7277H258.136V35.4536H237.165V20.4657H220.149V35.4536H209.244V49.7277H220.149V71.0199C220.149 85.7698 228.657 95.9996 245.793 95.9996Z" fill="#262523"/>
<path d="M286.053 26.6512C291.805 26.6512 296.479 22.0121 296.479 16.1835C296.479 10.4739 291.805 5.71582 286.053 5.71582C280.301 5.71582 275.508 10.4739 275.508 16.1835C275.508 22.0121 280.301 26.6512 286.053 26.6512ZM277.545 35.4536V94.3343H294.562V35.4536H277.545Z" fill="#262523"/>
<path d="M379.356 54.4789C379.352 54.4747 379.352 54.4705 379.347 54.4663C379.11 54.0924 378.797 53.7731 378.433 53.5126C378.424 53.5084 378.42 53.4999 378.411 53.4957C378.39 53.4789 378.365 53.4663 378.339 53.4495C378.238 53.3823 378.132 53.3151 378.018 53.2562C377.475 52.9663 376.844 52.8067 376.18 52.8067H372.106V23.8527C372.106 23.63 372.017 23.4158 371.86 23.2603C371.703 23.1048 371.483 23.0166 371.263 23.0166H328.054C327.829 23.0166 327.613 23.1048 327.457 23.2603C327.3 23.4158 327.211 23.6343 327.211 23.8527V52.8067H323.137C322.586 52.8067 322.065 52.9201 321.595 53.1176C321.494 53.1596 321.392 53.2058 321.295 53.2562C320.748 53.5462 320.291 53.9579 319.965 54.4705L319.961 54.4789C319.664 54.9579 319.486 55.5252 319.486 56.1218V92.6808C319.486 93.1514 319.596 93.601 319.787 94.0043C320.079 94.6094 320.549 95.1052 321.129 95.4539C321.71 95.7985 322.4 96.0002 323.133 96.0002H376.18C377.158 96.0002 378.06 95.6472 378.725 95.059C379.059 94.7649 379.335 94.4077 379.525 94.0043C379.72 93.601 379.826 93.1514 379.826 92.6808V56.1218C379.834 55.5252 379.656 54.9579 379.356 54.4789ZM372.11 54.4831H376.184C376.582 54.4831 376.942 54.584 377.243 54.7479L372.11 57.7058V54.4831ZM328.896 24.6889H370.42V58.6806L349.66 70.6513L328.896 58.6848V24.6889ZM322.091 54.7352C322.392 54.5756 322.747 54.4831 323.137 54.4831H327.207V57.71L322.07 54.7479C322.078 54.7437 322.087 54.7394 322.091 54.7352ZM378.14 92.6808C378.14 92.8951 378.094 93.0926 378.001 93.2817C377.865 93.5632 377.628 93.8237 377.315 94.0127C377.001 94.2018 376.612 94.3153 376.184 94.3153H323.137C322.565 94.3153 322.065 94.1094 321.714 93.8027C321.54 93.6472 321.405 93.4707 321.316 93.2817C321.227 93.0926 321.176 92.8909 321.176 92.6808V56.1722L327.626 59.8907L349.233 72.3446C349.495 72.4958 349.817 72.4958 350.084 72.3446L371.691 59.8865L378.145 56.168V92.6808H378.14Z" fill="#D7B0FF"/>
<path d="M379.356 54.4789C379.352 54.4747 379.352 54.4705 379.347 54.4663C379.11 54.0924 378.797 53.7731 378.433 53.5126C378.424 53.5084 378.42 53.4999 378.411 53.4957C378.39 53.4789 378.365 53.4663 378.339 53.4495C378.238 53.3823 378.132 53.3151 378.018 53.2562C377.475 52.9663 376.844 52.8067 376.18 52.8067H372.106V23.8527C372.106 23.63 372.017 23.4158 371.86 23.2603C371.703 23.1048 371.483 23.0166 371.263 23.0166H328.054C327.829 23.0166 327.613 23.1048 327.457 23.2603C327.3 23.4158 327.211 23.6343 327.211 23.8527V52.8067H323.137C322.586 52.8067 322.065 52.9201 321.595 53.1176C321.494 53.1596 321.392 53.2058 321.295 53.2562C320.748 53.5462 320.291 53.9579 319.965 54.4705L319.961 54.4789C319.664 54.9579 319.486 55.5252 319.486 56.1218V92.6808C319.486 93.1514 319.596 93.601 319.787 94.0043C320.079 94.6094 320.549 95.1052 321.129 95.4539C321.71 95.7985 322.4 96.0002 323.133 96.0002H376.18C377.158 96.0002 378.06 95.6472 378.725 95.059C379.059 94.7649 379.335 94.4077 379.525 94.0043C379.72 93.601 379.826 93.1514 379.826 92.6808V56.1218C379.834 55.5252 379.656 54.9579 379.356 54.4789ZM372.11 54.4831H376.184C376.582 54.4831 376.942 54.584 377.243 54.7479L372.11 57.7058V54.4831ZM328.896 24.6889H370.42V58.6806L349.66 70.6513L328.896 58.6848V24.6889ZM322.091 54.7352C322.392 54.5756 322.747 54.4831 323.137 54.4831H327.207V57.71L322.07 54.7479C322.078 54.7437 322.087 54.7394 322.091 54.7352ZM378.14 92.6808C378.14 92.8951 378.094 93.0926 378.001 93.2817C377.865 93.5632 377.628 93.8237 377.315 94.0127C377.001 94.2018 376.612 94.3153 376.184 94.3153H323.137C322.565 94.3153 322.065 94.1094 321.714 93.8027C321.54 93.6472 321.405 93.4707 321.316 93.2817C321.227 93.0926 321.176 92.8909 321.176 92.6808V56.1722L327.626 59.8907L349.233 72.3446C349.495 72.4958 349.817 72.4958 350.084 72.3446L371.691 59.8865L378.145 56.168V92.6808H378.14Z" fill="black" fill-opacity="0.25"/>
<path d="M376.721 20.0476C376.443 20.2775 376.061 20.3847 375.695 20.3233C374.964 20.2003 374.51 19.5356 374.603 18.8353C375.201 15.1191 379.262 9.78891 383.637 6.95342C386.399 5.19084 389.001 4.54771 391.176 5.14151C391.871 5.34624 392.294 6.03651 392.087 6.72654C391.881 7.41657 391.186 7.83549 390.49 7.63075C389.068 7.24683 387.105 7.77773 385.038 9.1214C381.333 11.5073 377.644 16.2191 377.138 19.2349C377.107 19.5723 376.937 19.8688 376.721 20.0476Z" fill="#D7B0FF"/>
<path d="M325.456 20.7288C325.357 20.8123 325.262 20.8506 325.142 20.9097C324.596 21.118 323.995 20.8655 323.785 20.324C321.925 15.6358 317.686 11.3547 312.981 9.45681C312.446 9.23234 312.173 8.61743 312.399 8.0873C312.626 7.55716 313.246 7.28612 313.78 7.51059C319.086 9.66098 323.67 14.243 325.757 19.5425C325.929 19.9897 325.777 20.4571 325.456 20.7288Z" fill="#D7B0FF"/>
<path d="M359.009 11.5754C358.365 11.5754 357.761 11.0967 357.721 10.4186L356.795 1.44404C356.715 0.726068 357.238 0.087874 357.963 0.00809973C358.687 -0.0716745 359.331 0.446858 359.411 1.16483L360.337 10.1394C360.418 10.8574 359.894 11.4956 359.17 11.5754C359.089 11.5754 359.049 11.5754 359.009 11.5754Z" fill="#D7B0FF"/>
<path d="M343.955 50.6952C343.876 50.6952 343.798 50.6741 343.728 50.6318C343.666 50.5936 343.616 50.5411 343.582 50.48C343.547 50.4184 343.529 50.3496 343.529 50.2801V38.965C343.529 38.8252 343.602 38.6914 343.727 38.6142C343.79 38.5764 343.861 38.5546 343.935 38.5512C344.01 38.5479 344.083 38.5633 344.149 38.5957C344.15 38.5958 344.15 38.596 344.15 38.5961L355.552 44.2524C355.553 44.2525 355.553 44.2526 355.553 44.2526C355.624 44.2881 355.683 44.342 355.724 44.4074C355.764 44.4727 355.785 44.5473 355.785 44.6229C355.785 44.6984 355.764 44.773 355.724 44.8384C355.683 44.9037 355.624 44.9576 355.553 44.9931C355.553 44.9932 355.553 44.9932 355.552 44.9933L344.148 50.6509C344.091 50.6793 344.022 50.6952 343.955 50.6952Z" fill="#93E9BE"/>
<path d="M343.955 50.6952C343.876 50.6952 343.798 50.6741 343.728 50.6318C343.666 50.5936 343.616 50.5411 343.582 50.48C343.547 50.4184 343.529 50.3496 343.529 50.2801V38.965C343.529 38.8252 343.602 38.6914 343.727 38.6142C343.79 38.5764 343.861 38.5546 343.935 38.5512C344.01 38.5479 344.083 38.5633 344.149 38.5957C344.15 38.5958 344.15 38.596 344.15 38.5961L355.552 44.2524C355.553 44.2525 355.553 44.2526 355.553 44.2526C355.624 44.2881 355.683 44.342 355.724 44.4074C355.764 44.4727 355.785 44.5473 355.785 44.6229C355.785 44.6984 355.764 44.773 355.724 44.8384C355.683 44.9037 355.624 44.9576 355.553 44.9931C355.553 44.9932 355.553 44.9932 355.552 44.9933L344.148 50.6509C344.091 50.6793 344.022 50.6952 343.955 50.6952Z" stroke="#93E9BE" stroke-width="2"/>
<path d="M343.955 50.6952C343.876 50.6952 343.798 50.6741 343.728 50.6318C343.666 50.5936 343.616 50.5411 343.582 50.48C343.547 50.4184 343.529 50.3496 343.529 50.2801V38.965C343.529 38.8252 343.602 38.6914 343.727 38.6142C343.79 38.5764 343.861 38.5546 343.935 38.5512C344.01 38.5479 344.083 38.5633 344.149 38.5957C344.15 38.5958 344.15 38.596 344.15 38.5961L355.552 44.2524C355.553 44.2525 355.553 44.2526 355.553 44.2526C355.624 44.2881 355.683 44.342 355.724 44.4074C355.764 44.4727 355.785 44.5473 355.785 44.6229C355.785 44.6984 355.764 44.773 355.724 44.8384C355.683 44.9037 355.624 44.9576 355.553 44.9931C355.553 44.9932 355.553 44.9932 355.552 44.9933L344.148 50.6509C344.091 50.6793 344.022 50.6952 343.955 50.6952Z" stroke="black" stroke-opacity="0.25" stroke-width="2"/>
<path d="M311.911 44.3845L308.301 39.9764L311.911 35.5684L317.742 39.9764L311.911 44.3845Z" fill="#93E9BE"/>
<path d="M312.262 44.4808L310.768 44.3199L307.326 40.1365L308.95 38.8171L312.392 43.0005L312.262 44.4808ZM310.768 44.3199L312.392 43.0005L312.425 43.0327L312.457 43.0649L312.489 43.0971L312.522 43.1292L312.554 43.1614L312.587 43.1936L312.619 43.2258V43.2901V43.3545V43.4189V43.4832V43.5476V43.6119V43.6763V43.7407V43.805V43.8694V43.9337V43.9981V44.0625V44.0946L312.587 44.1268L312.554 44.159L312.522 44.1912L312.489 44.2234L312.457 44.2556L312.425 44.2877L312.392 44.3199L312.36 44.3521L312.327 44.3843L312.295 44.4165L312.262 44.4486L312.23 44.4808L312.165 44.5452L312.132 44.5774L312.1 44.6095L312.067 44.6417L312.035 44.6739L312.002 44.7061H311.937H311.873H311.808H311.743H311.678H311.613H311.548H311.483H311.418H311.353H311.288H311.223H311.158H311.126L311.093 44.6739L311.061 44.6417L311.028 44.6095L310.996 44.5774L310.963 44.5452L310.931 44.513L310.898 44.4808L310.866 44.4486L310.833 44.4165L310.801 44.3843L310.768 44.3199ZM317.23 39.1389L317.068 40.6192L312.262 44.513L310.931 42.904L315.737 38.978L317.23 39.1389ZM317.068 40.587L315.737 38.978L315.769 38.9458L315.802 38.9137L315.834 38.8815L315.867 38.8493L315.899 38.8171L315.932 38.7849L315.964 38.7527H316.029H316.094H316.159H316.224H316.289H316.354H316.419H316.484H316.548H316.613H316.678H316.743H316.808H316.841L316.873 38.7849L316.906 38.8171L316.938 38.8493L316.971 38.8815L317.003 38.9137L317.036 38.9458L317.068 38.978L317.101 39.0102L317.133 39.0424L317.165 39.0746L317.198 39.1067L317.23 39.1389L317.263 39.1711L317.295 39.2033L317.328 39.2355L317.36 39.2676L317.393 39.2998L317.425 39.332V39.3964V39.4607V39.5251V39.5894V39.6538V39.7182V39.7825V39.8469V39.9112V39.9756V40.04V40.1043V40.1687V40.2009L317.393 40.233L317.36 40.2652L317.328 40.2974L317.295 40.3296L317.263 40.3618L317.23 40.3939L317.198 40.4261L317.165 40.4583L317.133 40.4905L317.101 40.5227L317.068 40.587ZM312.295 34.7946L313.788 34.9555L317.23 39.1389L315.607 40.4583L312.165 36.2749L312.295 34.7946ZM313.788 34.9233L312.165 36.2427L312.132 36.2105L312.1 36.1783L312.067 36.1462L312.035 36.114L312.002 36.0818L311.97 36.0496L311.937 36.0174V35.9531V35.8887V35.8244V35.76V35.6956V35.6313V35.5669V35.5026V35.4382V35.3738V35.3095V35.2451V35.1808V35.1486L311.97 35.1164L312.002 35.0842L312.035 35.052L312.067 35.0199L312.1 34.9877L312.132 34.9555L312.165 34.9233V34.8911L312.197 34.859L312.23 34.8268L312.262 34.7946L312.295 34.7624L312.327 34.7302L312.36 34.6981L312.392 34.6659L312.425 34.6337L312.457 34.6015L312.489 34.5693H312.554H312.619H312.684H312.749H312.814H312.879H312.944H313.009H313.074H313.139H313.204H313.269H313.301H313.334L313.366 34.6015L313.399 34.6337L313.431 34.6659L313.464 34.6981L313.496 34.7302L313.529 34.7624L313.561 34.7946L313.594 34.8268L313.626 34.859L313.658 34.8911L313.788 34.9233ZM307.326 40.1365L307.489 38.6562L312.295 34.7624L313.626 36.3714L308.82 40.2652L307.326 40.1365ZM307.489 38.6562L308.82 40.2652L308.788 40.2974L308.755 40.3296L308.723 40.3618L308.69 40.3939L308.658 40.4261L308.625 40.4583L308.593 40.4905H308.528H308.463H308.398H308.333H308.268H308.203H308.138H308.073H308.008H307.943H307.878H307.814H307.781H307.749L307.716 40.4583L307.684 40.4261L307.651 40.3939L307.619 40.3618L307.586 40.3296L307.554 40.2974L307.521 40.2652L307.489 40.233L307.456 40.2009L307.424 40.1687L307.391 40.1365L307.359 40.1043L307.326 40.0721L307.294 40.04L307.261 40.0078L307.229 39.9756L307.197 39.9434L307.164 39.9112V39.8469V39.7825V39.7182V39.6538V39.5894V39.5251V39.4607V39.3964V39.332V39.2676V39.2033V39.1389V39.1067V39.0746L307.197 39.0424L307.229 39.0102L307.261 38.978L307.294 38.9458L307.326 38.9137L307.359 38.8815L307.391 38.8493L307.424 38.8171L307.456 38.7849L307.489 38.7527V38.6562Z" fill="#D7B0FF"/>
<path d="M312.262 44.4808L310.768 44.3199L307.326 40.1365L308.95 38.8171L312.392 43.0005L312.262 44.4808ZM310.768 44.3199L312.392 43.0005L312.425 43.0327L312.457 43.0649L312.489 43.0971L312.522 43.1292L312.554 43.1614L312.587 43.1936L312.619 43.2258V43.2901V43.3545V43.4189V43.4832V43.5476V43.6119V43.6763V43.7407V43.805V43.8694V43.9337V43.9981V44.0625V44.0946L312.587 44.1268L312.554 44.159L312.522 44.1912L312.489 44.2234L312.457 44.2556L312.425 44.2877L312.392 44.3199L312.36 44.3521L312.327 44.3843L312.295 44.4165L312.262 44.4486L312.23 44.4808L312.165 44.5452L312.132 44.5774L312.1 44.6095L312.067 44.6417L312.035 44.6739L312.002 44.7061H311.937H311.873H311.808H311.743H311.678H311.613H311.548H311.483H311.418H311.353H311.288H311.223H311.158H311.126L311.093 44.6739L311.061 44.6417L311.028 44.6095L310.996 44.5774L310.963 44.5452L310.931 44.513L310.898 44.4808L310.866 44.4486L310.833 44.4165L310.801 44.3843L310.768 44.3199ZM317.23 39.1389L317.068 40.6192L312.262 44.513L310.931 42.904L315.737 38.978L317.23 39.1389ZM317.068 40.587L315.737 38.978L315.769 38.9458L315.802 38.9137L315.834 38.8815L315.867 38.8493L315.899 38.8171L315.932 38.7849L315.964 38.7527H316.029H316.094H316.159H316.224H316.289H316.354H316.419H316.484H316.548H316.613H316.678H316.743H316.808H316.841L316.873 38.7849L316.906 38.8171L316.938 38.8493L316.971 38.8815L317.003 38.9137L317.036 38.9458L317.068 38.978L317.101 39.0102L317.133 39.0424L317.165 39.0746L317.198 39.1067L317.23 39.1389L317.263 39.1711L317.295 39.2033L317.328 39.2355L317.36 39.2676L317.393 39.2998L317.425 39.332V39.3964V39.4607V39.5251V39.5894V39.6538V39.7182V39.7825V39.8469V39.9112V39.9756V40.04V40.1043V40.1687V40.2009L317.393 40.233L317.36 40.2652L317.328 40.2974L317.295 40.3296L317.263 40.3618L317.23 40.3939L317.198 40.4261L317.165 40.4583L317.133 40.4905L317.101 40.5227L317.068 40.587ZM312.295 34.7946L313.788 34.9555L317.23 39.1389L315.607 40.4583L312.165 36.2749L312.295 34.7946ZM313.788 34.9233L312.165 36.2427L312.132 36.2105L312.1 36.1783L312.067 36.1462L312.035 36.114L312.002 36.0818L311.97 36.0496L311.937 36.0174V35.9531V35.8887V35.8244V35.76V35.6956V35.6313V35.5669V35.5026V35.4382V35.3738V35.3095V35.2451V35.1808V35.1486L311.97 35.1164L312.002 35.0842L312.035 35.052L312.067 35.0199L312.1 34.9877L312.132 34.9555L312.165 34.9233V34.8911L312.197 34.859L312.23 34.8268L312.262 34.7946L312.295 34.7624L312.327 34.7302L312.36 34.6981L312.392 34.6659L312.425 34.6337L312.457 34.6015L312.489 34.5693H312.554H312.619H312.684H312.749H312.814H312.879H312.944H313.009H313.074H313.139H313.204H313.269H313.301H313.334L313.366 34.6015L313.399 34.6337L313.431 34.6659L313.464 34.6981L313.496 34.7302L313.529 34.7624L313.561 34.7946L313.594 34.8268L313.626 34.859L313.658 34.8911L313.788 34.9233ZM307.326 40.1365L307.489 38.6562L312.295 34.7624L313.626 36.3714L308.82 40.2652L307.326 40.1365ZM307.489 38.6562L308.82 40.2652L308.788 40.2974L308.755 40.3296L308.723 40.3618L308.69 40.3939L308.658 40.4261L308.625 40.4583L308.593 40.4905H308.528H308.463H308.398H308.333H308.268H308.203H308.138H308.073H308.008H307.943H307.878H307.814H307.781H307.749L307.716 40.4583L307.684 40.4261L307.651 40.3939L307.619 40.3618L307.586 40.3296L307.554 40.2974L307.521 40.2652L307.489 40.233L307.456 40.2009L307.424 40.1687L307.391 40.1365L307.359 40.1043L307.326 40.0721L307.294 40.04L307.261 40.0078L307.229 39.9756L307.197 39.9434L307.164 39.9112V39.8469V39.7825V39.7182V39.6538V39.5894V39.5251V39.4607V39.3964V39.332V39.2676V39.2033V39.1389V39.1067V39.0746L307.197 39.0424L307.229 39.0102L307.261 38.978L307.294 38.9458L307.326 38.9137L307.359 38.8815L307.391 38.8493L307.424 38.8171L307.456 38.7849L307.489 38.7527V38.6562Z" fill="black" fill-opacity="0.25"/>
<path d="M341.393 15.6033L337.783 11.1952L341.393 6.78711L347.224 11.1952L341.393 15.6033Z" fill="#93E9BE"/>
<path d="M341.745 15.6996L340.251 15.5387L336.809 11.3552L338.432 10.0359L341.875 14.2193L341.745 15.6996ZM340.251 15.5387L341.875 14.2193L341.907 14.2515L341.939 14.2836L341.972 14.3158L342.004 14.348L342.037 14.3802L342.069 14.4124L342.102 14.4445V14.5089V14.5733V14.6376V14.702V14.7663V14.8307V14.8951V14.9594V15.0238V15.0881V15.1525V15.2169V15.2812V15.3134L342.069 15.3456L342.037 15.3778L342.004 15.4099L341.972 15.4421L341.939 15.4743L341.907 15.5065L341.875 15.5387L341.842 15.5708L341.81 15.603L341.777 15.6352L341.745 15.6674L341.712 15.6996L341.647 15.7639L341.615 15.7961L341.582 15.8283L341.55 15.8605L341.517 15.8926L341.485 15.9248H341.42H341.355H341.29H341.225H341.16H341.095H341.03H340.965H340.9H340.835H340.77H340.706H340.641H340.608L340.576 15.8926L340.543 15.8605L340.511 15.8283L340.478 15.7961L340.446 15.7639L340.413 15.7317L340.381 15.6996L340.348 15.6674L340.316 15.6352L340.283 15.603L340.251 15.5387ZM346.713 10.3577L346.551 11.8379L341.745 15.7317L340.413 14.1227L345.219 10.1968L346.713 10.3577ZM346.551 11.8058L345.219 10.1968L345.252 10.1646L345.284 10.1324L345.317 10.1002L345.349 10.068L345.382 10.0359L345.414 10.0037L345.446 9.9715H345.511H345.576H345.641H345.706H345.771H345.836H345.901H345.966H346.031H346.096H346.161H346.226H346.291H346.323L346.356 10.0037L346.388 10.0359L346.421 10.068L346.453 10.1002L346.486 10.1324L346.518 10.1646L346.551 10.1968L346.583 10.2289L346.615 10.2611L346.648 10.2933L346.68 10.3255L346.713 10.3577L346.745 10.3898L346.778 10.422L346.81 10.4542L346.843 10.4864L346.875 10.5186L346.908 10.5507V10.6151V10.6795V10.7438V10.8082V10.8725V10.9369V11.0013V11.0656V11.13V11.1943V11.2587V11.3231V11.3874V11.4196L346.875 11.4518L346.843 11.484L346.81 11.5161L346.778 11.5483L346.745 11.5805L346.713 11.6127L346.68 11.6449L346.648 11.677L346.615 11.7092L346.583 11.7414L346.551 11.8058ZM341.777 6.01335L343.271 6.17425L346.713 10.3577L345.089 11.677L341.647 7.49363L341.777 6.01335ZM343.271 6.14207L341.647 7.46145L341.615 7.42927L341.582 7.39709L341.55 7.36491L341.517 7.33273L341.485 7.30055L341.452 7.26837L341.42 7.23619V7.17183V7.10747V7.04311V6.97875V6.91439V6.85003V6.78567V6.72131V6.65695V6.59259V6.52823V6.46387V6.39951V6.36733L341.452 6.33515L341.485 6.30297L341.517 6.27079L341.55 6.23861L341.582 6.20643L341.615 6.17425L341.647 6.14207V6.10989L341.68 6.0777L341.712 6.04553L341.745 6.01335L341.777 5.98117L341.81 5.94899L341.842 5.9168L341.875 5.88463L341.907 5.85245L341.939 5.82027L341.972 5.78809H342.037H342.102H342.167H342.232H342.297H342.362H342.427H342.491H342.556H342.621H342.686H342.751H342.784H342.816L342.849 5.82027L342.881 5.85245L342.914 5.88463L342.946 5.9168L342.979 5.94899L343.011 5.98117L343.044 6.01335L343.076 6.04553L343.108 6.0777L343.141 6.10989L343.271 6.14207ZM336.809 11.3552L336.971 9.87496L341.777 5.98117L343.108 7.59017L338.303 11.484L336.809 11.3552ZM336.971 9.87496L338.303 11.484L338.27 11.5161L338.238 11.5483L338.205 11.5805L338.173 11.6127L338.14 11.6449L338.108 11.677L338.075 11.7092H338.01H337.945H337.88H337.815H337.751H337.686H337.621H337.556H337.491H337.426H337.361H337.296H337.263H337.231L337.199 11.677L337.166 11.6449L337.134 11.6127L337.101 11.5805L337.069 11.5483L337.036 11.5161L337.004 11.484L336.971 11.4518L336.939 11.4196L336.906 11.3874L336.874 11.3552L336.841 11.3231L336.809 11.2909L336.776 11.2587L336.744 11.2265L336.711 11.1943L336.679 11.1622L336.646 11.13V11.0656V11.0013V10.9369V10.8725V10.8082V10.7438V10.6795V10.6151V10.5507V10.4864V10.422V10.3577V10.3255V10.2933L336.679 10.2611L336.711 10.2289L336.744 10.1968L336.776 10.1646L336.809 10.1324L336.841 10.1002L336.874 10.068L336.906 10.0359L336.939 10.0037L336.971 9.9715V9.87496Z" fill="#D7B0FF"/>
<path d="M341.745 15.6996L340.251 15.5387L336.809 11.3552L338.432 10.0359L341.875 14.2193L341.745 15.6996ZM340.251 15.5387L341.875 14.2193L341.907 14.2515L341.939 14.2836L341.972 14.3158L342.004 14.348L342.037 14.3802L342.069 14.4124L342.102 14.4445V14.5089V14.5733V14.6376V14.702V14.7663V14.8307V14.8951V14.9594V15.0238V15.0881V15.1525V15.2169V15.2812V15.3134L342.069 15.3456L342.037 15.3778L342.004 15.4099L341.972 15.4421L341.939 15.4743L341.907 15.5065L341.875 15.5387L341.842 15.5708L341.81 15.603L341.777 15.6352L341.745 15.6674L341.712 15.6996L341.647 15.7639L341.615 15.7961L341.582 15.8283L341.55 15.8605L341.517 15.8926L341.485 15.9248H341.42H341.355H341.29H341.225H341.16H341.095H341.03H340.965H340.9H340.835H340.77H340.706H340.641H340.608L340.576 15.8926L340.543 15.8605L340.511 15.8283L340.478 15.7961L340.446 15.7639L340.413 15.7317L340.381 15.6996L340.348 15.6674L340.316 15.6352L340.283 15.603L340.251 15.5387ZM346.713 10.3577L346.551 11.8379L341.745 15.7317L340.413 14.1227L345.219 10.1968L346.713 10.3577ZM346.551 11.8058L345.219 10.1968L345.252 10.1646L345.284 10.1324L345.317 10.1002L345.349 10.068L345.382 10.0359L345.414 10.0037L345.446 9.9715H345.511H345.576H345.641H345.706H345.771H345.836H345.901H345.966H346.031H346.096H346.161H346.226H346.291H346.323L346.356 10.0037L346.388 10.0359L346.421 10.068L346.453 10.1002L346.486 10.1324L346.518 10.1646L346.551 10.1968L346.583 10.2289L346.615 10.2611L346.648 10.2933L346.68 10.3255L346.713 10.3577L346.745 10.3898L346.778 10.422L346.81 10.4542L346.843 10.4864L346.875 10.5186L346.908 10.5507V10.6151V10.6795V10.7438V10.8082V10.8725V10.9369V11.0013V11.0656V11.13V11.1943V11.2587V11.3231V11.3874V11.4196L346.875 11.4518L346.843 11.484L346.81 11.5161L346.778 11.5483L346.745 11.5805L346.713 11.6127L346.68 11.6449L346.648 11.677L346.615 11.7092L346.583 11.7414L346.551 11.8058ZM341.777 6.01335L343.271 6.17425L346.713 10.3577L345.089 11.677L341.647 7.49363L341.777 6.01335ZM343.271 6.14207L341.647 7.46145L341.615 7.42927L341.582 7.39709L341.55 7.36491L341.517 7.33273L341.485 7.30055L341.452 7.26837L341.42 7.23619V7.17183V7.10747V7.04311V6.97875V6.91439V6.85003V6.78567V6.72131V6.65695V6.59259V6.52823V6.46387V6.39951V6.36733L341.452 6.33515L341.485 6.30297L341.517 6.27079L341.55 6.23861L341.582 6.20643L341.615 6.17425L341.647 6.14207V6.10989L341.68 6.0777L341.712 6.04553L341.745 6.01335L341.777 5.98117L341.81 5.94899L341.842 5.9168L341.875 5.88463L341.907 5.85245L341.939 5.82027L341.972 5.78809H342.037H342.102H342.167H342.232H342.297H342.362H342.427H342.491H342.556H342.621H342.686H342.751H342.784H342.816L342.849 5.82027L342.881 5.85245L342.914 5.88463L342.946 5.9168L342.979 5.94899L343.011 5.98117L343.044 6.01335L343.076 6.04553L343.108 6.0777L343.141 6.10989L343.271 6.14207ZM336.809 11.3552L336.971 9.87496L341.777 5.98117L343.108 7.59017L338.303 11.484L336.809 11.3552ZM336.971 9.87496L338.303 11.484L338.27 11.5161L338.238 11.5483L338.205 11.5805L338.173 11.6127L338.14 11.6449L338.108 11.677L338.075 11.7092H338.01H337.945H337.88H337.815H337.751H337.686H337.621H337.556H337.491H337.426H337.361H337.296H337.263H337.231L337.199 11.677L337.166 11.6449L337.134 11.6127L337.101 11.5805L337.069 11.5483L337.036 11.5161L337.004 11.484L336.971 11.4518L336.939 11.4196L336.906 11.3874L336.874 11.3552L336.841 11.3231L336.809 11.2909L336.776 11.2587L336.744 11.2265L336.711 11.1943L336.679 11.1622L336.646 11.13V11.0656V11.0013V10.9369V10.8725V10.8082V10.7438V10.6795V10.6151V10.5507V10.4864V10.422V10.3577V10.3255V10.2933L336.679 10.2611L336.711 10.2289L336.744 10.1968L336.776 10.1646L336.809 10.1324L336.841 10.1002L336.874 10.068L336.906 10.0359L336.939 10.0037L336.971 9.9715V9.87496Z" fill="black" fill-opacity="0.25"/>
<path d="M386.993 32.8318L383.383 28.4237L386.993 24.0156L392.824 28.4237L386.993 32.8318Z" fill="#93E9BE"/>
<path d="M387.344 32.9281L385.85 32.7672L382.408 28.5838L384.032 27.2644L387.474 31.4478L387.344 32.9281ZM385.85 32.7672L387.474 31.4478L387.507 31.48L387.539 31.5122L387.572 31.5443L387.604 31.5765L387.636 31.6087L387.669 31.6409L387.701 31.6731V31.7374V31.8018V31.8661V31.9305V31.9949V32.0592V32.1236V32.1879V32.2523V32.3167V32.381V32.4454V32.5097V32.5419L387.669 32.5741L387.636 32.6063L387.604 32.6385L387.572 32.6706L387.539 32.7028L387.507 32.735L387.474 32.7672L387.442 32.7994L387.409 32.8315L387.377 32.8637L387.344 32.8959L387.312 32.9281L387.247 32.9924L387.214 33.0246L387.182 33.0568L387.149 33.089L387.117 33.1212L387.084 33.1533H387.019H386.955H386.89H386.825H386.76H386.695H386.63H386.565H386.5H386.435H386.37H386.305H386.24H386.208L386.175 33.1212L386.143 33.089L386.11 33.0568L386.078 33.0246L386.045 32.9924L386.013 32.9603L385.98 32.9281L385.948 32.8959L385.915 32.8637L385.883 32.8315L385.85 32.7672ZM392.312 27.5862L392.15 29.0665L387.344 32.9603L386.013 31.3513L390.819 27.4253L392.312 27.5862ZM392.15 29.0343L390.819 27.4253L390.851 27.3931L390.884 27.3609L390.916 27.3287L390.949 27.2966L390.981 27.2644L391.014 27.2322L391.046 27.2H391.111H391.176H391.241H391.306H391.371H391.436H391.501H391.566H391.631H391.695H391.76H391.825H391.89H391.923L391.955 27.2322L391.988 27.2644L392.02 27.2966L392.053 27.3287L392.085 27.3609L392.118 27.3931L392.15 27.4253L392.183 27.4575L392.215 27.4896L392.247 27.5218L392.28 27.554L392.312 27.5862L392.345 27.6184L392.377 27.6505L392.41 27.6827L392.442 27.7149L392.475 27.7471L392.507 27.7793V27.8436V27.908V27.9723V28.0367V28.1011V28.1654V28.2298V28.2941V28.3585V28.4229V28.4872V28.5516V28.6159V28.6481L392.475 28.6803L392.442 28.7125L392.41 28.7447L392.377 28.7768L392.345 28.809L392.312 28.8412L392.28 28.8734L392.247 28.9056L392.215 28.9377L392.183 28.9699L392.15 29.0343ZM387.377 23.2419L388.87 23.4028L392.312 27.5862L390.689 28.9056L387.247 24.7221L387.377 23.2419ZM388.87 23.3706L387.247 24.69L387.214 24.6578L387.182 24.6256L387.149 24.5934L387.117 24.5612L387.084 24.5291L387.052 24.4969L387.019 24.4647V24.4003V24.336V24.2716V24.2073V24.1429V24.0785V24.0142V23.9498V23.8855V23.8211V23.7567V23.6924V23.628V23.5958L387.052 23.5637L387.084 23.5315L387.117 23.4993L387.149 23.4671L387.182 23.4349L387.214 23.4028L387.247 23.3706V23.3384L387.279 23.3062L387.312 23.274L387.344 23.2419L387.377 23.2097L387.409 23.1775L387.442 23.1453L387.474 23.1131L387.507 23.081L387.539 23.0488L387.572 23.0166H387.636H387.701H387.766H387.831H387.896H387.961H388.026H388.091H388.156H388.221H388.286H388.351H388.383H388.416L388.448 23.0488L388.481 23.081L388.513 23.1131L388.546 23.1453L388.578 23.1775L388.611 23.2097L388.643 23.2419L388.676 23.274L388.708 23.3062L388.741 23.3384L388.87 23.3706ZM382.408 28.5838L382.571 27.1035L387.377 23.2097L388.708 24.8187L383.902 28.7125L382.408 28.5838ZM382.571 27.1035L383.902 28.7125L383.87 28.7447L383.837 28.7768L383.805 28.809L383.772 28.8412L383.74 28.8734L383.707 28.9056L383.675 28.9377H383.61H383.545H383.48H383.415H383.35H383.285H383.22H383.155H383.09H383.025H382.96H382.896H382.863H382.831L382.798 28.9056L382.766 28.8734L382.733 28.8412L382.701 28.809L382.668 28.7768L382.636 28.7447L382.603 28.7125L382.571 28.6803L382.538 28.6481L382.506 28.6159L382.473 28.5838L382.441 28.5516L382.408 28.5194L382.376 28.4872L382.344 28.455L382.311 28.4229L382.279 28.3907L382.246 28.3585V28.2941V28.2298V28.1654V28.1011V28.0367V27.9723V27.908V27.8436V27.7793V27.7149V27.6505V27.5862V27.554V27.5218L382.279 27.4896L382.311 27.4575L382.344 27.4253L382.376 27.3931L382.408 27.3609L382.441 27.3287L382.473 27.2966L382.506 27.2644L382.538 27.2322L382.571 27.2V27.1035Z" fill="#D7B0FF"/>
<path d="M387.344 32.9281L385.85 32.7672L382.408 28.5838L384.032 27.2644L387.474 31.4478L387.344 32.9281ZM385.85 32.7672L387.474 31.4478L387.507 31.48L387.539 31.5122L387.572 31.5443L387.604 31.5765L387.636 31.6087L387.669 31.6409L387.701 31.6731V31.7374V31.8018V31.8661V31.9305V31.9949V32.0592V32.1236V32.1879V32.2523V32.3167V32.381V32.4454V32.5097V32.5419L387.669 32.5741L387.636 32.6063L387.604 32.6385L387.572 32.6706L387.539 32.7028L387.507 32.735L387.474 32.7672L387.442 32.7994L387.409 32.8315L387.377 32.8637L387.344 32.8959L387.312 32.9281L387.247 32.9924L387.214 33.0246L387.182 33.0568L387.149 33.089L387.117 33.1212L387.084 33.1533H387.019H386.955H386.89H386.825H386.76H386.695H386.63H386.565H386.5H386.435H386.37H386.305H386.24H386.208L386.175 33.1212L386.143 33.089L386.11 33.0568L386.078 33.0246L386.045 32.9924L386.013 32.9603L385.98 32.9281L385.948 32.8959L385.915 32.8637L385.883 32.8315L385.85 32.7672ZM392.312 27.5862L392.15 29.0665L387.344 32.9603L386.013 31.3513L390.819 27.4253L392.312 27.5862ZM392.15 29.0343L390.819 27.4253L390.851 27.3931L390.884 27.3609L390.916 27.3287L390.949 27.2966L390.981 27.2644L391.014 27.2322L391.046 27.2H391.111H391.176H391.241H391.306H391.371H391.436H391.501H391.566H391.631H391.695H391.76H391.825H391.89H391.923L391.955 27.2322L391.988 27.2644L392.02 27.2966L392.053 27.3287L392.085 27.3609L392.118 27.3931L392.15 27.4253L392.183 27.4575L392.215 27.4896L392.247 27.5218L392.28 27.554L392.312 27.5862L392.345 27.6184L392.377 27.6505L392.41 27.6827L392.442 27.7149L392.475 27.7471L392.507 27.7793V27.8436V27.908V27.9723V28.0367V28.1011V28.1654V28.2298V28.2941V28.3585V28.4229V28.4872V28.5516V28.6159V28.6481L392.475 28.6803L392.442 28.7125L392.41 28.7447L392.377 28.7768L392.345 28.809L392.312 28.8412L392.28 28.8734L392.247 28.9056L392.215 28.9377L392.183 28.9699L392.15 29.0343ZM387.377 23.2419L388.87 23.4028L392.312 27.5862L390.689 28.9056L387.247 24.7221L387.377 23.2419ZM388.87 23.3706L387.247 24.69L387.214 24.6578L387.182 24.6256L387.149 24.5934L387.117 24.5612L387.084 24.5291L387.052 24.4969L387.019 24.4647V24.4003V24.336V24.2716V24.2073V24.1429V24.0785V24.0142V23.9498V23.8855V23.8211V23.7567V23.6924V23.628V23.5958L387.052 23.5637L387.084 23.5315L387.117 23.4993L387.149 23.4671L387.182 23.4349L387.214 23.4028L387.247 23.3706V23.3384L387.279 23.3062L387.312 23.274L387.344 23.2419L387.377 23.2097L387.409 23.1775L387.442 23.1453L387.474 23.1131L387.507 23.081L387.539 23.0488L387.572 23.0166H387.636H387.701H387.766H387.831H387.896H387.961H388.026H388.091H388.156H388.221H388.286H388.351H388.383H388.416L388.448 23.0488L388.481 23.081L388.513 23.1131L388.546 23.1453L388.578 23.1775L388.611 23.2097L388.643 23.2419L388.676 23.274L388.708 23.3062L388.741 23.3384L388.87 23.3706ZM382.408 28.5838L382.571 27.1035L387.377 23.2097L388.708 24.8187L383.902 28.7125L382.408 28.5838ZM382.571 27.1035L383.902 28.7125L383.87 28.7447L383.837 28.7768L383.805 28.809L383.772 28.8412L383.74 28.8734L383.707 28.9056L383.675 28.9377H383.61H383.545H383.48H383.415H383.35H383.285H383.22H383.155H383.09H383.025H382.96H382.896H382.863H382.831L382.798 28.9056L382.766 28.8734L382.733 28.8412L382.701 28.809L382.668 28.7768L382.636 28.7447L382.603 28.7125L382.571 28.6803L382.538 28.6481L382.506 28.6159L382.473 28.5838L382.441 28.5516L382.408 28.5194L382.376 28.4872L382.344 28.455L382.311 28.4229L382.279 28.3907L382.246 28.3585V28.2941V28.2298V28.1654V28.1011V28.0367V27.9723V27.908V27.8436V27.7793V27.7149V27.6505V27.5862V27.554V27.5218L382.279 27.4896L382.311 27.4575L382.344 27.4253L382.376 27.3931L382.408 27.3609L382.441 27.3287L382.473 27.2966L382.506 27.2644L382.538 27.2322L382.571 27.2V27.1035Z" fill="black" fill-opacity="0.25"/>
</svg>
